<mxfile host="Electron" agent="Mozilla/5.0 (Windows NT 10.0; Win64; x64) AppleWebKit/537.36 (KHTML, like Gecko) draw.io/28.1.2 Chrome/138.0.7204.243 Electron/37.4.0 Safari/537.36" version="28.1.2">
  <diagram name="第 1 页" id="S5JAml8h_OdG1Eh2FXk_">
    <mxGraphModel dx="2253" dy="841" grid="1" gridSize="1" guides="1" tooltips="1" connect="1" arrows="1" fold="1" page="1" pageScale="1" pageWidth="827" pageHeight="1169" math="0" shadow="0">
      <root>
        <mxCell id="0" />
        <mxCell id="1" parent="0" />
        <mxCell id="eBus7gOyLzaCZ1bikBOQ-1" value="IDLE" style="ellipse;whiteSpace=wrap;html=1;" parent="1" vertex="1">
          <mxGeometry x="80" y="377" width="120" height="60" as="geometry" />
        </mxCell>
        <mxCell id="eBus7gOyLzaCZ1bikBOQ-2" value="CONNECTED" style="ellipse;whiteSpace=wrap;html=1;" parent="1" vertex="1">
          <mxGeometry x="414" y="218" width="120" height="60" as="geometry" />
        </mxCell>
        <mxCell id="eBus7gOyLzaCZ1bikBOQ-3" value="TRANSACTION" style="ellipse;whiteSpace=wrap;html=1;" parent="1" vertex="1">
          <mxGeometry x="680" y="220" width="120" height="60" as="geometry" />
        </mxCell>
        <mxCell id="eBus7gOyLzaCZ1bikBOQ-4" value="DISCONNECTED" style="ellipse;whiteSpace=wrap;html=1;" parent="1" vertex="1">
          <mxGeometry x="455" y="376" width="120" height="60" as="geometry" />
        </mxCell>
        <mxCell id="eBus7gOyLzaCZ1bikBOQ-5" value="" style="endArrow=classic;html=1;rounded=0;entryX=0;entryY=0.5;entryDx=0;entryDy=0;exitX=1;exitY=0.5;exitDx=0;exitDy=0;" parent="1" target="eBus7gOyLzaCZ1bikBOQ-2" edge="1" source="EUMnTuvm1Q9IYbHoJ2Hz-1">
          <mxGeometry width="50" height="50" relative="1" as="geometry">
            <mxPoint x="409" y="153" as="sourcePoint" />
            <mxPoint x="553" y="153" as="targetPoint" />
          </mxGeometry>
        </mxCell>
        <mxCell id="eBus7gOyLzaCZ1bikBOQ-6" value="&lt;span style=&quot;-webkit-font-smoothing: antialiased; box-sizing: border-box; -webkit-tap-highlight-color: rgba(0, 0, 0, 0); outline: none; border: 0px solid; margin: 0px; padding: 0px; line-height: 28px; overflow-anchor: auto; font-family: Inter, -apple-system, BlinkMacSystemFont, &amp;quot;Segoe UI&amp;quot;, &amp;quot;SF Pro SC&amp;quot;, &amp;quot;SF Pro Display&amp;quot;, &amp;quot;SF Pro Icons&amp;quot;, &amp;quot;PingFang SC&amp;quot;, &amp;quot;Hiragino Sans GB&amp;quot;, &amp;quot;Microsoft YaHei&amp;quot;, &amp;quot;Helvetica Neue&amp;quot;, Helvetica, Arial, sans-serif; text-align: start; background-color: rgb(249, 250, 251); color: rgb(0, 0, 0);&quot;&gt;DTI_TBU_CONDIS_ACK.STATE=1&lt;/span&gt;&lt;div&gt;&lt;br&gt;&lt;/div&gt;" style="text;html=1;align=center;verticalAlign=middle;whiteSpace=wrap;rounded=0;" parent="1" vertex="1">
          <mxGeometry x="228" y="227" width="187" height="31" as="geometry" />
        </mxCell>
        <mxCell id="eBus7gOyLzaCZ1bikBOQ-7" value="" style="shape=image;verticalLabelPosition=bottom;labelBackgroundColor=default;verticalAlign=top;aspect=fixed;imageAspect=0;image=data:image/png,iVBORw0KGgoAAAANSUhEUgAAAysAAANwCAIAAACgfGI/AAAgAElEQVR4AeydeVzN2f/H3+0lqTCUfZR9jLWsWUJkSyljX5NlmGwp6zAYGpSsScIghowlQpZKSKTFVipLaSHdNq23e+/53Z/3Y87jM59btxtq4ns+f9T5nM/7bM/P9vqc8z7nQhHbGAFGgBFgBBgBRoARYASqlwDcZBsjwAgwAowAI8AIMAKMQPUSAMI2RoARYAQYAUaAEWAEGIHqJcAUWPXyZqUxAowAI8AIMAKMACNAyGcpsNDQUHe2MQKMACPACDACjAAjwAjIJfD69Wue7PwsBTZmzBhdtjECjAAjwAgwAowAI8AIyCWwd+9e8u/tsxQY6wOTq3fZQUaAEWAEGAFGgBFgBP6fwBfuA/u3mGN7jAAjwAgwAowAI8AIMAIKEfisPjCFSmBGjAAjwAgwAowAI8AIMAL/JsAU2L95sD1GgBFgBBgBRoARYASqngBTYFXPmJXACDACjAAjwAgwAozAvwkwBfZvHmyPEWAEGAFGgBFgBBiBqifAFFjVM2YlMAKMACPACDACjAAj8G8CTIH9mwfbYwQYAUaAEWAEGAFGoOoJMAVW9YxZCYwAI8AIMAKMACPACPybAFNg/+bB9hgBRoARYAQYAUaAEah6AlWrwLKysvw4W1xcnGyLkpKSOCZ+6enpsjYshhH4Bgiw2+EbOInfXhPOnj1Ln8ChoaGyDSwsLKQGfn5+jx49krWhMbdv36bGf//9N43nBi5fvkxtbty4gYdEItHp06fXrFmzdu1aPz+/5OTk/fv3f/jwgZtQLBZHRkYeOHBgyZIlGzduDA0NFYvFb9++vX79OteszPCDBw9ooWUGUlNTQ0NDeYdwEfN3797R+JCQEG4bMT4gIODRo0dFRUVY9PPnz6l9mQGhUFhmJWtIJK/+AoFAtmIRERHcpolEIlkbFlMhgapVYMXFxcHBwY0bN4aPW//+/WUrNHHiRDyqq6t76dKl/Px8WRsWwwh8AwTY7fANnMRvrwlRUVGDBw/Gh3Dt2rVzc3N5bdy/fz8eBQAPD4+3b9/yDLi7r1+/XrZsGbUPCgriHiWExMXFKSkpocH06dPj4+MJIdnZ2Z06dZo8efLz588FAoG7u7umpiYAZGZm0uSvXr3q37+/trb20aNH379/HxcX9/PPPxsaGhobG2/cuJGalReYPHkyANjY2Bw6dMjc3BwrsGrVqh07drRt2xYAzp49GxMTY2pqiofU1NTu3r2LErCwsDA0NLRBgwbdu3ePiYl5+fLlzJkz0UxXV/fQoUObNm2qXbu2vr7+2rVrJRKJQCA4dOgQGgDA4sWLz5w54+3tvXDhQn19fQDIyckpr541IV4gEPj6+tL6//rrr7xaiUSiZs2aoUG3bt3u3bsnkUh4NmxXEQJVq8CwBvb29sbGxni2YmJiuNVKT0+3sLDAQ5aWltxDLMwIfJME2O3wTZ7Wr7pRx44do4/onTt38toyduzYRo0aAYCWlhbvUJm7KSkpNDcbGxuejaOjo5mZGT7zw8PD8ejcuXMB4M2bN9T49OnTXAX26NEjHR0dAOD1qx08eBAAFFFgP/30k4uLC+aPagwAzp07RwgpKipq3769n58fISQ1NbVWrVpYvTt37tD6iEQiIyOjly9fYszDhw/RpmfPnhjj6uqKMRs2bMCYJk2aYExaWhrN5/Hjx9ra2jVcgWFtO3fubGBgAAAGBga8Tjs/P7+BAwdi61xdXWnrWKCyBKpDgS1YsMDd3R3PloODA7eK69atO3XqFB4aM2YM9xALMwLfJAF2O3yTp/WrbpSfn99vv/2GEqdNmzbc/ozg4GB3d3cUE3p6eoo0MzMzc8yYMf379wcAFRWV5ORkmiovL2/yxw2f+dHR0XioTZs2AHDhwgVqSQjp3bs39oGJxWLsmmrcuLFYLObaEEKmTp2qiAKzs7Ojo2k8BUYI2bdv36lTpzDn1atXY/WGDh1Ky/Lx8dm0aRPdffLkCdpQBXbz5k2M+eGHH9CMylDaa4gDuJMmTfoqFFjfvn1//fVXbJSvry9tOyHEzs5uz549eGjHjh3cQyxcKQLVpMCioqI6duwIALVq1crOzsYqCoVCGxubxMREPJE8BRYUFLRmzZqVK1dyXROePXu2evVqJyenEydOuLm5YT4CgcDV1XXhwoVeXl7e3t5JSUmEELFYfOHChRUrVsybN2/Lli302wWTvHnzZuvWrY6Ojtu3b79+/fq9jxs+dwQCwb59+xYtWrRz506eFwKXbHh4+Pr16xctWrR///7Q0NB79+49efIkKirK8+N24MABQsjZs2ednZ2fPXuGCZ8/f759+/YlS5b4+PjQwdaAgABMcunSJULI0aNHcRc/zoKDg3HX19f33bt327Ztc3JyUsTpgVtVFq5RBBYsWFDZ20EkEp04cWLZsmWbNm168eIFbU6Zt0OZkfJvhzIvZixFwduBVokFvkYCfn5+O3bsWLBgAT6KAwMDaSumTJmSlZX1CQrMz88Pc1u5ciXNbdeuXVevXqUCiCowzL9u3boHDx6kHkWPHz8uKSkhhJw4cQKzmjlzJs2KBpKSkk6cOEF3yws8fPiQHqIVwMcsIeT9+/f44iCE5OXlNWjQAEu8desWISQ3N3fAgAFYGcxEjgIzMjJCG54CS0hIwE64uLg4XpcSrViNCvTt2zctLU1NTQ0AevfuTesmPS8rVqzw9vZGRFwF9vlPqvz8fG9v78WLFzs6OkpfxDypKudJFRcX98cffyxZsuTEiRPcTwha7ZoZqCYFFh0dTZ0JqHLy9fU9evRomQrMyclJSUkpOjo6MjJSRUXF09OTEBIWFqauru7l5ZWXl7dmzZratWsTQrKyspo1azZz5szc3NwzZ85oaWlFREQQQkaNGtW6desPHz48evRIV1dXVVWVfmBduHBBQ0PDzMxMKBQ6OzsDQIMGDQYMGCAUCmNjY5s1a2Zra1tSUjJ27Ni2bdvKekUQQlasWAEAK1asEAqFffr0AYDWrVvPnz8/Nzd32LBhAKCpqbl06VJlZWUA6NOnDyHEx8dHU1Nzx44dRUVFZmZmrVu3xnkJr1690tXVBYBhw4YRQp4/f16vXj0AkH5/EELevn37448/AkDjxo2nT5++bt26+vXrAwD3a6xmXlisVuURWLBgQaVuh4KCggEDBjRv3jw3N9fd3V1XV/f+/fvl3Q5l3iPyb4fyLmZCiIK3Q3ktZfFfCwFUYNRDa/To0Vjz5ORkHLX4BAUmEokw1XfffVdcXEwIkUgkI0eOlEgkVABRBWZvb4+vc3yWHj16lOowQsiiRYvw6KpVq74IUloBqsB42e7duxdL7Nevn9RNzdHR8ebNm1wbWQVGx3mo4uQqMIlEMmvWLDoMys2qxobxHTRhwgREQSXsvHnzXr16JavAPv9JlZGRIR3qnTp1alFR0bFjx3AA9NWrV4hIzpPKz89PS0vLw8MjJyenWbNmEyZMqLFUeRWrPgVWUFCgp6cHAEZGRtiTPGrUqOLiYlkFFhoaivch1rVx48Z16tTJyclBn31/f3+MHzVqFCHEy8sLAJYuXYqR69evj4iIePXqFXaA4wC8lZUV1TSEEHwuoIi5ffs2AOjo6Lx//54Qgh6p2ON64MABAJB1QqQVRi+BjRs3AgDti96wYQNer+7u7kFBQfXq1VuyZMnTp0/V1dUBICsrixCya9cuVGYo1Tt16kQVGCEEJR1e/YSQadOmoQcG1tDNzQ0A1NXVcZIO73Sy3ZpPABWY4rcDXlH4IkxISAAAnNFS5u1QZqSc20H+xazI7VDzgbMaVkgAFRghZMiQIQCgrKyMgwYrV67ED9pPUGCEkE2bNuHD8MiRI9JRxcDAwG3bthFCqACiCiwzM7Nbt25ojH87d+5M3aeoyxG3u6XCRskxoBUoT4GVlpbiwCgAbN26dfr06bzcqAL78ccf79+/7+3tXa9ePWVlZQcHh9LSUjSmCmzUqFHo7P81KrA7d+7gGZkxYwbOmfjpp5+kr1FZBfb5TyqcvtCuXTvU6zhrYfXq1dJrRs6TKicnB7st8IKZNGmS9CEpOwWEdwZryG71KTBp7+6SJUvwXF66dOnhw4fLly/nkqWjkHPmzAGAbt26JX7cWrduDQDBwcF2dnY4jrlmzZqsrCz8rqKj0TiPprS0VCQSicVia2vr0aNHY2fvTz/9BADGxsaEkOLiYpyJgzdzZGQkVikkJCQ9PR3DR44cSUxM3L17t7TcAQMG8E7V1atX0QwfHyiJVFVVUVaiIAOAlJQUmtDR0REA6tSpgzEXLlzg5tC5c2euAuvbty9XL0q7vvBTANPS+8HLy4vmzwJfEQFUYIrfDvgmmD9/fmJi4oMHD6Q9oGpqakKhsMzbocxIObeDnItZwdvhKyLPqloeAarA6KPJycmpuLh4xIgRmOTTFFhGRoaGhgYAdO/enRAybtw49MSiAogqMEJIQUHBmjVrqBc8fqujywqdqrl582bahNsyG2/EilrKBmgFylNg6EOCT2kAkF0jiSqwpk2burq6SidUnjx5kvvMJ4RQBZaQkBAUFNSqVauvUYERQrp27YoDO5mZmdu3bw8ICChTgX3+kyoxMbFPnz5r1qxBPyJDQ0Ppm9Te3p4QIudJRQep4+LiEhMTp0yZIj1x69atkz3vNTCmWhVYYmIiDsxZWlrOnDkTPVqotqUKDL949PX1XThbRETEvXv3tLW18a6oU6fOX3/9hZKcXugqKirOzs50DDg1NXXdunVWVlZGRkZUgRFCBg0aBAB4MwQEBOArLTs7OyQkBDOXds7Rkrds2cI7bVRxX7lyhRCyfPly+oghhFAFRj29CCE4+blhw4aY1bVr17CgY8eOEUIqpcCePXuGaWlfN696bLeGE6AKTJHbQSQSoR9Gp06dXDhbVlZWmbdDmZEIpMzbQc7FrODtUMNps+opQoAqMLFY/P333wNA3bp19+3bd/jwYUz+aQoM3eTxeXXixAnqxUUFECqw0tJSHBxAv4ulS5fiUhQAsGvXLkIIXd5i4cKFtDnXrl3D8QH8LPfy8qIextSmvACtgBwFRgjBqQkAwB0SxTypAqOjH7Jl0RcTeuJfuXLlK1VgPj4+eBJ///33wYMHY18Drw/sCz6pIiMj582bZ2tri3IcFZicJ9X69euxej///LPLPxudVyF7XmpUTLUqMELIiBEjAEDq40X1lqwCGzlyJLfHiMvr6dOno0ePRtzq6uo4y0YgEDg6OtKb9uTJk4QQV1dXTU3NiRMnlpaWjh8/nqvA0tLShgwZYmhoeOjQob59+9avXx9HNiMiIjBn6qnGLZobvnPnTuvWrc3MzA4dOmRgYNChQ4fExEQ0KFOBjR07FgCoAqNyHsutlAKLiYnBSrq7u3OrxMJfCwGqwBS8HfA1QF1zuM0s83YoM1LO7VDexaz47cCtEgt/jQSoAiOEbN26FZ8wjRs3pkuMfrICw15b7EFB/0XZUciUlBQc4aLoYmNj0eHV0dFR+o167tw5rBJ6nlCzuLg4jB88eDCNVCSgoAJDt5kvpcAKCwvpKOpX8f1MPWGKiopwmE9TU/OPP/5AwjwFRgXr5zypiouL8WW9d+9eQgiuhYEKTDpEXt6Tatu2bXgZREZGKnL2a5RNNSmwqKgobPaVK1cQ1sWLFzGGKjArKyuMQYc7AKCufyUlJe/evaP9iuHh4bg+zeXLl/fs2YMOUqmpqf369QMAZ2dnf39/LAW/sXgKLDMzc+bMmStXroyKioqLi6MzXD58+IDeWtz7nLtEDT1z0dHRFhYWR48exdX5aHx5fWC4VAxOHSCEnDlzRrqGjaqqampqKiGkS5cuAGBhYYH5yB+FvHTpEjaN5xnKrQML12QCOBcSa6jI7dCrVy8AqF+/Pr1QMzIyiouLy7wdyoyUfzuUdzErfjvUZNqsbooQ8PPzo190WVlZWlpaALBs2TKaFhWYrq4ujZETyMzMpA9zQkjPnj3Rq4QmoQII3wspKSl169bNy8ujBoQQ9M2nvhZDhw5F/1d8ZqIlfXeMHDmSm7bCMLoK4SqscoxxjhQAUNcuavz48WN8Dvfo0YNG8gK8PjB69OzZs7QDgkbWwADOIcOKubi4AICGhga+bbmjkPTK+fwn1dKlSwGALnrCU2DlPaloj8b27dspxjJf3PRozQlUhwKbMmUKLrWA7nWtW7du0aIFXdYlOjoaL2W6Yj5dE69Tp06RkZFRUVG2trZxcXHdu3enP2Hh5OSkoqKSlJS0bNkyHDYmhKA6OX78OHWHd3V1lbpJ4uPD0NCwoKCAEILrAW7evBl/X+LRo0eFhYV4StBhS0lJadu2bTjdY9GiRbyzJRAI9PT0tLW1T58+fevWrdu3b8fHx9Nu6pUrV2Jz6JUq7UXPz89v2rQpAOCEZ+w1XbJkCeZsbW2Nsx1zcnIiIiK+++47bo8d+oGpqqqiHsWHF/pV8CrGdr8KApW9Hc6ePYtX1OTJkxMSEq5du2ZtbV1YWFjm7VBmpJzbQf7FrMjt8FUwZ5WUT+DgwYNOTk7Uxt7eXklJKSEhAWMkEgn6RKupqdHPAGosG3jx4oWJiQmNx0ltPj4+NGbMmDF4SaO7dEpKCgBMmzaNPkWlfj+9evVq1qwZXcErOTkZBc2cOXNoPuHh4ZhPZRXY8OHDMSEdZqV50kBJSQk6AHAXhqVH6Rh927ZtaSQ3IBKJEBoA0AWJxGLxsWPHtLW1f/vtN65xzQy3aNGCyuKkpCQVFZWpU6fSqu7YsQMZ0slqn/+kQgchJSWl0NBQX19f5G9nZ1dSUiLnSSWRSHAcSU9P7+LFiwkJCcuWLVNkgRLalv8wULUKLCkpycHBQUNDo0mTJi4uLuih5eHhQR0qvb290csPJ+DgO4YQcvPmTezlAoBmzZqFhYXhAn19+vRZu3atq6trkyZNUHovW7asc+fO8+bN27VrV9euXX/66SexWEzXdFBWVl64cCH61EtnR+JqxS1atMBLh/7V1dVFl6zCwsIZM2agq76ysvKcOXNkF255/fo1TUgDLVu2jImJ4f4E06hRox4/fkxP7YsXL/r06WNpaXngwIFGjRq5uLjQnMPDw+vWrYu9YgsXLuzRo0fdunVNTU2REiqwevXqzZ07t1WrVvg1+bUIfNp8FiCEfPLt4OHhQQfZzczM0C+4d+/esrdDmZFybgc5F7PUx1GR24Gd2a+dwPLlyw0NDbW0tObOnYsz/2NiYuhipEFBQTiXHJ91AwcOvHr1qpwmHzx4EB/pNjY2KLBKSkratm2LX7mvXr2aO3cuDjXghPfdu3enpKR89913rVu37t+/v5eX17lz5yZMmNC/f/+nT59yCyosLHR2dq5du7a1tfXRo0dPnDgxYMAALS2tn376KSQkhGspJxwZGTlr1ixVVVVsTtOmTV1cXGTXfTx79iyqATTr06cPviAw58OHD9Pf5AGAn376ifdbL2FhYVRlSlea7dq16/z588eOHUt7xeiMfjlV/Q8PhYSE4Ek3MTHx9vbGmlhbW+OLWCKRODs7YwcVAOjq6i5atAhfZ5/5pDpx4gSeGh0dnf3790+dOhUAateufeXKFflPqtevX2NXK9rv37//P6RXqaKrVoFVqio8Y4lEEhcXFxkZSXuAcf2FtLS08PBw+nthGJmbm3v//n3uAg25ubkPHjygEj4hIYFOVLl9+3ajRo1q/7OpqKjgZUS75XJycsLDw+lcaF7FcAHlWrVqYQZ0coAi32Hv3r2LjIzEWZzcbPPy8h48eICN4pXLnQuZlJREF0fhJmfhb55AcXFxZGTk8+fPaUvl3A68ewSXlCzvdti3b5/8i7nC24FWiQUYgU8gUFhY+OTJE7xKQ0NDr1y5wltAm5unRCJ58eKFv79/UFCQdI1T2Wcp15iFq5/AZz6pUlNTo6OjUc9JJ3HHxMTQKa4VPqlSU1PDw8PpS7/62/4JJdZcBfYJjVEkSUFBQfPmzbljiwUFBdOnT69bty6dRCk/n4iICC0tLe4kmvfv33fo0MHa2lp+wk87igqMevF/WiYsFSNQJoFqvpjLrAOL/OoITC9/o9/G1d+oc+fOlVcv2pFT/bViJX4RAt/qk+p/ToGlp6drampOmTKFfjwJBAILCws6S6XCywVHu/ft20cV27Nnz9q1a3f79u0K036CwahRo9AFVbar/BNyY0kYAS6Bar6YuUWz8NdL4Er5G50+Wf2tS0xMLK9eXIeQ6q8YK/HzCXyrT6r/OQUmXRjw2bNnzs7OEydOnD9/vrOz8+rVq+lUTQUvlGvXrs2dO3fq1KmOjo7Lly/funUrHeJUMAcFzY4ePTpkyJDBH7f58+fL6ZxXMENmxgjwCFTbxcwrl+0yAowAI6A4gW/ySfW/qMAUP+XMkhFgBBgBRoARYAQYgaogwBRYVVBleTICjAAjwAgwAowAIyCPAFNg8uiwY4wAI8AIMAKMACPACFQFAabAqoIqy5MRYAQYAUaAEWAEGAF5BJgCk0eHHWMEGAFGgBFgBBgBRqAqCDAFVhVUWZ6MACPACHxNBEpLS0+ePLl27dqlS5e6u7tzV7cusxm3b9/2+7jJrkf/7t07POTn53fv3r0yk1d/pEQiobWiS9Ln5OS4urpev369+utTk0t8/vw5ZVVt9Tx79iwW+ujRowoLlUgkPj4+Bw4coOuoV5gEDRISEmjT6IpU3LSfnDM3E8XDTIEpzopZMgKMACPwDRIQCATt27fX19dPSEgoKCioW7eutrY29wcYZNscHR1du3ZtABgwYADvaFFR0Y0bN5SVlQFg/PjxvKP/4W50dHSbNm0AwMDAAKuxevVqANDU1KQLr/+H1as5Raenp5uYmOAvMlVprQoLC+mPXJ06dQpL5P4kfHmlX79+HY1p8vIsefEZGRnDhg3DtG/fvuUdJYSUmXN8fDzvN7JkE35aDFNgn8aNpWIEGAFG4BshsHDhQgCgv+rRoUMHNTW1CrsiTE1Ny1RgCAV/ObFGKTBCCP7UIFVgx48fV1JSatOmDfdHwb+Rk/p5zVi+fHk1KLBp06bNnTuX1hR/IVARBfbixYtatWppaWnFx8fT5AoG3N3d5Sgw2Zzz8/M7dOhw8uRJBfOvlBlTYJXCxYwZAUaAEfjWCHTp0gUA5syZgw0TCoXZ2dkVNhJ/C1m2DwwTtmjRoqb1gRFCuD+zi/VMTU2lPz1cYZP/dwxcXFyqWoFt27YNALgKDH+WWxEFRgjJ+bh9whnZsWOHHAXGy7m0tNTa2hoAmAL7BNQsCSPACDACjIA8Ap6enjo6OgDQv39/T0/Pffv2ubm5rV69+siRIzRZUFDQmjVrVq5cGRoaSiNlFVhUVNSaNWvWrVuXkpJSoQKTzdPX19fz4xYcHPzu3budO3cuWrTo5s2btERCSH5+/pEjR5YsWbJq1Srubw1lZWV5eXktXrzYw8MjKSmJmyQtLc3NzW3ZsmX379/nKrDo6GgsztPTs7S0ND8/n+7Gx8c/efJk3bp1Li4uiYmJNLf8/HwvL68lS5asW7fuwoUL9z5u3+QIpqwCE4lEJ06cWLZs2aZNm168eIHnokJiEonk7NmzLi4uzs7Ovr6+YWFh9+7dS05OdnV1RRlkZmbm6en56tUrQghVYMnJyZs3b16yZEl4eDiFTwMZGRm03KSkJEVOHE1LCKEKLD4+fvv27YsWLTp9+jQa8HIWCoVWVlZYz1mzZnl6epaUlBBCrl69unjx4vXr158/f97Hx4ebeWXDrA+sssSYPSPACDAC3w4Bb29vDQ0NABg4cKC3t7eHhwcOBk2fPh0b6eTkpKSkFB0dHRkZqaKi4unpifE8Bebn56eurl6nTp2NGzeOHz++Tp06cvrAyswzOjoavcdGjhxpbW3dp08ffPkFBgZiiY8ePTI2Nh4/fvyHDx/69Omjqqp669YtQsj9+/ebNGliZ2dXUlLi7Oxcp06dc+fOYZLY2NjGjRsDwKJFi+bOnfv9999TP7Dc3FzqEpSfny+RSHbv3o0lzp07d/To0S1btgQAfX39d+/eEUJevXrVqFEjPT29t2/fBgQE4M/1Dhgw4P79+1jWt/SXp8AKCgoGDBjQvHnz3Nxcd3d3XV3d+/fvV0ispKRk4MCBAHD16tX09HRdXV0AMDU19fLy8vX11dLSQt3v7e2NMz9QgQ0ZMmTEiBFdu3YFABUVFdnfDBSJRGvXrsUzdfHixQqrwTsvVIGNHTvWzc2tadOmADBp0iRCCC/n3NxcWpCDg4O3t3dJScn27ds1NTWjo6PT0tJGjBgxcuRIXv6V2mUKrFK4mDEjwAgwAt8aAfSpX7BgATasYcOGAIAKLDQ0FABat26Nhxo3blynTh3s9eEqsPz8/O+++w4ANm/ejL0j+vr65SkwOXli0aampkKhUCQS1apVCwBmzZpFCCktLe3YsSMAoOKZO3cuAGzcuLGoqMjY2BgAzp49Swh5/PgxAOjp6aFsGj58OAAMHToU629hYUEVGCFkw4YN+CLPz88nhMTGxuLu4sWLCSFhYWG4e/ToUULI5MmTAWDIkCGEEIlEoq6uDgBXrlz51q6Gj+3hKTAE5eDgQAhJSEhA5VQhMW9vb9SpEomEEDJ48GAAcHFxQWJ6enpljkJaWlqKxeKsrCyEv2rVKlnCeAkBwMWLFyusBi85VWBxcXGEEPzNb5SJhBBeztHR0VgNOgrZqFGjWrVqoRd/Xl7exIkTeflXapcpsErhYsaMACPACHxrBHgKzMDAgCqwOXPmAEC3bt0SP26tW7eWet8HBwcTQrgK7PTp0/iiootTyBmFlJMnFj158mREjFMXx4wZQwi5dOkSFpGVlYU9Uh4eHpmZmfQNGhkZSQjJy8tDsx07drx//x7D69evxwy5o5DSYa+NGzeiASqwuLg43PX29iaEpKen06ykY0+9evUCAKwMIQQ7+WjO39g1wVNgeCLmz5+fmJj44MEDAFBTUxMKhfKJrVixAqvYDZwAACAASURBVNUwwhk9ejR2teJueQqM+oFhnxnXUYxCvn37Np4aVGDyq0FTYYAqMKqiMKuff/5ZKhN5OcsqMPzSaNas2cGDB0tLS8tc0oJXopxdpsDkwGGHGAFGgBH49gnIUWA4iqSvr+/C2SIiIngKbNOmTfgaozMo5SgwOXnyFFjbtm2p6Nm8eTMWkZGRwT0lv/32G8bHxsZiVxnu2tvb37lzB8M7d+7EJJVSYG/fvsXkO3bsoB1mPXv2xE4+HDBFBcCtz7cR5iowkUikpqYm7WXs1KmTC2fLysriSR8esVu3buFIYkFBASEEJ89SgVWhApM1oGx5Okl+NWgqDPAUGCEER+GHDx+uiALbtWsXXhUA0KpVK64zIq8gRXaZAlOEErNhBBgBRuCbJSBHgY0cORIA6tSpI9t4bh8YlUfYEUUIkaPA5OQpR4Ft3boV33w872z6RkQFVlJSgmZLly6lw4hubm5Y/89RYEKhcMGCBZqamtu3b7e3t5e+ttetWyeL5duI4SowQgjO1Rg9ejSvdRVKHy8vL319fQcHh23btqmoqIwZMwbVmNQjXlZgUU98LEXWgJZeFQrM3t5eEQWG3bGdOnXCy6xt27a0Vp8QYArsE6CxJIwAI8AIfDsE5CgwHEgCgIcPH2KDS0pK0MWKq8DOnTuHL6RLly6hWfPmzcvzA5OTpxwFRpfKXLJkCRd9eHg4Fo09cwKBAHf/+usvgUCAPVVOTk6YZNq0aVw/MPmjkLwendLS0k2bNk2aNCksLOzJkye5ubncanxjYZ4CwxHY+vXr42RAQkhGRkZxcXGFCkz6uwjDhg0LDAx89OgRbwVUFFh0DRTuXEiEWT0KjA5be3l5yVFgJ06cIIQUFha6urqiI+DRo0fx6iosLPzks88U2CejYwkZAUaAEfjqCYhEInQqxz4AQgjXiT41NRXd4Tt16hQZGRkVFWVra4suzD/88ANObSOECIVCnGaIXvPXr19XUlICADMzM1lAcvLEl66trS2mQhlnaWmJu3379kUPpCNHjhQWFoaFheHrEFdswuUzQkJCpA7a3bt3x9+rQff5du3aCYXC1NRUVHgaGhrYE7Nq1SqUa5mZmYSQqKgo3N29eze6muEuliJdaAMAJkyYcPPmzdu3bz948EAgEMi27tuIWbBgAbYd5QV1tps8eXJCQsK1a9esra0LCwvlE7tx4wYA/Pjjj1euXAkNDQ0LC0tOTqZ8GjVqJPV/79Wr1/379zds2FBSUoKCBmeEiMVivPCmTZtGk9DAtWvXsHp+fn4VnjiaCgN0FBJnWfr7+wNAmzZthEIhIYSXc3x8PBbk6Ojo6+t77ty5evXq4ReItDPMxMSkVatWvPwrtcsUWKVwMWNGgBFgBL4pAqhRAKBBgwa3b9+m44n6+vqXL18mhNy8eRNflgDQrFmzsLAwQsju3btRY6mqqh4+fBjfgjixv23btj///HP79u11dXW7detGfbC41MrM08nJCd92urq6ly5domtD6Ojo4DzHt2/fWlpaoo22tvacOXPQD/rDhw8zZ85s27atj49Pz549R40aRX3FBALBgAEDsObDhg0bN26cpqZm+/btZ86ceevWLVyoAgBmzJjx4cMHc3NzzLxt27aJiYm2tra426ZNm2fPnuEIJsbgX1VV1UWLFnHb9W2EQ0JC6tevj22cPXs2NsrDw0NTUxMjzczM0tPTKyR2+PBhLi4Mm5ub5+XlUb86AOjRo0d2djb+XAEANGzY8Pbt26h3AaBevXo3btzggk1PT0eXMpTaSUlJ8k8cNy2uBzZ06FA3NzdLS8s9e/a0bNnS3Nw8JSUF515wcxYIBBKJBOfP4pLF+fn5DRo0MDc3d3NzW758ecOGDYOCgnj5V2qXKbBK4WLGjAAjwAj8zxGQSCRxcXGRkZHyl48Xi8WPHj1KS0sjhLx580Y+JgXzlM3k/fv3UVFRsjXJz89/+PBhmav5v3z58vnz5xKJJD09Hbs6ZLOtMCY1NbVXr15aWlq1P27YcQgAOPpZYfJvwKC4uDgyMlL+D4Zym1lcXDx79mx1dXUkhguAAcC2bdvQLDk5+enTp7hWBTdhlYYzMjKwxPz8/IiICOz+lFOiRCKR6m9csUwsFuOF/fz584iIiM8Zf8QSmQKTQ54dYgQYAUaAEWAE/p+AnZ2diYkJFXAikcjLy0v6e5oxMTEMUJkEdu3aVbt27dTUVHo0OjpaTU3Nw8ODxvyPB5gC+x+/AFjzGQFGgBFgBCom0KlTpw4dOtDxzeLi4pUrV9rY2FRzF07FFa0xFo6OjhoaGnR6rEQi8ff3b9euHfWjqjE1/c8qwhTYf4aeFcwIMAKMACPwtRAQCASurq4TJkxwcHBYvny5k5PT5cuX0d//a2lCNddTJBL5+PhMmTJl5syZSz9uhw8f/vDhQzVXoyYXxxRYTT47rG6MACPACDACjAAj8G0SYArs2zyvrFWMACPACDACjAAjUJMJMAVWk88OqxsjwAgwAowAI8AIfJsEmAL7Ns8raxUjwAgwAowAI8AI1GQCTIHV5LPD6sYIMAKMACPACDAC3yaBz1JgoaGh7mxjBBgBRoARYAQYAUaAEZBLAJd15WrJz1Jg7u7u/dnGCDACjAAjwAgwAowAIyCXQGhoKFd+EUI+S4Hx8mK7jAAjwAgwAowAI8AIMAKKEGAKTBFKzIYRYAQYAUaAEWAEGIEvSYApsC9Jk+XFCDACjAAjwAgwAoyAIgSYAlOEErNhBBgBRoARYAQYAUbgSxJgCuxL0mR5MQKMACPACDACjAAjoAgBpsAUocRsGAFGgBFgBBgBRoAR+JIEmAL7kjRZXowAI8AIMAKMACPACChCgCkwRSgxG0aAEWAEGAFGgBFgBL4kAabAviRNlhcjwAgwAowAI8AIMAKKEGAKTBFKzIYRYAQYAUaAEWAEGIEvSaBaFVhBQUF4ePj169fT0tKwEbGxsV+yNV8ur9LS0hMnTmRnZ3+5LL9ATiKRKCQkhNKTk2N6evr169fRoGa2RU7l5R/6eptTWlqaydkEAoFEIpFtrEQi4ViVESwtLRUIBNwDhYWFsvnQmPz8fK4xL5ybm5uXl8eNzMnJoWlpIDc3l2tTVFSEh4qLi2l8VlYWta8wkJmZefPmzbCwMCyuuLj45cuXvFSFhYXh4eG3bt368OED7xAtVCwWcw99+PCBHuKGMbK0tJRrTMM8Arm5ufTQy5cvr169mpqaSghJS0vjHqI23EBRURGtQGZmZpnPEKFQyLXhhSlbmq1IJHr27FlgYGB6ejqNZAFGoKoJpKamXrlyJTo6Wrag3NzcoKCgBw8eCIVC2aMsRkEC1aTAkpOTbW1tmzZtOnPmzD/++MPe3r558+YmJia2trYKVrSaze7cuQMAu3btquZy5RQXERFhamoKALdv35ZjJhKJNmzYoKqqOnjwYDSrgW2RU/8KD329zcnJyfH09Kxfvz4AdOzYceLEiSNGjBg8eLCdnd3BgwdLSkqw7WlpaQDw3XffDR482MrKqlatWkpKSlZWVhYWFs2aNQOAsLCw8+fPjx49GgA0NDTc3d3j4uLkcHNwcACAbt26jRw5smvXrgDQrl27UaNG9enTR1VVdejQoWFhYYsXL4aP29SpU8ePH29qatquXbtNmzZRNRAcHDxu3DgAUFVV3bJlC1VLSUlJa9euVVZW7tmz59mzZ+VUgx66c+dOt27dfvzxR0dHx82bN48dO7ZZs2bt27fn3m5v3ryxtLTs16/ftm3b9u7da2Vl1aNHjydPnmAmYrH4wIEDDRs2BIClS5fSnAkh9+/fnzp1KgCMGzcuPDz81KlT3bp1AwADA4OJEyeOHDnS0tJyxIgRGzdufP/+PU0YHh6+fPlyJLBgwYJbt24RQiQSiYODg5GRkYuLy/z58zt06GBkZCT7y240EwwkJia6uLhgVpaWlra2tj169Ojatev69eupUM7IyHBzc9PU1ASA/v37T/+4TZo0adCgQWpqanv37qV5FhUVLVq0qF27dmvWrPHx8Zk7d27Lli39/PyowZcNZGRkxMTE8ERtpYpISEh49epVpZIw45pJwNnZuUGDBq1btwaAYcOGcZXW4cOHa9eujRd5mzZtHj9+XDObUPNrVR0K7N69e7Vq1bKwsOB+IicnJ3fu3NnS0rLmMIqPj6dvQZFI5O/vn5eXV3OqRwg5depUhQoMK9y+fXuqwGpmWyoFlr56CSFfe3OmTJkCANeuXUMCJSUlhw4d0tXVbdeu3fPnzwkhL1686Ny5M5U+LVq0UFVVRWOxWGxlZXXz5k1CSFRUFACYm5tXSHLKlCknTpxAs8OHD0tV1MaNG3E3PDx84MCBGNbU1KxXrx7N7eTJk0pKSjY2NjQmISEBAHr06EFjaKBv37537tyhu3ICHh4eSkpKzs7O3Nd8aGiorq6uq6srJrx7966ent6iRYu4NgcOHNDS0jp+/DjN/Pz58/gO8PX1pZGEkOLiYlVV1fz8fIw8ePAgAKxatYra3Lhxo0OHDrq6uv7+/jSSEKKrq6uqqko7Jr29vbW0tGgn1suXL5s2bfrXX39xk5QXrlevnrq6Os3qwIEDADB8+HCuvYWFBQA8evSIG/nnn396eHhgjEAgaN++vZmZGa0DSkxtbe1ffvmFm+rzw2KxeN68eXZ2do6Ojn369Hn27Fll88zMzBw2bJiDg8PMmTNHjRpV0x6elW3O/7j9oUOHjh8/jn3Ge/fuBYBjx44hk+Dg4AkTJiQnJ799+9bNzU1ZWblt27b0Uv8f51bZ5le5AsvPzzc2NtbX15ftvU9ISKBP/8rW+4vbFxQUdOzYsczxly9e1idnePHiRQUVWPfu3akC++TiakjCZ8+e9e3bt4ZU5vOrYW9vDwDBwcHcrCIiItTV1du3b19SUvLkyZP9+/fTo1wFRgi5evXqpUuXCCFxcXEAMHLkSGpZXuCXX36hz0eeAiOEODo6YkI9Pb369etzMzExMVFSUhIIBBiZkpIirfmAAQO4Nhi2tbVF+Sh7iBsTExOjoaExaNAgbiSGDx48uHbtWkKIUChs3759ixYtZEcMhwwZoqOjQ0firl+/3r9/fw0NjVq1asXExHDzbN++Pd09duyYVKitW7eOxhBCsrKyjI2NtbS0EhISaLyBgUHt2rXp7qRJk/T09Lgq8Ny5czt27KAGcgJNmjTR1NTkGjRv3hwAkpOTaeSYMWMAgPt1QQgpKCig3WyzZ88GANkOzt9++w0AAgMDaVafH/Dw8Ni8eTPmk5qaamJiwm24Ivnb2NjcvXsXLQMCAmbMmKFIKmZTMwngZx7WTSQSqampeXl54e6yZctoVwUhZNasWQCgyO1fM1v639aqyhXYmjVrAGDNmjVlttPNzY3GFxYW3rlz59SpU7zPr+zs7PDwcELIkydP/Pz8MjMzaRKhUBgUFEQISU1N9fPzi4+Pp4cIISUlJcHBwX5+fm/evOHGE0Jevnx56tSpwMBA7FktLCy0traWjggEBQXRMe/3798/ffqUmzAzM/PKlSsXLlzgeWK9fv36+fPnIpEoNDTU39+f21vLTU4IKSoqunr16smTJ3lP1YiIiKysrLy8PH9/f/oUo2kzMzPPnTsXEhLi7+8vR4GJxeKHDx+eOnUqPT2dp8B4bUlOTvbz87tz5w56t3AL8vf3P3fuHH3p4qFPaLics4bvv0uXLgUEBMjq8ocPH/r6+t6/fx+LTk5ObtWqVevWrSMiIl68eIGRvObgCT1z5szNmzd5GcoHSxtenYEyFRghZOnSpQCwZcsWiUTCffnxFBg9qrgCE4lEtIGyCowelVVgAwYMAAB6tctRYOPHj09MTKSllBcwMzMDgBs3bsgaFBUV7du3jxDi6ekpO7aI9tiTNH/+fNy9fv36smXLvL29AaBly5bcLvbu3bvTIspUYIQQvJuGDRtGLXkKbN68eQCwYsUKalBaWnrlyhW6Kycgq8CMjY0BgEtJVoEVFxdTQRYbG6ukpNSlSxfZUuLj4wHgxx9/lD30yTFdu3alvYZ4NfI6COXn/Pr1awsLC65N7969eY8R7lEW/ooIJCcn6+vr0y8f3ssLb0Be5FfUuv+2qlWuwLp06QIA58+fl9/OoKAgc3PzwMDAoKCgnj17Wltb4/PUzc1NQ0NjxIgRTk5OVlZWderUadKkCb5lr1692qRJEz09PW9vb2tr6xYtWmhoaFD5EhsbO2/evL///nvLli1aWlpHjhzBCojF4oULF27YsOHBgwfjxo0zMjJ68+ZNbGysnZ0dAOzdu/evv/56+fKlvb29mpra6tWrabV37do1bty4+/fvnzp1qlGjRqtXr5ZIJFlZWehk4+LiMmHCBEtLSxUVldGjR9NU3MDDhw/Rj+TBgwctWrTA901sbGy/fv0AYN++fejsAgBcYXr06NHRo0eHhYWdPXu2e/fu5Smw9+/fDx061MvLKyoq6pdfftHT08M+MNm2BAQEWFtbv3r1KjAw0NDQkNbQ29vbwcHh7t27W7Zs0dbWpl/Yn9BwOWeNEHL27NmVK1eeP39++vTpjRo1evjwIdYhPT3dzs7uyJEj4eHhbdu2HT58uEgkCgoK6tixY7NmzQ4fPhwSEiLbnKKiotmzZ69atSoqKmrr1q0NGjRAL5kKwdKGV3OgPAUWEREBALL9QzwFRmuruAKjSQghsgqMHuUpsJCQEHV1dW4f22cqsKysLGVlZQDgqWRaAQxMnz4dAOgHN/docHAwAHTt2hUjUYERQlAqDR06lCpXRRRYaWmpnp6ehoYG7WzjKbBHjx5paGhIBwptbGxSUlK4NakwzFNgISEhANCpUyfaGUkIkVVgFy9e9Pb2xsyPHDkCABMnTpQtq7S0VE1NTUlJiauZZM0Uj8nLy+MqUUJIQEAAHaomhOzatcve3n758uVIODAw0N7e3sHB4d27d1jKhQsXtmzZwi1x+fLl8j1WucYsXGMJFBQUjBkzJiwsrLwabty4sXnz5vTWK8+MxZdJoMoVmJ6eHgDI99R7+/atnp4e9SPJzs7W1dWdPHky1rhVq1bNmzd//fo1ISQwMFD6vfvnn3/iodmzZysrK+MndX5+vpqa2syZMwkh0k/Vnj170i8wdGfGzrNNmzYtWbIEk8fGxiorK+OIz5YtWwCAjkK+e/cOAKgCu3r1qr6+Pp2QdfPmTQDAZ2VqaioAWFpaopvtypUreWMNlPvEiRM7duyIu7/88kvLli0xfPz4ce4oSe/evemhyMhIPT09Wu6ePXvKU2BWVla//fYbZigSiQwMDOgoJK8tgwcP9vT0REv6fX/r1i1TU1OavEmTJhMmTMAxr09reHln7fXr13QYSygU1q9fH/2KJBKJhYXFhQsXsA779++nPdvDhg3r3Lkzxktft7zmrFixYsiQIfTo2rVr1dXVsfNSDlhqX/2B8hRYXl6e9BugQYMGvCpVpwJTV1e3tbW1sbExNTXV0tLauHEjt0P3MxVYdHS0dHYL19WM11Lcxc8M6ifHtcF7TVtbG3UMVWBCobBv377c/ipFFBghBOcl0E53ngIjhNy8ebNRo0YAoKOj4+7uTvsLubUqM9ykSRN1dfXAwEBfX99Zs2bp6uqOHj2aOwRJFVi/fv1GftzMzMw0NDSoAnNycpIzetCmTRvpYwcHB8qsQKUinz59OnfuXG6S2NjY2bNn05iUlJRu3bqdO3cOY/Ly8szNzX18fKjBnj17Tp48SXcJIfv27eM67XEPsfDXQmDXrl0tW7YEAENDQ95AP21C165duVcCjWcBRQhUuQL77rvvcPaWnNps3LhRXV2dK6KxYwk/sLgDatnZ2QDw+++/Y27Lli2jTsrSzpVOnTphT3hgYKCent7cf7aePXvWrl37ypUrQqFQU1OTK+cTExPxC5inwEQiEVeBDf64cZvQunVr9DXJz8/nujafPXsWAGhXHDfJs2fPsOjS0tJp06bVqVMHj/K8uxwdHdXV1fGQjY2NtbU1zYRnSeMfPXoEANw7hAuN1xZra2tDQ0P0Q3r79i1mYm5uTr1AuLPuP7nh3Apwz9rKlSvbt2//z5mZ+/333+vo6Hz48OHWrVtaWlq0h0AikVDHAp4C4zZHJBJpampyP9ZxIiEOVPFwccFSdNUfKE+B4YVExTetWHUqsLp16woEgpSUlBs3bowdO1ZZWXnmzJm0i+gzFdjTp0+lw6yampr0LNM2cgM44Zd2wXIPvX//HgBkFRgh5O3bt02aNJFOMj1z5gwhREEFhmqPCiNZBUYIkS5UsWDBAuy9GzVqFJ0hwa2YbLhJkyaqqqqenp7ff/+9kpJSmQOv2Af28OHD4uLioqIigUDg7OxMFdiyZcsAYPny5bKZE0KMjIxkvQnLtFQkMjo6etGiRVzL169fT58+nRsjEAjMzc3v3LlTUlIybty406dPc4/u2LGD6jOMP/xx49qw8NdI4N27d3PnzgWAnj17ytb/zJkzdnZ2svEsRkECVa7AcIjt8OHDcio0fvx47rwhQsjOnTsBAJ0Bue9yntzhKTBq6ebmRnubuOXGxMTQnhVuPCFEvgIzMDDgeTnY2NioqKgIhUJelXhvfV4pAoFg27ZtO3funDFjBvX55SXhNqp58+bcb1OeJc380KFDAEDlFL6BaB8YV7IQQp4/f964cWOph+/48eMzMjIwE319fa73N835kxtOzwUhhIto9OjRCxcupPnTgIeHB3dIlMYTQuQoMByJo4ocU9WtW7dfv35SCDxcXLDc/Ks5XJ4CQ4Eiuz5LdSownic+Lj9BpTmq2/79+8sSs7Ozw15q2UM0RigUqqqqAoB8yxkzZgDA7t27aUIawPuXdtbSPjA0CA8P19DQqF279tOnTxVUYA0aNOD2yZWpwDDzu3fv1qtXDwBcXFxofeQE6ChkZGSkpqZm48aNqTsdTSU7CpmRkUEdNvCm5s5FpQlLS0sVIUntKwxU2AeGOeTk5FhYWJibm8u6iLE+sAohf9UGM2bMUFJSoqMx2JY3b96MGzdOwW+Sr7r5VVf5KldguMrO4sWL5bQBJ1NwBQQ6z+LYZXnvcumrnfdOpZa//fabtrZ2cXExr9DQ0FAAwKlkvEPyFZiRkVHbtm25Sezt7fHZzZUXsm99bpKbN2926tQJF1JavXq1IgpMW1t77NixNBOepKDxW7du5Q31UhS4fAO3P48QIhAIZs+eraKi0qJFi6SkJLFYrK6u7uTkRDOkgU9uOLcCXETm5uayrk6EkA0bNsje4VgNOQrszZs3UunJFamEEGNjY4TGw8W7WmgbqzlQngLbvHkzHdrmVuk/VGBHjx7lTn7EKVHUDYtbSQsLC0VWH8D+LSoyuDnQMC4esWDBAhpDAzgKTydv8hQYIcTHxwcAWrdu3aFDB5qqPE/8sLAwqWs89XaQTgLgKrCkpCTeGN/du3cBoEWLFjRnOQGqwAgh2KKePXvynkiyCgwzFIvFxcXF6CPBbQgtLjY2FgC48z3poU8LyPqBXb58ecOGDbzccnNzBw0a1KtXr4sXL/IOyfqBOTs700mdPGO2+9URuHDhgoqKCl3QjhCSk5Pj4OCgyF3/1TW2Oitc5Qrs/fv3enp6devW5c5hpC1EDwyc/cR1Gvjjjz/q1auHPijlvcvlKLATJ05I17Tcs2cPLSgnJ8fHxyczM1NZWZm7Ko9IJELHbVRgtJK8fqPx48crKSlx51QOHz4cPe658kK+AmvUqBGdxrVy5UpFFFjnzp0bNmxIp/6ipJB9rp07dw4A6DJC2AdGhQ6vLfT7NTQ0FH19CCE//vhjw4YNuZ846NXxyQ0v76zNmTNHVVWVO2D68OHDW7du/f333wDwxx9/0FOWmpqKLR02bNgPP/xA43nNMTQ0bNWqFT0qkUhq166NUxm+IgWWlJQkdYUcMmSI7Ahd8+bNuUPttKWf5omPPSvccVuaIc8TnxCCyp7rDN6hQwcdHR3ug5gQIhaLFVwu5Nq1a7gGqWwzCSH4NBCJRB07djQwMKCXPdZQLBb36NGjfv36dCXVK1eu8MbOCCELFizA9Vdpu8pUYCUlJT179jQwMKC58RSYdMl+7Eml+RBCdHR0uJci9xAv3LhxY+5qFCi7p02bxjUrT4H98ccf6MM+f/58nncBJl+9erV0WV0FVybjlign3KVLF65f/9KlS6lTJqbKysoyNzcPDg4uKCgYPnw4jvbSDF+9esUbJejduzd9nFIzFvhKCVy8eLFbt2608gUFBfPnz+fOPn769CnvsUCNWUAOgSpXYIQQPz8/HR2dHj16UM8e7JjZsWMHjh+VlJS0bdu2T58+6OgqkUhMTEyoP0Tnzp3psmECgYDbnbNo0SIVFRX6NO/YsSO+CQoKCgwNDdXU1Hbu3BkXF3f69OkxY8bg42DatGkAMGnSpLt37165cmXChAlJSUl0DnxoaGhubu7bt28LCgoAwNnZGdnFx8draGjQ3YyMDF1dXXxh5OTkAMD69evR8syZMwBAfxGIoi8uLlZWVu7UqVN+fv6LFy/69eunrKxcWFhYUFCA+ikkJASNFy5cqKysjOoTtSmdOoCuITt37uS9nIqLi5s3b25oaIhTgpOTk/X09IyMjLBbkdcWGxsb+i3eo0ePnTt3EkLwxdy9e/fLly/jCunYUfHJDS/vrD18+FBJSalZs2Z+fn5xcXH79u3D15JQKGzVqpWqquqGDRsiIyOPHz8+adIkvB7Gjx9fq1at4uLixMREsVjMaw5OGbt8+TLS8/f3NzY2xgbKAUvPS/UHJkyYIHWqoIsaCIVCPz+/Ro0amZiYyA5USUfk69atKx38oqeMVvjhw4fcDioaLz+A4/uyQ2kSiURdXV1HR4e6Yz5+/NjQ0FBDQyMqKormefLkSQCYP38+velKS0sdHBzo5BhqWV7AxcVFSUlp+vTp3FVGs7KyFixYQJlEREQ0btzY3t6euqBJc/v1sKB6qwAAIABJREFU11+1tbW5zkY+Pj7jxo3jFVRaWtqvXz8DAwMaj7M6uE0OCwvr3bu3gYEB72NGR0dHRUWFutvr6enhEmWYFY6Bbt26leYsJ6Crq6ukpETrX1RUhF7/27Zto6kGDRoEAJGRkTQG18gwMDDAhNnZ2T/88EO3bt3opCJCSHBwcK1ategzgZv2c8I7duzgDjd369aNXglSXZuZmWlubn7v3j0sori42MrKircQLnfG3OXLl3ly83PqxtJWP4GAgAC6MIpEIrGxsaFdwiUlJSNGjNi0aZP3P5urqys73Z92jqpDgRFCXr9+PXr06Pr16w8aNGjOnDlDhw61tLTkjgampqZaWlqOHDnSy8vL3t6ezq3Yt28f+nYcOnQoOzt75syZ2P1+9+7da9euoTvqypUrc3Nz3dzcVFRUtLW1sS/t/v37uACPVA/17duXLhWWl5dnZ2eHfrXt2rWjVxUueVKnTp3FixcnJibi4kxt2rSh/e1hYWEdOnRYsGCBp6fn+PHj8WGUl5e3cOFCAPjhhx+CgoKePn2KKx7JznuSjv2hpZ6e3uLFi/39/ZWUlHAZ9CFDhki/dK2trePj4y9dutS0aVN0NykuLhaJRM7Ozmpqag0bNuzfv//69esbNGiwcOFC7jKSeOKjo6PbtWunqqoqFXnLli3r1q1b//79Dx48KNsWMzMzW1vbgICAbdu2WVtbo5iTSCQbNmzAn0nR19fn+u19QsPlnDVcEKFOnToAoKysPG3aNPrl/fz5c1y7BOeW0lHp8+fPKysrt2jRwtvbW7Y5OPZkbGz8+++/u7u7T5w4EXXM8+fP5YD9tLvlM1MJBAJXV1ds+/fffz9y5MgRI0YMHz586tSpfn5+9MVPS7l37x72gkidFydMmEBVpnSk9dixY/j+VlVVXbNmDV3EjqaVDZSUlOzevRtvCgMDAzc3N+oFeOPGDbyzAMDU1HTEiBGmpqatW7eeNGkSb0k8Qsj+/fvr1avXrl27adOm2dra9u3bl9cdIls0LyY4ONjU1NTQ0NDKymrOnDkDBgwYP3487ydis7Kypk6damZmtmbNmt9++23o0KFSUPSnkMRisYeHBy5As3btWnqpYEHv3r0zMTHBsLe3d9u2bQFAT09vxIgRw4YNGzVqlK2t7c6dO7mLYgQFBaG7MY5LBgQEEELMzMyGDh06bty4zZs3r1q1qkmTJrgGDa85vN1nz57h6hgAMGXKFLoiw8uXL/X19XHQXLq2xa+//qqmpiZdatzY2HjkyJHS5UwtLCxw3hl3OZvc3NylS5e2atVq8eLFrq6udnZ2HTt2pKuT84r+nF2RSDR79uzx48cvXbq0V69e9O2L8svIyKhFixbTpk1D5R0QENC7d28VFZUDBw7QQt+/fz948OD58+fPmTPH0tKSziunBizwFRGQ/o6WkpLSTz/9tH379t9//52uGUQIwZWb8Oco6F/uENZX1Mz/vKrVpMCwnRKJJCEh4cGDB/TRz2t/fn6+fC9dnn2Fu2/evCmzrLy8PNmCcnNz6fI25eWc8XEr72iF8cnJyQUFBWiWnp7O68oqLzn+aLFEIsnPz5d9T3NTvXnzBt8rch5/JSUlEokkOTlZtsdFKBTSyaHcbAkhn9lwXm5isViqpbiDntQgPT2dOzCE8WlpaWUa01So8qmY48az8BcngNfP/fv35VxmFRYqFAqjo6NjYmLknFmcEhsXF8ftj6kwZ0KI7CWkSCqeDfU6SElJiYyMpHcuz6wadt+8eYOLYrRv375KPW/S0tIePnwo/yEjv73Pnj2jn7vyLdnRmkxALBYnJCRER0czR/sqPU3VqsCqtCUsc0bgf5ZAXFwc/rqz7N9ly5ZVJ5YtW7bI1gFjaG9Qddanisqq/mbGx8djl3+/fv14fX5V1EaWLSPACFQ1AabAqpowy58RqHICWVlZV8rZqH9hlVfiYwH3798vpyJXeD+BVT31qaJS/pNmFhQUuLm5de3a1cDAYO3atXfv3uW6QldRS1m2jAAjUHUEmAKrOrYsZ0aAEWAEvjyBvLy82NjYO3fuvHr16svnznJkBBiB6iLAFFh1kWblMAKMACPACDACjAAj8A8BpsD+IcH+MwKMACPACDACjAAjUF0EmAKrLtKsHEaAEWAEGAFGgBFgBP4hwBTYPyTYf0aAEWAEGAFGgBFgBKqLAFNg1UWalcMIMAKMACPACDACjMA/BD5Lgbm7u/dnGyPACDACjAAjwAgwAoyAXAK8n0EjhHyWAgsNDXVnGyPACDACjAAjwAgwAoyAXAKyv8TzWQrsn4409p8RYAQYAUaAEWAEGAFGoBIEmAKrBCxmyggwAowAI8AIMAKMwBchwBTYF8HIMmEEGAFGgBFgBBgBRqASBJgCqwQsZsoIMAKMACPACDACjMAXIcAU2BfByDJhBBgBRoARYAQYAUagEgSYAqsELGbKCDACjAAjwAgwAozAFyHAFNgXwcgyYQQYAUaAEWAEGAFGoBIEmAKrBCxmyggwAowAI8AIMAKMwBchwBTYF8HIMmEEGAFGgBFgBBgBRqASBKpWgUkkkky5W2lpaSUqW3nTd+/eXb58ubLpHj9+fPPmzcqmYvaMgHwCpaWl3LtBIBBIJBLZJIrcNQKBgJtVYWGhbD40Jj8/n2vMC+fm5ubl5XEjc3JyaFoayM3N5doUFRXhoeLiYhqflZVF7WUDJSUl1LLMgEgk4sWLxWLZfGRjEhISZCNpVrxMPnz4QA99+PCBJnz58uXVq1dTU1MJIWlpabm5ufRQmYGioiKaT2ZmZnZ2tqyZUCjk2vDClCFNWFhYGB4eHhISUmHpNAkLMAJVTSA+Pl5OEcnJyX5+fnfu3KE2xcXF4eHh9+7d49161IAFKIGqVWBpaWkA8N133w0ePNjKyqpWrVpKSkpWVlYWFhbNmjUDgLCwMFqVLxv48OHDhg0bNDQ0OnfuXNmchwwZUq9evcqmYvaMgHwCOTk5np6e9evXB4COHTtOnDhxxIgRgwcPtrOzO3jwYElJCSZX5K45f/786NGjAUBDQ8Pd3T0uLk5O0Q4ODgDQrVu3kSNHdu3aFQDatWs3atSoPn36qKqqDh06NCwsbPHixfBxmzp16vjx401NTdu1a7dp0yaqEoKDg8eNGwcAqqqqW7ZsefnyJZaYlJS0du1aZWXlnj17nj17Vk41fH19AcDY2HjYsGEWFhb4ZLCysjI3N9fV1dXQ0MjNzd21a1edOnUAoEuXLhMmTBg4cGCHDh0cHBySkpLKy/nGjRumpqa8o2Kx+MCBAw0bNgSApUuXco/ev39/6tSpADBu3Ljw8HBCiEQicXBwMDIycnFxmT9/focOHYyMjGR/wY2bCSEkMTHRxcUFoVlaWtra2vbo0aNr167r16+ngjgjI8PNzU1TUxMA+vfvP/3jNmnSpEGDBqmpqe3du5fmmZKSMnz4cDMzsz/++GPfvn2jRo0yNTWNiYmhBtUTyMjIiImJ+eQXp0gkioqKknOyqqcVrJQvReDy5csmJiYjR44sM8OoqKhRo0bNmTMnOjqaGkRERHTp0uX48eMXLlwwMTGJjIykh1hAlkDVKrAXL1507tyZPsRbtGihqqqKlRCLxVZWVlXd1dSnTx9FFFhRUdGLFy8onfj4+Hv37tHdbzIQHx9PX/nfZANrbKOmTJkCANeuXcMalpSUHDp0SFdXt127ds+fPyeEKHjXREVFAYC5uXmFLZ0yZcqJEyfQ7PDhw1IVtXHjRtyV9rgMHDgQw5qamtwPj5MnTyopKdnY2ND8ExISAKBHjx40hgb69u3L/Qim8dzAwYMH586dizGvX78GgMGDB+NudnZ2s2bN8MU/duxY6aHbt2/jocjISB0dHUNDw/K6hcaMGQMAd+/e5ZaF4fPnz6NC8vX15R4tLi5WVVXNz8/HSG9vby0tLdqJ9fLly6ZNm/7111/cJOWF69Wrp66uTvsyDxw4AADDhw/n2qPcfPToETfyzz//9PDwwJiwsDB9fX1HR0eu9NmzZ4+6ujo9cdy0VREWi8Xz5s2zs7NzdHTs06fPs2fPKlvK33//bWZm5uTkNHny5FGjRmVkZFQ2B2Zfowjcu3fv6tWrtWrVKlOB7d27t3bt2leuXOHWOTc3t3Hjxnv27MFIf3//unXrvn37lmvDwlwCVavAnjx5sn//floeV4ERQq5evXrp0iV6tCoCw4YNU0SBzZo169y5c1VRgZqZZ0FBQceOHcscbKqZFf6WamVvbw8AwcHB3EZFRESoq6u3b9++pKREwbsmLi4OAMp8OHJzJoT88ssvVCLwFBghxNHREe319PTq16/PTWtiYqKkpCQQCDAyJSVFWvMBAwZwbTBsa2uL8lH2EI3ZvXs3teEpMELIihUrCgoKpH1LkydPBgDuJ9C0adMA4M8//6RZ0UBSUpKpqamSktK4ceNoJA1cv369f//+GhoatWrV4vUntW/fnppNmjRJT0+Pq37OnTu3Y8cOaiAn0KRJE01NTa5B8+bNASA5OZlGokZ88uQJjSGEFBQUYDebUChs3759s2bNhEIh14AQYm5urq+v/+7dO158Vex6eHhs3rwZc05NTTUxMeECqbDE4ODgSZMm0STh4eFc7V5hcmZQYwkYGRnJPmT+/PNPADh06BCv2u7u7gBAr9jS0lJtbe0NGzbwzNguJVC1CkwikdB7khDCU2B4VCKR4FjkkydP6Ifvu3fvzn3cePI5IiIiKysrLy/P39+f99VLR6PRkwNbyFNgEonk7t27vr6+YWFh9J20efNmANi2bVtERAR210kkktu3b1MDQkhhYeGdO3dOnTrF+zTMzs7GgYwnT574+fllZmZSsrzAu3fvEhISCgoKLl68SL+2X716dfr06du3b/P84YqKim7dunX8+PGXL18KhcLExMTS0tKIjxv28KekpOAufTtK32ElJSXBwcF+fn5v3rzhlh4dHX369OmYmJj3799jW6ytraXDIkFBQdzeY24SFq46AmUqMELI0qVLAWDLli2K3DWEEMUVmEgkos2RVWD0qKwCGzBgAACkpaVhcjkKbPz48YmJibSUMgO0IEKIrAKjR2UVGBLz9vaWzdbZ2fnq1avDhw9XUVGRHfy6fv36smXLvL29pQKuZcuWXDe17t2709zmzZsHACtWrKAxpaWlvI97eogXkFVgxsbGAMClIavAiouLqSDz9PQEgMWLF/NyJoR4eXkBwC+//CJ76IvHdO3alXYK4tXo7++veCm+vr68Z7WVlRX7xlMcYI21NDY25imw9+/f6+rqyg79E0KsrKyMjIy4benfv7+xsTE3hoW5BKpWgXFLklVghJBjx461bNmyfv36Xl5eDRo0UFVVLSoq8vb27tOnT1xc3JkzZ/T09FDixMbG9uvXDwD27dtnZWXVo0cPAHBzc8MiAgICrK2tX716FRgYaGhoSMvlKrCsrCwTE5N9+/bFx8dbWlpOmDBB2gGQnZ29Zs0afMwdPnw4Nzf3+PHjLVu2BAD6SggKCjI3Nw8MDAwKCurZs6e1tTU+yt3c3DQ0NEaMGOHk5GRlZVWnTp0mTZrIjpW8evVqxowZampq69evHzRokDTn1atXE0I2bdrk5uZ29uzZHj169OrVi74eIiIizMzMzp8/Hx4ebmdn17hx43Xr1kkkEn9/fwBYsGABIUQgEGC1jx07ho2NjY2dN2/e33//vWXLFi0trSNHjmD8mjVrVq5cmZ6evnXrVisrK0JIbGysnZ0dAOzdu1fBoRbKkwU+n0B5CiwiIgIABg0axCuC991CjyquwGgS6T0oq8DoUZ4CCwkJUVdX5z58P1OB0YLKVGD0KE+BpaenN27cWEdHR1ZgFRUV9ezZUyKRBAQEAICTkxPNBAOowAghqLGGDh1KPwi5CuzRo0caGhoAYGNjk5KSwstE/i5PgYWEhABAp06duN9vsgrs4sWLVFDOmDEDALy8vGQLwtzKfNXJGn9OTF5e3rBhw7g5BAQE0KFqQsiuXbvs7e2XL1+OAAMDA+3t7R0cHGhvBzcths3NzfPy8mTjWczXRUBWge3YsQPfmD///HO/fv2mT5+O72hCSJs2bXr16sVtoK2trYqKCn2Zcg+xMCHkP1ZghBBra2s1NbXLly8XFBTgd2ejRo0WLlyIp+fHH3+cOXMmho8fPy716li3bh3u9u7du2XLlhgePHiwp6cnhrnfslwFhh+U2E31999/05GCe/fuAQB3FBKf13jRvH37Vk9Pj/q4ZGdn6+rqTp48Gctq1apV8+bNX79+TQgJDAwsb6wkJiYGAAYOHIhdWUlJSX///feSJUswE3TocXZ2JoTk5uY2aNCATlB4+vQpt8m1atVCBSblhnmiApN+svfs2ZP2h+Gkh8zMzNLSUk1NTeqmTcls2bIFANgXKvKv5r/lKbC8vDypLG7QoAGvPtWpwNTV1W1tbW1sbExNTbW0tDZu3MgdGqtOBbZz584zZ86sWLGiUaNGXbp0uXXrFg8LIcTHxwe/wSQSibGxsZ6eHrcXhxBCFZhQKOzbty+3o4urwAghN2/ebNSoEQDo6Oi4u7sr/sJo0qSJurp6YGCgr6/vrFmzdHV1R48ezR2CJISgAuvXr9/Ij5uZmZmGhgZVYCYmJgBw48YN2Qamp6cDgLa2NlfPyZp9fszTp0+pix7mFhsbO3v2bJpzSkpKt27d6EMyLy/P3Nzcx8eHGvACPj4+9GnDO8R2vy4CsgrM0tISANauXfv8+fMnT54MGjRIVVU1KCiotLRUVVWVJ+VnzZpFX7VfV8Orp7b/vQKzt7fX09Pjtvb69ev4vZudnd2hQ4fRo0fj0YsXL3JddB0dHdXV1fGQtbW1oaEh+tZwO8O5CkwgENAnCKoxnKYhq8BWr15N+8A2btyorq5OP52lM9VxZhl+/HXv3p3rTQwAv//+O7ctGP4/9s48rsb0/ePXaRfpKEtZQ5hqGEpJRZQKpSzVlIYMlW2MMfZ1voMhzNiNvYzB9CVrJBFZIyVbSpFKsnVSKXXqdO7fec39+t7f5/ecUw5TKd/r+cPreu7nXq77/Rydz7mX66ZfXdyVJTY2NoMGDZr09xUUFNSkSZP+/fvTgbF27dqxGsrKyrgKrEmTJkyB3b9/X7azjCqw6OhooVBIa5s0aZK1tTVdIymVSvX19W1tbenONUYGFRgjXPdGVQqsuLiYTpbxXKpLBaanpycSiXJycmJiYkaNGqWiojJ+/Hg2RV6XCmz27NmDBw+mf+h5QNitnZ0dm9CnC1DYEmCahykwQsiLFy/atm0r24V6+PBhQghPgRFCZCE5vvvuOxUVFQAYNmwY2z/EmlNotG3bVk1Nbdu2bR07dhQIBAqFFFVgiYmJZWVlpaWlIpFo7ty5TIH17t0bACIjI+Xrf/r0KQCoqqpy//7IZ/vnKbdv3/7hhx+49WRmZo4bN46bIhKJHBwcrl69KhaLvb29Dx06xH3KtQ8ePDh69Oja9pnbItq1R0BegZmZmbVp04a1KBKJGjVq1K9fP6lUqqWlNWTIEPaIEEL/3LGvHu4jtOvFGFhAQABv/S9d47J8+fKQkBBzc3M2D8JTYLNmzWI7Kx8+fCibrQMAHx8f7h4crgIjhFRUVISEhKxatWr16tWyVcwJCQmEkOoVmI+PD3evEyFk48aNAEB3cXIVGP0G5Q7ds08Y/eravHkzS2natCn9JmAp1Bg+fDh3r5mSCmzt2rXdu3fnVUVvjxw5oqGhoaWltWTJEvZVigpMIau6SaxKgdHxTk9PT54bdanAeP8TafgJtkCbhsmwt7fneUgI8fLyoiPB8o8UpsivA2PZ2CykbElAly5d1NTUFMqaq1ev6uvrD//PRef3u3btyh0u4iowQsiNGzc0NTWbNGmSnJwsr8CoA9euXdPX1weAefPmMZeqMdgs5K1bt7S0tNq0acOWzbFS8rOQr169On78OM1A9xls3LiR5WdGbGwsABgZGbGUWjLeOwZG2y0oKHB2dnZwcKhmidjevXt9fHzYn5pachirrTMC8grMysrqiy++4Drg6OjYpEkTQoipqamNjQ33kaenJ2+EhfsU7XoxBsb7u79u3ToXFxc6oWBnZ6eMAqNLowIDA1VVVY2MjNiSEa4Cy87OtrS0pH87zp07p6QCo4OoXAm/b98+ALh37x79Jc3GwJRXYJWVlerq6gp3iNjY2HzEGNjSpUsbN25cVlam8AOdnJw8cOBAAHBycqLTK6jAFIKqm8SqFBjdEcKGRpgzn1CB/fnnn9zNjxKJRF1d3dzcnPnGDGdn5w9a9KOMAiOE3Lt3T1tbW09Pjxsshjbq4+Nz6dKlAs5FVzeePHmSecVTYHTiEgC6du1qZmZGs2VlZbFVLDTl2rVryusepsAIIbt37wYAa2tr3v9EeQVGG6qsrCwrK6Pj8VOnTmVuM2Pr1q0AMGXKFJZSS4b8OrDTp0/L/4EqLCx0dHTs27cvFzLXpc2bN/v5+Sk/h8sti3b9JCCvwPz8/PT09LjefvPNNzo6OoQQd3f3Ll26cB8NGDCAO6bAfYR2XY+BdejQgY1aMfq8MbDU1FSBQHDw4EGawcbGRhkFxn6TXb58ma5focW5CszX15dtQadrtrhjYOHh4cwl7iwk3am0f/9+9nT16tX6+vp0fcxHj4F169atc+fO3GX7oaGhb9688fPzEwgELAYxVXVs6VuTJk3Yco3bt2+zWci//vpLFt+SOwVTUFAQEhLy7t27c+fOUc9/++03NodLFVg1OzdZZ9GocQIKFVhWVpZsuaGTkxN3CIc2rfB/zQftheR2ITQ0lBsPjPuItxKfELJmzRoAGD16NMtmZmamo6PDIo7S9MrKSjs7O5ZHGePJkyfceGDcIn5+ftxoFFQFfvnll9z49VlZWfKDWFeuXOHVGRUVxZtcI4R89913AGBgYEAbzcvLowsAuD7o6Oh8+eWX3JSq7DZt2nCjUdCX6+/vz81flQJbvXo13Qfdo0cPQ0ND+fh8/fr109LS+qDBRW67H2T36tWLu4pu5syZJ06c4NaQn5/v4OAQGxtbUlIydOhQ+SH8FStWfPvttzj5yIX2GdjyCiwkJAQAWExmQsiwYcPo0Ne2bdsEAgHddE8nnZo0aUJ3nn0GKGqjC3U6Bqanpycb3uf9QPTz82vUqBFb8Eu1UWBgoEQiuXr1aqtWrWxsbN69eyeRSI4dOyZbz37x4kUKYtq0aSoqKrTgyJEjWbV9+vRhQ/q2trZses7GxkZdXf3x48cikWjatGkAEB0d/fbtW7qnbNmyZVKplB5vMnv2bACgC0HEYvEXX3xha2tLf9hJpVJLS0s2UNGzZ08W0FIkErF9jrxXRUNZcico6bIVBweHCxcu3Lp1a+HChXRN8enTp2n47NevX4vFYrrrhCkwU1PTjh075uXllZSUzJ07FwCWLl1KYwsZGhqqq6tv3LgxNTX10KFDw4cPz8vLKy4uZnGSSkpKVFVVaVhIKisvX75cWFjIHd7juY23tUHA19dXNlLCgh2Ul5eHh4e3bt3a0tJSfgJLNuut8H+N7K9eYmIid4BKSVfpHLr8FJtUKtXQ0NDR0WHfoPfu3TM0NNTU1ExKSmKVh4WF0VEZphQrKiqCgoIUButipeSNu3fv0uEi+Uc01j935nHKlCkA4OHhwQZXJk+eLD9CQwgxNDSUBUSNj4+n1YaEhLDPP2uooqKif//+TIERQoRC4ZIlS1gGusdlzZo1LKUaQ1dXVyAQsEm30tJSeurAr7/+ykrRGVJecPCIiAgDAwNaMCEhQSgUBgQEsHqo/FVTU5MXOqzamjXWr1/PnW62sLBgnwSZbM3Ly3NwcGBB2srKyjw8PLhxbuf+fbFPBSFk7969bC6iZl3F2uqSQOvWrZ2dnbktVlRUdO7cmR01UVZWpq+vT4dFi4uL27Vrx9bbHD16VF9fH79iuPR4dh0psOvXr9M/owDg6+vLzmrct29fy5YtAWDOnDlU/ZSWltLNQW3atAkJCVm4cCEAuLu7P3z40MnJCQBGjBiRlpZ26tSpdu3a0eUaZWVl/fr18/T0jIyM/PXXX0eMGCEWi0tLS3fs2KGhoaGpqbl9+/aioqKwsDB1dXVNTc1hw4Y9ePCgcePG+vr6kZGRVFSpqKgMHz785cuXhw4dohF95s2bR7emP3v2bMiQIW5ubjt27AgICGA7gLZu3UqXldDhq/HjxwOAqakpL1BZRkYGDYPerVs3NrZXXl4+ffp0NTU1uv1q9erV7MUsWLBAVVVVIBB89dVXly5d4q7ElwWb0Pr7srGxuXbtmra2tmznGhVV8fHx1G0AsLOzo6NoxcXFQqFw7ty5UVFREydOZF9a2dnZzZo1a9q06YwZM9i3GnMAjVoiIFuyumrVKnrqTseOHd3c3FxdXYcOHTp27Njw8HD5F1HV/xoaxoV+r6upqS1evFiZuG5isXjz5s30Q2JgYLB27Vq2YjImJoZ+emVLwq2srFxdXa2srLp27ern55ecnMyjsX37dn19fRMTE39/f09PTzs7uw9VCbJT5Oj/ZVVV1YULF7Jg8fn5+StWrNDW1gaAvn37hoWF0abFYjGNPuPk5BQfH798+XJVVdU+ffpwT9SorKzctGmTrq4unWQ8derUhg0bjIyMNDU1lyxZwvsOePnypaWlJetXv379XFxcvL29V65cuXDhwrZt2y5atIgrJlhOrvHgwQO6aRoAxowZw2IZZmRkNGvWDAAmTZok+wPy008/qaur0+OY3NzcRo4c6ezsTOPdsD1GhJCHDx9+/fXXvXr1Wrx48c8//zxgwAB7e/ubN29yW6xVWyKRBAYG+vj4zJw5s2/fvixcGZVfnTt3NjIy8vf3p1giIyNtbGxUVVV37txJvdLT0xvw/6/27dszxVarnmPltUTg7t27y5YtAwAa3ujJkyesobS0tN69e//4449Hjx79+uuvWSBDr0KmAAAgAElEQVQCOjZva2u7ZcuWPXv22NjYsDACrCwaXAJ1pMC4Tb7Xlkgkjx8/Zl9I2dnZ7/1rKBaLpVJpdna2wlEE1qJIJGLfOgV/X/RReXn5e4f6i4uL35uHNaSkUVpamp6ezsb/WKmioqLnz58TQngr8emOLeqGRCKhMcRZKULI06dPWQdpevnfV3p6OnfGk4a9qCaWD7dOtJEAjwD9vxYfH99wA5qwiRL6v4Z2MCcn59atW/L/rXjdr73bM2fO0F9lY8aMqb1Wqqk5Nzc3MTGR/e2tJic+QgI5OTm3b9+W//4ihGRkZNy/f587pou4FBKojwpMoaP/m4nyCux/kwP2unoCqamp9NRn+X9nzZpVfdmafRocHCzvA01ho0Q122Kt1lb33Tlx4kTjxo1p7GWF32212l+sHAkggbokgAqsLml/cFtZWVkAsGDBgg8uiQX+lwjk5+dHVXGxdZN1wyM+Pr4KR6K4x4XVjTP/vJVP0p2cnJwZM2Z06tTJzMzs999/v3XrlpLByf55f7EGJIAE6pIAKrC6pP1hbV25csXX17dJkya9evXCFRUfxg5zI4GGT+Dly5d37969dOkSO7Ks4fcJe4AEkMB/CaAC+y8LtJAAEkACSAAJIAEkUDcEUIHVDWdsBQkgASSABJAAEkAC/yWACuy/LNBCAkgACSABJIAEkEDdEEAFVjecsRUkgASQABJAAkgACfyXACqw/7JACwkgASSABJAAEkACdUMAFVjdcMZWkAASQAJIAAkgASTwXwL/SIFNmDBBiBcSQAJIAAkgASSABJBAtQTYSWtMgv0jBcZqQQMJIAEkgASQABJAAkhAeQKowJRnhTmRABJAAkgACSABJFAzBFCB1QxHrAUJIAEkgASQABJAAsoTQAWmPCvMiQSQABJAAkgACSCBmiGACqxmOGItSAAJIAEkgASQABJQngAqMOVZYU4kgASQABJAAkgACdQMAVRgNcMRa0ECSAAJIAEkgASQgPIEUIEpzwpzIgEkgASQABJAAkigZgigAqsZjlgLEkACSAAJIAEkgASUJ4AKTHlWmBMJIAEkgASQABJAAjVDABVYzXDEWpDAewlUVFTkcS6RSCSVSuVLSaVSTi4FZkVFhUgk4j549+6dfD0spbi4mJuZZxcWFhYVFXETCwoKWFlmFBYWcvOUlpbSR2VlZSw9Pz+f5Zc3SktLWU5qlJeXU0O+YH5+PsvMbSIvL+/t27es8pKSEpatoqKCpStjpKenV58tLy/v/PnzcXFxFEhZWVlGRgYhhOtbXl5eeXk5IYS5kZeX9+bNm+prxqdIoEEQePHixdmzZ69du1ZWVtYgHG5wTqICa3CvDB1uqAQKCgq2bdvWvHlzAOjevfvo0aNdXV0HDRrk5eW1e/dusVhMO5abmwsALVq0GDRokIeHh7a2tkAg8PDwcHZ2bt++PQDExcUdP37c3d0dADQ1NdetW5eamloNlKCgIACwsLBwc3MzNzcHABMTk2HDhtna2qqpqbm4uMTFxc2YMQP+vsaOHevj42NlZWViYvLLL78wpRUbG+vt7Q0AampqwcHBVIsQQrKyspYsWaKiomJtbX306NFq3Hjy5MmmTZt0dHQAYNCgQQcPHnz58uXSpUvV1NQEAsHx48e5ZY8fP96nTx8AWLJkSWZm5o8//sjcu3XrFst59+7d0aNHA8D06dM/SPfExMRYWVmxenjG1atXLSwsevToMX369JUrV44aNap9+/ampqabNm0ihERERNjb2wOAUCjcsmXLixcvCCFHjx5t06aNqqpqYGBgREQEr8KGcvvq1as7d+5UVlb+E4elUqlEIvknNWDZ+kBgzpw5U6dOvXz5cmhoaM+ePRMSEuqDV5+ZD6jAPrMXit2p7wTGjBkDAGfPnqWOisXi0NBQXV1dExOThw8fEkIeP37cs2dPJn2MjIzU1NRo5srKSg8Pj/PnzxNCkpKSAMDBweG9HR4zZsxff/1Fs+3Zs0emopYvX05vb9y4MXDgQGpraWnp6+uz2sLCwgQCwciRI1lKeno6APTp04elMMPOzu7q1avsthrDw8ND5valS5dYHir+mjZtytORZ8+etbS0ZNn8/PwA4LfffmMp1Dh8+PCAAQN4ie+9HT58OABcu3ZNPueGDRsEAsHcuXO5QuTy5cu6urqrVq2i+aOjowHg66+/ZsWzsrL09fVPnjzJUhqWUVlZOXnyZC8vr+nTp9va2j548OCj/R8xYoSBgUFOTs5H14AFPzmBsLCwbt26MTfWrl3bu3dvdotGTRFABVZTJLEeJKAUgYCAAACIjY3l5k5ISNDQ0DA1NRWLxffv39++fTt7ylVghJAzZ86cOnWKEJKamgoAbm5uLGdVxvfff8+mO3kKjBAyffp0WlAoFDZv3pxbiaWlpUAgEIlENDEnJ0fmuUK54+npSeUjt7hC28fHR+Y29/f0okWLnJ2d6chcUVERK5WSkjJq1Ch2+/DhQ4FAYGpqylKoERAQcOTIEV5i9bdZWVlWVlYCgcDb25uX886dO5qamo6Ojrx0Qsju3buXLFlC069cuQIA48aNo7e5ublfffXVuXPn5Es1lJQNGzasXLmSevvs2TNLS0uuAFW+F8eOHQsODv7mm29QgSkPrR7mnDp1Kvf/2t69e4VCYT30s6G7hAqsob9B9L+BEVCowAghM2fOBIDg4GCpVMr98uMpMPZUeQXGnRKSV2DsqbwCGzBgAADk5uZSxNUoMB8fn0ePHinzJhQqsIiIiG+++QYARowYwcTio0ePfHx8uHXSideoqCiW+Pbt2y5dunzoCrC5c+eeOXNm6NChqqqqWVlZrDZCSL9+/QAgJiaGm0jt0tLSrVu3UpurwNLT07/88kuFReQrqbcp5ubmxcXFzL2ZM2d+xFxqaWmpi4uLWCxGBcZINlDjt99+A4A//viD+u/l5eXv799A+1Kf3UYFVp/fDvr2GRKoSoElJCQAgPzoC0+BMSLKKzBWhBAir8DYU54Cu3jxooaGBneMrfYU2MmTJ9+9e0fXqP3yyy/UJXkFFhsbCwBOTk7M5x07dsybN4/dKmOUlpZaW1tLpdLIyEgAmD17NiuVn5+voqICAIWFhSxRocEUWGJiYseOHS9cuKAwW0NJLCoqGjx4MNfbyMhINlVNCNm0aVNAQMCcOXPob4Po6OiAgICgoKCXL19ySy1btowO0KIC42JpiHZJSYmFhYWqquqqVavmzZs3duxYti6iIXan3vqMCqzevhp07PMkUJUCKyoqAoCWLVvyul2XCkxDQ8PT03PkyJFWVlaNGjVavnw53ehHXapVBUYX9bdo0UJFReX06dOEEHkFJlsFb2FhIRsqu3PnDnXJ0tJSybE3RjUkJGTt2rWEEKlUamxsLBQK2djP7du3AYC7GI6V4hlUgfXo0UNHR6dz586vXr3iZWhYt8nJyZMmTeL6nJKSEhgYyFJycnIsLCyOHTtGU4qKihwcHEJCQlgGQkh2djYbs0QFxiXTQG2RSER3w3Tr1o1uN2mgHanPbqMCq89vB337DAlUpcCKi4sBoFOnTrw+16UC09PTE4lEOTk5MTExo0aNUlFRGT9+PJvjq20FRgiJjY1VU1Nr1qzZ48ePFSqw/fv3AwCdEElMTJQfMuTRk7+1s7NjuybXrVsn23a6ZcsWmi05OVk2EaylpcVmQuWL0xSqwHr37j1u3DgAMDc3f++wWVVV1Yf027dv//DDD1xPMjMz2So3mi4SiRwcHK5evSoWi729vQ8dOsTNL9tBMmbMGKaGUYHx4DTE23v37jk7O0+YMAEA2rZty15uQ+xLvfUZFVi9fTXo2OdJoCoFRr/+PT09ed2uSwXGW4lPw0+wBdo0TIa9vT3PQ0KIl5dXZmamfLp8isJ1YNwthBs2bACAHj163Llzh42psHoqKiratWunoaHx7NmziRMnhoWFsUfKGFevXtXX1x/+n8vR0REAunbtSiVXeXm5mpqabIn9e/vCZiGlUin9iurfv3/DnaZ57xgYZVtQUODs7Ozg4CC/ROzChQsLFy5krwAVGEPRQI3U1FQDA4O0tDRCyIEDB7S0tLp168Z+jDXQTtVDt1GB1cOXgi59zgSqUmArV66U/dbctWsXr/OfUIH9+eef3M2PEolEXV3d3Nyc5yEhxNnZmbuNUT4DS3mvAiOE+Pv7A0Dfvn3lFRghZM2aNQAwbdq0jh07siBqrP7qDR8fn0uXLhVwLi8vLwBgEtDKygoAeMHJ5OtkCozOZtJIGW5ubg30K0p+Hdjp06eXLVvG63hhYaGjo2Pfvn0ZLpZh7ty51tbWA/5ztWrVavDgwdUHCmZl0aiHBL799ltu3JlNmzZVtUOlHjrfgFxCBdaAXha6+jkQUKjAsrKyhEKhk5OT/PxXhw4dWDwwbv8/biV+aGgoNx4Yt0LeSnymdUaPHs2ymZmZ6ejo8L5ZKysr7ezsWJ7qDXkFNm/ePLbAiJYtLS3t3bs3AChUYAUFBTSs648//lh9W7ynWVlZ8jGNqJYaNGgQzXz27FkAsLe3l38RhBAWJevy5cvcaBTl5eWDBg0CgNGjR3P3sfIcqM+3vXr1Yuvh6M7cEydOcB3Oz893cHCIjY0tKSkZOnTo4cOHuU95No6B8YA0uNtRo0a5uLgwt+n4d2RkJEtBo0YIoAKrEYxYCRJQloCvry8AsJAK5eXl4eHhrVu3trS0ZHEfuHXp6ekBgPypIImJidwBKm6RauyNGzfKapPfPyiVSjU0NHR0dJiAuHfvnqGhoaamZlJSEqswLCwMAKZMmcIESkVFRVBQ0N69e1me6o1hw4bxwqGNHTv2999/55V6+vRpy5YtFSowQsgPP/wAAEwP8cpWdTt58mT5cR1CiKGhIQDEx8fTgvPmzRMIBOPGjWPLxehJRN999x17a6dOnQIALy8v1tabN28MDAwAIDAwkDFkT+u/sX79eu50s4WFBbcXeXl5Dg4O169fpx0pKyvz8PA4cOBAVf1CBVYVmYaSvnPnTqFQyGIBJiQkcG8bSi/qv5+owOr/O0IPPxMCIpFo1apVTZs2lQXa6dixo5ubm6ur69ChQ8eOHRseHs7icrHeXr9+fcqUKfQ0Hl9fX7pDkD7dt28fXcOkpqa2ePHi27dvs1JVGWKxePPmzcbGxgBgYGCwdu1atoMvJiZm/PjxtCErKytXV1crK6uuXbv6+fklJyfzKty+fbu+vr6JiYm/v7+np6ednV31wyGseGpq6ooVKxo1aiQToNbW1jt27Hj27NlPP/2kra3dtm3bjRs3spzUuHjx4pgxY3iJ9PbJkycslL/CDPKJy5cvV1VV7dOnDz1RgGaorKzctGmTrq4uXQ3GCMfGxlpZWRkaGnp4eEycOHHAgAE+Pj4pKSm01IEDBywtLWUB+nV0dIKDg58/f04ICQ8PNzMzowwHDBjAG0CS96e+pUgkksDAQB8fn5kzZ/bt2/f+/fvMw7y8vM6dOxsZGfn7+1PlHRkZaWNjo6qqunPnTpaNGjdv3hwwYADOQvKwNMRbOrMcFha2f/9+FxeXBh1wuN7yRwVWb18NOoYE6ikBqVSanZ0dHx+v8AzvGnT69evXVdWWl5dX1aOaSi8vL799+/adO3e4Z4HXVOX1s57c3NzExET5HwP101v0qrYJFBUVJSQkpKWl4UeillDXrgKTSCR5//+q8ZWqssBxERERbEHuvXv3uL9xedSeP3/+oUK+oqLir7/+4s5H8Or8JLfFxcXVn4Jc214lJiYqeQrNR3tS/av80Grr53v80F5UlT81NXVcFdesWbOqKlUb6cHBwVU4Mu7KlSu10SKrs/5AYC6hgQSQABKohkDtKrC3b9/u3bvXxMSEBjoKDQ1l88rV+KT8o71797Zt2xYA2G9xJycnhQEVJRLJsmXL1NTU2JJbJVu5evWqLEjjpk2blMxfB9kOHjxoaGiocHV2HbT+7NkzNzc3ANi3b1+tNlfVq/y4Ruvhe/y4jigslZ+fH1XFdfHiRYVFaikxPj6+CkeiZHOOtdQorbb+QKjVbmLlSAAJfDYEaleBUUw07OHSpUtrg9rChQu5CiwtLY0tF5VvztTUVBkFxl0DIZFIIiIilNxpL99iLaVMmTLlUykwQsjNmzfrQIFV/yqVAVv/36MyvcA8SAAJIAEk8FkSqAsFtm3bNgD49ddfa4NgcHAwV4FV30Tv3r3fq8AePHig/Nb66purvaezZs36hArs/v37daDA/iG9BvEe/2EfsTgSQAJIAAk0XAKfRoFlZmY+fPhQIpFcvnw5IiKCnj33+PHjhL8vtrHr/v37CQkJ6enplG9qampYWNi5c+e4cWt4CkwqlV65coVtlSeEVFZWJiYmHjx48Pnz5zwF9vLly2N/X+zQq+zs7C5dunTt2jUhIeHx48e03devX/N2hGVkZBw+fPj8+fO8o0gU9kvhh0O+aZotISEhPz+/qKgoIiLi2rVrvLKPHz8+ePBgcnJy9Qrs9u3bhw4dunPnDl3I/PDhQwo2ISGBVvjgwQNuB6tvNCMj4+DBg9HR0eyIQKbASktLL1y4cOLECW6shJcvX6anp5eUlJw8eZKtn8vLy4uKijpx4gQv4MKbN29u3LhBCLl//354eDh3eTXvVbIuMCM/P592Rx5mnb1H3gvCWySABJAAEkACShKoawWWn58fFBREIxL5+voOGTJEVVXV3d2dEJKenk63c589e5Z6f+vWLT09PRr1Z8KECQEBARkZGfPnzzc1NWXfvlwFtn///k6dOgEA27jx+vVrFxeXHTt2JCUlff/990KhkI2B7dq1y9bWNjU19fDhw0KhkOqACxcudO/evX379nv27Ll48WJGRkZAQIC6uvqiRYuoS6WlpYGBgQsXLkxKSlqzZk3Lli3Dw8NpuKCq+iX/JhQ2nZKS0r9/fwDYunWrh4cHPRKVHiFMCJFIJNOnT//xxx+TkpI2bNhQVZROmeJcvHjxggULnj9/vmbNGg8PDwq2Xbt2AoGASduMjIwWLVqkpaVV32hlZeW0adOWLVt28+ZNb2/vzp07P336lKolAFi5cuWwYcNcXV1VVVXp8XxPnjz59ttv1dXVf/75ZxorgXLbtGmTt7d3fHz8wYMHW7duvWjRIiqR165dq6mp6erqOnv2bA8Pj6ZNm7Zt25aKWvlXaWJiEhISEhYWduDAgVatWunq6lJnFMKsm/co/2YxBQkgASSABJCAkgTqWoERQp49ewYAQ4YMoZG1FyxYAADZ2dmEkGPHjgHA/v37qfc3btygX+FpaWkAQMMO5efny9b1swiQXAVGCJk8eTJXgXl4eLD1ZxKJxMDAgCmw1q1bT5s2jTbUo0eP8ePHU3vw4ME9e/Zk+F6+fCmrkCmw+fPnOzk5sadLlizR0NCgI2TV9Ivlp0ZVTdNTh//1r3/RbDY2Nuyc5nXr1jk4OLB6vLy8FM5CVlRUaGlppaam0pzz58+nxpYtW7hnSly+fHnmzJn0UTWN/vLLLyzseEpKioqKyvbt25kC8/X1paNi//rXvwCAbo28c+cOAAwcOLCioiIhISErK+vMmTPNmjVj+/nPnz/PPXunS5cuHTp0oMfwRUdHc98s91WWl5f/8ccf3L7s3r2b3lYFsw7eI3UA/0UCSAAJIAEk8BEEPoECKy4u5p6LcvToUQCgM25SqdTY2JjFWpw6dWpWVhadSTx48GBJSQkhhKoxNjjEU2CLFi1iCuzu3bsAcOfOHcaFOwt57tw5WvmbN2/MzMzoOBwhhPfNLZFImAKTSCRaWlrLly9nFdKzGqZMmUIIqaZfLD81qmr65MmTAMA27U+fPl1DQ4MePNe8efMNGzaweqqahZRKpfr6+ra2thkZGYQQNrv67t27Fi1auLq60homT5589+5dalfVaHl5uZaWVlxcHGv00aNHNJgIm4Wkj06fPg0ANMxHTk4OAKxfv56VGvT3xW5l57x27drV1NSUpnDfyJs3bwBgxYoV9BH3VbLimZmZTZo0cXZ2ZilVwayD98h8QAMJIAEkgASQwIcS+PQKjKcA1q5dKzteLS0trbS01M/Pj9ufs2fPLlu27PDhw9x1/dUoMHoEHlMhhBDu9z0hJDU1dfny5SEhIebm5m5ubrStar656Ul8TCLQ/Hp6ev3795dXYLx+cTtSVdO8IkxmPXnyBADCwsJYJewRS2HGkSNHNDQ0tLS0lixZwo2+tnTpUoFAkJycXFFRMXjwYJa/qkbpaJbCoF88BRYbG8uO2aEKbPPmzax+AwMDrmAihIwcOVJVVZWOn3HfCE/CKlRgTk5OTZs2pSOmrIlP+B6ZD4SQ0NDQn/BCAkgACSABJKCIwJMnT7hfGYSQeqfA3rx5o62tPXv27AMHDhw/fpy6W15e7ufnN3fuXKlUSgel2M7KahTYmjVrAODevXusz9zv+3Xr1rm4uNBF/XZ2dsoosKdPnwLApEmTWIWEEGNj41GjRn2QAquq6arEEI3+wI1JVo0CI4QkJycPHDgQAJycnNiSOJFI1Lhx4/Hjx0dGRnIVUlWN0rOHT506xe0stT9IgXXu3PmLL77gVhIQEMBitnHfyHsV2O7duwGAdxBKVTCrUdI19R65nSKEJCUlXcALCSABJIAEkIAiAmxrGvvuqHcKjBASEBAgWyc+evRoph62b98uOw+YHmNXXl6u5BgYXVXGnbzr3bs3XTOempoqEAgOHjxIQdjY2HAV2JdffskAcWch6SG+Xbp0YU+lUmmTJk3olChPQPCUDStSTdO8IkxmvXnzRiAQjBgxglUya9YsVVVVdsuMd+/esaD/v/32G3dOk55nrKGh4erqyo2LW1WjeXl5KioqQ4cOZZVLJBK67eCDFJiPj49AIKCr5mlVQ4cOZXO+yiuwZ8+e6erqchfhJSUlVQNz8ODBtfoeGRY0kAASQAJIAAl8BIG6UGBUCrAF5gUFBQDw888/U3fprCLTDXQsAQCWLFnC+kNX6//5559lZWV//PGHQCBYsGABXdxNI7IySTF79mwAKC0tJYSUlZV16NDB0NCQrkzPzs4WCoWdO3d+8eIFXfQdGBgokUiuXr3aqlUrGxubd+/eSSQSHx8fbW3tsrKyR48eVVZWlpSUyCqcO3cudeaPP/4AAHaCb0REhLGxMY3F8N5+0RqqaZpKRhbEfNq0aSoqKnS2zsfHR0VF5ciRI4SQ0tJSOzs7AEhKSqqsrGSU6Dict7c3TSkpKVFVVWXrvQghz58/b9SokaenJ7dINY36+/sDgJ+f37Vr16Kionx9fenKuaSkJAAICQmh9Zw5cwYAIiIi6L5L7iI/um5PU1OTAXz16pWuri7d3yrbe9GzZ0+27E8kErEld4QQ7qskhLi5ueno6NA1+4SQwsLClStXVgOztt8jlyHaSAAJIAEkgAQ+lEDtKrCCgoLNmzd37twZAFq3br1u3brMzMxp06YBwJdffnnhwoXk5OR+/foBgLu7O3dxj729Pfc2JSWlRYsWAGBubn79+nVbW1t1dfXly5dTAQQAs2bNevz48aFDh4yNjWmoi5ycHELI7du3TUxM1NTUvvrqq1mzZllYWNjb2+/evbu0tNTS0lI2pdWmTZuQkBAq49zd3SsqKo4fP66iomJkZLRr165Hjx7NnDkTALp163by5EkKNyQkxNjYeMWKFevWrRs9ejQNcFVUVKRMv6h+Utj0w4cPnZycZFsHRowYkZaWdurUqXbt2tG+lJWV5eXlubq6CgSCLl26jBw5cty4cSYmJsuWLeMFJCsuLhYKhbIz7aOioiZOnLhs2TLeB8Ld3Z07sVh9o0VFRV5eXioqKgBgYmJCA3Y8e/Zs7NixAGBjY3Pz5s2UlBR6SJGbm1tsbOyYMWMoLja+SAiJi4szMzP77rvvtm3b5uPjww4t2Lp1q6amZpMmTUJDQ9+8eTN+/HgAMDU1vXbtGu9VHjp0CADoS5w5c2ZQUJCxsfHvv//+Cd8jDyzeIgEkgASQABL4IAK1q8A+yBVuZvnp0nfv3rHxj/Lycl5gT25Zefvp06dUqbDjI2mErcePH7OJzuzsbBbHNTc3l0VPkK+NpmRmZnIDw1aVTWG6RCKpqmmF+VmiLJoa7Ti3I+wpNcr/vtLT03nijO6ptLe3Z13mFazqtqioiJGvKo8y6a/+vpTJ+UF5qoFZ2+/xg/zEzEgACSABJIAEuATqqQLjuoh2TRE4ceIEbyNnTdWM9SABJIAEkAASQAIfRAAV2AfhapCZL1++3KNHD19f36+++qq+HTHeIIGi00gACSABJIAE/jEBVGD/GGG9r+DBgwfdunXr2bPnrVu36r2z6CASQAJIAAkggf8JAqjA/ideM3YSCSABJIAEkAASqFcEUIHVq9eBznzOBCoqKvI4l0gkYps/uN2WSqWcXArMiooKkUjEfUCPWOVWwrWLi4u5mXl2YWFhUVERN1HhPo/CwkJuHhrwhcZ8Yen5+fncdquy8/LyoqOjU1NTpVJpRUXFo0eP6DYRVg81WHGue2KxmGXjhWJ5+/Yte8TbSSORSJKTk0+fPk1DzBBCUlJSWP1KGmlpadXnLCkpuXHjxrlz59g+IdoK17G8vDx6uhqPp8JPQvXN4VMkUNsEXrx4cfbs2WvXrtGIS7Xd3P9g/ajA/gdfOnb50xAoKCjYtm1b8+bNZcfMd+/effTo0a6uroMGDfLy8tq9e7dYLKZu0cNGW7RoMWjQIA8PD21tbYFA4OHh4ezs3L59ewCIi4s7fvy4u7s7AGhqaq5bt46dxa6wY0FBQbKAbRYWFm5ububm5jS2yLBhw2xtbdXU1FxcXOLi4mbMmAF/X2PHjvXx8bGysjIxMfnll1+Y0oqNjfX29pYFe1NTUwsODqYHjxJCsrKylixZoqKiYm1tffToUYUOcBN37tzZpk2boKCgefPmWVhY9OzZk8ZMEYvFa9as0dTUlB3c3rZt20OHDtPDBMEAACAASURBVLFScXFxzs7OAoEgMDAwJydn586drVq1AgB2ujzNGR8fT+OkeHt708gpsqhyJSUlCxYsaN68uaen58qVK2fMmGFmZta7d+/27duz+pUxCgsLW7ZsyeIO8opkZ2d7enq2a9du/Pjxq1evDggI6NChg6WlJY29d/PmzYkTJ1K8CxcupKd0XL9+3cHBQfY2XVxctm3bxj1AjFd5Xd6+evXqzp07PGmrpAOS/3+hplSSW73NNmfOnKlTp16+fDk0NLRnz54JCQn11tWG6xgqsIb77tDzBkmAhkw7e/Ys9V4sFoeGhurq6pqYmNBTOB8/ftyzZ08mfYyMjNTU1GjmyspKDw+P8+fPs8DFDg4O76UwZsyYv/76i2bbs2cPN2TujRs3WERcLS0tdloUISQsLEwgEIwcOZLVn56eLgtH3KdPH5bCDDs7u6tXr7LbqoyUlBQ1NbUzZ87QDMXFxS4uLpMnT2b5//zzT9nJ7kKhkLdlZMSIEb/99hvLdvz4cSpoDhw4wBLpgJyamhoLE/PmzZvOnTt36tSJG5f43bt333zzTaNGjbgF32uvX7+ee2w8N//169e1tbWdnZ25Q4DZ2dk9e/YcMmQIzUlP8mjVqhUrKBaLzc3NFy9ezFI+rVFZWTl58mQvL6/p06fb2tqymMnKe2VjYzOIc/3444/Kl8Wc9Y1AWFhYt27dmFdr167t3bs3u0WjpgigAqspklgPElCKQEBAAADExsZycyckJGhoaJiamorF4vv372/fvp095SowQsiZM2doTF16Tjw7TYvllze+//57NiDBU2CEkOnTp9MiQqGwefPm3OKWlpYCgYAN/NBj1wcMGMDNQ21PT0+Fh7jzcu7cuRMAEhMTWfrLly/ZKQ40kfIJCgpiec6cOePq6spuCSHnzp2zt7fX1NTU1ta+c+cO95GpqSm79fX1BYBLly6xFGqIxeIuXbooP9IjlUptbGyMjIzatGlDz6hgFRYXFxsbGzdr1kw+/F56ejpTt4QQNTU1IyMjWrC8vHzEiBG//PILq+eTGxs2bFi5ciV149mzZ5aWlsrzoaUUfjA+eb/QgY8jMHXqVO5/pb179wqFwo+rCktVQwAVWDVw8BESqHkCChUYIYSevhAcHCyVSrlffjwFxp4qr8C4MXjlFRh7Kq/ABgwYAABsVVM1CszHx4cu56qe17///W8AcHR0pGuhaGZ22gS9LSkp6dKli+zQhejoaDqN2LNnT3rEBav83Llzs2bN2rVrFwB06tSJO/jEfqnHxMQAQL9+/VgprrFt27bqF89xM58+fXr+/PmrV68GAN6o2+LFiwGgqqEsemIsrYopsOLi4sGDBwcHB3Ob+OS2ubk5Gzukn0Z6zpjyjqECU55V/c9JzxL8448/qKteXl7+/v713+0G5yEqsAb3ytDhhk2gKgWWkJBA1QmvezwFxp4qr8BYEUKIvAJjT3kK7OLFixoaGtwxtn+uwEpLS+kZZT169GCHUzEHmHHt2jVVVdX27dsXFRXNnj17586d7BE1qAIjhEyePJkupWKalSkwurJtxowZvLIfcTts2DDZcWoikahRo0aWlpbcGnr16gUAx48f5yYqtKkCy8vL69Onz+rVqxXm+VSJRUVFgwcP5rYeGRm5fPlylrJp06aAgIA5c+ZQztHR0QEBAUFBQS9fvmR5qALLzc1NTU1lsp49RaNhESgpKbGwsFBVVV21atW8efPGjh3L1kU0rI7Uc29RgdXzF4TufW4EqlJgRUVFANCyZUteh+tSgWloaHh6eo4cOdLKyqpRo0bLly/nTrr9cwVGCMnOzraysgIAgUAwceJE7vAVt+Pz5s2j0srZ2ZmbTm2mwMrLy+kp9fPnz6ePmAIbPnw4AGzatEm++AelPHr0aPjw4bTIhAkTAIC74k0oFAIAXVxffbVqamr6+vomJiaamppxcXHVZ67jp8nJyZMmTeI2mpKSEhgYyFJycnJk2yaOHTtGU4qKihwcHEJCQlgGQoitre2AAQN8fHwCAwMtLS2V2ZbBLY52fSMgEon69OlDz/l98eJFfXPv8/AHFdjn8R6xFw2GQFUKrLi4mM6p8XpSlwpMT09PJBLl5OTExMSMGjVKRUVl/PjxbJtejSgwQkhlZeWWLVuaNm0KAF26dGHbKrkdF4vFnTp1kh1Uz1vmRfMwBUYIefHiRdu2bWXbSw8fPkwIYQrMy8tLtleUrW3iVv5B9owZM9jWgaSkJADw8vJiNbRo0YLuTmUpVRlqampNmzZdvny5iopKs2bNuJsDqipSZ+m3b9/+4YcfuM1lZmaOGzeOmyISiRwcHK5evSoWi729vbmbVWm2jIwMptffvXvn5OSk8M1y60S7PhO4d++es7Mz/dXRtm1bZZYZ1Ofu1E/fUIHVz/eCXn22BKpSYMnJyQBA4xdwO1+XCoy3Ep+Gn2AihobJsLe357pHbS8vrw89vj0nJ8fS0hIArK2t5SskhNBVaLwVYDQnV4ERQm7cuKGpqdmkSZPk5GSmwJYsWQIAPBmhsKFqEktKSpo1a+bu7j78P5empqaqqirrbP/+/QFgz5491VRCH7F1YKGhoSoqKgYGBvXnK+29Y2C0CwUFBc7Ozg4ODsosEYuIiOBuX30vH8xQrwikpqYaGBjQGHgHDhzQ0tLq1q0b+zFWr1xt0M6gAmvQrw+db3gEqlJgK1eulIXC2rVrF69Ln1CB0dgQbIW1RCJRV1c3NzfneUgIcXZ25sWPkM9DCDl48CA3PT8/n0b2YoKG+1R5BUYICQkJkS2T79q1q5mZGa0kMjJStkKrV69e3Do/1N62bduKFSsKONeGDRsAYNasWbSqOXPmAIAyq82YAiOEbN++HQA6duz47NmzD3WpNvLLrwM7ffo0jdPGba6wsNDR0bFv3768zRPcPMy+efMmo8QS0WgoBL799ltu3JlNmzbJ9rXExMQ0FP8bip+owBrKm0I/PxMCChVYVlaWUCh0cnJiYSNYbzt06MDigbFEQsjHrcQPDQ3lxgPjVshbiU8IWbNmDQCMHj2aZTMzM9PR0eHtIqysrLSzs2N5qjFsbW1ZbAuabdiwYQDw+vVr+VL29vYAoHAMLCoqijdrRgj57rvvAMDAwIBVRZeIKfzaePbsmcLQ/6wsDdPfvXt37mJzQkhxcbHu3xcNu//69WuhUKinp5eXl8ctS21uVC1VVVUWjUJWOR2iMzMz4wGRr6RuUnr16sXbC3nixAlu0/n5+Q4ODrGxsSUlJUOHDqVzvtwMPHvXrl27d+/mJeJtQyEwatQoFxcX5i0d/46MjGQpaNQIAVRgNYIRK0ECyhKgQaqioqJogfLy8vDw8NatW1taWrK4D9y69PT0AED+VJDExERZXDE2QMUtUo29ceNGWW3z5s3j5ZFKpRoaGjo6OmxT4b179wwNDTU1NZOSkljmsLAwAJgyZQpTihUVFUFBQXv37mV5qjGGDx/u7OzM+lJSUtKuXTterC9WnIbvVxhmLCQkhBdFjBBSUVHRv39/rgJLTk42NjZu2bIlW8hFK4+Kiho/fjxzg7XIM/797387OjryEgkh9A2uWbOGPgoPD9fR0enTpw/XVYlEsn79+hUrVtA87969A4AWLVpwaxs8eDAA9O7d+82bN9z0T2KvX7+eO91sYWHBPgkydZuXl+fg4MC2r5aVlXl4eHADc6xcufLIkSPM8xcvXtjY2MjHSGMZ0KjnBHbu3CkUCtnPg4SEBO5tPXe+AbmHCqwBvSx0tWETkIUzWLVqFV2B3rFjRzc3N1dX16FDh44dOzY8PFx+A//169enTJlCg7/7+vqePn2a9X/fvn2Ojo70jKDFixffvn2bParKEIvFmzdvNjY2pgNFa9euffXqFc0cExMzfvx42pCVlZWrq6uVlVXXrl39/PySk5N5FW7fvp3u6fP39/f09LSzs3vvcAirYfbs2Q4ODrLf1j/99JPsO7tHjx6enp7yo0dxcXELFiwQCAQAMGTIEO6eu8rKyg0bNhgZGWlqai5ZsoS3Revly5e8aBElJSXff/+9oaFh7969J0yY4OnpOWDAgHXr1snTZk5S4/jx4y1btmzVqhW3dULI0aNHaQSKJk2abNiwgWbOzMx0d3dv3ry5o6PjxIkTXVxchgwZQgPnEkIuXbpERRsATJs27datW4SQuLi4ESNGUOZdunThRg7jeVI3txKJJDAw0MfHZ+bMmX379r1//z5rNy8vr3PnzkZGRv7+/lR5R0ZG2tjYqKqqskAhBQUFshNsHB0dZ82aNWnSJBsbm5s3b7Ia0GiIBObOnWttbR0WFrZ//34XF5dz5841xF7Uc59RgdXzF4TuIYF6R0AqlWZnZ8fHx793Io/n+rNnz+hXeEFBwc2bN+W1Fy//R9wqnNAkhDx//vz69etPnjz5iDqVLCKVStPT02/evMmkrZIF60+23NzcxMTE98rTqhwuLCyMi4tLSUnhjp9VlRnT6z+BoqKihISEtLS0j/5I1P8+floPUYF9Wv7YOhKoAQKpqanjqrjqeDV0cHBwFY6Mu3LlSg10tUarqMrVcePG1YY6rFHfsTIkgAQaPAFUYA3+FWIHkEB+fn5UFdfFixfrkk98fHwVjkTVk31/XBpVuRoVFYURwLmg0EYCSKA2CKACqw2qWCcSQAJIAAkgASSABKojgAqsOjr4DAkgASSABJAAEkACtUEAFVhtUMU6kQASQAJIAAkgASRQHQFUYNXRwWdIAAkgASSABJAAEqgNAqjAaoMq1okEkAASQAJIAAkggeoIoAKrjg4+QwJIAAkgASSABJBAbRBABVYbVLFOJIAEkAASQAJIAAlUR+AfKbAJEyYI8UICSAAJIAEkgASQABKolkBYWBhPjv0jBcarC2+RABJAAkgACSABJIAElCGACkwZSpgHCSABJIAEkAASQAI1SQAVWE3SxLqQABJAAkgACSABJKAMAVRgylDCPEgACSABJIAEkAASqEkCqMBqkibWhQSQABJAAkgACSABZQigAlOGEuZBAkgACSABJIAEkEBNEkAFVpM0sS4kgASQABJAAkgACShDABWYMpQwDxJAAkgACSABJIAEapIAKrCapIl1IQEkgASQABJAAkhAGQKowJShhHmQABJAAkgACSABJFCTBFCB1SRNrAsJVEOgoqIij3OJRCKpVCqfXyqVcnIpMCsqKkQiEffBu3fv5OthKcXFxdzMPLuwsLCoqIibWFBQwMoyo7CwkJuntLSUPiorK2Pp+fn5LL+8UVpaynLm5eW9efNGPk95eTk3D89mjXILZmVlRUVF3b9/v7y8nBCSnp6uMBu3CJdecXExr9Hi4mKa+e3bt8wBbvG0tDTurbxdUlJy48aNc+fO5ebm0qcpKSmEkPz8fFZhXl4edZibopCJfP2YggTqhsCLFy/Onj177dq1srKyumnxf60VVGD/a28c+/vJCBQUFGzbtq158+YA0L1799GjR7u6ug4aNMjLy2v37t1isZh6lpubCwAtWrQYNGiQh4eHtra2QCDw8PBwdnZu3749AMTFxR0/ftzd3R0ANDU1161bl5qaWk2vgoKCAMDCwsLNzc3c3BwATExMhg0bZmtrq6am5uLiEhcXN2PGDPj7Gjt2rI+Pj5WVlYmJyS+//MLUTGxsrLe3NwCoqakFBwdnZGTQFrOyspYsWaKiomJtbX306NFq3Hj06NG8efNoK0OGDPH09OzTp4+5ufnPP//MFOSrV6/Wrl2rpaUFAPb29uP+vvz8/BwdHdXV1X///XdWv0QiWbVqVYsWLYYNG7Z06dJFixbZ2dn17NmzWbNmmZmZLJtCY/369bq6ugDg4eFx+/bt58+fL1q0SCAQAMDEiRNv375NS12/ft3e3l5LS2vVqlWsnsLCwpYtW4pEIpbCNbKzsz09Pdu1azd+/PjVq1cHBAR06NDB0tLS09OTEBIREWFvbw8AQqFwy5YtL168IIQcPXq0TZs2qqqqgYGBERER3Nrq3n716tWdO3cqKyv/YdNPnz69ceMGe63/sDYs/kkIzJkzZ+rUqZcvXw4NDe3Zs2dCQsIncePzbhQV2Of9frF39Y7AmDFjAODs2bPUM7FYHBoaqqura2Ji8vDhQ0LI48ePe/bsyaSPkZGRmpoazVxZWenh4XH+/HlCSFJSEgA4ODi8t4djxoz566+/aLY9e/bIVNTy5cvp7Y0bNwYOHEhtLS0tfX19VltYWJhAIBg5ciRLSU9PB4A+ffqwFGbY2dldvXqV3VZj6Ovra2hosMG/nTt3AsDQoUO5RZydnQHg7t273MS9e/du2LCBphQXF1tbW7du3fry5cssj1QqXbNmDQDQASeWrtBYv349AMydO5c99fX1BYADBw6wFELI6tWr58yZw02hBVesWMFNpPb169e1tbWdnZ25Y4HZ2dk9e/YcMmQIzRMdHS3z8Ouvv2bFs7Ky9PX1T548yVI+iVFZWTl58mQvL6/p06fb2to+ePDg49w4deqUjY1NUFDQnDlzdu7c+XGVYKlPTiAsLKxbt27MjbVr1/bu3ZvdolFTBFCB1RRJrAcJKEUgICAAAGJjY7m5ExISNDQ0TE1NxWLx/fv3t2/fzp5yFRgh5MyZM6dOnSKEpKamAoCbmxvLWZXx/fffM8XDU2CEkOnTp9OCQqGwefPm3EosLS0FAgEb78nJyZF5PmDAAG4eant6elL5KP+Il9K2bVstLS1uYocOHQAgOzubJQ4fPhwA7t+/z1IIISUlJUxv/fDDDwAQFhbGzUDtkSNH3rp1Sz6dl/L27dvGjRt36NCBkbl+/ToAMKlE8w8bNuzRo0esrFQqtbGxMTIyatOmDZ1DZI+Ki4uNjY2bNWtWWFjIEqmRnp7OZO6VK1cAYNy4cfRRbm7uV199de7cOV6Rur/dsGHDypUrabvPnj2ztLT8iJGw4ODgwYMH49BX3b++Gm9x6tSppqamrNq9e/cKhUJ2i0ZNEUAFVlMksR4koBQBhQqMEDJz5kwACA4Olkql3C8/ngJjT5VXYBKJhHkmr8DYU3kFNmDAAABgi5mqUWA+Pj5cpcKakzfkFZixsTEAcIvLK7CysjImyFJSUlRUVL744gsmnritpKSkcMUc9xHP/uabbwCAqR+pVKqrq6uiovL06VOaMy8vjyknmnL69On58+evXr1afrRs8eLFALB48WJeK/R27dq11OAqsPT09C+//DImJkZhkTpONDc3Zwvg6KfxQ6dE4+PjBw8ejAuG6vjF1VJzv/32GwD88ccftH4vLy9/f/9aaut/uVpUYP/Lbx/7/gkIVKXAEhISAMDR0ZHnE0+BsafKKzBWhBAir8DYU54Cu3jxooaGBneMrTYU2MWLFwHgq6++4sopeQV28uTJXbt2UVd37doFAGPHjmWef5wRFRUFAKNHj6bFY2JiDA0NAWDZsmU0ZcuWLdzBSELIsGHDMjMzRSJRo0aNLC0tue326tULAI4fP85NlLeZAktMTOzYseOFCxfk89R9SlFR0eDBg7ntRkZGsqlqQsimTZsCAgLmzJlDfxtER0cHBAQEBQW9fPmSlQoKCrp37x67RaNBEygpKbGwsFBVVV21atW8efPGjh3L1kU06H7VN+dRgdW3N4L+fOYEqlJgRUVFANCyZUte/+tSgWloaHh6eo4cOdLKyqpRo0bLly/nzrXVlALT0NCIjo4+cODAhAkTdHV13d3deaNWVIH179/f7e+rX79+mpqaTIF9//33XJ3EcO3Zs+fX/1zKDCxJJJJWrVppaWnRHYh+fn7R0dEaGhodO3akcrB///7czYmPHj0aPnw4bW7ChAkAwF36JhQKAeC9EoQqsB49eujo6HTu3PnVq1fM/09oJCcnT5o0ietASkpKYGAgS8nJybGwsDh27BhNKSoqcnBwCAkJYRlk6xfHjBlDCDl8+PDkyZODg4O56LjZ0G4oBEQiUZ8+fQCgW7dudNdIQ/G8AfmJCqwBvSx09XMgUJUCKy4uBoBOnTrxOlmXCkxPT08kEuXk5MTExIwaNUpFRWX8+PEVFRXUpZpSYGpqatu2bevYsaNAIFAolagCS0xMLCsrKy0tFYlEc+fOZQosMDCQTtfyQMnCPVBxxla2yWfgpdD1ZFu2bCksLKQLjUeOHAkAMTExDx8+5O5CIITMmDHjzJkztAa6DcLLy4tV2KJFC7pNlaUoNKgC692797hx4wDA3Nxcft2YwoK1mnj79u0ffviB20RmZiZbrEbTRSKRg4PD1atXxWKxt7f3oUOHuPkJISNHjpw/f/53332XlJQUHh5uY2ODIoyHqGHd3rt3z9nZmf7YaNu2LXedQMPqSH32FhVYfX476NtnSKAqBZacnCxbfk7DFnC7XZcKjLcSn4afYAu0aZgMe3t7rnvU9vLyem8MCJqTrQO7deuWlpZWmzZt2DozVq38LOSrV6/YBB9doTJhwgSWnxl0jnXr1q0spXrj5s2bNE7H9u3bg4ODacAIOjW5cOHC8PBwVrykpKRZs2bu7u7D/3NpamqqqqqyXvfv3x8A9uzZw4ooNNgspFQqpd9t/fv3/+TzO+8dA6N9KSgocHZ2dnBwULhEzMzM7Oeff2a9joyMXLBgAbtFo2ERSE1NNTAwoKHvDhw4oKWl1a1bN/ZjrGH1pT57iwqsPr8d9O0zJFCVAlu5ciUAsJEe1vNPqMD+/PNP7uZHiUSirq5ubm7OfGOGs7NzUVERu63GYAqMELJ7924AsLa25i3flldgtMLKysqysrJr167RkGbc/Qo0w759+wBg27Zt1TjAe9StWzcA6NChA50JlUgkBgYGWlpaX3zxBXdP37Zt21asWFHAuTZs2AAAs2bNohXOmTMHAGbMmMGrn3fLFBghRCqV+vn50Q2tn/a7TX4d2OnTp9l6ONaFwsJCR0fHvn37KoydYW9vz2LaEULKy8udnZ1ZWTQaFoFvv/2WG3dm06ZNdGy4YfWi/nuLCqz+vyP08LMioFCBZWVlCYVCJycn7oJ02u0OHTqweGBcEB+3Ej80NJQbD4xbIW8lPiGEhtdia9UJIWZmZjo6OlxpQgiprKy0s7PjVlWN3aZNG240CkqDt82qKgW2evXqK1euEEJo7C75AaePUGDLli0DAO6ex9mzZ3NX6FOp1L17d+6qc0JIcXGx7t/X27dvCSGvX78WCoV6enp5eXny3WfhtS5fvsyNRlFeXj5o0CDanLyglK+n9lJ69erF2wt54sQJbnP5+fkODg6xsbElJSVDhw49fPgw96kMyKxZs7gRSV69euXt7c3Lg7cNhcCoUaNcXFyYt3T8OzIykqWgUSMEUIHVCEasBAkoS4Cqh6ioKFqgvLw8PDy8devWlpaW8vNxhBA9PT0A4I0SyfblJSYmcgeolGx+48aNstrmzZvHyy+VSjU0NHR0dJgOuHfvnqGhoaamZlJSEsscFhYGAFOmTGFKsaKiIigoaO/evSxP9Yaurq5AIGBDPqWlpTRM/6+//soKOjo6AgAvrFdERISBgQEt+OrVKycnp6ZNm7JIs7TsunXrPnQMLCMjAwC4i8ofPHgAAEeOHGH+/Pvf/5bfo8qE4Jo1a2jO8PBwHR2dPn36cIWIRCJZv349i+B66tQpAOAuIHvz5o2BgQEABAYGMvis6Toz1q9fz51utrCw4DqTl5fn4OBw/fp16k9ZWZmHhwcvem1mZqanpycrNXfuXO40bp11BBuqEQI7d+4UCoUsFmBCQgL3tkaawEoIIajA8GOABOqIgCyKwapVq5o2bSoLtNOxY0c3NzdXV9ehQ4eOHTs2PDycxeVi3ly/fn3KlCn0GB9fX9/Tp0+zR/v27aMyRU1NbfHixewgHZZB3hCLxZs3b6bBtwwMDNauXcs24sXExIwfP542ZGVl5erqamVl1bVrVz8/v+TkZF5V27dv19fXNzEx8ff39/T0tLOzkx8O4RWhtw8ePJg8eTJtZcyYMXQ0ixCSkZHRrFkzAJg0aVJOTs5PP/2krq4OAMbGxm5ubiNHjnR2du7UqZNMk7m7u3Nr3rFjh6mpqbW19cSJE+fOnevh4WFpablq1aqSkhJutvfagwYN4i2Hd3BwYON8x48fb9myZatWrbgqjZ4mRCNQNGnShAXrz8zMdHd3b968uaOj48SJE11cXIYMGUIj6BJCDhw4YGlpCQA6OjrBwcHPnz8nhISHh5uZmVEsAwYM4I08vdf5msogkUgCAwN9fHxmzpzZt29fFn2NEJKXl9e5c2cjIyN/f3+qvCMjI21sbFRVVXlR76Ojox0cHBYuXOju7s49b6CmnMR66pLA3Llzra2tw8LC9u/f7+LiwiLn1aUPn31bqMA++1eMHUQCNUxAKpVmZ2fHx8crPMO7hht7X3Wy8ZikpKS0tDQ2rva+Evzn7Ic+eyCfwh4pY8gWeKWnp9+8eZNpXGVK1Yc8ubm5iYmJ8j8GlPetvLz8xo0bGLxAeWL1OWdRUVFCQkJaWto/+UjU5w5+ct9qV4FJJJK8/3+xMep/3vN79+7RA/L+eVVYAxJo0ARSU1PpIdby/7Kl4nXTweDgYHkfaAob9KoDT+oPkDroLDaBBJBAAyVQuwqssLBw06ZNdNqlV69evr6+AwcONDMzCwoKysrK+ofInJycuAcJ/8PasDgSaLgE8vPzo6q4Ll68WJf9io+Pr8KRqGfPntWZJ/UHSJ11GRtCAkigwRGoXQVGcYwaNQoA2C/gW7du6ejoGBoa8tZefCi7tLQ0tjK0mrLcBQ3VZMNHSAAJIAEkgASQABKoMwJ1ocDoCbhcteTv7y8L/638/qmPxrF3715erOePrgoLIgEkgASQABJAAkigpgh8GgVGgwDxgk/m5+efOnUqMjKSNzb2/Pnzw4cPnz9/nhfyUSqVXrlyhe2Kr6ysPH/+/LFjxzIyMvLz8wkhMTExjRo18vX1TUhIYEtixWJxbGxseHj406dP/1i/gQAAIABJREFUGUSpVBoXF0cIuX//PhurY09pQKBr164dOHAgLi6OtUgzlJWVxcbGhoWFPX78mFukqnSFDhBCbt++fejQoTt37rx+/ZrVozCRPUUDCSABJIAEkAASaKAEPoECe/78eZs2bXR0dLhLwY4ePbpgwYLjx4+PGzeudevWiYmJFOjhw4cHDhx4+fLl2bNna2hoWFlZubm5FRcX79+/n25Qp3s0JBKJo6PjkSNHcnNzvby81q1bRwj566+/1NXVnZ2d9+zZQyP0pKSkTJ48+ciRI8HBwY0aNfrjjz8IIfv27evUqVPz5s137NjRsmVLNTU13iEhMmloaWm5devWtLS0IUOG+Pr6spd97dq1UaNG0YUvWlpay5cvp4+qSlfogCym5eLFixcsWPD8+fM1a9Z4eHjQShQmsqbRQAJIAAkgASSABBougbpTYBs3bjx8+PD8+fNbt27dq1evS5cuMWqZmZkDBgygt+Xl5c2bN6fnIZSWlurq6lKdRAjp0qULUyeEEBpbiCqwK1euGBoa0hry8vJYdEctLS02C1lRUWFtbc32mXt4eGhra9MA1iNGjFBXVz99+nRJSQkLlcnc27FjBwDQnEeOHAEAeoAJDZPD9l37+vpSH6pKr8qBiooKLS2t1NRU2uL8+fMJIQoTmUtoIAEkgASQABJAAg2aQN0psNmzZw8ePBgAlixZwkO2YMECU1PTSf+5OnbsqKOj8/bt27t37wLAwYMHaf5JkyZ16dKFlV20aBEAUAV2584dAAgKCqInhDBVxFVg0dHRQqHwP41Msra2btKkCdVbAQEBQqGQ1cwzRCLRsWPHaCJVYzRa99KlS7nnNpSUlFBlVlV6VQ5IpVJ9fX1bW9uMjAxCCHVeYSLPMbxFAkgACSABJIAEGiiBulNg169fLyws7NKli5qaWkxMDJeXu7v7tGnTuCnUFovF2tra7FFAQMDIkSNZNq4Co6eSAYChoWFYWBjLw1Vga9eu7d69O3vENQICApo3b85N4dkVFRUhISGrVq1avXq17CTdhIQEQsiIESO4M5KsSFXp1Thw5MgRDQ0NLS2tJUuWsMCSChNZK2ggASSABJAAEkACDZdAnSowQsi9e/e0tbX19PS469YdHBwUHrtGF2np6+vv2LEjLCxs4MCBdJCJ4uYpMEJIRERE586dAeDnn3+mebgKbOnSpY0bN5Y/X48QUr0Cy87OtrS0jIiIIIScO3eOKTBHR0dLS0v5d19VejUOEEKSk5MHDhwIAE5OTiwAscJE+RYxpT4QCA0N/QkvJIAEkAASQAKKCDx58oT3VVUXCszPzw8AWDSKP//8EwC+/PJLOmNICJk4caKamtqdO3eYc4mJiXSh2IMHD1atWnXp0iX5szK4Cuzq1at0gZdYLPb09GzcuLFYLCaEaGlpfffdd7Tav/76CwC2bNnCWikoKKBnvVWvwHx9fU1NTWmp6OhopsC+//57ALhx4warMCYm5tWrV1WlV+XAu3fv2JFbv/32G42dpjCRNYQGEkACSAAJIAEk0KAJ1IUCc3d3BwDuzCM9b9jDw4MO9iQmJgoEgvbt24eHh6empm7dutXf358QUlJS0rZt20OHDt2/fz87O5t3CN3s2bMBgO5bPHny5O+//07fxOnTp5s3b05jRhgYGNDRtbS0tJKSEkNDQ3V19Y0bN6amph46dGj48OF0fb2fn1+jRo3Ky8sVvksbGxt1dfXHjx+LRKJp06YBQHR09Nu3b9PS0tTV1Vu0aLF3796kpKR169bRJW5VpVflQHFxsbe3N226pKREVVX17t27ChMVuoeJSAAJIAEkgASQQIMjULsKLD8/f8WKFdra2gDQt29ftkJLLBb36dOHzrjFx8cTQvbs2UMPL1JRUfH39y8uLiaEvHv3zsrKCjiXjY3NhQsXCCGHDh0yNjYGgHnz5uXk5Jw8edLIyGjTpk0nTpzw8PA4deoUfROzZs0CAEtLSzoCFx8fT0sBgJ2dXVpaGp3obNmyJQDMmTMnPT1d/hWGhYWpq6tramoOGzbswYMHjRs31tfXj4yMJITIlB8tq6amNmPGDDZ7WFW6QgeKi4uFQqHsIPqoqKiJEycuW7ZMtqxNYaK8b5iCBJAAEkACSAAJNEQCtavAPohIZWXlo0eP2NQkISQvL2/69Om5ubmJiYnnz5+PiIjYtm0bd/shq58OX719+/bhw4d0/pE9evLkCRNGNPHp06csQCvLVr0hEolYkYK/L5ZfKpVmZGSUlJSwFGpUlU4IkXeg/O8rPT2dG41WYSKvFbxFAkgACSABJIAEGiKBeqTA5PG5u7vv27ePl06HiHiJeIsEkAASQAJIAAkggQZEoF4rMGNjY3Nz8+jo6Nzc3JycnNjY2FmzZt27d68B8UVXkQASQAJIAAkgASQgT6BeK7CHDx96e3u3bt26ZcuW9vb2K1eupOvD5LuBKUgACSABJIAEkAASaEAE6rUCa0Ac0VUkgASQABJAAkgACShPABWY8qwwJxJAAkgACSABJIAEaoYAKrCa4Yi1IIH3EqioqMjjXCKRiEat4xWUSqWcXArMiooKkUjEffDu3TteJdzb4uJibmaeXVhYWFRUxE3kBd6jVRUWFnLz0Dh8hJCysjKWnp+fz22XZ5eWlrKcsm3Ob9684WUghJSXl3Pz8GzWKLdgVlZWVFTU/fv36Ybo9PR0hdm4RXj95e6/Ztl4/a2eMCuVn59PQwyylDdv3vB6wb3lVfvo0SOFHwlWGxpIoO4JSKXSu3fv7t+/n55czHPg2rVrr1+/5iXirZIEUIEpCQqzIYF/SqCgoGDbtm3NmzcHgO7du48ePdrV1XXQoEFeXl67d+9mUVRyc3Nlhze0aNFi0KBBHh4e2traAoHAw8PD2dm5ffv2ABAXF3f8+HEa6FhTU3PdunWpqanVOBcUFAQAFhYWbm5u5ubmAPB/7J0JXI3ZG8fPbbWUQmOfsdTYjTVb1jYkspS5SIXKrixjGfyNkRliZJuxjogxZuxbaEQoDCFrWSsSUqm0d+89/+oZz7zee7tdNIjn/fjkvOc9y3O+711+9znPOW+jRo369OljYWGho6PTo0ePs2fPTpo0Cfbdc3FxkUqlbdu2bdSo0YIFC1DNhISEDBo0iDGmo6OzcOFC/CyOjY393//+p6Wl1b59+z179qgx4+7duzNmzIBeevXq5ejo2K5du1atWs2bNw+FSEJCwtKlS8uUKcMY69q1q1vhMXToUCsrK11dXdx1mXMuk8kWLVr02Wef9enT5/vvv589e3anTp1atGhRsWLFmJgYNWZwzkNDQ/v168cYK1u2rFQq7dOnT/Pmzbt06RIQEIAVQ0NDBw8ezBjT09MbNGhQ3759+/TpY2Vl5eXldfPmTSwmSsyZM2f69OnCzPr16+vr63fp0qVv375w+zp37mxnZ/fVV18xxn788Udh4c6dOx8+fFiY847TCQkJV65ckcvlr9uvXC6XKR2v2wiV/wAJ7N27t3379osWLXr48KGyeVevXtXX1w8JCVG+RDmaECAFpgklKkMESozAsGHDGGN//fUXtJiTk+Pv729kZNSoUaNbt25xzu/du9eiRQuUPnXq1NHR0YHCcrncwcHh+PHjnPPLly8zxiwtLYu1bNiwYb///jsU27RpU76K8vHxgdO///67e/fukC5TpkzlypWxte3bt0skkgEDBmDOnTt3GGPt2rXDHEx06tQpLCwMT9UkKleurKenh56e9evXM8bs7OyEVWxtbRljV69eFWYGBAQsX74cctLT09u3b1+jRo3Tp09jGYVCsXjxYsZYZGQkZhaVuHbtWv7jv6ytraFATk7O8OHDGWO+vr5Y5d69e/l3ysLCAnOioqIcHBy0tLTwybN4iXOek5NTtWrVihUrChcMNWrUCPd5dnNzg2eOQa2ffvoJnqIBpxEREYwxW1tbYZvvLC2Xy8eMGePk5OTl5WVhYaFGZao0afz48R06dLAWHLVr18Yn0amsQpkfOIG8vDwXF5cGDRrgC1hkcHZ2NjzLmBSYiIzmp6TANGdFJYlACRBwd3dnjIk+s8LDw/X09Bo3bpz/YNPr16+vXbsWexIqMM750aNH4ZEPUVFR+Y8otbe3x5JFJSZOnIiKR6TAOOdeXl5Q0djY2MTERNiIubm5RCKBJ67mP8A+Li4u3/Ju3boJy0Da0dER5KPyJVFOrVq1ypQpI8ysXbs2Y+zBgweYCQ6q69evYw48owz1lre3N2MMn7EhLDZgwIBLly4Jc1Sm7969m/+w2p49e+LV6Ohoxli9evUwR+V45XK5k5MTY+y3337DkpDYunWrubk5Y0zoq5swYQIWEymwFy9ezJo1C6+6u7tD9Rs3bmDmO0ssX74cHXKPHj0yNzd/LU/YkiVL4uPjhdY6OTkJ76nwEqVLBYERI0aUK1dO9DYUWj5jxoxt27Ypf5oJy1BaPQFSYOr50FUiUMIEVCowzvmUKVMYYwsXLlQoFMIvP5ECw6uaKzDhMyGUFRheVVZg3bp1Y4zhN6tKRQJ0pFLp3bt3NSGlrMDgQWHC6soKLDs7G78JIiMjtbS0GjZsiLJS2G9kZKQmX/zKCgxGV6tWLWytqPE+e/ZMX1/fxMREFEDWvXv3R48eVa5cuUGDBmgb4uWcixQYzKVCd0lJSVZWVufPn88H7unpiTa8s0SrVq2ErrspU6YcOHDgjXvPzs7u2rXrG1eniu+dQFBQEDypryhL/vrrr6VLl16/fp0UWFGINMknBaYJJSpDBEqMQFEKLDw8nDEGD5IXdiZSYHhJcwWGVeABrMJZSOElkQI7efKknp6e0MdWlCLhnL+xAjt58iRjrHnz5ihZOOfKCuzgwYMbNmwAazds2MAYc3FxERr/umllBfb9998zxiZOnIhNqRmvvb19/s1Cnxzn/Pz58+7u7vlPs502bVr+s2jx0bTYmkoFhld9fX3h+R9t27YtW7bsOw5tTktLE7oDOeeBgYE4Vc05X7lypbu7+7Rp0+C3QVBQkLu7u6en59OnT3EIwsShQ4fo4SVCIKUuDe/BlStXSqXSbt26eXl5PX78GEeRlJTk7OysUChIgSGTN0uQAnszblSLCLwhgaIUWFpaWv4EVpUqVUTtvksFpqen5+joOGDAANABPj4+sMAQTFKjSF5Lgenp6QUFBW3btm3kyJFGRkZ9+/YVea3g079Lly72hUfnzp319fVRgU2cOJExpvwFv2nTpiUvj+DgYBFG0SkoMHNz88DAwPXr1/fu3dvQ0NDLywvD79TPuk6ePFk02+ji4gKznzExMVpaWjY2NqIe1SgwuVzetm3b7OxszvmWLVsYYwsWLFCu/t/l3LhxY/To0cL2IyMjPTw8MCcuLq5169Z79+6FnLS0NEtLy40bN2IBUcLDw4MeXiJiUrpOy5UrZ2BgsHnz5ri4uOPHj3/xxRdVqlTBdb7u7u7wniUF9pa3lRTYWwKk6kTg9QgUpcDS09NFcUjQ7rtUYJUqVUpKSoqLiwsODh44cKCWltaIESPy8vLAkpJSYDo6OmvWrKlbt65EIlEplUCBXbx4MTs7OysrKykpafr06ajAPDw8YLpWmTuIM4xsUy6AOaDAGjVqtHTpUj09PRMTE2V3jprxTp06Nf9m4drJhIQEXNCQv0jCwcGBMYbTptip8iwkXNq3b9/MmTMhnZOTU6VKlRo1agi1L7bwHyUiIiK8vb2FjcfExLi5uQlzkpKSLC0tw8LCcnJyBg0atGPHDuFVYVoulwuXLwgvUbpUEHj27BljbOjQoWhtYGAgY2zOnDmcc39//23btsElUmCI6M0SpMDejBvVIgJvSKAoBXbjxo38r21HR0dRu+9SgYki8WH7CQzQhm0yVMb3ODk5FbsHBIwL48AuXbpUpkyZmjVrYpwZDlx5FjIhIWHfvn1Q4KeffmKMjRw5EstjAqLcVq9ejTlFJYSzkKtXr2aM2djYCGO21PvAIBgfNdaCBQsaNGjQ7+XRvHlzxhhMSgoNKEqB2djYWFhYvKzdr2bNmowxmJQUVv/v0sX6wKDrlJQUW1tbS0tL9SFiYWFhU6dO/e+spZb/awIZGRkSiUToFpXL5bq6uvb29rGxsVZWVudeHr/99hs4g8+dO4f76fzX5n1M7ZMC+5juJo2lFBAoSoH9+OOPjDH09OBI3qMCgxkxXPwok8l0dXVbtWqFtmHC1tY2LS0NT9UkUIFxzn/99VfGWPv27WECDmspKzC4JJfLs7Ozz5w5A1uaCdcrQIGtW7cyxtasWYNNFZUQKrD8HUBgixCRH6goH1hWVpaxsXGdOnVAseXl5TVv3jwhISHl5ZGUlFSzZs0yZcqIwrlUKrDIyMjevXu/rFrwP0QEtm7dmr+rQzkO7PDhw8rzvKmpqVZWVh06dDh48KAa07755pvQ0FA1BejSh0+gZs2awp1oOOe1atXK30Twr7/+MhAc5cqVg331DAwMHj169OGP60OzkBTYh3ZHyJ6PnIBKBRYbG2tsbGxjYyMMSAcQtWvXxv3AhGjeLBLf399fw0h8zjlsrzVkyBDst0mTJoaGhriBKuTL5fJOnTphGfUJkCZYBmi4urpijspIfLjq6+sLX+2wV+qmTZuEtTjnmisw2NsMw88zMzNhi1R/f39ssygFNnnyZC0trZMnT0LJbdu2iaQb59zHx0eZs6urq3A/MKju6emJ8VXYtbW1tXJJvPpfJFq2bClaC7l//35hR8nJyZaWliEhIRkZGXZ2drt27RJeFaY7deqkLI6FBSj94RNwcXGpXbu28OPI0NDw22+/FVkOn0KivXVEZehUDQFSYGrg0CUiUPIEQD0cOXIEms7Nzd25c2eNGjXMzc2V5+M455UqVWKMibxEnPOLFy8WtTuXGqNXrFiR39qMGTNEZRQKhZ6enqGhIX53Xrt2rXr16vr6+pcvX8bC27dvZ4yNHTsWP5rz8vI8PT0xIgpLFpUwMjKSSCQYW5aVlQXb9C9ZsgSrWFlZMcZE23odOHCgWrVqUDEhIcHGxqZChQq40yzU9fPz09AHdunSJcZY586dsdM7d+4YGRnp6+vj1rK3bt0CFx2WuXfv3siRI/PjxlatWgWZMpmsWbNmwkWRkA91q1SpIpQ1AwYMyG8Qbz3nPDY2tmLFisohX2vXrmWM9e7dG7v+rxPLli0TTje3bt0aXwmc88TEREtLS9xhNTs728HBAYOBhLbduHFDGMIvvETpUkTgzp07Ojo6ON184cIFQ0ND5Q8oUmBveU9Jgb0lQKpOBDQlkJSUtGjRogoVKjDG6tata29v37t3bzs7OxcXl507d4qCkDjn586dGzt2LDzGZ/DgwcLn1WzduhVkio6Ozpw5cyIiIoo1IicnZ9WqVbD5VrVq1ZYuXZqQkAC1goODR4wYAR21bdu2d+/ebdu2rV+//tChQ5V3B127dm3lypUbNWrk6urq6OjYqVMnNe4QoVU3b94cM2YM9DJs2DCcqLp//37FihUZY6NHj46Li5s7d66urm5+IJSZmZm9vf2AAQNsbW3r1auXr8n69u0rbHDdunWNGzdu3779qFGjpk+f7uDgYG5uvmjRooyMDGEx5XRQUBA4mfKdi3PnzsUnLO3Zs4cxZmBg4OPjExQUZGdnl7/oUltb29bWtmfPnv369bO3t589e3Z0dDS0+ezZM2dnZ4hZvn37Nnb06NGjWbNmwUhtbGyioqJiY2MXLFhQvnz5/I0qzM3N169fzzm/cuVK27ZtGWPz5s0Tbi124cIFR0dHqD5mzBihhsMuSjwhk8k8PDykUumUKVM6dOiAIW4gv0xNTevUqePq6grKOzAwsGPHjtra2jAQoTH+/v7wzAZhJqVLI4HAwMD69ev7+fn98ccfPXr0UP6Zkb8NDSmwt7yzpMDeEiBVJwKfHAGFQvHgwYPz58+rfIb3O8aR74+5fPny7du30a/2jg34mLqLj4+/ePGi8o+Bj2mMNBbNCcjl8sjIyDt37qDPW/O6VFITAqTANKFEZYjAB00gKioKHmKt/Pcdr0pbuHChsg2Qg06vd4DywwHyDgZLXRABIlBKCZACK6U3jswmAv8SSE5OPlLEgQHj/5b+L1Pnz58vwpAj73Kp1IcD5L+ETW0TASJQugmQAivd94+sJwJEgAgQASJABEojAVJgpfGukc1EgAgQASJABIhA6SZACqx03z+ynggQASJABIgAESiNBEiBlca7RjYTASJABIgAESACpZsAKbDSff/IeiJABIgAESACRKA0EiAFVhrvGtlMBIgAESACRIAIlG4Cb6XATp8+7UcHESACRIAIEAEiQASIgFoCMTExIsH4VgrMz8+vKx1EgAgQASJABIgAESACagkoP9nprRSYSM3RKREgAkSACBABIkAEiIAmBEiBaUKJyhABIkAEiAARIAJEoCQJkAIrSZrUFhEgAkSACBABIkAENCFACkwTSlSGCBABIkAEiAARIAIlSYAUWEnSpLaIABEgAkSACBABIqAJAVJgmlCiMkSACBABIkAEiAARKEkCpMBKkia1RQSIABEgAkSACBABTQiQAtOEEpUhAkSACBABIkAEiEBJEiAFVpI0qS0iQASIABEgAkSACGhCgBSYJpSoDBEgAkSACBABIkAESpIAKbCSpEltEQEiQARKL4GEhIQrV67I5fLSOwSynAiUIgKkwErRzSJTiQARIAL/CQG5XD5mzBgnJycvLy8LC4ubN29q3k1cXNwxVUdkZKTmjVBJIvAJEiAF9gnedBoyESACROAVAsuXL//xxx8h69GjR+bm5pp7wk6ePOnh4dG1a1cfweHl5TV69OhX+qATIkAEXiVACuxVHnRGBIgAEfj0CLRq1So9PR3HPWXKlAMHDuBpsYnQ0NDZs2cLi0VFRZECEwKhNBFQJkAKTJkJ5RABIkAEPiECaWlpPXv2FA44MDDQx8cHc1auXOnu7j5t2jRwjAUFBbm7u3t6ej59+hTKKCuw1NTUHTt2YAuUIAJEQJkAKTBlJpRDBIgAEfiECNy4cUPkr4qMjPTw8EAEcXFxrVu33rt3L+SkpaVZWlpu3LgRCwgV2Lhx4zCfEkSACKghQApMDRy6RASIABH4+AlERER4e3sLxxkTE+Pm5ibMSUpKsrS0DAsLy8nJGTRokMi/FRoaamZmZl94mJqaCitSmggQgaIIkAIrigzlE4GSJzBt2rR+Lw/hLE/J90QtEgGNCRTrA4OWUlJSbG1tLS0tlUPEQkNDp02bll54dO/eXeOeqeCHSCA3N/flp1TB/+j7/BBtLeU2kQIr5TeQzC9VBAICAha+PERehFI1DjL2oyKgHAd2+PDh+fPniwaZmppqZWXVoUOHgwcPii4JZyEfP34MV6Ojo0XF6LRUEJDJZC8/pQr+//vvv0uF2aXRSFJgpfGukc1EgAgQgZIk0LJlS9FayP379ws7SE5OtrS0DAkJycjIsLOz27Vrl/CqUIFhPjnDEAUliIBKAqTAVGKhTCJABIjAJ0Rg2bJluB9YfHx869athfuBJSYmWlpanjt3DohkZ2c7ODhs27YNAalUYN26dcMClCACRECZACkwZSaUQwSIABH4tAjIZDIPDw+pVDplypQOHTpcv34dx5+YmGhqalqnTh1XV1eFQsE5DwwM7Nixo7a29vr16znn27Zta9myZe3atbu9elSuXBkboQQRIALKBEiBKTOhHCJABIjAp0ggPj7+4sWLMpnsUxw8jZkIvHMCpMDeOXLqkAgQASJABIgAEfjkCZAC++RfAgSACBABIkAEiAAReOcESIG9c+TUIREgAkSACBABIvDJEyAF9sm/BAgAESACRIAIEAEi8M4J/OcK7NSpUxMmTJBKpTNnzoyIiJDJZJs3bx46dKiLi0tubq5ovIsWLZJKpd9//318fPyzZ898fHykUqmrq+vo0aNnz569b98+KJ+bm/vLL79IpdIhQ4b4+/sLV01zzuPj47/77jupVOri4uLt7e3l5eXp6SmVSo8cOcI5v3bt2syZM6VSqWg/G875vXv3oLtDhw5xzi9fvgyWu7u7e3t7T5w4cfjw4VKp9MGDB5zzffv2DRkyZMyYMTiKzMzMn3/+WSqVzps37/Hjx7GxsdLCw8XFZfDgwUOGDBk2bBjkvHjxAge+f//+sLAwPOWcjxw5UiqVOjs7Dx06FOyBWn///XdycjJ0MWTIkM2bN+fk5GDFTZs2TZo0afr06ZMnT96wYQMsWeKc5+bm+vn5SaXSn376CQs/ePAAEK1evTovLw/zOecKhcLf33/w4MFSqXTs2LGTJk1atWrV6dOnhWXUkzl48KCLi4tUKh03bpy3t/eECROGDRvm7u4ueiVoYpj6joKDg93d3aVSqaen54QJE3x9ffft24e3Q2gwpYkAESACRIAIfGgE/nMFxjn39/dnjJ0/fx4Hb2dnxxjbvHkz5nDOHz9+XKFCBcbYw4cPIf/JkyeMscWLF3POIyMjW7Vq1b17d5Qd9erVs7S0FLaA6XyFgRUhc9++fcuWLYP0+fPnGWNmZmYi6ebt7a2rqzty5EhsJyAggDF24cIFyJHL5VOnTo2IiIDTuXPnMsbGjBmD5fMXZtevXz8pKYlzfv78eScnp5SUFM55mzZt+vXrxzl/9uyZlZUV7hnNOe/atevAgQOFLbRo0SImJoZzPnXqVGNjY855VlbW9OnTf//9dyhWu3ZtOzs7rJKTk9OrVy83Nzcgk5OT4+rqamtrm5aWBmUUCkW3bt0YY9u3b8dacXFxzZs3x1NRon379u3ateOcy2SyM2fOdO3atUePHnfu3MFi6smMGDHCwMAAC6enp9vb2yu/EjQxTH1HM2bMYIxlZWVxzu/evevp6dmgQYNjx45h15QgAkSACBABIvBhEngXCmznzp2MsaioKEQwdOjQdu3aNWvWDHM453PmzBkxYgRjDFRLvgRJT09njKFyOnj0wxdRAAAgAElEQVTwIGNs9+7dUKtFixYga4SNQDolJUVYETKvXLkCiaioKAsLC8aY0A2WkpLi7OxsYmIifELt3r17GWMouUAmPn36FNpZs2ZN7969GWO//vor5HDOnZycIH3x4sWrV69CGhUY5/zYsWOPHj2C/GvXrnXq1ElbW1v4+A5/f3+4igqMc56SkoIuwKZNm0qlUijDOZ83b17FihVTU1MxJzU1tVq1atOmTcOcoUOH9uzZs3z58mgS53zQoEFYQJSwtrYW7qaYnp7eqlUrU1PTzMxMKKmejLe3N2hHbBbgq3wlqDdMfUc+Pj6MvfIaHjVqlK6urnA3I7SBEkSACBABIkAEPhwCr3x7/UdmKX/vOjs7QybMDIKbZ9CgQatWrVKjwI4dO8YYCw4OBjtfS4GhfOGcR0VFzZ8/v1mzZu3bt8ch//TTTydPnlSvwDIyMv766y+ssmbNmtOnTw8cOFBfXx89fM7OzlgAE0IFhpmc8wkTJjx+/Pjzzz+fPHmyMB/SQgUmvCpUYAqFwtDQ0MXFRViAc+7m5qavr4/+Qmdn5+TkZDMzM1NT0+TkZCis0lS4JFJgnPPQ0FDG2MqVK6GASBiJyIgUGCpdla8E9Yap70hZgeXm5pYrV07kVhTBoVMiQASIABEgAu+dwHtTYHK53MzMzNraGhD8+uuvBw4cUKPA0tLSevXq1bZtW1QVxSowZ2fnrVu3BgQEzJo1y9PTE1lHRUX5+Phs3ryZMRYaGgpzbfCdrVKBLViwYOvWrf7+/l9//fXWrVuxnTVr1oSGhqanpzdt2vTzzz9PSEjInwtTKWtUKrDnz5+PHj2ac/7DDz9UqFABJw2xfU0U2L179xhj8+bNw1qQWLBgAWPs5s2bcApWXb9+3cDAoFevXjD9qtJUKK+swLKysnR0dNzc3KAACKOiyHh7e5crV25r4bFmzZoGDRpALZUKjHOuxjD1HSkrsHwvY6dOnerUqQM90l8iQASIABEgAh8mgfemwDjnv/zyC2Ps0qVL+d/Bjo6OCoVCpQLr3LnzqFGjHB0d58+fL5QpxSqwiRMnhoaGnj59evPmzcJoLVBgubm5NWvWdHBw4Jzv3LkTnnGmUoH5+/uHhoaGhITMmDFDWYFBBFLFihW7deuWl5enUtaoVGBLly6F56wlJCTo6+svX75c9BLRRIFdvnxZFPEGjSxbtowxdubMGThFq3bu3CmRSGbPnl2UWITyygqMc165cuWvv/4aCoAwKoqMt7e3gYFBaOFx5MgRCCkDzqL56GINU9+RSgU2cODAqlWrgp3v8q+Xl1dXOogAESACRIAIqCJw+fJl0VfS+1RgmZmZJiYmQ4YMOXbs2Jo1azjnKhUYxoGJTC9WgQkrnjhxAquDAuOc+/r6SiSSqKgoqVQKSwJVKjCMA8vOzj579iy2Az4wOD1y5IiWlpa3tzdKCiwmjMTHTIVCYW5uPmrUqNGFR926devVqydaGaCJAsvMzNTS0ho1ahS2DImRI0cK53OFVs2ePVsikezZs0eYKaqurMBgccPChQuhJAijosiIZiFx4rgoHxi0qdIw9R2pVGD16tXr2bOnaER0SgSIABEgAkTggyLwfhTY0KFDgcLcuXN1dHTs7OwgxPstFVhOTs7Fixchbl05Ej8yMvL58+ewrHL+/Pmc89TU1AoVKlhYWPj6+oI96hUYlEHH0urVq4XbNCxatAiWWCrfYGUf2P79+9etW4cljx8/zhjbs2cP5gjXQgoz8z1Jwjiw/EWXdnZ2bdq0EZVp1aqVMJQegeeveJDL5b179zY0NESHlqhuftSXsgJbtmyZgYHB/fv3obBIGEEmkhEpMGxfWYEVa5j6jpQVGDgF//zzT+yUEkSACBABIkAEPkAC70KBbd++nTEmXJ5mb28POwg8e/asbNmyc+bMATR+fn6MscTERDiFJY1LlixRCa5p06Z9+/bFSzKZbPLkybDmLjExkTHm5+eHV9PT03v27AlOpvDw8BkzZsClqVOnGhgY4OpLIyOj8ePHYy1QDELP4e3bt11dXaHAkiVLcCUB5Hz99dcmJiZYHRPNmzfv06cPnnLOLS0thTOqnPO6det26tRJWMbLy8vQ0FCYA+mGDRs6OjpiflRUVIUKFQIDAzFn37595cuXj4yMxBwEDjkpKSn169cXNoIlIdGtW7euXbti5q5du8qVKxcQEIA56smMGzdOuBsF1lLzSoAyyoap7+i7774TroWMioqqVq0aRNdhp5QgAkSACBABIvABEvjPFVhoaGivXr0YYyNGjIiIiMjNzV23bp2hoeHEiRNhUwZvb2/YHyskJKRt27aMsW+++QZ2ZJ05cyZjrG3btqIdnqARPT09Q0PDsWPHenl5OTs7N2zYsHr16rAj69SpUxljTZo0mThx4qRJk1xdXWvWrDlgwADOeURERP/+/WvXrn3gwIH87U8fPnw4derU/GWJSUlJvr6+4MQ6fPgwlIR9y2xsbCZNmjRx4sSBAwcaGBisWLGCcx4YGNi4cWMbGxuIY4Nbm5GRYWVlJbzNL168WLdunb6+vomJSUBAQE5OjlwunzVrVpkyZXBbDc752bNnGzZsyBibOXOmTCbjnO/Zs+fLL79kjPn6+uLuFcnJyWvXrtXV1a1SpcqWLVtwUUJ0dHSfPn2++eabTZs2TZs2rXfv3rh3lzJwMO/mzZvDhw8XmgpphUKxefNmIyMjAwODsWPHTpgwwc3NzdPTE71fxZI5fPiwqakpRKfB1mjQcrGvBGXDIiIi1NyCEydOtGjRgjHm7Ow8bty4sWPHOjk5nTp1SnlQlEMEiAARIAJE4EMj8J8rsA9twP+1PcL97v/rvkTtZ2VlRUVFoSwTXVU+fY+mKhsjzPlgDRMaSWkiQASIABEgAm9DgBTY29CjukSACBABIkAEiAAReBMCpMDehBrVIQJEgAgQASJABIjA2xAgBfY29KguESACRIAIEAEiQATehAApsDehRnWIABEgAkSACBABIvA2BEiBvQ09qksEiAARIAJEgAgQgTchQArsTahRHSJABIjAx0cgISHhypUroodzfHzDpBERgQ+EACmwD+RGkBlEgAgQgfdGQC6XjxkzxsnJycvLy8LC4ubNm5qbEhcXd0zVgY8j07wpKkkEPikCpMA+qdtNgyUCRIAIqCCwfPnyH3/8ES48evTI3Nxcc0/YyZMnPTw8unbt6vPqUa9ePRU9URYRIAIvCZACe0mC/icCRIAIfKoEWrVqlZ6ejqOfMmUKPDUEc9QnQkNDZ8+eLSojfDSt6BKdEgEiwDknBUYvAyJABIjAJ00gLS2tZ8+eQgSBgYE+Pj6Ys3LlSnd392nTpoFjLCgoyN3d3dPT8+nTp1BGpQL79ddfsQVKEAEioEyAFJgyE8ohAkSACHxCBG7cuCF6nn1kZKSHhwciiIuLa9269d69eyEnLS3N0tJy48aNWECowMaNG4f5lCACREANAVJgauDQJSJABIjAx08gIiLC29tbOM6YmBg3NzdhTlJSkqWlZVhYWE5OzqBBg3bs2CG8GhoaamZmZl94mJqaCi9RmggQgaIIkAIrigzlE4GSJzBt2rR+Lw/hLE/J90QtEgGNCRTrA4OWUlJSbG1tLS0tlUPEQkNDp02bll54dO/eXeOeqeCHSCA3N/flp1TB/+j7/BBtLeU2kQIr5TeQzC9VBAICAha+PERehFI1DjL2oyKgHAd2+PDh+fPniwaZmppqZWXVoUOHgwcPii4JZyEfP34sukqnpYuATCZ7+SlV8P/ff/9duuwvRdaSAitFN4tMJQJEgAj8JwRatmwpWgu5f/9+YU/JycmWlpYhISEZGRl2dna7du0SXhUqMGE+pYkAEVBDgBSYGjh0iQgQASLwSRBYtmwZ7gcWHx/funVr4X5giYmJlpaW586dAxbZ2dkODg7btm1DNKTAEAUliIDmBEiBac6KShIBIkAEPk4CMpnMw8NDKpVOmTKlQ4cO169fx3EmJiaamprWqVPH1dVVoVBwzgMDAzt27Kitrb1+/XrO+bZt21q2bFm7du1uhcfx48exLiWIABFQQ4AUmBo4dIkIEAEi8AkRiI+Pv3jxokwm+4TGTEMlAu+PACmw98eeeiYCRIAIEAEiQAQ+VQKkwD7VO0/jJgJEgAgQASJABN4fAVJg74899UwEiAARIAJEgAh8qgRIgX2qd57GTQSIABEgAkSACLw/AqTA3h976pkIEAEiQASIABH4VAmQAvtU7zyNmwgQASJABIgAEXh/BEiBvT/21DMRIAJEgAgQASLwqRIgBfap3nkaNxEgAkSACBABIvD+CJACe3/sqWciQASIABEgAkTgUyXwVgps5MiRxnQQASJABIgAESACRIAIqCWwfft2kdR8KwUmaotOiQARIAJEgAgQASJABDQhQApME0pUhggQASJABIgAESACJUmAFFhJ0qS2iAARIAJEgAgQASKgCQFSYJpQojJEgAgQASJABIgAEShJAqTASpImtUUEiAARIAJEgAgQAU0IkALThBKVIQJEgAgQASJABIhASRIgBVaSNKktIkAEiAARIAJEgAhoQoAUmCaUqAwRIAJEgAgQASJABEqSACmwkqRJbREBIkAEiAARIAJEQBMCpMA0oURliAARIAJEgAgQASJQkgRIgZUkTWqLCBABIkAEiAARIAKaECAFpgklKkMEiAARIAJEgAgQgZIkQAqsJGlSW0SACBABIkAEiAAR0IQAKTBNKFEZIkAEiAARIAJEgAiUJAFSYCVJk9oiAkSACBABIkAEiIAmBEiBaUKJyhABIkAEiAARIAJEoCQJkAIrSZrUFhEgAkSACBABIkAENCFACkwTSlSGCBABIkAEiAARIAIlSYAUWEnSpLaIABEgAkSACBABIqAJAVJgmlCiMkSACBABIkAEiAARKEkCpMBKkia1RQSIABEgAkSACBABTQiQAtOEEpUhAkSACBABIkAEiEBJEiAFVpI0qS0iQASIABEgAkSACGhCgBSYJpSoDBEgAkSACBABIkAESpIAKbCSpEltEQEiQASIABEgAkRAEwKkwDShRGWIABEgAkSACBABIlCSBEiBlSRNaosIEAEiQASIABEgApoQIAWmCSUqQwSIABEgAkSACBCBkiRACqwkaVJbRIAIEAEiQASIABHQhAApME0oURkiQASIABEgAkSACJQkAVJgJUmT2iICRIAIEAEiQASIgCYESIFpQonKEAEiQASIABEgAkSgJAmQAitJmtQWESACRIAIEAEiQAQ0IUAKTBNKVIYIEAEiQASIABEgAiVJgBRYSdKktogAESACRIAIEAEioAkBUmCaUKIyRIAIEAEiQASIABEoSQKkwEqSJrVFBIgAESACRIAIEAFNCJAC04QSlSECRIAIEAEiQASIQEkSeEWByWSykmy76LbeoKM3qFJ0//zOnTtRrx4xMTEvXrwQVcnKynq1lIqzO3fucM6Tk5Ph2qNHj0SN4OnDhw9V1H816/nz55zzhISEV7MLzh48eCCXy7E1TOBYsrKyMJNzrlAosJGSpSfspVSkU1NTAUVCQkKpMJiMJAJEgAgQgY+eQIECu3z5sp2dXY0aNbS0tOrWrfv111/funVLw5FfuXLF2traxcVFk/I7d+7s0KGDkZGRnp5ekyZNJk+enJKSor7i29impuVq1aoxpUMikTRp0mTPnj1YMTw8XKmUOMPExIRzvmzZMrjg6OiI1UUJe3t7cWWl81WrVnHOp06dqnSlIENPT8/S0vLChQvClk1MTKBweHi4MD87OxsbefLkifDSp5beunUroJg6deqnNnYaLxEgAkSACHyYBNj+/ft1dHTwqxoSenp6R44cKdbirKwsa2trxpiZmVmxhadNmybqhTFWrVq1+Pj4ouq+jW1FtQn5KhUYmjd69Ggo9qEpMLBQV1f33LlzOMAPXIGhEKxVqxba/I4TH6ACmzFjBtzNDRs2vGMa1B0RIAJEgAh8CATY559/Dt8EI0aM8Pf3d3Z2htMaNWqkp6erNDEpKenixYtr16796quvoHCxCiwiIkJbW5sxVq5cublz565fv75Dhw5Q18HBQWUvmZmZb2CbyqaUM1GBTZgwYUnhMXny5FatWoFJjDEQoE+ePIGr8Ldt27ZQwNbWFvN//vlnDX1gu3fvxlqzZ8/GvjBzyZIlly9fFvrALCws4OrixYu//fbb+vXrQ63mzZvjoEiBIYqiEqTAiiJD+USACBABIvC+CPwjAwYOHIgW2NjYQO7JkycxU5gYPXo0qgdIFKvAfvjhByi5cuVKaCotLa1SpUows5abmytsH9JnzpyBKq9lm3I7KnNQgQmdSXK5fNSoUdBpixYtFAqFqK67uztc/e6770SXNJmFFFaJi4uDphh7JRQPyuAs5Pjx44W1kpOTy5YtyxiTSCRJSUlw6W0UWGxs7LnC49mzZ5zzyMjI7du3R0VFCTvlnN+6dQuKQajcqVOn/vrrLyyjUCju3bu3Z8+e3bt337lzRxSspt4HlpaWdubMmS1btoSFhRU1Ja1QKO7fv793796dO3feuHED+xUmcnNzr169um3btqCgIGWvarEKTC6XwwBBAWPL4eHhkA85z58/h9N79+5xzuPj43fs2HHu3Lm8vDysgons7OyzZ8/+9ttvu3btunTpkujlpNIHduHChXPnzv3999+c8+zs7P3791+7dg0bTE9PP3PmTEBAwIkTJzIzMzEfE3K5/MKFCzt27NiyZcuJEycgphCv3rx5E4zPzs7OyMgICQnZsWNHXFwcFJDJZFevXt26devx48dFAYXYAiTi4uKgnYSEBJlMdunSpW3btt28eRMHGB0d/eeffx48eFBl1F2xo1DPDWyIiYkJDAzcvHnz8ePHnz59KrKQc64eBZTPyso6ceLEgQMH0tLSOOc3btwQ3mtss0QMxtYoQQSIABFAAv/IgF9++QWz5s2bB7mrV6/GTGFi7ty5DQsPdMkUq8BcXFygzZs3b2JT3bt3h8zIyEjMxMTGjRvh6mvZhtXVJ1QqMM55amqqgYEB9HvmzBlRI+9dgXHOP/vsM1Bg+P36NgoMpd6GDRtgQhnG/tVXX8XExODw+/XrB/khISF2dnaMsX79+sHV8PDwJk2awFX4a2Zmdvr0abi6ZMkS4aX8NIrXnJycWbNmgWcUykgkEm9vb5G2uHXrVps2bYSNdO7cWfgq4pxv27atYsWKwjI2NjYPHjxA+4tVYOnp6VBd9EpGttDUwYMHoZi7u7vQi1mpUqVjx45hd5zzP//8s1atWkKTGjdujLIVX2NYAOoaGxszxsqUKRMdHW1qasoYW7ZsGVxatmyZnp4elq9Spcr69euFPZ44caJBgwZYgDFmYGDw/fffY5lu3brB1Z07d9asWRNLzpw58+nTp+bm5phTr149ofLDFiDx3XffQclFixZ16dIFa1laWqalpY0cORJzDA0Nf//9d2H1Ykehnhssefn6668lEgn2oqenN3r0aKFqLBYF53z//v14F/T09DZt2tSpUydos2QNFrZGaSJABIiAkABbU3jcvn0bc728vOCTaNu2bZipMlHU95Zy4aNHj0JHwpnN5s2bQ0fKTgvO+bVr197GNmUbhDlFKbD8fgcOHAhWbdq0SViFc/7uFZiLi0tM4REdHX358uVx48aBbc7OzmgbqoQ3iMRHBValShVoGf9WqVIlMTERekEFhioNFFhYWBgGEUokEi0tLaiupaV1+PBhzvnKlSuNjIwgUyKRGBsbL1y4ENoEJQeXsBHGWMeOHdGb8uDBA/ya1NLSQrlWp04ddJj5+vqizcJ2KlasiOsPSlyBKePS0dE5fvw4DO3cuXO6urpglWHhAeny5ctfv36dc16zZk19fX3ILFu2rLGxMVQEBaavr9+5c2e4CgoMHWZly5atXbs2XGKMwQw45/zBgweoQbW0tIQcduzYAY2jAhNehaawLrbcoUMHqKX8FxWYJu0YGhriq6jYURTLjXOOy1kkEkmVKlXwJefq6gqmaoLi8OHDWBGGrKOjA79thD7pEjFYGSDlEAEiQASAgHgK7OnTpzA5qK+vj19gRcHSXIEpt3Ds2DH47GvRooXyVZU5r2WbyhYwU40CQwE6a9YsLA+Jd6/A8BtRmBgyZIjQUVQiCowxNm7cuLi4uAsXLjRq1Ai6Q38VKjDGWKdOnWbMmBEQECCXyzFybtSoUUlJSSkpKSjpGjRoAJPLKmch9+7dC11UrVr1xIkTMpns7NmzX3zxBWQGBAQAcHSdjh8/PjU1NTMzc+jQoVBmwYIF+Zo4Li6ufPnyjDEdHZ01a9ZkZWXFxsZaWVlBmREjRkA7Ja7AgMPNmzfv37+Pkr1bt27QHQrlxYsXy+VyhUKxePFiMAkXY+K3uzASHxQYY0xLS8vR0XH27NmnTp2KjY0Fuda0aVOYLD537hxopgoVKoC+8fPzg/a9vb1zcnKysrJw3t/d3R2sQgXWrFmz8+fPR0REoM5jjP30008xMTFr1qyBdrS0tISvMWgB/qICMzIy2rdv3927d8eMGQO1GGNDhgy5e/duUFAQviwhpFKTURTL7dmzZ9BR7dq1YfLx0aNHZmZmQCw1NZVzXiwKhULRokULaMfLyys+Pj4kJARDTlGBlYjBQm6UJgJEgAiICLyiwOLi4vDbd9GiRaKiyqdvrMBCQkIMDQ0hCOzUqVPKLSvnvK5tyi0Ic9QoMJyEHT58uLDKa/nAXrx4EffqIYp10zAODL/YhAkrKyuhOMavurfxgQl18OXLl6G7OnXqAAFUYELf24ULF6BYw4YN0WvFOcf5rODgYIhngmLCtZC9e/eGTOEs1aFDhyCzc+fOnPO8vDzwshgZGeXk5IAljx8/Llu2bJkyZezt7TnnqGxGjRqFN+vZs2flypVjjGlra0PFEldgwt8n2dnZ6BKLjo7mnOPoRo0aBTkZGRkbCo+jR4+CneoVmFCW+fj4AJatW7fiGFHpbt68mXN+4MABn8Lj8ePHUAYn8Xv27Ak5qMAOHjwIObt374aW27dvjy03btwYMoXT0HiVc44KDNVkcnIyVNHR0UEn99ixYyETfMmajKJYbviSq1GjxoEDB+Dmnj59GtiCPC0WxdmzZ8Ew4XKWkJAQyEQFViIGC7lRmggQASIgIvCvAjt69Cj64ZXdP6JqcPoGCgz8AfDNWr58+b1796psWZT5BraJWhCdqlFg48ePh89i9ABhXc19YMrxTxEREdgOOG9En/jCq/j92qFDh4Uvj7lz59ra2uKXB4qSElFgwoAhznndunUh2gzCa1CBHTp0CO3csmULGPPtt99iJud84cKFkA9xhCp9YBDkJJFIsrOzsa5CoYB1BlWrVuW8YNdcaMfW1hbLiBIYdRQUFCS81LNnT6gLIYYlrsAsLS2F3Q0fPhy6AzPwyxsyGzduPHXq1OPHjwvXKKhXYKhjOOfoCOzTp4/bywOXEnt7e6MlkZGRy5cvHzFihLm5Oc6yKSswjKJDP/SQIUOwkfbt24PZxSowDNCUyWRQpUaNGtgODhAUmCajKJbbixcvhBOm5cuXd3BwWLt2rfI2yGpQoDadN28eWgtTwzAKyCwRg4XtU5oIEAEiICJQoMDkcvmcOXMguNXAwOCPP/4QFSrq9HUV2PPnzzGMw9TU9OrVq0W1jPlvbBu2oDKhRoGhhb/99puo7rtXYKK1kPkrtpycnOB7ApwfnPMSUWBCpwvn3MLCAnqBRX+owM6ePYtMFixYAGVwfStcQmU2bdq0onxgECZVuXJlbA0SoMwYY5mZmcHBwdD+sGHDRMXwFNftiiLHUZkFBgZyzktcgQl9gfnuulmzZoGpv/76K+c8Kytr7NixoCYhH/5++eWXV65cAeNRoAjJYxwYDpBzLpwrFLYGadgMOS0tzcHBQXgVw8WUFRiudUUFJhyO5gpszZo1YCcqMKGbEwcICkyTUWjC7cSJE02bNhWOFOagp0yZAo7YYlHMmTMHqgvJc847duwI+TCokjJYeCspTQSIABEQEmA5OTkYE920aVPNd8PP37bqtRRYTEwMfr8OHDgQgjaEpiin38Y25daEOUUpsKdPn+KKM9HGBK81C7l79277V4/79+8LDdBwFlJZgaF3bcqUKdAgxMEwxmDWD3t58uQJfKNIJJKiYnrQ2fbDDz9gRc75l19+CT4wqIgKTLh5x+bNm6H92bNnC+vizCBEkav0gYGPTUtLCz150ALE3UNk+rVr16D93r17C9sXptH5JFqKiPNZ4Hp8YwUGMZE4M4VrIUVuOQ8PDzBVuI9xWlpa/tYeUqkU1yIwxnC2FwWKUAeAAitTpoxwjP3794fG165de1DpgFfp5MmToYyNjU1gYGBiYiJ6ED8QBabJKGDU6rlBmYiIiO+++65ly5YwavgLDvViUSxfvhzKiwIt8H0EXZSswdAm/SUCRIAICAkw3NyrZcuWsC+O8DLnXCaTZRceokgmNQpMoVBAFZxjys7OxuhXDw8PYdgQdpebmwu18CGGxdqGdV83oVKBpaen9+nTBz6drayslNvU3AemXFeU82YKTKFQ9OjRAyxct24dtIlOO9FsIMqOunXrinrHU1RgnTp1wsyoqChwiNauXRsyVSqwc+fOgSXCeBqhzwZinlQqMJwlFD4DCp1esBAvMzMTzDAxMcEX0pMnTz7//PNatWoNHTpUOOPp5eWF9j9//rxChQoQnQ0KElFg6BIWhkRWVhaMpVKlSnjp2bNnuOsBZKICMzAwwN1A8vLycA1BdHR0dnb2scLj4sWLUCs3N/f333+HhZwSiQTeR5orMHyYhFBlpqSkRBUeEImPG4I8fPhQZOoHosCKHYUm3G7evAlsEf79+/dxah5iJ4pFgTexe/fueK+vX78uutclYjC2TwkiQASIgDKBglVX8N3To0eP0a8eoaGh+ZNcq1atggIQ+yxsooxCeAMAACAASURBVCgf2PXr16GKgYEBlMevQIlE4ubm9mo/o2HnRkdHR6i1ZMkSznlsbGyxtgmNea00KrD+/fuDMQ4ODpgpkUhEUe3Q+LtXYE2aNEFWbm5uuE6ibNmyEOKdv0PYzz//DNz09PRmzJgRHBx86tQpX19fXFg3ZsyYouCgAsvXK99//31mZmZ0dDRu/Y/hgCoVWG5ubsOGDaHr6dOnZ2dn5+Tk4DqGL774IiMjQzgLWbFiRVTeOFP5xRdfgJvq5s2b4HhjjMHDMTnnKNTGjh2bk5OTmJiI0Tmwq8Xdu3dhnaC+vv4ff/yhUCiSk5NRkuIzOvHlV5QC45xjNP2cOXPi4+Nv376NvSv7wBhjffv2TUhISElJQQeYhYUF/GJBTx48tZ1zfvv2bVgcgIsbUIH5+fnh3VHpAwsLCwPIXbt2hR1xk5OTmzVrBpmwfSt6lwMCAhQKxePHj1u3bg0FPhAFVuwoZDJZsdwWLVoEg/Ly8oLfabm5uaKQ/2JRpKamYjCZr69vVlbWjRs38PEeeK9LxGC8s5QgAkSACCgTgA801X9hfqREFBiu2FfZ0927dznnIgW2cuVKlYUhUzh3ozyqYnNQbCl3oa+vLwpswtbevQJTNg9yhLtxKhQK3H9BuXy9evVUujZhUKjA4MsPN9xijFWuXBk9DSoVWH7oTFBQEHoO9PX1hZFPu3fvRm74hde4cWN/f3/Ixw0w8/cdRbHIGGvZsiU6Qa9du4YmlSlTBjfZqlevHu4HhjFYjLEKFSqgajcwMMBNWTVRYKjtkKGwR7AZ3SeAS7QFGj5DAp+soKWlZWpqKnyx+fj4QFM4F1a+fPkuXbpApkoFJgz+MzQ0bN68OW7ENXLkSKgoNN7Y2FhoGOhCzjmuhXwvcWCajKJYbrdv3wbyjLGKFSvWr18fYwaqV68OP+Q0QYEhjOAohTuOrxxAWiIGY1OUIAJEgAgoE8CvGxWJElRgOAWpohvGVCowb29vlYUhs8QVmL6+fq1atRwdHdWsD3i/CkxfX9/MzMzBwUEYDg93NCsry8fHB3bGQmja2trjx4/Hhxcp33vhAyhXrVoljKoxMzMTPqigKAWWH7P/119/4RwcdF2jRg3c7wA6FYokXGGalpaG3iO02dXVFWUf1D116lSdOnWwAGOsXbt2wmcTKRSK5cuXg4cJi7Vr105ovyYK7PHjx8JXably5Y4dO4arHMAYVGAjCw/sTrSqNycnZ8SIESgOoJienp6Xlxd6AePj47Fx9LsUpcAyMzNxRh5aK1eu3IwZM3Bx5cOHD3F/Y8aYmZlZaGgovB60tbXBmf3eFVixo9CE27Fjx/BRHMi/SZMm58+fh3ukCQq5XI4+SGhk0qRJokh8znmJGAxW0V8iQASIgDKBf3ejUL5GOaWLwPPnz0+fPr1+/fqff/45ODhY5fPyRCNCH9jWrVuzsrKCg4P9/PyCg4OLitwXVYfTzMzMc+fOrV+/fu3atWfOnIHJR1HJkydP+vn5bdiwASfmoEBMTMy+ffv8/Pz27t2L86qiupmZmWfOnFmzZs3atWtDQ0NRxAiLJSUlHTt2bMWKFVu3br169SpKE2GZYtN5eXmBgYHLli3bt28fbC4lqoIKzN3dXaFQhIeHr1ixYvfu3SoL50u6vXv3/vzzz35+frt371beMSEpKcnf3/+nn37atWuXqCOVp/fu3duxY8fSpUt3796t/MjF3NzcQ4cOLV++vNgHO6ps/J1lqh8F57xYbgqFIjQ0NCAgYPHixRs3bjx16pToJaEhirt37wYEBGzYsAG254BfIOXKlROheHuDRQ3SKREgAkQACJAC+6RfCUIF9kmD0GzwQgWmWQ0q9cERyF/AIC08Ro8ejauL7ty5Az5LnLT94Owmg4gAEfjoCJAC++hu6esMiBTY69DipMBeC9eHWTgtLQ1XXdja2v78888LFizAWL1iH4b7YQ6KrCICRKA0EiAFVhrvWonZTArstVCSAnstXB9s4fDwcGHUI4SCVapUafny5R+szWQYESACHx8BUmAf3z19jREdOnRoRuGhvP3sa7TyyRSNjIwEXBpGbn0yYErlQE+ePLl+/frvvvtuxYoV+/fvh50+SuVIyGgiQARKJwFSYKXzvpHVRIAIEAEiQASIQGkmQAqsNN89sp0IEAEiQASIABEonQRIgZXO+0ZWEwEiQASIABEgAqWZACmw0nz3yHYiQASIABEgAkSgdBIgBVY67xtZTQSIABEgAkSACJRmAqTASvPdI9uJABEgAkSACBCB0kmAFFjpvG9kNREgAkSACBABIlCaCZACK813j2wnAkSACBABIkAESicBUmCl876R1USACBABIkAEiEBpJkAKrDTfPbKdCBABIkAEiAARKJ0ESIGVzvtGVhMBIkAEiAARIAKlmQApsNJ898h2IkAEiAARIAJEoHQSIAVWOu8bWU0EiAARIAJEgAiUZgKkwErz3SPbiQARIAJEgAgQgdJJQLUCe/qUHz5c5ICiovi5c0VeVb6QlsYTE//9l5KiXOSfHIWC37rFjx7ljx4VWQYu5ObyCxf4X3/xpKRiSipfvnjx4q1bt5Tz30tObm7ukSNHXrx48V56p04/TAKJiYl79uz57bffHj9+rN7C2NjYsLAw9WWKupqXl5coOJKSkhQKhcrCz58/FxQUJzMzM5OSkoS5mZmZyu2kp6cLy4jSqampaWlpwswUVZ8UqampwjJZWVnQUXZ2NuYnJycr915acp4+fXpYzYdvaRkG2UkEiIAGBFQoMD8/XqYMb9NGRe27d/mIEZwx7u2t4mpRWWfP8kmTCmoxxl1cuFTK27bljRrxBQv4y8/PgqpPnnBr63+KaWvz6dOLao9fuVJQvXFjbmjIK1Tghw4VWVJ04dGjR/b29oyxrVu3ii69l9OzZ882atSIMRYXF/deDKBOP0AC165dGzRo0I0bN9q0aVO3bt2iLMzLy5s2bVr+i8fd3b2oMurzU1JS1qxZY2Jiwhhr1qzZkCFDevfubW1t7eTk9Ouvv+bk5GD1+vXr6+vrd+nSpW/fvl988QVjrHPnznZ2dl999RVj7Mcff9y3b1/fvn3z0/r6+n5+flFRUVgXE56enoyx1q1b29vbt2rVijHWqFGjPn36WFhY6Ojo9OjR4+zZs5MmTWKFh4uLi1Qqbdu2baNGjRYsWIBKKyQkZNCgQYwxHR2dhQsX3r9/H9qPjY393//+p6Wl1b59+z179mCnpSjx4sWL+fPn6+vrt2jRohSZTaYSASLwxgRUKDDOeceOqhUY5zw7m2tpvZ4CA+PKlOGVK/9r5/btXCLhAwb8m9OvHz9wgKem8vPnubl5gRT7/fd/r2IqJ4cPH/6PkywpqUCKmZnhxeITFy5ceO8K7Pbt2/j1tnjx4g9KgQltK54mlfgPCFhaWvr5+RX+Jnly7Ngx5R6uX78OmQqFwsDA4I0VGDQybNgwxthff/0Fpzk5Of7+/kZGRo0aNUJXcaNGje7cuQMF3NzcGGOhoaFw+tNPP/3vf//jnF++fJkxZmlpCfnKf4cNG/b7y7f0pk2b8lWUj48PFPv777+7d+8O6TJlylQWfFJs375dIpEMEHxS3LlzhzHWrl075S46der0xh5B5daKyvlP3yMWFhakwIoiT/lE4CMjoFqBWVsXqcA4L/CQvZYPDJAZG3MTk1fomZsXiDCYRrxyhW/Y8O/VBw8KLg0e/G8Opq5cKZjQxGPePF6jBp4Vn7h+/fr7VWAZGRnNmjXDGZZVq1Z9OApMZFvxNKlESRPIy8uTSCQbhG+GV7sICAjwFrz9TExM3lKBubu7M8ZCQkKE/YSHh+vp6TVu3Bh+KkyYMAGvihTYixcvZs2axTmPiopijNnb22NJUWLixIk4yylSYJxzLy8vKG9sbGzy6ieFubm5RCJJehlwEBcXl29wt27dRO1zzh0dHVE1Kl8tkZz/+j3Ss2dPUmAlcqeoESLw4RNgT5/yvXsL/j158q+1qMBu3eK7d3NRLIqyArt0iW/fzq9d+7cF5ZSyAuvWrcDRFR9fUPbePZ6b+0qlWrUK5iuLPYYP5zNnFlkqLS1t//79QUFBDx8+hNgUVGBZWVknTpzYv39/dna2sH5mZmZYWNiff/558+ZNyE9KSgovPCIiIjjnFy9ehFP4rE9OTg4PD4dLnHPlHkWN9+/fnzF24sQJqIIKLCkpad++fadPnxaW55xfunRp+/bt14qAe/369fDwcHCKpKamgmExMTHQSF5eHjQYHR29c+fO27dvCxt/8ODBzp07w8LCHhWG3WVmZops45w/ffr0zp07GRkZBw8efP78OVSPjo7esWNHaGhoXl4eNqhQKM6cObNt27azZ8/iFy3n/MWLF+AviYuL27Vr18OHD6HK3bt3d+zY8eDBA2xBlHj06NHVq1c559euXdu7d29qairnXCaThYeH7969Oy0tTVhepUlyufz48eN79+69f/8+xgapzISR7i08ngjfCZwrFAp4PaicWVN5d0RghXZiWi6XX7lyZfv27efPn899+dKPiYk5evQoY2z27Nnh4eE4xYa1goODy5YtO3jw4PDw8ISEBM45KDCFQnH58uUdO3Y8ffoUC3POk5OTDx06FBgYCPSElzCtUoHl37gpU6YwxhYuXAjYsbxIgeHVYhWYTCbDRpQVGF5VVmDdunVjjMXDJwXnahSYVCq9e/cu9iJMpKWlhYeHA6jdu3cDPSigUCjOnj2bL+CuX7+Ovj2VN0jle4Rzfv/+/V27dh0/flyZ8/379//888+goCC8y9BpYmLikSNH9u/fj+OCfFJgwrtGaSLwcRNgFhY8Korv2sWNjfnff/8zWGtr3ro1HzmSN2jA9fV5uXIFOgwPoQLLyOBjxvCAAL55M69alY8ejaXECZECO3mS6+nxon4w5+UVeNp+/VXciOj86FHu5MTlclH2P6cPHz5s3779pUuXbt682bhx48uXL8OHLESu9OnTp3fv3tra2lZWVlj/xIkTlpaWQUFBJ06caN++ff/+/ZOTk1NTU83NzRljR48ezZ+iDQoK0tPTa968eWxsLOc8IyOjT58+CxYs4Jyr7BEb55xHRkY6OTkxxn755Zc//vgj/xsUFFhAQEDPnj07duzIGJs/fz5UycjIGDNmTEBAwObNm6tWrTpaFdxbt25Vr169adOmnPOsrKyDBw9iYNDmzZurVatWtWrVH374oVWrVtWqVdPS0lq2bBk0HhgY2L9//+jo6KCgoOrVqyvbFh0dPXz4cF1d3Xnz5llZWYEs4JwvWLBg6dKle/bsadeuXYcOHUDZ5H/Tm5ubr169+vbt27169Rr80nu5fv16Q0PDNm3aLF68eMiQIc2aNdPT07t8+fLMmTNdXFzMzc2NjY0Bo5BSWlra1KlTJRKJh4eHt7e3s7PzZ5999uWXX96+fXv48OEjR478/PPPW7dujTpPpUkymczKymr37t3x8fFOTk4wr6cyk3O+YcMGCwuLqKioXbt2GRsb//3ynZCVldW9e/dly5aFhITUrl27atWqvXr1WrduHdx3lXdHGaxwaJCOiYnp0aOHv7//hQsXhg8f3rRpU1DYYWFhS5YsYYy5urpu2rTp1KlTorq///67rq6ura3tpk2b4AeAiYnJsGHDPD09BwwYUKFChSpVqiS+dBHv2bPn22+/3bdvn5ubW40aNS5evChqDU6LUmDh4eGMMeG7A8orKzDIL1aBCXtXVmB4VaTATp48qaenJ3Stva4Cy83NnTZtWtmyZfv27evk5NS+ffvy5csbGxufPHmSc75169Z69eqZmJisW7euSpUqOjo6WVlZRd0g5fdvVlaWh4fHrFmzLl++vHjx4ipVquzcuRPGIpfLJ0yYMH/+/AsXLgwaNMjU1BR/fqxcuXLQoEHnz5//888/a9SoMXv2bHwxkwLDVwIliMBHT4Dh9MJXXxVE2cNhbV0Q4Q5ul4cPee3a3Mjo31WHQgU2cSLfv/+fWn5+BT6totbxGBsXSC5Hx4LYr7Ztedmy3MdH7PdC3Pv38/r1X4nTx0uQuHWrYI5SS6ugx7FjRRf/OfXx8ZG+dKPt378ff+YyxgYPHgw/Sb/77rv8U/gye/LkibGxMcaRPH/+3MjIyNnZmXN+4MABxtjBgweh6a+//rpOnTr4odm3b19wsKnsUWTcwoULGWOiWciVK1dCsW7duoEeyndgTJw4cf9LuH5+fvmxLyoXSdnZ2YECgxYqVqyI01IODg66urqXLl0CxdCxY0ddXV3wrFhbW69ZswaqzHzpRRTZduXKFcZY9+7d8/LywsPDY2Nj851PkydPhloQ9zO9cMXEunXrGGPw3b97927GGDq3LC0tK1WqBDIrOztbT0/P1NQU/Eypqana2tqLFi2CBoV/ZTKZrq5u586dMzIyOOfHjx9njPXr1w+8bocOHWKMgU4qyqTQ0FAkmZiYuGTJEs65ykzOeY0aNXCi7auvvhrx8p3www8/YCz81q1bGWOg49XcHZVghUNTKBT5NwIkOy/0sXXr1s3MzAyCzWNiYhhjeGuEFSFdpkwZ0Sxk06ZNwY8SEhLCGFu7di3nPCYmBufpcnNzTUxMVAZOcc6LUmBpaWn5PxWqVKkisuEdKDA9PT1HR8cBAwa0bdu2bNmyPj4+QgfS6yowsN/IyKhBgwbwEr1z507lypXr168Pjrf+/fvr6uoePnw4IyPjyJEj6m+Q6D0yc+ZMGxsbRPS///1PT0/vxo0b8FsF3yyRkZFaWlpwa44ePVqxYkVc/gyvbZx3JgWGMClBBD56AqzQj8OfP+dNmvC+ff8ZL/jAcPCrVxcInS1b/slABZaVxbW1C5Y3jh5d8M/BgRsY8MKYEKz6b8LYmFeqVCDj4uJ4cDAfOLBAP40YwQUTWf8UlskKlgKcP/9vXZWp3FweFMRr1iyw7cgRFUWWL1+uq6v7yy+/yOXy3Nxc8NbgLCRUOHz4MGMM4p19fHz09PTkApcarN56+vSpTCarVauWo6Mj1IJPYfgNHRMTgyEsKnsUWSb6BMdZSCg2ffp0xlheXl5WVpa2traLi8vowsPBwcHAwAACbkQN2tvbCxWYMDDIzc2tWrVqWP7IkSOMsZ9//plz3r9//+rVq0P0D867iWyDrzp0mxUu0ehobW0NJnl6ehoYGHTp0oVznpSUtHfvXugI1BjIPs55v379GjZsiDY0a9bM2toaT01MTMaMGYOnwoSxsTG6/ZKSkoSB23ATwYnYsaNqk0A+enp6wlcdjFFlJuf82LFjoBGfP3/epEmTvi/fCQMGDGjcuDFY9eTJE8bYb7/9Bu7Gou6OSrDCcYWGhgoj2Tnn27ZtY4z9+eefoJxeV4Gh4M7KykJX5bffftu4cWO4U6NHj65bt66hoSF+6wvtKUqBpaenM8bq1asnLJxv4TtQYJUqVUpKSoqLiwsODh44cKCWltaIESNwyvvNFFidOnXw91j+iqIZM2YwxkAqubu7Gxsb4zDV3yDhe0Qmk5UpUwbXE3DO4+PjGWNjx47Nzc0tU6YM/OqDlu/evQtDsC48sLv8F0D9+vXxZUYKTEiG0kTg4ybAoqIKfFEbN/JWrf6dE8Q4MBj81asFKufl5Ni/kfiXLhXkvwyQLQaUaBaScz5oUEH1H38UV5w7tyAuTcMjOrogZv+bb1QUz8jI6NKlS77vqk2bNigIRAoM3AZHChWcVCrV09NDzxbnfMWKFYyx48eP5/sq4NdtYmKiTCazsbFp0KDB8OHDOeezZs2CcCXwMyn3KLJM+AmOs5C4GwX45LKzsy9dusQYw+hjUSPCU80V2LNnzxhj3377Lef81q1bNWvWZIxJpVKMiRHZBl91q1atwu4qVKiwa9cuPBUm8vLyNm7cuGjRIl9f3/yI7PDwcLgqUmBt2rQRKrBq1aq5ubkJ28G0UIGBGsCvOpjw2rRpE+dcjUlTp07N9wlVr159+/bt2KzKTAgk9/Hx2bhxY6tWrXDOy8fHR1dXF9RbXFycRCK5cuUKBOcVdXdUgsXeOedr1qxhjJ05cwYzr169yhiDFYVv4ANDBcY5Z4zNmDEj38K+ffuiVw87UpkoSoHduHGDMYa/OrCuhgrs0qVL/QSHKDxL81nIwg+Kgu0nfnz5SQEqp2vXrmgSJpycnDAIEjMhIVJgO3bsYIwFBQWBF1AY+6/+BgnfI/A6/OGHH4R9VapUqUuXLqD1VS4LqFatmq2trbDKgAEDtLW1wc9HCkxIhtJE4OMmwHr04OnpBWPs1KlIBRYXVyCVcAst9IGdOlWQrxQ7rpqYsgLbsqWgumhJU0AA37ZNdQtF5bZqxQtFhYrrMplsyZIlFSpUKFu2LMgsNQps5MiRjDF0CEGMCGMMYnRiY2O1tLRWrFjxxx9/rF692tfX18DAICUlRbhOHqKSRT2KzBJ+gqtRYKdOncqPwlEOzBe1xjnXXIFlZGTgLBU4rjw8PLS1tevUqQMeIJFtIgUml8t1dXUxTE1oyYMHD8zNzQ8cOAD+pHemwNSYBOYdOHDA1NSUMTZv3jw0WDnTz8+vR48e6YXvhE6dOqECe/78effu3a2trY8fP+7q6urr6wuNqL87SUlJIrDYNed8y5YtjDGhKATOMBNdUgrM0tJSOYRLaAami1JgP/74I2MMZ8ewvIYK7P79+wsFh2hr2ddSYEAMJ1VhhrpVq1ZoEiZsbW1FSzTwkkiBwUQ2KCR3d3ehAlN/g4TvkYcPH+Z/YqCnFvoyMzMbOHDg6dOnGWOHVO1VaGpqKvQKgwTEDThIgeEtowQR+OgJsMKpj4JhduxYpAI7d64ghCs6+h8aqMDi4wsk1KBBr1B6Ger9SibnBZH+r64x54sXF1QfMuTfknv2cH//f0/z5cVLT8ormaKTNm0KNhJTPkAQcM4fPXrUsGFDcL2oUWDw2xemmaA1X1/fypUrYwxKr169WrZsaWdnl5WV9eTJEx0dHQcHB3+BxSp7FBkGn+AYLi2ahUQfGPzQH/QqXOGEIDZrb28v/EA3NjZGp4hoFvLq1asSiQRmXtDU06dPQ6hN/j4jIttECoxz3qBBA1NTU+GCL39//+fPnw8ePBinUYKCgt6ZAlNjUlhYGHgQc3JyHB0dy5cvn5OTozIzKipKIpHAJCDMtKIC45z7+fkdPHjwxIkTwmWGau6OSrB4s2DFAywywMzz588zxiBSXhMFNn78eKwrnHQW+sBGjRqlo6MDHjsofPHiReXQ/qLiwGJjY/NjIm1sbIQuYWjH1dVVNIsK+a8Vie/v7y+cVsbhFH5QiHejgD3zhgg+KZo0aWJoaCjaeV8ul3fq1EnYlDAtUmArVqyoWbMmxIGJFFhkZKSaGyR6j1SvXv3LL7/EjmCHtqVLlyYmJmppadnZ2eElmUwGQfpSqVQikWBUPufczs4OJ75JgSExShCBj54A8/DgMhkPCytYydixI8/MLDi1tubNm/87dg8PPmfOP6cQ+4Xx+w4OBSpq3DgeEVEQ3eXszF/u1Phv9cJw4wINZ2j477rFa9d49eoFCy0LVygWFD56lFtaFuwKBv/WruWurvzEiYJLt27xnj15YUB5wa4Zf/xRsDEsHOfOvbKt6z+5hf9NnToV1EZ+4M706dPBWQXx4xs3boSSsPgfvjVzcnIaNmxoYWEBn8sKhcLc3FzoA9izZ49wNqRfv35GRkYQKg6tqexRaBJOQp0+fTo1NfXJkycQYo/7DsycOZMxBvE6Dg4OjLFx48ZFREQEBwc7OzvjUnlhm2PHjpVIJLDSfvPmzQYGBtbW1hDN5ubmZmBggBaOHz/excUF6g4YMAC34WjXrt2KFSuUbYOtL3HuD+QI7Lp54sSJS5cuzZo1a+nSpaBadHV17927l5SUNGHCBJjfgVHY2toKv6JatGgBoWNgxmeffTZ06FDhcCAtk8nKli3r4eEBpykpKThPxzmHCbL169erMengwYO//PILVD98+LCJiYlCoVCZCZLRw8Mjf345LCysatWqHTt2zMzMlMlkfn5+ffv2PXv27N27d588eYKhSPkbkBZ1d1SCFQ1w+PDhRkZG6BaaMmUKLPjAXbVUSm1opFq1auDcgr1FjIyM8J7m5OTkv3imTJkCe6ZIJJIvvvhi586dUVFRq1evdnV1FZkBp4MHD2aMgYeYc56bm7tz584aNWqYm5uLNkqA8gMGDBCWxzYvXrxY1DZdWAYTML8PE6aYCesS9PT0DA0NMRzz2rVr1atX19fXxzUQnPPt27dDuBUKxLy8PE9Pz4CAAGFrwnSdOnVw09fc3NyWLVvih8DQoUPLli2LP7Q452puEPxOw/fv5s2bhUtkDhw4YGZmBu8skKpDhw49c+bMkSNHBg8eDJ7m27dv6+vrwxIWznlCQoKRkRHufWNhYdGsWTOwPDc3d8CAAVswAlc4HkoTASJQ+gkwxgqC2TduLIigZ6wgGD8vj+/cWbAUUSrlvr4Fm00sX/7PQB8+5FOnFhQzMyvYwKJwFyVuY1OQwxivU4cHBqpAEhz8z7OMGCtYBdm7d8Hf+vX50KG8cM1QQZXz5wv2vIB28O+XX3J4Tt2uXQWXCr9w+b59BYFfX3xREJfm68t/+aXIJZPffPNN+/bt//jjjy1bttjY2Ny7d+/Ro0cuLi75+qBjx44XLlyIjIyEhxTZ29tD+MijR4969eplb2+/bt06d3d3/IyGUeXl5TVu3BiXMR48eFDojciPA1PuURnHgwcPKlasWKFChUmTJoWHh7dt25YxNnLkyIcPHx4/frx+/fqMsWnTpmVmZj59+tTGxgYe0lKnTp1AlXA5v337dq1atSQSyZdffhkUFNS4ceMuXbrAg1nc3NwMDQ2HDBkyZ84cDw8PT09P3Iu/c+fOjo6OgYGBS5Ys6d+/P+QLbbt79y7slt6gQQP0D+Xm5np5eeno6DDGDA0NcVZu+//ZO8+AKJIuXBdRwACoCK+hQwAAIABJREFUa8CsiFkMizlHMIAJV8wBMe6CmEBkjawJEcWALCgmQAyoGEExgBJExEgQFFFEkcyQZ6Yun+du3b49wzC6qOie/gHV1afS06Herjpd4+OjoqJSrVq1sWPHPn/+vHr16nXq1Ll8+fLJkydr1qypqKjo4uJSUFDg4eGhpqamoaFx6NAhgUCwa9cuBQWFRo0asU8+AVd2dvZff/1FCGnWrJmfn19aWhoI0zJ9HBgY+ObNm/nz55f555X9SE5UVFR5Vbp48WLz5s1dXFwuXLhgYmIC80FSIwsLC2G1kUaNGh06dMjOzo4QYmxsXFpaevz4cTU1NTgFhJDatWsvXboUdFh5Z0cqWN5lUFRUZGVl1b17971799rZ2VlbWwP/yMhIYK6vr+/j48MkMjc5+LEZGBiEhYWBy12DBg3Onj2bkZEBP1Kkp6cHDuCenp61atUihCgqKs6aNQvmWLlZZWRkbNu2DWxatGgxZsyY0aNHjxo1aubMmadPn2YLdLEkr1+/dnBwqF69etn8moGBAShgOHr8+HFYskRZWdne3p4tj8fSskBxcfHevXt1dXXLPjho0KCBk5MTc0O8cePG3LlzgXaPHj1Gjx7do0cPPT29adOmsVcpls/Bgwfr1KnTrl27WbNmTZo0qV+/fuV5KEKS5s2bt2/ffvLkyQ4ODsbGxvA9Cnga1KtXD246tu5/eSeIUsq9RwDRoUOHdHV1//rrr127dk2dOpXJ1tzcXFNTU0VFRfj9JbbECaU0NDS0Q4cOS5cudXV1nTJlStin39ktLCx0c3NTVVWtVq3awYMHc3NzU1NTVVRUpL6iMA4YQAJI4MclQBIT/zfoBVty8v9VPLCbm/v/Zh5ltzAzkyYl/X9pZdt/wdF/lmP8X9KcnP/9LHeFP6UIvdrHjx8TExPZu7I8RQsEgvL8eZn8gvd17i6lVM4Sc3JyuFNasquUmZmZlJQku/7FxcXsSyvuFCHMQopEosTERPbLelBccXGxWCxOTk5mHQbEy1O3wsLCFy9ecMcMwKuMdaXZnzbI8Nv8lawSVC8vLy8uLg7OCwzwwCKx3Ejw3ktMTGSaIzk5GYAfPXr07NmzCQkJISEh165dO3Xq1MyZM89yFseTPDvlgZXkUFpampiYyB1Xk7SRGvPq1StWVakGLFIkEiUkJEj9BJLZ/LgBuIAjIiJ4t6HUFsEsZFFRUWJiIhtgk2rJIss7QVLvkaSkJEmNC0s0l/cwSfu0seKkBtLS0uQ811KTYyQSQAJVmYD0XyWqyjXGuslPgOcHJn9CtISJPD09PR6KO3fu8H7Ah2eAu1WTAM8PrGpWEmuFBJDAf4oAKrCf+XRPnDixdu3aP3MLv2bbjh8/rqiouGnTppiYmLS0tJiYmIMHD/KWHvia5WPelUmgbt26vM+WKzN3zAsJIAEk8PkEUIF9PrMfJMWxY8caN25co0aNdevWlfezkj9IU75PNcVi8e7du7t06aKlpdW+fXvmr/N9aoOlfimBvLy8zZs316hRo1GjRvv372dz5V+aH6ZDAkgACVQOAVRglcMRc0ECSAAJIAEkgASQgPwEUIHJzwotkQASQAJIAAkgASRQOQRQgVUOR8wFCSABJIAEkAASQALyE0AFJj8rtEQCSAAJIAEkgASQQOUQQAVWORwxFySABJAAEkACSAAJyE8AFZj8rNASCSABJIAEkAASQAKVQwAVWOVwxFyQABJAAkgACSABJCA/AVRg8rNCSySABJAAEkACSAAJVA4BVGCVwxFzQQJIAAkgASSABJCA/ARQgcnPCi2RABJAAkgACSABJFA5BFCBVQ5HzAUJIAEkgASQABJAAvITQAUmPyu0RAJIAAkgASSABJBA5RBABVY5HDEXJIAEkAASQAJIAAnITwAVmPys0BIJIAEkgASQABJAApVDABVY5XDEXJAAEkACSAAJIAEkID8BVGDys0JLJIAEkAASQAJIAAlUDgFUYJXDEXNBAkgACSABJIAEkID8BFCByc8KLZEAEkACSAAJIAEkUDkEUIFVDkfMBQkgASSABJAAEkAC8hNABSY/K7REAkgACSABJIAEkEDlEEAFVjkcMRckgASQABJAAkgACchPABWY/KzQEgkgASSABJAAEkAClUMAFVjlcMRckAASQAJIAAkgASQgPwFUYPKzQkskgASQABJAAkgACVQOAVRglcMRc0ECSAAJIAEkgASQgPwEUIHJzwotkQASQAJIAAkgASRQOQRQgVUOR8wFCSABJIAEkAASQALyE0AFJj8rtEQCSAAJIAEkgASQQOUQQAVWORwxFySABJAAEkACSAAJyE8AFZj8rNASCSABJIAEkAASQAKVQwAVWOVwxFyQABJAAkgACSABJCA/AVRg8rNCSySABL4pgdkyt8zMzPJqEx8fD0mTk5Ol2tja2s6ePfvYsWNSj8qIzMvL41Vq3rx569evDwoK4qXKy8vz9fXdvHnzwYMHo6OjeUe5uyUlJYGBgTt27HB2dr5z5w73kDzhpUuXcqu0cOHCTZs2PXz4kKU9d+4c14AXPnToUGpqKkQGBASwVCwQGxvLS8LdXbVqFaX02LFj3MjZs2dbWlq6uLhkZWWxfAICAsAmNTWVRZaWlkLkF5wLlkmVDeTk5EDr7t+/X2UriRX7jgRQgX1H+Fg0EkACsggQmdvbt2/LSxwSEgJJy5M+bdu2JYQsXbq0vBzKi09PTy+vUjNnzmSp7t+/37hxY2apoKAwd+5ckUjEDFggOTm5R48ezJIQYmhoWFJSwgwqDNStW5ebHMJKSkp2dnZisZhSun79ekkDFmNubh4bGwu7zs7OksXdunWLGUsGdHV1KaVLly6VPEQIqV27NhMfzs7OYBMbG8tKKSoqgsgvOBcsk88KRERETPq0ZWRkfFbCLzB+//49tO706dNfkPzfJPmWzfw39fyPp0UF9h+/ALD5SKDqEljxzzZz5kzoyYYOHfpP3Irs7Ozyqv4NFFivXr2gJubm5s2bN4fqnTx5klIqFAo7dOhACNHR0Vm3bt3UqVPhqFR9M3r0aEJIvXr17OzsJk6cCJZbt24tr2mS8aDAdHV1oT5Tp06tV68e5HP8+HFKaUBAAIOmq6tLCFFXV2cxvr6+shVYYmIiMx48eDDkPHv2bIjcsmULV4FZW1uvWLFi+fLlI0aMUFVVJYS0bdsW6lxFFNi5c+egCTIUvCTkL4v5jgrsWzbzy+BgqrK3I1RgeBkgASRQ1QlER0dDr7l3715uXdPS0k6cOLF169YDBw7cvXuXHeIqsMjIyD179pw5c4Y7ayk5BlZUVHT9+nUnJycPD4/Xr1+zrHgBNga2du1adig9PV1dXZ0QYmFhQSl9/vw51PbUqVNg8+uvvxJC+vfvz5JAQCQSqaioEELOnj0LMZ07dyaEjBo1imcpYxcU2Lhx45hNamoqKK0WLVoUFxezeErpuHHjCCF169blRspWYFxLpqKePn3KjWdjYEKhkMWvXLkSOLx7945SytLKPwaWlpbm82nLzs5+9uzZvn37eOfx3r17Pj4+169fF4vF/v7+fn5+ULpQKAwODt63b5+rq2tISAgbfUxPT9+7dy/U6tatW9xhsCdPnhw5csTJyenatWt5eXmsFRB4//69n5/fjh07Tp48mZ6ezjv69u3b06dP79ix4+zZs9BYlgrKkjoG9vTpUx8fH3bqKaVRUVE+Pj4XL16E5ND2+Pj41NTUo0ePenh4vHr1ilf0y5cvPT09t27devz48Tdv3sBRqc08d+6cj4/P48ePCwoKDh06FBkZCcYfP348d+7c9u3bvb29JRt++/bt/fv3b9u2zcvLi3sH+fr6+vj4xMXFJScnu7u7Hzp0CO6azMzMU6dOOTo63rhxg1dVtnvr1i0fH5/g4ODc3FxfX989e/ZERUVRSktLS69evero6Hjy5EnedSujkkKh8PLly7t27XJxcQkMDGTnGorLzs4+efLktm3b/v77byiFVYNSWl7roDJBQUHOzs5hYWGU0jNnzvj4+CQlJbHkMqpEKQ0PDz9w4ICjo+OZM2cEAgFLxQugAuMBwV0kgASqHAGpCszX17d69erQw8FfQ0PD0tJSSilTYHPnzmUG9evXDw8Ph7bxFFhcXBxIHzBWUVH566+/pFKQqsA+fPhQrVo1QoiTkxOl1N/fH/JhPdby5csJIU2aNOHlmZeXt/DTxsZjRowYwZQcpVQgEEBWK1as4KVlu5IKjFJ64MABSBgaGsosv7ECW7ZsGSFEW1sbZNkXKDA2AWpvb6+oqAgtql+/PmvUlClTCCH9+vVbu3YtIWTKlCmU0oSEhF69eoEx/O3fvz/0nbwJWRhrFAgEc+bM4do3bdr05s2bjJu3t3etWrWYgZaW1rlz59jRnTt3qqmpsaMaGhouLi5wVPYYGFSGq4atrKwIITCx+78Bkk/b4sWL2USzsrLywYMHWdFbtmxRVlZmRauqqkKLpDazQYMGhBBbW9uBAwcSQlxdXSmlFy9erF27NstBW1v72rVrkH9BQcGAAQPYIUJI9erVr1y5AkehyRMmTNDS0gKbGjVqHD16tEWLFizJggULWFW5AUNDQ0JIjx49OnbsyIy3bt06cuRItquvr19YWAipZFTy7du3bdq0YakIIe3bt2dKNCAgQFtbm3t0woQJ8IiQ3bqcnJzhw4ezhJs2bYJmwqCybG6lpaXwnsOS16lTR6qHJY6Bca8KDCMBJFBFCUgqsPz8/Bo1asBzfNOmTZMnT4bnnY+PD1eBEUIGDBgwf/78mjVrlvU6DRo0KCoqopRyFZhYLO7atSshpHv37gcPHmSdsdRxC6bAunXrBuLJzMysfv36hJCOHTtyx1S4KIcMGUIIGTx4MDeSF46Pj9+7d6+ioqKWltaDBw/g6BcrMEbsyJEj3IK+9hiYhYXFwoULFyxY0LdvXyUlJUVFxQMHDkAF/o0CI4QMHDhQ8jyCAqtTp46ioqKGhsacOXNEIlH37t1hpvX3339fsmQJiON+/fpRSu/duzd79my4VNauXQuKHJQiIcTU1NTGxqZRo0aEEC0trY8fP1JKX7x4AeOUvXv3trW1hfnlWrVqwfcE58+fh9x69eq1du1aGOwsE4XXr1+nlFaKAiOE6OnpLV68mIkb8G58+vSpgoICIWTMmDFbtmxh8uX+/ftSmwkK7Jdffil7VahVq5a7u3tKSoqGhgYhZPLkya6urqC31NXVQcFs2LCBEKKiomJlZbVmzZpmzZpx55SZ6OzSpYuxsbGSkhJw0NLSmjJlSsOGDWGXiSHuRQgKDKbpf/vtN01NTTBWUVExNjZm70LwcYbsSpqamsKY7p9//rl8+XJo3ZgxYyilYrEYbkx9ff0tW7aYm5uDiHd0dKSUym7d4sWLoUqTJ082NTVV+LSViWNQYLKrtG/fPkKIgoLC77//vmHDBlCZtWvXlurciWNg3AsDw0gACVRFAkxPsFnIZ8+eDfu0vXjxglKan58P84Dr1q3jKrDRo0eDN/qNGzfgkXr06FGeArt48SI8MVlvAY/1gQMHSrJgCgxy4/719vaWtKeUbt68mRCiqKjIRhekmrGsVq9ezQyKi4ttPm2XLl1ikbyA1DEw1vf/+eefXPuvrcBYKyDQq1cv9jnkv1FgY8eOhfN4/fp1yBmUJSgwQsixY8fAgPk/nT9/Hhru5eUFSUAVMQMYd/z48SMMIy1btgzsX716BR5sMNG8YMECQkijRo1Au2dnZ8PIq6enJ6W0S5cu8BoAIyvFxcWdOnWCYbnKUmA6Ojo5OTmU0o8fP8KIzpw5cyilnp6e0C6YJisuLp45c+aUKVOuXr1aVjFeMymloMBq167NPk9ZsWIFIaRNmzYwc1dSUqKjo0MIgZto9erVw4YNs7e3Byx//vknXMZgDAqMTayPHz8eKgNTzNeuXYNd7lAiuw5Bgamrq8Ok5+7du8EYhuVycnIgc6iG7EqCC6aJiQmcnVOnTk2ZMsXc3JxSmpSUBNlu27YNit6wYcOUKVNgoFpG6z5+/AgXALsTN23aBFmBApNdJZD4TZo0SUtLo5Q+e/ZsyqdN6nfZqMDYVYEBJIAEqigBSQUGFX316pWHh4elpSV7b4Zek81CMscgSim4RllaWvIU2F9//UUIqVmz5tp/tkGDBoF3vCQOpsB69Ohh9WlbvHgxvOYqKCiAJz5LJRAI4BsCZWVlNzc3Fi81YGNjM3ToUHjQr1mzRqqN1EipCuzFixeQFZsRg7TyKLChQ4fW/Wdr3749t1CmosrzA/vjjz8Ay/jx42HcsVu3btA7srTy+4GxWcgLFy6wasBQkLW1NaUUFBhz9mcfftavX5/Zi0QiGC7dtWuXpDRhRTx//pwlMTIyIoSYmJhQSvv160cIAdEDBm/evElISMjIyCgtLYXhsf3797O027ZtI4RoampWlgKDlkL+MEDbrVs3GM+DU0wI0dfXt7GxuX37NshQyWYyBbZw4UJWVZjy7tix4z8X/lpgO3nyZLApLi4OCAhwcHD47bffYLSMEAJzyiCSNmzYAJYwf8rm2ZlnIaheViIEQIGxIWEmFhMTE8EAxCLcy7IrCUcB+KRJkzw8PN6/fw+ZFBQUsNG1Jk2aWFhY+Pn5FRQUsMqU17qgoCAAGx8fD8bZ2dkQAwpMdpXgeQLDh4MHD96+fTv30mKlQwAVGA8I7iIBJFDlCEhVYBYWFvBYVFVVNTAwAE8dngKD4QFoD7i/mJqa8hTYokWLWE/GC8DYAxcHU2BQEDsEmbds2ZLFxMTEtGvXjhBSv359qSMBzJIbWLhwISFEVVVVsmiuGTcsVYFduXIF2sIbeJNHgbGpNJi35ZbFVFR5CozriX/z5k2oA4w7srQxMTEsz8LCQrCRuhoFk0fMbZxS2rdvX0KImZkZU2B9+/ZlGc6fP58Q0qVLFxZTtlxZq1atCCEgZVh/D2NgJ06cgApwP60tW+ONEAJCB0ZZVq5cyc0QwikpKZCW6xZ27NgxiMzNzWUjkVJntOX0A4NZMyjRzs6OENKwYUPY3b9/f8uWLaE4+Nu/f38Ya+E1kykwOzs71hC4PrnJIdy1a1dKaUREBEzIwnQhjPbxFBj7aJfnwSaPAjM0NISalFdVuMVkVzIpKWnChAmgg6Hy1atX37dvH+QcFBTUu3dvbgObNWt269Yt2a1jg4tcD3oQc6DAZFepoKDAysqKucfB+Pr8+fNxFpJdeBhAAkjgRyIgqcAuXLgAD1YXF5eioiKhUAgTNDwFBm5h0FRuV8r1A9u4cSO4P7+X2NiIAoNVngIzNzcnhFSrVg2SPHz4EEaA+vTpw12AlOUDgeTkZHAmY9+4wZQoIYS9f/OSSO5KVWATJkyA+rAhAUgojwI7efLk3n+2Q4cOcUtkKkoeBfb27Vs4R/BZg7e3N+xyV519/fo1RG7evJlbEISZAuN+MNi0aVNCiI2NDVNg4OMFSWDOt06dOuybuJKSEhi/gdVAeP09Gy599OgRq8CwYcMIIfB5KQg+7mJvUVFRISEhycnJIpEInMx2797N0kIFtLS05BwDg9EySA7uRzxP/D/++INlPmPGDEJIr169WAx8Qblu3Trm1Q4DqLxmMgXGfXMA98SZM2fyLnz42LNbt26EEAMDAxjC2blzJ5wp7hjYN1BgsisJHLKzs729vadMmQKuCKqqqrm5uQzR69evXVxchg4dCm5zffr0oZTKaN3Vq1ehpXFxcSx/iAEFJk+VSkpKAgIClixZAuN5hBCpzvg4BsZOEwaQABKoogQkFZiDgwOM88N7Kps44Cmw/v37w6vnqVOn4Bl65swZ3hgYOFOrqKgwP7B9+/bNnj2bO1rAuDAFZmFh8fTTFhUV5eLiAnoLBmNEIlHr1q1hPdK7d++C2dOnT0FURURE2Hza3r59m5OTA7WytbWFIpYsWQJjYFBt+f3AhgwZAgUFBgbOmjULsuVOYEH+8igwsJT6t0IFFh0dDdW4cuXK2LFjoRqBgYGU0qdPn8Lu2LFj4ayVlJSAlxUhhLltcctlCmzIkCHgaHXmzBnIBM4jzEJyFRjrPg8fPgxZ7dmzB5LAeiVMmoDqzcrKgm571qxZYB8VFQV+5Q4ODpRSGCLV1tYGXZKSkgJOQrDUCHx02b59e2hRdnY2TOQNHz68QgXGNA2skiAQCOCy4SmwX3755cOHD+DYBNOpv//+O6XUwcHB0NAQfpMAag7DVBMnTuTOQjJxz53aA3v4BKFz587AtrS01Nramv1WBDSTXZnsu8hvrMBkVPL169eGn7bHjx9Di/z8/OBcP3nyxN/f39DQ0NjYmC1sYWlpSQipU6cOpVRG6968eQM++0z7rlmzBrIFBSajSpTS3377zdDQECzLlspLT0+Hy4nnDwAVRgUGHPAvEkACVZeApAI7fvw4PBO7du06e/Zs9kU9OM+ygQ34emvUqFEwT9GpUycYGuGOgYlEIvgWsnnz5ra2tpMnT4Z3ZameW0yBQencv8rKyiEhIZRSphu4R9kqA+7u7hAPM2vsK8727dvDezkhhH3GL/+3kLyywMNacuWqr63AJKvBPoaglDJpWL169TZt2jA3nf79+7MhK+5VyEgqKCh06tTJ2NgYOs4OHTqAvaQCK+MPbnxKSkoTJkwwMTGBs2lsbAw5BwYGQiWnT58Ok9Rs7Ya+fftOnz4dprN1dHTAT/zVq1cw0NW8efMZM2bA53VNmzaFURY206qrqzt79mwYZ1VUVIRfApA9C8lap6GhMXLkSB0dHagqT4EpKCg0bNhw0qRJMNipqqoKK2+xhc2GDBlibW3N9C4sVyHZTEkF9vbtWxgd7NOnz9q1a2G0T01NDQQN+E3WqFFj6tSpTH4RQmCRCPAD+wZjYDIqKRQKoVE6Ojpz5sxZtGgRfLDZuHFjoVD46NEjEFKdOnX6/fffZ8yYAfoV5q9lt27atGlwkQwYMAAcAWEXdJWMKpW9aUyaNAlW7pg4ceKyZcsMDAwIIcrKyrxhY7gaUYFx73cMIwEkUBUJSCqwkpIS5reuoKBgbW0NoxGtW7cuLi5mCmzlypVswaSOHTuy8QCuAqOUvnz5kruCVK1atcBrW5KFpAJTVFRs1KiRkZHRvXv3wB4+R5fUItCz8hRYeno66zvBZWTmzJnMAeULFJi2tnbPnj1XrlzJdTpmDflmCqxGjRrt27ffuHEjawultKCgYO3atdB5Ax8lJaUFCxZIKkWoMNMoO3bsYL4+bdq0YVO0UhXYhw8foJnsFEydOpWtzZabmwv9NCEEBERJSYmdnR1bTwHWJeH2l5cvX4aeHjJs27YtWy6EUurl5cVeAMDtj7mFyVZglFJwOINsBwwYAMvX8RTYihUr2C9c1axZk63XKhaLly5dCpKUwVy8eDHMg0s2U1KBlX1ncP36dbZyBCGkRYsWbCXV8+fPs/X2WrZsCV8YEEJgYvqbKTDZlYyIiNDT02MnmhDSsmXLiIgIuH48PDy4pwbWNIElY2S3Lj09nf38AyFkzZo1oMvZyJYMbhkZGezRBBXT1NT08PBg9yA3gAqMSwPDSAAJ/DAExGLx3bt3T506xXSV1Kq/efPmzJkzYWFhMNUi1QZ+Sujx48c+Pj4BAQFcp+zy7Cs3PiYm5vTp0/7+/txFtyu3iKqTW1ZW1t27d0+cOHHr1i34Yr+8ujEF9vTp07dv3/r4+Ny6dQu+rCwvCYtPTEw8f/68v7+/5C8c5OTknD171tfXl807U0rT0tKuX7/u6+v77NkzyQG5/Pz80NBQLy+vu3fvSrpUCwSC0NBQb2/viIgIqcKX1UoyEB0d7e3tHRkZKXl9Qv+9d+/enJycixcvnjt3TnLBuQ8fPgQEBBw7duzixYu89Q6kNlOyAgUFBffu3fPy8goJCeHVITU19cyZM7dv32aLo0om/zYxMiopFovv379/5swZqU0oKCi4ffu2t7f3mTNn2GQl1Fl260Qi0cOHD0+ePBkTEyMUCmEclGlreJ0ojxulND4+/uLFi8eOHbt+/bqM5wkqsG9z/WApSAAJIAEk8HkEuArs81L+FNZMgf0UrflhGvHu3bvmnza2Hhi4EioqKnIle6W0BxVYpWDETJAAEkACSKCSCaACK1vwna1CXMlwMbvyCbDZ4YYNG7KfIpD6uW75ech1BBWYXJjQCAkgASSABL4xgaioqF6fNrZW5zeuwPctDtrOft/9+1bmv1b61atX582bN2zYMCMjo8WLF7OflK1cDqjAKpcn5oYEkAASQAJIAAkggYoJoAKrmBFaIAEkgASQABJAAkigcgmgAqtcnpgbEkACSAAJIAEkgAQqJoAKrGJGaIEEkAASQAJIAAkggcolgAqscnlibkgACSABJIAEkAASqJgAKrCKGaEFEkACSAAJIAEkgAQqlwAqsMrlibkhASSABJAAEkACSKBiAqjAKmaEFkgACSABJIAEkAASqFwCqMAqlyfmhgSQABJAAkgACSCBigmgAquYEVogASSABJAAEkACSKByCaACq1yemBsSQAJIAAkgASSABComgAqsYkZogQSQABJAAkgACSCByiWACqxyeWJuSAAJIAEkgASQABKomAAqsIoZoQUSQAJIAAkgASSABCqXACqwyuWJuSEBJIAEkAASQAJIoGICqMAqZoQWSAAJIAEkgASQABKoXAKowCqXJ+aGBJAAEkACSAAJIIGKCaACq5gRWiABJIAEkAASQAJIoHIJoAKrXJ6YGxJAAkgACSABJIAEKiaACqxiRmiBBJAAEkACSAAJIIHKJYAKrHJ5Ym5IAAkgASSABJAAEqiYANHCDQkgASSABJAAEkACSOBrEvDx8eGJMlRgX5M35o0EkAASQAJIAAkgAS0tKQqMp8hwFwkgASSABJAAEkACSOBrE0A/sK9NGPNHAkgACSABJIAEkACfACowPhHcRwJIAAkgASSABJDA1yaACuxrE8YrCMxLAAAgAElEQVT8kQASQAJIAAkgASTAJ4AKjE8E95EAEkACSAAJIAEk8LUJoAL72oQxfySABJAAEkACSAAJ8AmgAuMTwX0kgASQABJAAkgACXxtAqjAvjZhzB8JIAEkgASQABJAAnwCqMD4RHAfCSABJIAEkAASQAJfmwAqsK9NGPNHAkgACSABJIAEkACfQLkKLC4u7jRny8jI4CelNDIykmNyWigUStpgDBL4CQiEhISwS/3s2bNSW3TlyhVmc+PGDak2GIkEqiaB+Pj43bt3r1ixwtXVNSIiIikpyc/PT3ZV/f39z/2zhYWFSRpnZ2f/c/x//xMTE8EmKyvr77//XrVqlaOj440bN7KyslxdXXnJ09LS/P39169fb2Njc+zYsaysLErpyZMneWaSu/n5+dxCJcN3796Ni4vjxUdHR1NKi4uLWfzly5ezsrLYLgQuXLgQHh7+4cMH1hCeAW83PT1dsoYQ8+zZs127dllbW9vb21++fFksFpdnSSl98eIF5Hz+/HmemVAoZIVev36dd/TLdrH3/zJuX5CqXAWWkZHh5eVF/tnWrVvHy10oFDZt2hSOd+/ePSwsTPY1xEuOu0jgByKQlJS0YsWKf+4GcvPmTV7lY2NjFRQUwGD27Nnx8fE8A9xFAlWWgKura8OGDf38/AQCQVhYWPfu3Qkha9eulV3h+/fvDxo0CK752rVrFxQU8Oy3bNkCRxUVFY8cOQJyJCwsrF69ek5OTunp6YmJidOnTyeE9OvXj6UVi8V79uxRV1efOHFiZGTkhw8fTpw40bx58x49eujo6DCz8gIJCQmEkAYNGmzcuNHJyQkq0LZtW09Pz+nTpysqKg4ePPjt27czZsyAQ4SQgwcPvn//nlIqEonCwsIMDAx0dHQCAwMLCwv9/f01NTXBcsaMGe7u7v3791dQUDA0NIyLiyssLAwMDPzll1/AwNjY+NSpU56enmvXroXO8datW1Lr6eLioqysvGrVqpKSEnt7e0LIihUrpFpC5Lt373799VdCiLKyMs9MLBbfv3+/efPmhJC2bdvyjn7ZLvb+X8btC1KVq8Agry5dujRo0AAu6JKSEm4Bp0+fHjx4MFx527Zt4x7CMBL4+Qi8fftWV1cXLvgJEybwGmhpadm/f384Gh4ezjuKu0igyhJ4/fp1tWrVlixZwmqYn5/foUOHChUYpdTT05PdFB4eHiwHSqlQKBw/fnz16tUJIS1atGCH2rZt26FDB7ZLKZ09ezZXgU2bNo0Q0rt379LSUmb2/v37Fi1aNGjQgMWUF4iJialTp05KSgql9OnTp3BL9urVC+ydnZ0HDBgA1evYsSMc3bVrFze3ESNGXL58mcUYGRmBGcip3NzcGjVqEEKaNWsmEAjKBqigwoQQ7uh4RkZGixYtpCqw5ORkNTU1QkhcXByl9MiRI4QQCwsLVqLUwKpVq6QqMDCePHlyJSowyBN7f6knonIjK1BgZTfGunXr4Prz8vLilm1qarpv3z445OzszD2EYSTw8xFIT08fN27cwIEDCSFKSkrJycmsjbm5udM/bXA7wIwGO4oBJFCVCcBcR58+fbiV9PPzk0eB+fj4bNq0CWRWt27duDmcPXvWw8MDxAobm3n37h0hRF1dPScnhxl/+PBh8ODBsHvu3Dm4iY4cOcIMIBAeHi6PAnvy5ImVlRUkkVRgJSUlI0eOhKOXL1+GsnR0dAoLCyEyIiJi4sSJEIa/48aNAzMmpwwMDCAGZv3Mzc1h99y5c5Dk2bNnlNLt27ezJNwMjx49CvYwtUopTUtL4xpIDdvY2MhQYFOmTKl0BYa9v9QTUbmRFSuwd+/eqaioEEK4t+iTJ09sbW3d3d3hSuIqMKFQ6O3tvWLFCgcHBzbxTym9du3asmXLNmzYcP78+UOHDkEzpEYKBAJ3d/dly5ZZWloeOHAgOzubtVksFvv5+dnY2KxevdrLyys0NDQsLIz1hbGxsdu3b7e2tvb29i5vSlQgELi5uVlbW69fv/7ChQthn7bs7OxLly65ftouXbokEAgOHjy4ceNG5v12+/bt9evX29ranj9/HnJOS0sDe1dX1w8fPsTExLDdt2/fUkq9vLwg5tatW48fP7azs9u0adPz589ZWzDwYxEABXb69Gm45tesWcPq7+Licu3aNZhPIYRwFVhGRkbZNWxlZbVnz568vDyWROqVLzXyzZs327dvX7JkyerVq0+fPs0dGJB9O9y8edPe3n7NmjXBwcGsXAwgAR4B9hifPHkye5aWlpY+fvyYZym56+Pjs3fv3gULFsBNce/ePWYzYcKE/Px8ngKDKUJCSNeuXbnGDx48gIR6enqQlVRR4uDgwPIvL5CVlcX6HUkFRillZVFKhwwZAsU5OTlRSsVi8bBhwxgEKEJSgfXs2RNS+fv7U0p5CkwsFv/222+U0g8fPki2IjIy0tTUFJI7Ozu7urru2bNn06ZNf/zxB5vGTU9P379/v6Wl5f79+1mkpAJ7+/ato6PjqlWrHj58+JUUWGX1/s+fP1+7du3KlSu9vb0BNaVUaqSM3p9SGh4evmHDBisrq4MHDwYHB4eFhT19+hROkzy9f3nXzHeMr1iBUUrNzMzgimHX7qJFi169esVuXabA8vPzBw0a1KxZs5ycnF27dmlqakZERFBKd+7cqaamFh0d/e7du9GjR48ZM6a8yLS0tFatWs2cObOwsPD48eMwAfrq1Stwk4R5z2vXrqWmpsL0fJlzgJubG6X09OnT6urqu3fvzs7Obtq0qZmZmSTWV69e6ejoaGlpvX//Hl6AVFVVBw0aBJ6nDRs2JIQMGjSITSfZ2dmJxeIFCxYoKytHRka+efNGW1vbyMgoPz9fKBQuX74csISFhRUUFKxcuRJ24cXo8ePHysrKhJABAwZMnz59+fLlCgoKGhoagYGBkhXDmKpPABSYUChs3LgxIeSXX34pKiqCp/aYMWPEYrGkAouJiWnatOmkSZOKi4snTpzYtm1bePWX/3YICQlRV1c/ePBgXl7e77//Tgjp379/cXFxhbfDypUrFRQUoqOjo6KilJSUJD2dqz5wrOG3IZCYmKiqqgrPLlVV1UWLFvEkiIxqgAJ7/PgxJJ82bRoYP3v2DAaieApMJBIxjUUIMTIy4rrwZ2VlQT7KysrlvULLqIzkIakKjGsWGRkJ7pu//PKLQCA4fPjw9u3buQaUUp4CKywsrF27NjwB4J2Kp8Dc3NyGDRvGy4TtRkZGTpw4EZrp7Ox84MABGFYnhMBYw/Pnz6H/KigoGDVqlL6+fn5+PqWUp8CePXsGDkKWlpZz585t0aLF1xgDq5TePzQ0VFVVtWzgIzc3197evkaNGpRSqZEyev+yJ56trS0hxNbWtqSkpG/fvoQQPT29xYsXy9n7s1NQpQJyKbC7d+/CFTNnzhxKaVZWFmh8SQW2adMmNqX94sULQsjAgQMppTo6OhoaGuDtmJubO3Xq1PIiDx8+TAhp164d9G3a2trMJxSKU1VVhZtz2LBhhBAbGxtKaXZ2dp06dcqKfvfuHZuYl3SXhj5y+PDhkDk8d65evQqnZOjQoYQQBQWFqKioHTt2aGlp+fr6/v3334QQfX19sIGbB8Y//Pz8AAs8RAIDA2GXfZDSrFkzQoiBgQGkNTY2hptEJBJVqYsAKyMPAVBglFIHBwc40TBREhAQ4OjoSCmVVGBwicL0PVxI8EWL/LfDrFmzCCGLFi2ilD58+JB7gcm4HYKDg+HxBO1q1KhRrVq1uGPJ8rQXbf47BNzc3BQVFeHqIoSoqqr+/fff8jQfFBildMCAAZAQvhNctGhRbGwspZSnwCilERERoGBYcebm5vAdfdlUA0TKM9soT/UqVGCssyCErFq1avDgwTx3Z64C8/DwCAoKmjBhAtxckZGRUAemwAYMGADKQIYCK2Pi6OgIzQQ3sl27dsEu3KHQDZ06dYpS6uLiUjZpC27WPAVmaGhICBk7dizUAfiz2V554FRoA855/773nzp1KiEExgvLxiChzlIjZfT+bPT07t27lNLNmzcTQsC9T87ev8L2fhcDuRQYpbRbt26EEDU1tfT09J07d4KjoqQCa9OmDSFk8eLFCQkJ9+/fJ4SoqKiUlJTA1yJNmzb18PAoLS2FwQOpkQkJCX379rW3t4cvU2BcytzcnElgLS0tIAWCBhwIvL294SKOjY1NSEiA71zWr1/PY9q7d++ySaJx48ZBfK1atcok14YNG2AX+ktdXV1uKn19fUKIsbExRJZNXxJCoA7MZQEU2PXr16EOTIHB9ylTpkyBtKznxg/luIR/lDBTYGlpadWqVSOE/Prrr2Vj6ZMnT4bZap4CS01NhevhyJEjCQkJe/fuhRFWSqnUK19qpL+/v4GBwZkzZyilMTExkOHx48dl3w4wK9S9e/eETxuMOkh1SflR4GM9vzaB4OBg+AQSrjEFBQVPT88KC2UKzNfXFxJu3rw5OzvbxMQE0koqsDLX+6SkJDYTB6ng3T4kJAR2NTU1WdFJSUkh//8mvy+HPArs1atXcDuXvWlLXYCDjYGZm5tv27btwIED9+7d4y69xBSYj4/P48ePh33aWP0lAzwF5uzsDK3Ozs5mD40TJ04kJCTs3LmTEGJoaMgbA0tLS4MkW7duhfy/0iwkZP4ve3841xoaGvb29pmZmdD7S42U0ftfu3YNmgw+HvCVq7KyskgkkrP3lzwRVSFGXgV26NAhaP9ff/01bNgwGMXhKTChUAgeY/r6+jacLTMzE7Q85NC6desnT54wgc+LBChRUVGLFi2aNGmShoYGIQQU2J07d8AJGkZle/TowT7i3bBhA+SzZMkSVrKvry/kxv7CEB0IZ4FAAK99Fy9eBANQYNCtQgxrEYz5UUrt7OygoLdv336uAtu/fz+kDQgIYFXCwI9CgCkwSunMmTPhVHp7e8+dOxeawFNg7IV+7NixNv9s8MT8rNtBLBZfuHDBzMxs7NixUCgoMBm3A0zWa2tr/1Ps//6zV3aKGxLgEGC+SmKx+Ny5c507d4bLrFWrVhwr6UGmwEpLS3V0dAghjRs3dnR0hHcGyTGwnJwc6IAppVFRUfAWDTMPycnJOTk5bEkXeMiX3WsvX748fPgwWxJi6tSpUVFR0msjESuPAqOUDh8+HJocEhIikQd/FlLSgCkw8MRPS0szMjKSNGMxMhQYe2iYmJjY/LPBEDt3DIxJVfDAoZR+VQX2L3v/sLAw+FaDEFKrVi1Y1E1qJCCS2vuzgS6Ys4IvQ6GzlrP3Z/yrVEBeBVZYWAjTfGpqamymnKfAyly7atasyR0x4jb10qVLMJ7Ena6WjCwqKoKLaf/+/ZRSmOoGBVY2cenm5qatrW1hYeHo6KikpDRu3Di4Udk1LfvmLCkpWbp0qZqa2s6dO83NzctefbjjZJIKrEwmQquZAoOpaEJITk7O5yqw3bt3w33+8OFDLhkM/xAEuAoMxndhVBg8HSVnISMjI+F0M89TbjMlr3xKqWRkUlJS165dNTQ07t+/HxsbCxmCApNxO4wZMwYedtwSMYwEpBIwNzeHj4fgqEgkmj9/PiFEUVGRO9IjNS1TYJTSjRs3wvXZqlUr9r0Ibwzs+PHjJ06c4GbFPgwEp5FOnTpBJryBLph0I4TA5CY3BxlhORUYy7xSFBillC3P5ODgwL6yZPVkvRXMQnLHwNhDY+/evcweAlwFFhoaCpSgl/zaCuzf9/7Pnj1jaltVVRUcDSUjZff+d+/e1dPT69+//+HDhxs0aNChQ4eEhATurK7s3p/Hs4rsVqDA+vbtyyoKV0DZyjEfP36ESKbA2HoqMM1Xt25dcBaG72yzs7PhihSLxceOHYORp4KCAqmR4N7Ophp5Cuz06dOGhoYBAQGPHz8GrzKoCRui3LlzJ6vwmzdvWBgCpaWlDg4O06ZNCw0Nffr0KfeLaEqpVAUGi8HApwOUUvCGBje18+fPw20AH/VUOAsJrvoaGhpw4/HqhrtVnEB6ejqbW6GU9urVq8y5oXv37qzabAwMFHZeXh44GjJfDUrpmzdvyrvypd4OMDEE8+aSCqy824G9J7BPZ4qLi9lC3qzCGEAC8Ckfm8wCIHCltW/fvkI+Pj4+Li4uYPb+/Xu44LmvtaDA2rRpAzbHjx+HOTVuzvCQh+vz9u3bMAy2evVqrg28VBBCkpKSuPGyw0+ePIFHdM+ePWVYjhw5EsykfjVsYmICRyUdiyFP3hgYKyguLo638hkckqHAcnNzYR7J1NSU5ZOamsqbhczIyIBuFNx1ylwUfvvtN+7QBkv7bwKV0vsXFRWx6yE8PBwGSq9cuSI1UnbvHx0dPWLEiGPHjj169Ojly5esaXL2/sy+SgUqUGDNmzfPzc2FGr9+/VpJSWnmzJmsAUy8sxXzmXP69OnTX7x4ERgYOH78eIFAUKdOHdYBGBgYtG7dWmokpZS5wwcHB3t5ebHLsbi4+MaNG2Wr3nXu3Pnq1avBwcGhoaHsm52y8fMuXbqAh9bFixdfvHixYsUKb29vVlUIwOrDZmZmQUFBISEh9+/fZ+tNUEr79OlDCOHdM/ApGVtREOZ3Lly4QCl99OgR3JmOjo5FRUWLFi2C3WPHjkFx4AfWvHnznJycgoKC1q1bs2lTXsVwt+oTSExMZB9VUErhQ122rgrXY5c9qS0tLWGGxdHREb4dtrKyknrlS40UiURw/bds2TIuLo4tyr9v376SkhIZt0NKSgpM3+vr60dFRT18+HDSpEmfNXhQ9U8H1rCyCJibm2tqanKXUIElV+Rxxndzc7O1tWU1mTp1qrKyMqyGWuazUVpaCt+DN2zYEGzgrjl8+DBL8v79eyUlJfYRZVn8unXrFBQUNDU1uSNz8HD+XAUGM/Xs0y5WKC/AVpe4dOkS7xCllH0aL/mLQGDM3AO47bp58yZ8By2ZIRsshN5n69at0HHAmMLSpUthAHL//v1v3rxxd3eHr83g5V9RURGmccGTXV9fXygUvnnzBrxItbW1Kxy2lKxPeTGV0vsXFBT8+uuv7FfaVq5cqaSk9Pr1a6mRMnr/jIwMLS2t6tWrnzp16s6dOyEhIfHx8dBYOXv/8pr5fePLVWC3b98G7W9gYODu7g61HD9+fGhoKHxIuHr1anh3IYRoampaWVnBVyS7d++GBX/hy/nU1FSBQFCvXr0hQ4Y4OTmtWrWqfv36N2/elBpJKfX29oabtmbNmgcPHgSHmxo1aly9etXT0xOuVO7fIUOGgEZMSkqCYQlCSI0aNQ4ePChJdvbs2dy0sMAdfDW9b98+eIFTUFD4448/uMNjgYGBTZo0sba23rJlS926dbkr07JhD11d3c2bNysrK+vq6o4ZM+bFixdlC0aDAhs4cODIkSN1dHQUFBSmT5/O3CAkq4cxVZaAh4cHuKNOmDABBFZxcXHbtm1htZ5Xr14tXLgQrh/4TgomEQoKCubMmQPv9IqKigsWLCgpKZF65UuNpJTC45gQ0qpVq6CgoFatWhFCWrdu/fLlS9m3Q1BQELxuEkKaNm0Kt22VxYsV+44EzM3NO3fu3LBhQ3t7+wsXLuzevVtPT49Na8io2OrVq3V0dKpXr7548WKYcLh37x5bzvTy5ctsbAlcU8LCwo4fP96qVav69eubm5v7+voeP368e/fuCxcu5E0L3LlzB6q0c+dOf39/kCwtW7a0t7eX//m5efPmdu3asQf+tGnT2DdSrFEPHjyYOXMmcz7T09ODoWgwSE1NNTU1ZUdbtWrF8yhITU1dsmQJc+Rv2rTpokWLpk6dCs+Ksv5l8+bNrCwI3LhxA76RJ4TMmzcvPj6eLc8BMlQgELAqKSkp/f7770Kh8Pbt23Xr1oW2LF26tOzJkJ6eDt8/Nm/efPTo0WPHjlVXV+/YsaOlpSWvxC/YrcTeH4Y2+vbt++eff27btq1x48ZwafXp00cyUkbvn5SUxE4lC7Rs2fLRo0fwbUeFvf8XcPgGScpVYP+m7KKioqioKPjJBfikEe7PuLi4yMhI6LREIpFkJBSakpISHR0Nek4kEj169Ag+0y0qKpo/f76qqmqNT5u6ujqcCXBUZGnDw8PZuB2vFSkpKb1791ZXV4ccWJcpj5NyYmLi8+fPJReSiIuLe/r0adnyYHl5ebxy2beQIpHo+fPn3PE2XsVw9ycmkJ2dHR4eDuukfMHtEBMTEx8fDyuw5OfnR0dHwxR/hbeDWCyOjY2NiopiTjk/MWRs2hcTgKefSCSKi4u7cOFCZGQk84L/4jzLS5iUlAROLCkpKVeuXLlz546M367Ozs4OCQm5cOFCVFQU+1ygvJx/svisrKzw8HCup43UBiYmJsLD4d27d1XkNuf1/iCPKKXv3r0LDw9npxtmk3mRlNLyen9K6YEDBzQ0NKDvZq79zEEI0sro/aUC/O6RX0WBfaVWubi41KhRgw1xl837REdHq6io7N69W84STU1NDQwM2IovQqHQzc2NEAI6Ws5M5DcDBca8+OVPiJZIoEIC//52qLAINPiPE4iJiZlezsY8kL4LIgcHh3LqNR2/c/ouZ+RrFxoZGamurs5+94lS+vHjxw4dOowfP/5rF/1V8/+RFJilpWW1atXY9w5isdjf379du3bMw6xCUvr6+h06dGCvU0VFRWvWrJkwYUKlrL/MK10kEmlpafF+zYlng7tI4IsJ/Pvb4YuLxoT/EQJZWVnXy9m+78/PP3jwoJx6XWcfiv1HztF/pJngYn7gwAHWWT9//rxdu3ZSP1/9gZj8SApMKBQeOnRoxowZc+fOXf5p8/T05P7WXoXcMzIytm3bZmZmZmFhsWrVqpUrV165ckVyYrHCfOQxWLly5aeV+f73Z926dfK7L8iTOdoggX9/OyBDJIAEkMCPQiAwMHDhwoUzZ860tLRctWrVjh07uN9q/Cit4NXzR1JgvKrjLhJAAkgACSABJIAEflACqMB+0BOH1UYCSAAJIAEkgAR+YAKowH7gk4dVRwJIAAkgASSABH5QAqjAftATh9VGAkgACSABJIAEfmACqMB+4JOHVUcCSAAJIAEkgAR+UAKowH7QE4fVRgJIAAn8qATEYvHpfzZ/f39oBvyCsOTK9T9qI3/YesfFxf1zck5/s0b4+flBoY8fP66wULFYfOjQob///vtzlzJ48eIFa5rUBQq+OOcK6yzVABWYVCwYiQSQABJAAl+RQHR0dJs2bQghDRo0gGLWrl1LCFFTU4MfQfmKZWPWMgmkpqYaGBjAT87INPy3BwsKCq5duwa5+Pr6QokrVqyoMN/r16+DMUteYRIwSEtLMzQ0hLRSf3JAas7x8fHPnj2Ts4jPMkMF9lm40BgJIAEkgAQqhwD87C9TYCdOnFBQUGjTpk0l/rx05VT0v5fLqlWrvoECmzVr1sKFCxldJSUlQog8CiwxMVFDQ0NdXT0+Pp4llzOwa9cuGQpMMmeBQNChQwcfHx858/8sM1Rgn4ULjZEAEkACSKByCMyePZs7BgY/7VdFft+wclr4w+ZiY2PztRWYo6MjIYSrwJSVleVUYJTS7E/bFwB2dnaWocB4OZeWlo4fP54QggrsC1BjEiSABJAAEqiYwM2bN+3t7desWRMcHAzWXl5erp+2W7duffjwYc+ePVZWVkFBQdy8BALBkSNHrK2t7ezsnjx5wg5lZma6ubktW7Zs9+7dr1+/ZvHwC81OTk4rVqyIiIjgKrDo6GgoztXVtbS0VCAQsN34+PinT5+uX7/exsYmISGB5SYQCNzc3KytrdevX3/hwoWwTxvOYDI+/yYgqcCEQqG3t/eKFSscHBwSExMppfKcI7FY7OfnZ2Njs3r1ai8vr9DQ0LCwsOTk5G3btoEM6t+/v6ur66tXryilTIElJydv2bLF2tpa6o9fpaWlsWvj9evX8lSDi4IpsPj4+J07d1pZWZ06dQoMeDmXlJSYmJhAPefNm+fq6lpcXEwpvXbt2rJlyzZs2HD+/PlDhw5xM//cMI6BfS4xtEcCSAAJ/FQEVq5cqaCgEB0dHRUVpaSk5OrqSimNjo5WVFQkhIwZM2b8+PF9+/aFriggIAAa//jxY11d3SlTpuTl5fXt21dZWfnOnTuU0oiIiMaNG5uamhYXF69evbpWrVrsB5VjYmIaNWpECLGyslq4cGGLFi3YGFhOTg5z0BEIBGKxeO/evVDiwoULjY2NW7ZsSQjR1taGHwJ+9eqVjo6OlpbW+/fvL1++TAhRVVUdNGhQRETET3VuvlNjeAosPz9/0KBBzZo1y8nJ2bVrl6amZkRERIXnqLi4ePDgwYSQa9eupaamampqEkJ69Ojh5ubm5eWlrq5OCBk4cKC7u3tSUhJTYMOHDx89enS3bt0IIUpKSpI/tS4UCv/880+4Ni5evFhhNXgImQKbOHGik5NTkyZNCCHTpk2jlPJyzsnJYQVZWFi4u7sXFxfv3LlTTU0tOjr63bt3o0ePHjNmDC//z9pFBfZZuNAYCSABJPBTEQgODiaE6OnpQasaNWpUq1YtGEmqX78+dJklJSVCoVBDQ4MQMm/ePEppaWlpp06dCCGgeBYuXEgI2bx5c2Fhoa6uLiHEz8+PUvrkyRNCiJaWFsimUaNGEUJGjhwJZY0YMYIpMErppk2boFsVCASU0piYGNhdtmwZpTQ0NBR2jx07RimdPn06IWT48OGUUrFYrKqqSgi5evXqT3Vuvl9jeAoMTo2FhQWl9MWLF6CcKjxH7u7uoIzh57SHDRtGCLGxsYFmaWlpSZ2FNDIyEolEmZmZcLrt7OwkMcBFSwi5ePFihdXgJWcKLDY2llIKv/kNMpFSyss5OjoaqsFmIXV0dDQ0NMCLPzc3d+rUqbz8P2sXFdhn4UJjJIAEkMBPRWDBggWEkO7duyd82vT09Aght27dopQ2aNCAEDJ9+nRoMHy6OG7cOErppUuXoGfKzMyklL569Wr37t3p6emsP4uKiqKU5ubmgueVMNUAACAASURBVJmzs/PHjx8hvGHDBsiQOwtZNgSyefNmMAAFFhsbC7vu7u6U0tTUVJZV2UxQ7969CSFQGUpprVq1CCEs55/qDH2PxvAUGJz6xYsXJyQk3L9/nxCioqJSUlIi+xzZ2tqC/oYWGBsbE0IGDx4Mu+UpMOaJD2NmXEcxRiIkJAQuBlBgsqvBUkGAKTCmoiCrJUuWUEp5OUsqsF9++YUQ0rRpUw8Pj9LSUqlLWvBKlLGLCkwGHDyEBJAAEvjJCcA8kba2tg1ni4yMlFRgbdu2ZaJny5Yt0G+lpaVxAW3cuBHiY2JiYKgMds3Nze/evQvhPXv2QJLPUmDv37+H5M7OzmzArFevXuCQBBOm0B9z64PhLyPAVWBCoVBFRaVsXFNfX9+Gs2VmZvKkD+8c3blzB2YS8/PzKaU9evTgOtpXqMAkDVhbeDpJdjVYKgjwFBiltFq1amWjuaNGjZJHgbm4uMB1SAhp3bo11/2RV5A8u6jA5KGENkgACSCBn5PAmDFjCCG1atWSbB5vDIyrwHbs2AH9EM9XmvVPoMCKi4vBbPny5Wwa0cnJCcr6NwqspKRk6dKlampqO3fuNDc3L+tE169fL9kEjPkyAlwFRimtWbMmIcTY2JiXW4XSx83NTVtb28LCwtHRUUlJady4caDGKKWSAot54kMpkgas9K+hwMzNzeVRYDAArK+vDxd227ZtWa2+IIAK7AugYRIkgASQwE9CAKaKCCEPHjyAJhUXF4PblgwFxhautLa25oIIDw+HnglG0TIyMmD35MmTGRkZMFK1cuVKSDJr1iyuH5jsWUje+EppaamDg8O0adNCQ0OfPn2ak5PDrQaG/yUBngKDOd+6devCx4CU0rS0tKKiogoV2OnTpw0NDQMCAh4/fsxbARUE1oIFC1hVv4sCYxPlbm5uMhSYt7c3pbSgoGDbtm3genjs2DG4ngsKClgTPjeACuxziaE9EkACSODnIZCSkgIu9vr6+lFRUQ8fPpw0aRI4KUMfOWnSJGhts2bNCCFGRkaw269fP/AHOnLkSEFBQWhoKHROsH7SkSNHKKW3b98uc5f+9ddf4ddjwH2+Xbt2JSUlKSkpoPCqVasG4yJ2dnYg19LT0ymlDx8+hN29e/eCqxnsQin29vaEEDMzs6CgoJCQkPv372dkZPw8Z+V7t2Tp0qVAG+QFc++bPn36ixcvAgMDx48fX1BQIPsc3bhxgxDSuXPnq1evBgcHh4aGJicns5bp6OiU+b/37t07IiJi06ZNxcXFIGiWLl1KKRWJRHBZzpo1iyVhgcDAQKje6dP/+90k2dVgqSDAZiHhK0t/f39CSJs2bUpKSiilvJzj4+OhIEtLSy8vr3PnztWpUwfeT8oGwwwMDFq3bs3L/7N2UYF9Fi40RgJIAAn8bASCgoKgOwQX49DQUErpypUroe/R1NS8dOkSWxuiZs2a8J3j+/fvjYyMwKZ69eoLFiwAr+S8vLy5c+e2bdv20KFDvXr1Gjt2LPMVy8jIGDRoEJRiaGg4efJkNTW19u3bz507986dO7BQBSFkzpw5eXl5Q4YMgczbtm2bkJAwadIk2G3Tps3z589hBhNi4K+ysrKVldXPdm6+R3tu375dt25doDp//nyowu7du9XU1CCyf//+qampFZ4jT09P7gmC8JAhQ3Jzc5knHyGkZ8+eWVlZ8AMJhJD69euHhISAwiaE1KlT58aNG1wMqamp4FIG4v7169eyLxVu2rLZT2dn55EjRzo5ORkZGe3bt69ly5ZDhgx5+/YtfO3BzTkjI0MsFsMXu4SQBQsWCASCevXqDRkyxMnJadWqVfXr17958yYv/8/aRQX2WbjQGAkgASTwExIQi8WxsbFRUVGfuyT9x48fHz58KJlKIBA8ePAgKytLEtbLly/j4uLEYnFqaioMPEjaVBiTkpLSu3dvdXX1Gp82WI2ibPUymP2sMDkafAGBoqKiqKiouLg4OdMWFRXNnz9fVVUVzhEsAEYIcXR0hBySk5OfPXsGa1XImee/N0tLS4MSBQJBZGQkDLjKyFYsFpcpflixTCQSvXnzhlIaFxcXGRn5b+YfoURUYDLI4yEkgASQABKoigRMTU0NDAyYgBMKhW5uboSQR48eVcXq/ifr5OLiUqNGjZSUFNb66OhoFRWV3bt3s5j/eAAV2H/8AsDmIwEkgAR+PAL6+vodOnRg85tFRUVr1qyZMGHCNx5Q+fHAfcMaW1paVqtWDVaGA+91f3//du3aMT+qb1iXKloUKrAqemKwWkgACSABJFAegYyMjG3btpmZmVlYWKxatWrlypVXrlwBf//ykmD8NyYgFAoPHTo0Y8aMuXPnLv+0eXp65uXlfeNqVOXiUIFV5bODdUMCSAAJIAEkgAR+TgKowH7O84qtQgJIAAkgASSABKoyAVRgVfnsYN2QABJAAkgACSCBn5MAKrCf87xiq5AAEkACSAAJIIGqTAAVWFU+O1g3JIAEkAASQAJI4OckQAbihgSQABJAAkgACSABJPA1CQQHB/OEJNmFGxJAAkgACSABJIAEkMDXJAAL63NFGM5CcmlgGAkgASSABJAAEkAC34IAKrBvQRnLQAJIAAkgASSABJAAlwAqMC4NDCMBJIAEkAASQAJI4FsQQAX2LShjGUgACSABJIAEkAAS4BJABcalgWEkgASQABJAAkgACXwLAqjAvgVlLAMJIAEkgASQABJAAlwCqMC4NDCMBJAAEkACSAAJIIFvQQAV2LegjGUgASSABJAAEkACSIBLABUYlwaGkQASQAJIAAkgASTwLQjIq8DS09ODgoJCQ0Ozs7MppUVFRS9fvvwWFfz8MtLS0k6ePCkWiz8/6VdMkZqaev36dXkKePbsWVRUFFhWzbbI0wqpNk+ePAkKCpJ6qIpH5uTkpHO2goICqRUuLi7mWEkJCoVCXmxpaanUrCilYrGYZ8zbLS0tzcjI4EYKBALJ3LgG6enpQqEQbPLy8tihvLw8yYTlxbx+/frq1auPHj0qKiqilL5580YyeWZmZlBQ0MOHD0tKSrj55OfnQ6G8JCKRiFUmPT2dRzIjI6O8O5pHgJ0asVgcFRUVFBQEj6yYmBhuNeQMx8fHy7bMz88PDw+/fv36u3fvwBIKyszM5DYHIHBjsrKyZOeMR5HAdyeQkpJy9erV6OhoyZrk5OTcvHnz/v37vBtc0hJjZBCoWIHdvXu3e/funTt3trS03LJly8SJE5s2bdq+fXsXFxcZ+X7HQw4ODoSQJ0+efMc6cIsWCoWbNm1SVlYeNmwYN14y/O7du+nTpxNCNm/eDEerWlsk6/xZMcOHD69Tp85nJakixiEhIWZmZoQQVVXVyZMnGxsbjx07dujQoZaWls+fP2eV9PLyIoTo6uoaGhqOGDGCEPLLL7+YmJgMGTJEU1OzWrVqeXl5R48ebdeuHSGkZcuWhw8fzsjIYMl5gXfv3kEOw4YNMzEx0dDQUFBQMDExGTFiRNOmTQkhoaGh586dMzIyIoTUrVt33rx548aN69ChQ79+/U6cOMFyO3HiRNeuXQkhTZo0+fvvv5n0CQ8Ph0bNmDEjIiKC2ZcXEIvFnp6eOjo6w4YNs/+09e/fv3379jo6Otzb7e7dux07dvztt99cXV23b9/es2fPKVOmZGZmQraPHz+eOXMmIaROnTqvXr1iZeXn53t4eNSrV09bW9vV1TU7O9vV1bVu3bqEkE6dOk2dOnX06NHDhg0zNTX18PAoLi5mCc+fP29sbEwIqVat2q5du2JjYymlHz9+7NOnT+/evTds2DBlyhR9ff169eqVp+FYVrxATk5OvXr1yjtBycnJkyZNatKkydy5c7dv325ubt6sWTMDA4NJkyZRSv39/QcOHEgI0dLS2rdv3/v37ymlfn5+jRo1UlJSmj9/vr+/P6+4qrCblpb26NEjkUj0xZV58eIF97R+cT6Y8LsTWL16db169fT09AghhoaGXKXl6elZo0YN8mlr06YN9/b/7tX+sSpQgQLbvXu3goLC6tWrufdkcHCwpqbmtm3bqk5Tnz59yiqTmZl58eLFz33asuRfKdC+ffsKFRilNC0tjavAqmZbPgsR99TEx8eHhYV9VvKqY5yYmEgI6du3L6tSbGysiYmJoqLihg0bINLDw2PhwoUQTkpKIoSwk56VldW0aVO4j3bt2kUI2bhxI8tKaiAxMbFLly6FhYVwtHnz5srKyhAWiUQmJiYwoBgaGlr2yjFx4kQ4VFpa+scffxBC9uzZw7L9+++/CSGrV69mMRAoLCzU1NTkPlt5BtzdiRMnamho+Pr6ciNdXFwIIeHh4RC5d+9eZWXlU6dOMRuhUDhr1qwmTZo8evSIRYIi7Nq1KxuygkN2dnYrV65kZjNmzChjHhgYCDHFxcWHDx/W1NRs165dXFwcM3v48CEhZMiQISxm+vTpvXv3ZruXL19WVlb+8OEDi5En4OzsXKa5//rrL0njsLAwDQ2NESNGMGVJKU1OTu7SpYuRkRHYBwQEEEJ+++03lvz169d16tS5ePEii6k6AZFItGjRIlNTU0tLy759+3LfK+SsZHp6uqGhoYWFxdy5c8eOHZubmytnQjSrggQOHz584sQJGKHfv39/2Yvl8ePHoZ63bt0yMzNLTk5+//69k5OToqJi27Ztq1qHWwWRSq2SLAX26NGjatWqDR06VDKlh4fHn3/+KRn/XWKeP3/er1+/71K0/IX++uuvrDOWkUogEHAVmAzLH+LQ0aNHraysfoiqVljJt2/fEkIGDRrEtRSJRKampoQQGHPau3cvUwY8BUYptbW1zc/Pp5S6uroSQhwdHblZSYafPn168OBBFs9VYJTSa9euXbp0iVIaHR1NCIGhFzDOy8tTVFTU19dnaY8fP172vrp+/XoWwwKdO3dmYRkBqPOmTZskbWbMmAFaMCEhQU1Nbdq0aTwbgUCgra3do0cP9pju168fjBFOnz6da3zgwAHu4Lq5uXkZ81u3bnFtIiMjVVVV27dvz0bCYmNjCSFjxoxhZo0aNRo7dizbpZRaWVlJnUzh2nDDYrG4T58+zZs3b9SoEU+hCgQCXV1dbW3tnJwcbhJK6YsXLwYPHgyRISEhhJDZs2fD7rt37/T19eV0ReBl+w12d+/evWXLFigoJSXFwMCA+9YtTwUmTJhw7949sLx8+fKcOXPkSYU2VZMA111EKBSqqKi4ublBVVesWMFuvTInhHnz5hFC2HOvajanytZKlgLr378/IeTGjRuStS8sLDxw4ACLf/ny5ZkzZ4KCgniPpKSkpLi4OKFQGBwc7O/vz32QyThEKc3MzLx06dLly5d5GRYVFd26dcvHxycxMRFKT05Obt26tZ6eXmRkJIuMi4tLTU1l1ROJRI8ePfLx8YmIiODWgVIaGRmZmZmZm5vr7+/PHh8sITcQGxvr4+Nz/fp1rqtNSUnJzZs3KaUpKSmnT5/meY2IRKIHDx74+vqmpqbKVmAFBQU3btw4f/48bwyMUsprS3R09KlTpx49evTx40du9R48eODl5SU5l1TeqZHRcNmn5tWrV6dOnQoJCeE5MKWnp/v7+587d47N2ty4cUNdXd3MzCwyMjItLQ0cm0JCQlg3TCktKCi4e/eur68v751bNlhuw79ZWKoCgwmvatWq1a1bNy8vj7lYUUolFRg7KqcCE4vF3F6Qp8DYUUkFVlJSoqqqqqenx+DIUGC//vorMysvkJubW/3TJnVg4/79+8HBwZTSKVOmEEKkzq9NmzaNEMLGz/r16/fu3TuYjXV2dmbluru7u7q6sl2pCoxSunz5ckLI1q1bwVJSgbVr105JSeny5cssq/j4+M/qJK5cuWJra7t9+3ZCiJeXF8uHUmpvb08Isbe350aysJOTE4S5CuzFixcdO3aU+ixlCb9voFu3btwn2/Lly6Wex/IqmZSUNGLECO7RPn36sEcBNx7DPxyB5ORkbW1t1qXCRD9rhbu7OyGEF8mOYkA2gXIVWGZmpqKiIiGEp4F42RUWFs6fP9/Ozu7hw4c7duyoV6/e6dOnQUJZWFgQQmxsbMzMzIyMjJSUlIyNjWUfgsz9/PzWrFlz/vz52bNn6+joPHjwAOLv3bs3ceLEq582NTU1cJa6efNmp06dmjZt6unpefv27ZCQkKFDhxJC2LtmUlLSyJEjDx8+fP/+/Tlz5nTs2BEmrWNiYgYMGEAIOXDggImJSc+ePQkh7OnJa+a8efPMzc1fvnxpa2vbvn17mHq4du1a48aNtbS03N3dx48f37x582rVqjEZ9/Hjx5EjR7q5uT18+PCPP/7Q0tIqbwwsKiqqf//+ly9fvnfv3qRJk9gYmGRb7O3t16xZk5qaumPHDhMTE6hkamqqqanpkSNHwsPD27ZtO2rUKOjpyzs1MhqemZlZ3lmDshwcHJycnPz8/Hr27Nm7d282BePu7m5hYXHv3r2tW7dWr149ICCAUurt7a2iojJixAhPT8+4uLgTJ060bNmSEMKEyM2bN4cMGRIQEHDz5s1evXqNHz9eHrC8U/PNdstTYGU6fsyYMYQQUCGsPpIKjB2SU4ExewjwFBg7KqnAtm7dyhtj+5cK7Pz584SQrl27skKlBpo3b04I4b2HgOX69esJIdbW1rDbr18/gUAQFxenqamprKzMRrnkVGCRkZFlwNnwvKQCc3NzK7uPlJWV7ezseBOdUmsuGTl27NikpKSMjAx1dXUDAwOuAUyhnj9/nhspGWYK7MGDBy1atIBXNUmzqhCTm5traGjIrUnZvC3zRqWUuri4mJubr1q1Cl4JAgICzM3NLSws2MTuhQsXmCCGfFatWhUSEsLNE8M/IoH8/Pxx48aFhoaWV/nNmzc3a9aM+65YniXGSxIoV4HBY71Cv2lbW9vhw4ezfP/8809VVdVnz57BsFCZg4iRkRE8AdesWUMISU5Oln0oKSmJTfSUlJTUrVu3Z8+elNL09PRWrVqBQ2vZyJCZmVnDhg2hXENDwy5durA6nDx5kikwmEpwcHCAo2KxeNCgQbq6uuBbc+LECe7UTJ8+fVq2bMnyYYH4+Pgyd+AzZ86AfCzzoT569CgcnT9/vqKiIrzaCgQCFRWVuXPnwqEyDyHm6CMUChs0aCBVgeXn5+vo6Ny5cwdSPXv2jCkwSim3LaWlpWpqauxVw9bWFkaVRowYceHCBUh+8OBBNiAs49TIaHhKSkp5Z+3s2bOsBwXPG/ArunPnTo8ePaACQqGwcePGZmZmsKumpsadhVy0aBFTYO/fv9fS0rp79y5YZmVlaWpqsjkpGWDB/tv/laHArK2tCSH79+/n1uobK7BGjRpNmjTJ2NhYT0+vYcOG8CLE6vMvFRh4RDFXM5YtN5CXl6egoKCoqMidoWAGcMmNGjUKYkCBUUovXryoqKhYr169N2/eUErlVGC5ubllwOvVqwe5SSowSqmzs7OamhohpEWLFtzBMFYlGYGEhIRx48aBAUyysAu1LGctrf/D3pmHRXFsf79mYVMQUMQFUYxoYoyiICigRod9HfQCFxMJJCCIMS5oXEm8RqOJicY9RoxbolGDEUUBIVFU3EVxYVPAHUUBWYZlgJl652e9t5663QMSE0Y0p//gOV11upZPD9PfrjpVY9SStT5EgQ0aNMjAwKBPnz5kGLiZSl9iVlZWFo1fJM3IycmZOHEibdL9+/dtbGzi4+NJSmVlpUQi2bJlC3VYv3797t276SnG+Pvvv2eXg7BZYL8qBNauXUtem7t168bGcbLtt7a2Zj8JbBbYzyXQpAIjUkBXV5edM+IU19jYSMeiSBZZvTV58mSMMSekaf/+/QghMkTUTNb8+fPffvvtSf89evfubWBgoIpr+eKLL9zc3GgDqquriZjDGHMU2O+//04VGPkSZF/FyGo1Mhty6NAhVaw0zZ02bZq2tjatghoKhWLv3r0kgoeoMTpUNmvWLBocrVrrZGVlRYbir169ihBiP7JNzUKuWbPG2NiY1sUhw/ZFqVR26tTJ0dGR7ANCxOiJEyf09PToPVIqlWSqpflb00zHOQ1g75qDg4OzszO5MxEREfr6+qNGjcIYSyQSGkGCMS4qKqLjphwFFhMTQxXYkiVLtLW12TcnMvxG3qqbAktBad5oRoHNmjWL1eWkbRpWYL6+vk+ePCGTzgMHDmzfvv369esppb+owNavX69aesn+A9KSqSGTyYgCo0sHaBbG+NdffyXKniRSBYYxXrJkCULI1ta2rq6uhQqMfErp+5JaBYYxzs/Pd3Z2Jiu21EawsS1k7RkzZhw5coSkkJeNgIAA6tC5c2eyEJWmqDXIl8/QoUNDQ0MRQtbW1vT/Qq3/S0zMzMxk35TIHDqNYCMNKy0tlUgkp06dksvlgYGB7GILonepPiP+254dL7FTUPXfQqC4uHjSpEkIoeHDh/ML3LdvH/uvwXeAlOYJNKnA6uvrxWKxKpL09u3bTRVBvvg4a4U6duxIHsycZzn71G8my9fX95NPPuHXOHbsWDqywsltRoGR6R46M4gxJtqILCNgm6SSjJynPqeW1NTUxYsX79u3j53f4VxCZdbWrVsRQnTETvWuT7M4xYaEhLz11ls0kUOGVWAY499++01bW1sliz///HMShrV69Wo6FkgLUUXkNH9rmuk4pwGsZ4cOHchAIFsRxtjY2JgNGGdzm1FgQUFB2traVDtijNesWYMQIhGgTYFlC9ew3YwCI8H47KpPtXFgtMGtPQtZXV1tYWEhEAjoyA158Vi4cCFtAzU4U2w0nTWOHj2KELKwsGAT+Xbv3r1VawI4HIjb6tWrEUKzZ88mp6wCUyqV48aNUw2Qf/TRR7GxsS2JAyPvh3TxQVMKjNS1ceNGElCRnJzMbzM/pbq62tjY2NfX1++/h46Ojkgkot+EJHph27Zt/GvZFDoLqVQqyUDaqFGj1MpT9qqXYj93DIy0qry83NXVVSKR8EPEYAzspdw4jVX64YcfCgQCupENqffevXuBgYFt8yOtMTJ/saImFRjG2M7OThX80Uy4w71791Q6gzN8bWlpSWYrmnmWN5MlkUhoeAfbNycnp6YeFc0osJ9++gkhxA6Pk+coWW/FyotmFFh9ff37778/Z84cpVLZ2NjYEgX2zTffcOYpmlJgXl5e7FQvhwxHgWGMs7KyxowZgxBycXEhO43x/zHIJpnN3JpmOs5pAPVUKBRaWlr8gQSFQqGtrc3uIMDetWYUGHkmsSKVjNOQKL1XSIHV1tYaGRlZWFjQ+DZCQMNjYFSOkNoJXrr48cSJE2wYFnuP2F0b2HTWJuFQQqGw+X1EyeYRnAlQUg4Rqfv37yenrAJTRdZXVVUNGDAAIWRvb98SBbZs2TKE0ObNm0lpHAWWkpJCdmGlXVi6dCm7LJGmqzU2bty4dOnScuYg8nHWrFnEf/bs2aoA2RkzZqi9nCZSBUaiBchaBG9vb84SFur/Eg1+HFhSUhL/n72iosLJycne3p6/oQY/DmzOnDmcyMiX2EGo+i8SOHjwoEgkYkMqy8vLIyIi1C7N+Yt1/aMub06BpaamIoTeffdddqCC0iGL17p169a3b1+aqFQq9fX1ySRdU89y/gQlfcxjjCMjI8ViMTt/l5GRceLECbLFEd12CGP8xx9/kNAKd3f3d955h7aBVS05OTkCgYANaDh//jxCiET3s/U2o8BIcBWpq76+viUKLD4+HiG0evVq2qqhQ4eqVZbTp09n5ysJNPrdx/alpqaGLi9YsWIFmT/97bffEELLly+nFT148IB88TVza5rpeDN37c033+zTpw87k7J169anT58OGjSoS5cu7OsRlby6urpTpkyhbWNnIck4EBspsnz58k6dOpHFqq+QAouOjhYKhcePH6fdJMatW7fY/cDY3BcbA+vVqxc75U0L5EfiY4y9vLwQQnQB+aNHj4RCIT8SMTs7OywsjBbVjEHundo9aORyeX5+Phn209PTGzt2LKecoqIiAwMDGt+JMR4+fDhHJN28eZPEVz1Xgd25c0cVQeji4kK/lzgKLC4ujrNQMSMjAyHEfhQ5LaSnSqVy4MCBNMCcpMtkMsNnB/mQP3nyxMjIqGPHjiUlJfRCatBVvSdPnmRlX319PZkSfe+999jJd3rhyzWGDBnCWQtJo0tJw8rKyiQSSVpaWnV1taenJ2c4/NatW/y1kGr5vNxuQu0vRuDQoUM2Njb02urq6smTJ9OVWGRogNVn1BOM5gk0p8BUvz40d+5cgUAQGhrKvvuqfnBjypQpZEh/+/btCKGkpCRSTUJCgqWlJfmtkvLycoQQ3aySzN8RDdFMVkZGhkAg6NmzZ1xcXG5u7vfffx8SEoIxvnHjhpaWVufOnXfs2HH58uXvvvuOPgyCgoLatWtXV1eXn5+vUCgOHz7MNunDDz80NDSkK2lnzpxJw72JTqLPzk8++UQoFHK2q8AYkzUEP/30U11d3fbt2wUCwfz588l38fTp00UiEX0SDBw4kOxMVldX16tXr27dupHA+bt37xoZGbErCehduX79ukgkGjVqFCkwISFBtbI3KCiInLJ9kclkgYGB5MLq6mqRSHT16tX6+vq+ffuKxeLFixdfunRp586d77//PhmMaebWNNPxZm4N2UdUIpEcO3bs0qVLCxYsIFKbTLkOHTo0KSnpzJkzM2bMoOOmXbt2JbqTrI/79NNPVfuCklFruVz+1ltvOTo6ktYqlUpbW1s6qtEUWMpN80ZeXh4nGKKgoCAsLExbW3vdunX89pD5brXBE0RA0wEq/rVqUzp27KhaXEz+uVgHMtbi5eVFE3fv3i0Wiy0tLdk31EmTJgmFQnZjheLiYnd396tXr9ILmzFkMpmrq6tIJFq1ahU72pebmzt+/Hg6Q7d161ZdXd2tW7fSoqqrq93d3S0sLG7evEkTe/XqRZUKTUxKShIKhawCI1v209nD+vr6uLi47t2729raPegWHgAAIABJREFU0l8BwhgTgUUVXmZmppaWFg3kIhPcIpGIjUaglXKMPXv2qH1TIi355ptviH9cXJyBgcGwYcPYHS4aGxtXrVpFozLIPy8bJfP06dOuXbsihCZOnNjWRNiqVatoNGdRUZGNjQ3bwpKSEolEQrdTrqurk0ql7GdJtS8du2IuKSmJfG9z8MLpq0IgMTGRhhOQOAE6/CGXy728vL788svN/z2+/vpruN0vdmefo8AwxmlpaXZ2dt26dZNKpZGRkaNHjw4KCmJ/ZG3Lli2WlpZLly797rvv3nvvPfLNWFlZ+cknnyCE3nnnnWPHjmVlZZHdxXx9fe/evdtMFsZ427ZtHTp0UG0aLhQKQ0JC6JvZoUOHTE1NySLzGTNm0MfAgQMHhEKhhYXF5s2bT58+TX6kxdfXl/y6Yl1d3fTp021sbNatW7dgwYLo6GiyVisvL8/FxUU1/jR27NgbN24cPnzY3NycbJ/Becjl5OSQ2Ftra+uzZ886OjpqaWktWbIkNTW1T58+CKH58+dXVFSsXLlSJBK1b9+ejOtkZmb2799fLBZbWVnNmjXLxsbm3Xff/fHHH/n3affu3cbGxu3bt7ezs9uwYYOenl5gYOCxY8c4fZHJZEZGRnPmzElOTo6MjKTjZHl5eWR5PIl0Zuf11N6aZjpeXl7ezK2pr6+fNm0aiQ40MDCgA29KpXLx4sVk3ZmxsTEbH0NC1G1tbc+ePfvrr79aWloSwvfv3ydLYj08PLy9vTdt2hQeHk4X1DQPlg9QAykpKSmenp4IIdWD3NXV1d3d3c/Pz9vbOyYmRu1vsMTFxZFPl0gkWrBgAVU55eXl69atIx+b7t27f/fdd5zhFrV9OXv27OTJk0lE+fjx4+kLD8Z4+/btJCxJS0vLxcXFzc1t0LNj9uzZnBEImUwWHR2to6Pj4OAQERHh6ekpkUj4MkhtA2jihg0b+vbta2lpqVJdoaGho0aNmjZtGvsqjDG+fv36mDFjpFLpsmXL5s6dO2zYsI8//pi8UagG5y5cuEBmSEeMGMEZZcEYL1u2jCgw1bzn119/Tb4Hevfu7e3t7eXl5enp+cEHH8TFxdH/fYzxzz//TDagEYvFn332WWZmpkwmMzc3Hz16dGRk5IoVKyIjI83Nzffs2UN70ZRx4MABU1PTLl260I8i8dy/fz/5F9PX16cD27dv3/b19TUxMXFycoqMjHRzc/Pw8CB75GKMd+3aZWtrixAyMDD46quvyBtgXFwcmWwlW/vyu99UwzSQ3tjYOHHiRNW738yZM+3t7enTl65Dt7CwCAkJIW+biYmJDg4OIpEoNjaWtu3JkyfOzs6TJ0+OjIz08PDgjHFSNzBeCQLW1tYCgeDf//73ihUrli5dSveEUg13kYgC8nVE/7KzGa9EB9tII5+vwEhD6+vrMzMzr1y5Qr9JOR24ffs2lUqcrBc4VSgU+fn5/LqUSmVhYSFZlsgWW1RUxHdmHRoaGgoKCl44AqOmpoa+5dfX17Pv32wtfPvevXtk2q757yOFQlFYWFhfX69UKtlxC06B9c+OmzdvslOBxOfhw4ecPVrptX/vramtrb158yZ/pLC+vj4/P59P+NatW+zzkraKGjKZjLKliWC0EgG5XJ6Xl3f58mXOa8afqq6ysvL8+fO5ubn8jwEtp76+/vLly0Rq08SWGBzh2JJL+D5kbwuFQpGbm5udnc3/WPIvebEUpVJ58+bNCxcutOXNJlretaKiooyMjOb/YZsvLTs7W+2GcM1fBbltjYBCobh582ZmZiYE2rfqrWmpAmvVRkDhQOAfSyA+Pj60iYPOyWoATm5ubhOtCKUR6BpohgaqaKqboaGhf4v400AXoAogAAReDwKgwF6P+wi9eFUJ5Ofnk5954P8ly0I107GysjJ+A0gKDZTUTEtau5amupmcnAyv+60NH8oHAkCAJQAKjKUBNhAAAkAACAABIAAENEEAFJgmKEMdQAAIAAEgAASAABBgCYACY2mADQSAABAAAkAACAABTRAABaYJylAHEAACQAAIAAEgAARYAqDAWBpgAwEgAASAABAAAkBAEwRAgWmCMtQBBIAAEAACQAAIAAGWACgwlgbYQAAIAAEgAASAABDQBAFkBAcQAAJAAAgAASAABIBAaxLYvXs3R9bBGBgHCJwCASAABIAAEAACQKDVCYACa3XEUAEQAAJAAAgAASAABDgEQIFxgMApEAACQAAIAAEgAARanQAosFZHDBUAASAABIAAEAACQIBDABQYBwicAgEgAASAABAAAkCg1QmAAmt1xFABEAACQAAIAAEgAAQ4BECBcYDAKRAAAkAACAABIAAEWp0AKLBWRwwVAAEgAASAABAAAkCAQwAUGAcInAIBIAAEgAAQAAJAoNUJgAJrdcRQARAAAkAACAABIAAEOARAgXGAwCkQUEOgoqKihDlqamrUOGEsl8sZLzVmbW0tJ1VtOSRRqVRynDmnDQ0NpaWlbKJMJuMXyDqUlJQ0NjYSn6qqKppVVVXFv5CmyGQy6sk3KioqOP16+vQpvbYZIz8/X6lUchzq6+tJFWVlZZyssrIyWntdXR3JVSqVly5dOnr0aHl5OcY4JyeHcxX/tLy8nJbDMUpLSzn+N2/e5KRwLmmKJ6cW2mCMcUvuLKdSOAUCmifw4MGD5OTkzMxMftUVFRXHjh27cOFCfX09PxdSWkgAFFgLQYHbP5pAenr6+PHjEULa2tqBgYG+vr4+Pj5OTk7Tpk3Lzs6maHbt2oUQsrS0dHd3d3V1RQh17txZKpVKJBJDQ0MdHZ1bt26tXbvWwMAAIeTs7Lx37156Ld8oKioiJTg7O0ul0nbt2gkEAqlU6urq2rNnT4TQmTNn4uPjPTw8EEImJiZhYWF+fn4DBgwYMWLEzp07aYE7d+4cMmQIQsjc3Dw2NpaKrXPnzpFOBQcHnz9/nvrzjYiICISQjY2Nt7e3tbU1Qqh///4+Pj6Ojo5isdjNzS0/P3/u3Lno2eHh4eHv7z9s2DBra+tFixY1pVYxxiNHjkxKSuJUV1xc/MUXX4jFYoFAcODAATb3wIEDw4YNQwh9/vnnt2/fxhg/efLEwcHB3t5+0aJFQUFBVlZWpqamfFXHFoIxTk1NdXFxQQh17Njxgw8+CA0NDQkJ8ff3t7CwMDU1ZZ3/+OMPOzs7NgVj3EKetJZ27dqtWrXq3r17tJyW3FnqrEnj8ePHV65cUSgUf6XSZu74XykWrtUwgTlz5piamvbr1w8h5O7uziqtbdu26evrk//3N99889q1axpu22tTHSiw1+ZWQkdal0BBQQFCyNHRkVaTm5srlUqFQuGiRYtI4o8//jhp0iRi3759m8gscvr06dOePXuSZ5tUKkUInThxghal1igoKBg8eHBtbS3JtbCwEIvFxFYoFFKp9OjRoxjjM2fOIIT+9a9/kayGhoapU6eq5MWaNWtosbGxsQihOXPm0BRi1NbWGhoast+tHAdyGhwc/MsvvxB727ZtCKElS5aQ03Pnzo0ZM4bYnTp10tbWpgKIVOrp6UlyOX8zMzMRQq6urpx0cjpjxgyEUIcOHXJzc1mH1NRUW1tbmjJhwgR7e3t6mpiYKBaLi4uLaUpTxunTpxFC48aNYx3kcrmDgwOb4ufnp2rk6dOn2USMcQt5klr4BFp4ZzmVtuqpQqGIiooKCAiYNm2ao6Mj+17RknqVSmVqauqUKVP69ev3888/t+QS8GnLBLZu3bpz586GhgaM8YYNG1QvlvS2pqWljR8//u7du48ePVq5cqVQKHzrrbfof31b7lQbbBsosDZ4U6BJbZHA/fv3EUKjR49mG6dQKAICAhBCZMxp3bp1eXl5xIGjwDDG8+bNq66uxhgHBQUhhC5evMgWxbevX7/+ww8/0HRWgWGMjxw5cvjwYYwxkTL+/v7Us6qqSigUWllZ0ZSff/5Z9cL6n//8h6ZQY9CgQdRuypg6dSr9huUoMIzxtGnTyIU9evTQ1dVlC+nVqxdC6O7du2wiscPDw21tbRFCWVlZ/NyYmBgyiNi/f//KykrqkJOTQ7WmSgmZmZn5+PjQXIzx9OnT1U6asD5qoRGH5ORk6nnnzh07OzuBQBAYGEgTidFCnvxbQy5v4Z3lVNqqp6tXr162bBmp4sGDB7a2tn9qJCw7OzsmJiYjIyM2NpY+qlu1wVB4qxIgb3ekisbGRi0trU2bNpHTWbNmyeVyWntYWBhCiH7v0XQwWkIAFFhLKIEPEMBqFRiZCNPR0TExMamqqqIhQRhjvgKjuS1UYEqlkn0KchQYzeU/5uvr67W1tfv160dvWzOKYejQodStKYO2HGPMV2A0l6/ALC0tEUL5+fmckktLS52cnM6fP48QioiI4ORijGNiYhISEiZMmIAQGjt2LNV/+fn5QUFB1L9///4ikSgxMZGm3LhxoyUPAz40jPGFCxdoORjjOXPmHDlyxNPTUyQS3blzh81qIU+1tZA4sJbcWbbG1ratra3ZIMKZM2cmJCS8QKWbN28GBfYC3NryJXfv3jU2Nn748CFpJGdYevPmzQghTmJb7k6bahsosDZ1O6AxbZdAUwoMY+zt7Y0QOnnyJNt6vgKjuS1UYNSfGBwFRnP5j/mvvvoKIfTtt99SnxYqBurfjMFXYNSZo8COHz+OELKysqL6iXouX76cPKft7Oz09PSePHlCs4gRExNz6NChmpoaEnb25ZdfknSOAtu0aZNqSlQsFi9YsOBPhR/xoclkMlbb1dbWDh8+XKlUJiYmIoQ+/fRTtoUt5MmvhS2E2k3dWerQ2kZlZaW7uztbi2o+l040Y4zXrl0bHh4+e/ZsIhxTUlLCw8MjIiL4E76gwFiMr4FdXV3t5+d35syZpvqyZMmSXr16sW8UTXlCOp8AKDA+E0gBAmoINKPAoqOjEUIbNmxgL9OwAjMzM/P39/f19e3Xr1+3bt3i4uLYxrRQMbCXNGU3r8C0tbVTUlJ27doVFhZmaGjo6+vLn4JUKBR2dnZkbeBPP/2EEKICi1ZKFBjG+M6dO507dxYKhSRmn6PAMMarVq3S1dVFCPXu3ZsdDKNFqTWINuratav3s8PNzc3MzMzZ2Zk6b9myZeXKlWS8ytLS0sjIiB0iaiHPV0WBZWVl0fhFQiAnJ2fixImUxv37921sbOLj40lKZWWlRCLZsmULdaAGKDCK4jUw1q5d+8YbbyCEunXrduXKFbU9sra2VvtJUOsMiRwCoMA4QOAUCKgn0IwCmzVrFkJox44d7JUaVmC+vr5PnjwpLCzct2/fwIED27dvv379etqeFioG6t+M0bwCE4vFGzdu7N27t0Ag+OOPP9SWc+DAgXnz5pEsuVxuamravXt3zmoAqsAwxmlpaWKx2NjYuKCggK/AMMb5+fnOzs5kZdbixYvVVspJJNpo7Nixdc+Oqqqq1NRUNmR+xIgRdE+N7777TrUo9QV4vioKLDMzc/r06Syi27dvh4aGsimlpaUSieTUqVNyuTwwMPDXX39lc6kNCoyieD2M4uLiSZMmIYSGDx/O79G+ffsCAgL46ZDSQgKgwFoICtz+6QSaUWAkGP/69essIw0rMDYSv7q62sLCQiAQnDp1ijSJbJOxcOFCtoXEZpcW8nP5Kc0rMBKJf+nSJV1dXTMzs6KiIn4JLi4ujo6Ofv89zMzM2JVWxJ9VYBjj1atXI4QGDRp05coVdq6QLXzjxo1CoVD1qGCj6VkH1larjWis8alTpzp16vTfBvo5OTkhhPr160enU1vIU20tbDOI/dJnIZ87BkbaWV5e7urqKpFImgkRAwXGv7+vQcqHH34oEAjoRjakR/fu3QsMDKSLtV+Dbmq+C6DANM8canwlCTSlwGpra42MjCwsLGhAOuneS1RgGGOyQIkufjxx4gRCKDo6mo+e3c2Bn8tPaYkCwxj/+OOP5L2Z3YmU7Jjq5eVVzhwXL14km42xdXEUGMY4JCQEIWRvb08VWEpKCtmFlV64dOlShBBn8Ibmskbz2igoKOjEiRPlzEFE9qFDh0ghLeTZTC1s6NtLV2D8OLCkpCT+aGJFRYWTk5O9vT3lwCIlNigwPpPXIOXgwYMikYgNtSwvL4+IiGDXKb8G3dR8F0CBaZ451PhKEmhKgUVHRwuFwuPHj3N6devWLXY/MDb3xSLxe/XqRfcDY0tT+5j38vJCCNFBnUePHgmFQjbOiZSQnZ0dFhbGlvZce+vWrex+YKy/mZkZuxtFeHg4QigkJIT1iYiIoOFENJ3MIaanp9OUuXPnctxqa2uHDh2qWnVFFVhcXNxnn31GL8EYZ2RkIISmTJnCJqq1L1++jBBiBw6p2507d/jrQ9PT09m72UKeam8Nxriuri4qKorW2NSdpQ4aMIYMGcIGus2cOfPgwYNsvWVlZRKJJC0trbq62tPTc9++fWwutUGBURSvk3Ho0CEbGxvao+rq6smTJ7O/WpGVlcXqM+oJRvMEQIE1zwdygcD/J5CXl8cJhigoKAgLC9PW1l63bh0f09WrVzn+1MfHx0e1tVhaWhpNaYnRsWNHhBBnSAljTMSBl5cXLWT37t1isdjS0pJ9Q500aZJQKNy1axd1Ky4udnd3v3r1Kk1pibFmzRpVM+bOnct3NjQ0FAgEZBdH1W4OtbW1ZCUjXZV5584dY2NjTsgXxviHH35ACLFd+OCDDzgrG1QDe/fu3TM1NaUKLDMzU0tL68iRI7Qla9asEYlE/A1UqQM1yCCWh4cHTaFGVFQUf/hH1chu3bohhOiPB7SE58mTJ1U/XeDm5kYLx/j/tjXx9PQkYf4kvak7y17V2vaqVavofmBFRUU2Njbs6raSkhKJRHL27FnSjLq6OqlUyn6WaPNAgVEUr7SRmJhIwyqUSuW4cePOnTtHeiSXy728vL788svN/z2+/vprzovWK913TTYeFJgmaUNdryqBlJQUT09PhJDqAe/q6uru7u7n5+ft7R0TE3Pr1i1+r+Li4sjv3ohEogULFlCVk5ubu3TpUj09PSLO6BgVvwQ25ezZs5MnTyaR5uPHj2d/yWf79u2jRo1SLSfU0tJycXFxc3Mb9OyYPXt2SUkJW4hMJouOjtbR0XFwcIiIiPD09JRIJH9q63O5XL5u3TqyxVfXrl1Xrlz5+PFjUkV2dnZUVBRpYXBwMB3NKiwsNDY2RghNmjQpLS3Nzs4OIbRo0SI2oOTChQv+/v7k2qioqPv37y9cuLBdu3Y9evRgt/UnFR0/fjw4OJjYMpnM3Nx89OjRkZGRK1asiIyMNDc337NnD9trtXZ8fPzIkSMRQrq6ukuWLGH3+lqyZIlIJBo2bBi7I6VCoVi7dq2hoSGJBiP8n8szPj7e0dGRfGZGjRrl5ubm5OTUt29fLS0tug9tM3dWbctbL7GxsXHixIlBQUEzZ860t7enT1+McUlJSZ8+fSwsLEJCQkgkXGJiooODg0gkio2NJU1KT08f/ex48803+/fvP3r0aIlEorqVrddgKLlVCah+UkwgEPz73/9esWLF0qVLMzIyaHVkRp78w9K/7M+gUU8wnksAFNhzEYEDEHh9CMjl8ry8vMuXL/PH0l6VTrIRVOTHFhUKRW5ubnZ2Nh1+01hfXgOeLKuioqKMjAxORCPrAPY/hIBCobh582ZmZiYE2rfqHQcF1qp4oXAg8BwC8fHxoU0cmzdvfs7Ff192bm5uE60InTVr1t9Xj4ZKes26oyFqUA0QAAKaJQAKTLO8oTYg8L8E8vPzk5s4rl279r++rXhWVlbWRCuS+YsMWrEdf1PRr1l3/iYqUAwQAAJtiwAosLZ1P6A1QAAIAAEgAASAwD+BACiwf8Jdhj4CASAABIAAEAACbYsAKLC2dT+gNUAACAABIAAEgMA/gQAosH/CXYY+AgEgAASAABAAAm2LACiwtnU/oDVAAAgAASAABIDAP4EAKLB/wl2GPgIBIAAEgAAQAAJtiwAosLZ1P6A1L4XAQjiAABAAAkAACLQmAf4PqIACeylPfKi0bRE4BgcQAAJAAAgAgdYk8PTpU86TDxQYBwicAgEgAASAABAAAkCg1QmAAmt1xFABEAACQAAIAAEgAAQ4BECBcYDAKRAAAkAACAABIAAEWp0AKLBWRwwVAAEgAASAABAAAkCAQwAUGAcInAIBIAAEgAAQAAJAoNUJgAJrdcRQARAAAkAACAABIAAEOASaVGByubyk2YNT0N97qlAoTp8+XVhY+KeKbWho+OWXX/gLPv9UIeAMBIAAEAACQAAIAIHWJtCkAtu1axdCyNLS0t3d3dXVFSHUuXNnqVQqkUgMDQ11dHRar2UnTpwYMWIEQig+Pv5P1XLq1CmE0Nq1a//UVeAMBIAAEAACQAAIAAENE2hSgf3444+TJk0irbl9+zZCyNnZmZw+ffq0Z8+eCoWi9dqampraQgV248YNuVxOWtLY2JiQkFBZWdl6DWsLJV+/fr0tNAPaAASAABAAAkAACLwwgSYV2Lp16/Ly8ki5HAWGMZ43b151dfUL1/rcC8+ePdsSBVZdXT1w4MDy8vLnFvjaOOzYsWP69OmvTXdelY5UVFSwc/I1NTVqW/7cufva2lq2nJKSErXlkESlUslx5pw2NDSUlpayiTKZjF8g61BSUtLY2Eh8qqqqaFZVVRX/Qpoik8moJ9+oqKjg9KuFkQD5+flKpZLWQoz6+npSRVlZGSerrKyM1l5XV0dylUrlpUuXjh49Sr4HcnJyOFfxTysrK2k5JSUlavteXl7O+rB2aWkpW2ZJSUlKSkpubq5SqWxoaMjPz8cY19TUsJeorYItBGwg0GYJ3Lhxo5m23b17Ny4u7tSpU9Snrq7u3LlzZ8+ebdVhGlrdK200qcDo1zTGmK/ASG5tbe2lS5cUCsXRo0fJ9w7GODc3d/fu3b///jv7MKivrz927BjG+MGDB3FxcZw7mpmZ+euvv165cuXJkyeEJl+B1dbWHjlyZPfu3bm5ucSnpqZm7NixCKFjx45lZmaSxCdPnmRlZbG3pKSkJDk5+eDBg0VFRWz67du38/LyGhsbT548mZCQUF9fz+aydlZW1tOnTx8+fHj48GGK5dKlS7t377527RrriTEuLS1NSEiIi4sj3+BPnjwpKyu7+OwgT5ScnBxyytZYVlZ2+PDhxMTEiooKWiABGx8fX1hYSK79448/9PT0xo8ff/HixcePH1NPMFqbQHp6+vjx4xFC2tragYGBvr6+Pj4+Tk5O06ZNy87OprU/d+7+1q1ba9euNTAwIIPKe/fupdfyjaKiIjL77+zsLJVK27VrJxAIpFKpq6trz549EUJnzpyJj4/38PBACJmYmISFhfn5+Q0YMGDEiBE7d+6kBe7cuXPIkCEIIXNz89jYWKoGzp07RzoVHBx8/vx56s83IiIiEEI2Njbe3t7W1tYIof79+/v4+Dg6OorFYjc3t/z8/Llz56Jnh4eHh7+//7Bhw6ytrRctWtSUWsUYjxw5MikpiVNdcXHxF198IRaLBQLBgQMH2NwDBw4MGzYMIfT555/fvn0bY/zkyRMHBwd7e/tFixYFBQVZWVmZmpryVR1bCMY4PT3dz88PIaSnpxcUFOTj42NlZTVq1KgdO3ZQz9TUVBcXF4SQsbFxcHBwaGhoSEiIv7+/hYWFqakpdYuNjTUzM4uIiJg7d66Njc3gwYMXL16MMb5x48asWbMIkICAAE9Pz8GDB48ZM2b79u302jZoPH78+MqVKy/84GxsbLx8+fKdO3faYNegSS9AICkpydbW1tvbW+21ly9f9vHxiYyMpM9fjPHFixeHDBmyc+fOgwcP2traXrp0Se21kEgINKnAWEB8Bab6Vl24cKGRkdG4ceOioqL09PRGjBiBMQ4LCwsPDy8sLJw3b97bb79NdMORI0d69OhhZGS0efPmsWPHWlhY6OjonD59mlTx2WefzZ8//+HDh998841UKiWJHAWWkZHRp0+fkydPXrhwwcLC4vvvv8cY5+TkBAQEIIQ2bNiwZ8+ewsLC8PBwLS2tmJgY2vi1a9cGBgaeP39+79693bt3j4mJUSqVZWVl5Ikyd+7c8ePHe3h4iEQiX19fehU1Tp06NXr0aITQ5s2b33rrLYTQ77//Xl1dHRUVtWPHju3bt3fp0oXO1WKMd+zY4e3tnZ6enpyc7ODgYGxsnJaWVltbu2DBAoRQXFwcxvjOnTvkkXn//n1S0f79++fPn3/gwIHQ0NDu3btnZGRgjFXS0MnJ6bfffisqKgoICPjuu+8wxr/88ouWlparq+u2bdvoCCVtLRitSqCgoAAh5OjoSGvJzc2VSqVCoXDRokUksYVz91KpFCF04sQJWpRao6CgYPDgwbW1tSTXwsJCLBYTW6FQSKXSo0ePYozPnDmDEPrXv/5FshoaGqZOnYoQWrNmDS02NjYWITRnzhyaQoza2lpDQ0P2ZYDjQE6Dg4N/+eUXYm/btg0htGTJEnJ67ty5MWPGELtTp07a2tpUAJFKPT09SS7nb2ZmJkLI1dWVk05OZ8yYgRDq0KEDfeMi6ampqba2tvSSCRMm2Nvb09PExESxWFxcXExTmjKuXbvGRlbI5fIPP/wQIbR8+XJ6yenTpxFC48aNoymq4X+5XO7g4EBScnJyxGLxkSNHyKlMJnNzc4uKiqL++vr6HTp0IKdyufzjjz9GCM2dO5c6tB1DoVBERUUFBARMmzbN0dGRfa9oYSN/++23kSNHfvrppxMmTPDx8YFXxBZya7NuZ8+ePXLkSLt27dQqsA0bNujr6ycnJ7Ptr6ioMDMzW79+PUlMSEjo2LHjo0ePWB+wWQIvqMAwxkqlsmPHjqampkVFRffv3z937tyNGzcQQvv27cMYl5WVIYToO+XEiROFQuEff/yBMZbJZFpaWh999BHGuKGhQVdXl37Jzps3jzSOo8Dee++9gQMHkqypU6e+8cYbxP7qq68QQnQWsri4GCGPNDNOAAAgAElEQVREFdiRI0eMjY3pG//Ro0eJliJDcQghDw8P8oI+f/58hNDdu3dZNMRevXo1Quizzz5TKpUpKSnV1dVTp049ePAgyf3uu+8QQuQ9/vTp0506daIjf+vXr0cIpaWlYYzPnz9PFRjGmJRJFNjt27dHjx5NSquvrzcxMRk2bBh5Te/WrRtJLykp+fbbb4mtq6sLs5AEhYb/3r9/X3VD6c0itSsUCvIaQMacWjh3HxQUhBC6ePFi8124fv36Dz/8QH1YBYYxPnLkyOHDhzHGRMr4+/tTz6qqKqFQaGVlRVN+/vln1XjMf/7zH5pCjUGDBlG7KWPq1KlUV3EUGMZ42rRp5MIePXro6uqyhfTq1aup/6zw8HBbW1uEEGfQmlweExNDFgD179+fjezMycmhWhNjbGZm5uPjw9Y4ffp09o2czWLt/Px8hJC7uztNvHXrluori363qAVLnOlTh0hM8spEsoqLiwMDA2mZJiYmRkZG9LSurk4sFmtpadHQVZr10o3Vq1cvW7aMNOPBgwe2trZ/aiQsLS3t/fffp5ecO3eOo1xfegehAS9GoE+fPnwFtmPHDoTQ1q1bOWWSByJ9BWpoaGjfvj0ZFeZ4wikh8OIKDGNsaWnp5+dHUSoUir1795L4MKLGVq5cSXJnzZpFX98xxlZWVuTdV6lUdurUydHRkWw8QcUyR4FlZ2efOXOGKLaQkBD6WslRYI2NjawCc3520OZhjPv16/f2228TFci+x+/fv1/1Ok6H5dhLyKOLfqfX1taKRKIPPvhg0rNDKpXq6+svWLAAY+zi4hIcHEyvTU5Opgrs4sWLrAJbt24dQogosPnz57/99tuktEmTJvXu3dvAwKCqqurKlSsIoYiICKIgKRlQYJSwhg21CoxMhOno6JiYmFRVVdFJ6mbm7lUz9S1UYEqlkj7SMMYcBUZz+Qqsvr5eW1u7X79+FFEzCmzo0KHUrSmD7RdfgdFcvgKztLRECNEQBVp+aWmpk5MTeTOJiIig6dSIiYlJSEiYMGECQmjs2LFU/+Xn5wcFBVG3/v37i0SixMREmnLjxo2WDA/zFRi5vz169KBF8cFijFm9tWfPHoSQk5MTGxR76NAhWgJHgWGMu3TpIhQKWxgnR8vRgGFtbU3fHjHGM2fOTEhIaHm9u3btot9R5CqpVErfjVteDni2NQKWlpYcBfbkyRNDQ0M7Ozt+U6VSaZ8+fdj0d99919LSkk0BmyXwVxUY++ZNyk1NTV28ePG+ffsQQnTkhqPAhg4dSldW/vbbb9ra2rq6up9//nlDQwMphKPASHzVt99+u2bNmg8//FBfX5+4Na/AunbtypnjGDdunEgkqq+vl8lkrAI7dOiQakoiPT2dRUNs8uiiyw8vXbqEEOKE4hJPIyMjdpanhQrM19f3k08+4derkokkjqRbt267d++mDqDAKAoNG00pMFXog7e3t+pJfPLkSbZJ/Ll7mttCBUb9icFRYDSXLxTI/wX971O9LP1FBUbrUglBvgKjuRwFdvz4cYSQlZUV1U/Uc/ny5T///DPG2M7OTk9PjwaAUoeYmJhDhw7V1NSQsLMvv/ySZHEU2KZNm1T/yGKxeMGCBc0EnNFiqcFXYF988QVCaOrUqdSHD7axsZH9xqutre3Tpw9CaNCgQWfPnqUXUoOjwAoLC1VD5mSQm/q0BaOyspIdDlTdF9V8Lp1oxhivXbs2PDx89uzZ5JUgJSUlPDw8IiKCjnbweyGRSNjBS74DpLwSBPgKbNWqVeQ/5eOPPx41alRoaOi5c+dIX9588002KgBj7O/vLxKJ6EvaK9FlTTby71Rg9fX177///pw5c5RKJRmOos+AZhQYxjgrK2vMmDEIIRcXF3KrOArs6NGjVlZWZJwsJiamhQqsT58+b731FkszPDy8U6dO/DGwliuwEydO8J+1JDpEIBC8wBiYRCJxcnJiG8naCQkJ5CueRhqBAmP5aNJuRoFFR0eTeES2PRpWYGZmZv7+/r6+vv369evWrRsJOqTt0ZgC09bWTklJ2bVrV1hYmKGhoa+vL39yX6FQ2NnZkcWMP/30E0KICizaYKLASNxk586dhUIhmevnKDCM8apVq3R1dRFCvXv3ZgfDaFFqDaLAbG1tExMTY2Njvby8DAwMpk2bRqPu6Cxk165dvZ8d7u7uvXv3ZgfJMMZ37961s7NDCAkEgsjISM76TRMTE0NDQ4VCUVVVdezYscGDB/fo0aMlqzXVtrn1ErOysth4VhJlO3HiRFrj/fv3VesM6AaNlZWVEolky5Yt1IFjbNmyhYaUcLLg9NUiwFdgJI75888/z8vLu379upOTk1gsPnbsWENDg1gs5kj5sLCwpuIQXi0OrdTaFikwEiFBR61oUywtLdk3wh9++AEhRAIw6+vrWzIGVlNT8/vvv5MCV6xYQQeiOAqse/fukydPJm7z58/nKDC6pJ8zCxkUFCQQCO7du0cb7OnpSSLuX3gMjCxPY0M9yDOAhKT07t2bBjUTVUfiwMgsJB3KIu8QZBYyMjJSLBZfuXKFNjIjI+PEiROnTp0iI21yudzf3799+/YkdkRXV3fKlCnUGQyNEWhGgZHRShr1SJqkYQXm6+v75MmTwsLCffv2DRw4sH379jQeVpNjYGKxeOPGjb179xYIBCTuk3+DDhw4QB/Pcrnc1NS0e/fu9B+H+FMFhjFOS0sTi8WqNYkFBQV8BYYxzs/Pd3Z2JgsPWxh0QhRY//79V65cqa2tbWJiwh/OIWNgY8eOrXt2VFdXX716lT9pq1Ao1q9f36FDB4RQ37592V/yMDExEYvFHh4erq6u77333urVq/mjfXw+mk/JzMzkRJfevn07NDSUbUlpaalEIjl16pRcLg8MDPz111/ZXNbeu3fve++9x06gs7lgv1oE+ApswIABZmZmtBelpaV6enojR45UKpW6uroeHh40C2McHh6OEOLMULMO/3C7RQrs6tWrCKHhw4dzYJmZmbGyjMSz//TTT3V1ddu3bxcIBPPnzydhTNOnTxeJRHQyYuDAgWTtpEwmo2qmurpaJBJdvXoVY0x2ZCVB/XV1dSSsWCaTFRQUjBo1SigU1tTUVFdXb9y4kYxIVVRUPHr0qLq6ml3wdePGDR0dHToz+PjxY0NDQ7LGp7y8XPXaSgeWyJwp1YJsN0mwLTtBSRayffzxx5mZmX/88ceECRNI7pw5cxBCM2bMkMvlT58+fe+992gc2KNHjwQCgb+/v1wuv3v3rqenJ10Kl5GRIRAIevbsGRcXl5ub+/3334eEhGCMDx06tGHDBtKSpKQkExMTQq9r165kzIyzowfbZrBbg0AzCowE49OpalK7hhUY+y5UXV1tYWEhEAjoJj1km4yFCxfyybBLC/m5/JSWzEJeunRJV1dXtU0DZwsYUpqLi4ujo6Pffw8zMzPVz2+QSUlaHavA6OKVQYMGXblyhY0Do/4Y440bNwqFQtU3FY2UZ3M5NjsL+f3337MD8NSTPwuJMd68eTN1YI379++ThQXs9yRnFpL1b1P2c8fASGvLy8tdXV0lEkkzIWI7duwICgqi8SRtqpvQmBcgwFdgdnZ2nMklJycnMizy9ttv05XCpC5/f392McoLNOD1vuT5Cky12RrZF0ckEi1YsIAoJJlMtnTpUoSQrq7upk2bSGBpTk5O586dEULW1tZnz551dHTU0tJasmRJamoqmUqbP39+RUXFypUrRSJR+/btd+7cKZPJSPhUcnJyZGQkeX/NyMjw8vJCCHl6ep55FoD/ySefIISMjIxmzJiRkJAgEAj69+9/69atu3fvGhsbd+jQYcaMGfn5+TNnzkQIvfnmmzQY9syZMwMGDJgyZcrGjRuDgoJIrEZlZSUp8J133jl27FhWVtbIkSMRQvwZk/T0dDLF4OPjQx9mxcXFBAhCyMLCgk58VFZWkuFZHR0dLy8v8qAiY2CqHRpnz56NEDIwMAgODt6yZUuXLl0+/vhjMmexbds28gItFApDQkJIPOyhQ4csLCzWrl178OBBqVRKVr3R4DBbW1u1cSev94f15fauKQVWW1trZGRkYWHBiXV4iQqM7AvDLn4ks+fR0dF8hpy4Db4DJ6UlCgxj/OOPP5LXNrp1KiknJyfHy8urnDnICLGNjQ1bEUeBYYxDQkIQQvb29lSBpaSkcGK9yZcSZ/CGLZbarALDGAcHB6tWVXPGgdQqMFICCb3nbOdWVlbWpUsXhBDZqwxj/KooMH4cWFJSEn80saKiwsnJyd7enn7BUp7EWLdu3fvvv8/5R+D4wOmrRYCvwN5///2OHTuyvZgwYYKBgQHG2NfXt2/fvmzW6NGj22DgI9vCl2s/X4H9qfbV1NTQb5/6+nq1b8CcAuufHTdv3mQ3I+X4kHgLuuDo4cOHdDl3RUUFf/qAc/njZwcn8S+elpWV3b59m47q0dIePnxI4k/ZSHyS+/DhQzJFK5PJOEP0CoVCpSDpxhkYYzIpU1VVlZeXRztLyrl16xZ8x1HgGjOaUmDR0dFCofD48eOcljQ1d9/ytZCcAnv16sUuKKa5aoUCeYfZtGkTcXv06JFQKGRHrEl6dnZ2WFgYLaolxtatW9lVLOwlZmZm7G4UZAKCjOlSt4iICBpORBPJHCI70jx37lyOW21t7dChQxFCVIHFxcV99tlntBCyUBEh1JJp+ps3b7K7UdTU1AwaNIizwF4tWIxxZWXlhAkTVEP1jo6OnEU5Pj4+CCE61dipU6dXZQBgyJAhnLWQdM8dQrisrEwikaSlpVVXV3t6epIJChb+0qVLP/zwQ843G+sA9qtIgK/AtmzZghBiZ9t9fHzI0NfGjRsFAgH9/Dc0NOjr69P9oV7F7rd2m/9mBdbazX2FyucrsFeo8dBUPoG8vDzOXHxBQUFYWJgqimjdunV8/6bm7lVCgTyn6fgo/1q1KR07dlTt58kZUiJbxyGEvLy86FW7d+8Wi8WWlpbsYrRJkyYJhcJdu3ZRt+LiYnd3dzKqTROfa6xZs6apbUUNDQ0FAgGdgaqtrSUrGemKnDt37hgbG3NCvjDGJISU7cIHH3xAZ+Fpk+7du2dqakoVWGZmppaWFt0QFWO8Zs0akUikdlsZWggxyKLmkSNH0vSbN28aGhrq6OjQ0e6TJ0+SoXHqgzGuqKjw8fH5+uuvVaH6fn5+rq6u9I5UV1ebm5vTXiiVSj09PW1t7VdClKxatYruB1ZUVGRjY8M2u6SkRCKR0HH3uro6qVTKfpbmPDvYN9IdO3bA5vjsJ+cVtbt3787ZUqChoaFPnz4zZ84kPaqrq+vUqRMZFpXJZObm5vT7cP/+/Z06dYIgsGZuPSiwZuD8pazt27cjhFJSUv5SKXBx2yCQkpJCovdUD3hXV1d3d3c/Pz9vb++YmJhbt27x26h27p78ZtfSpUv19PSImKNjVPwS2JSzZ89OnjyZRJqPHz+e/SWf7du3jxo1SrWcUEtLy8XFxc3NbdCzY/bs2XSFCilKJpNFR0fr6Og4ODhERER4enpKJJI/tfW5XC5ft24d2eKra9euK1eupPueZ2dnR0VFkRYGBwfT0azCwkJjY2NVKO6kSZPS0tLInP6iRYvY4d4LFy74+/uTa6OiolQrVBYuXNiuXbsePXqw2/qTXhw/fpyuOCZf96NHj46MjFyxYkVkZKS5ufmePXtYdGrtlJQUMuqmGlNcuHAhfZsn+wLq6+svWbIkPj7e0dERIaSjozNmzJixY8eSX2HS0dFRyTLyWyuffvqpRCJxc3NbuHDhsmXLBg0a5O/vT7Bfv36d/PCGaiHYRx999NzfP1DbTk0mNjY2Tpw4MSgoaObMmfb29mxQY0lJSZ8+fSwsLEJCQojGSkxMdHBwEIlEsbGxpJEdO3Yc/b9Hz549qWLTZEegrr+LwNWrVxcvXkx+vGv79u3sF92NGzeGDh0aHR29f//+f//73xs3bqSV5ubmOjo6rl+/ftu2bQ4ODvR9hjqAwRIABcbS+NvsPXv2DBs2TF9fPzAwEF4E/zasUNBfJiCXy/Py8i5fvkxHbv5ykZougM5xqMLdyEpnhUKRm5ubnZ1Nh98006YHDx4QRVJeXn7hwgWO5NVMG/7eWoqKijIyMiDI4e+l+rqWdv/+/czMTP6QNsa4sLDw+vXrGv5/fBU5gwJ7Fe8atPn1IRAfHx/axNHUsrvW6Hxubm4TrQidNWtWa9TYqmW+Zt1pVVZQOBAAAi+LACiwl0Ue6gUC/0cgPz8/uYnj2rVrGmNUVlbWRCuS+YsMNNaqF67oNevOC3OAC4EAEGjLBECBteW7A20DAkAACAABIAAEXk8CoMBez/sKvQICQAAIAAEgAATaMgFQYG357kDbgAAQAAJAAAgAgdeTACiw1/O+Qq+AABAAAkAACACBtkwAFFhbvjvQNiAABIAAEAACQOD1JAAK7PW8r9ArIAAEgAAQAAJAoC0TAAXWlu8OtE1DBBbCAQSAABAAAkCgNQmwvytAnm2gwDT0jIdqgAAQAAJAAAgAASBACYACoyjAAAJAAAgAASAABICAhgiAAtMQaKgGCAABIAAEgAAQAAKUACgwigIMIAAEgAAQAAJAAAhoiAAoMA2BhmqAABAAAkAACAABIEAJgAKjKMAAAkAACAABIAAEgICGCIAC0xBoqAYIAAEgAASAABAAApQAKDCKAgwgAASAABAAAkAACGiIACgwDYGGaoAAEAACQAAIAAEgQAmAAqMowAACTRKoqKgoYY6amhq1rnK5nPFSY9bW1nJS1ZZDEpVKJceZc9rQ0FBaWsomymQyfoGsQ0lJSWNjI/GpqqqiWVVVVfwLaYpMJqOefKOiooLTr6dPn9JrmzHy8/OVSiXHob6+nlRRVlbGySorK6O119XVkVylUnnp0qWjR4+Wl5djjHNycjhX8U8rKytpOSUlJWr7Xl5ezvqwdmlpKVtmSUlJSkpKbm6uUqlsaGjIz8/HGNfU1LCXcKqgfWR9qF1bW4sxfvr0KU0pKSmprKwklbJ3nHiyjQEbCPztBG7cuMEvs6qqKi0t7fr16/x/4YqKimPHjl24cKG+vp5/IaSwBECBsTTABgLqCaSnp48fPx4hpK2tHRgY6Ovr6+Pj4+TkNG3atOzsbHrNrl27EEKWlpbu7u6urq4Ioc6dO0ulUolEYmhoqKOjc+vWrbVr1xoYGCCEnJ2d9+7dS6/lG0VFRaQEZ2dnqVTarl07gUAglUpdXV179uyJEDpz5kx8fLyHhwdCyMTEJCwszM/Pb8CAASNGjNi5cyctcOfOnUOGDEEImZubx8bGUjVw7tw50qng4ODz589Tf74RERGBELKxsfH29ra2tkYI9e/f38fHx9HRUSwWu7m55efnz507Fz07PDw8/P39hw0bZm1tvWjRoqbUKsZ45MiRSUlJnOqKi4u/+OILsVgsEAgOHDjA5h44cGDYsGEIoc8///z27dsY4ydPnjg4ONjb2y9atCgoKMjKysrU1JT/SGALwRinp6f7+fkhhPT09IKCgnx8fKysrEaNGrVjxw7qmZqa6uLighAyNjYODg4ODQ0NCQnx9/e3sLAwNTWlbrGxsWZmZhEREXPnzrWxsRk8ePDixYsxxjdu3Jg1axYBEhAQ4OnpOXjw4DFjxmzfvh1j/Pjx45UrV+rq6iKE3n333dBnx/vvv+/k5KSlpbVhwwaM8eHDh999911SwsSJEy9dukQq3b9//5tvvmlgYDBv3jy1j0bathcwHj9+fOXKFYVC8QLXEt15+fLla9euNTQ0vFgJcFWbIpCUlGRra+vt7c1p1bZt2wICAo4dO7ZixYqBAweyn8Nt27bp6+uTz+2bb7557do1zrVwyhIABcbSABsINEmgoKAAIeTo6Eg9cnNzpVKpUChctGgRSfzxxx8nTZpE7Nu3bxOZRU6fPn3as2dP8myTSqUIoRMnTtCi1BoFBQWDBw+m4xwWFhZisZh4KhQKqVR69OhRjPGZM2cQQv/6179IVkNDw9SpUxFCa9asocXGxsYihObMmUNTiFFbW2toaPjcV9Xg4OBffvmFXLJt2zaE0JIlS8jpuXPnxowZQ+xOnTppa2tTAUQq9fT0JLmcv5mZmQghV1dXTjo5nTFjBkKoQ4cOubm5rENqaqqtrS1NmTBhgr29PT1NTEwUi8XFxcU0pSnj2rVr7N2Ry+UffvghQmj58uX0ktOnTyOExo0bR1MwxnK53MHBgaTk5OSIxeIjR46QU5lM5ubmFhUVRf319fU7dOhATuVy+ccff4wQmjt3LkkhGv3q1avUH2O8Y8eO1atXk5S6urpRo0ZxblxlZeWAAQMuXrzIXvXXbYVCERUVFRAQMG3aNEdHR/a9ooWFf/fdd6NGjfrk2WFvb3/q1KkWXghubZPA2bNnjxw50q5dO44CO336tI6OzsOHD0mzFy5caGZmRr6m0tLSxo8ff/fu3UePHq1cuVIoFL711lv0C6FtdvPltgoU2MvlD7W/MgTu37+PEBo9ejTbYoVCERAQgBAiY07r1q3Ly8sjDhwFpnp4z5s3r7q6GmMcFBSEEHruQ/T69es//PADrY5VYBjjI0eOHD58GGNMpIy/vz/1rKqqEgqFVlZWNOXnn39WvZX+5z//oSnUGDRoELWbMqZOnUq/RjkKTDVfNm3aNHJhjx49dHV12UJ69eqFELp79y6bSOzw8HBbW1uEUFZWFj83JiaGCJT+/fvTCTgyyUi1JsbYzMzMx8eHvXz69OmZmZlsilo7Pz8fIeTu7k5zb926hRB64403aAofLMlKTk4mBpGYGRkZ9JLi4uLAwEB6amJiYmRkRE/r6urEYrGWlpZcLlfdODIOd/36deqAMa6urj558iRNKSoq6ty5c7t27QoKCjDGSqUyICAgPj6eOvxdxurVq5ctW0ZKe/Dgga2t7Z8aCSstLf3qq6/oBHdZWdmwYcPo6d/VSChH8wT69OnDUWC+vr7vvPMObUlOTg5CaNWqVRjjWbNmkc82yQ0LC0MI0a9EegkYlAAoMIoCDCDQHAG1CoxMhOno6JiYmFRVVbGPHL4Co7ktVGBKpZJ9CnIUGM3lC4X6+nptbe1+/frR/jSjwIYOHUrdmjJoyzHGfAVGc/kKzNLSEiFEQqPYwktLS52cnM6fP48QioiIYLOIHRMTk5CQMGHCBITQ2LFjqf7Lz88PCgqi/v379xeJRImJiTTlxo0bLfnG5yswcn979OhBi+KDxRizemvPnj0IIScnJyKsyYWHDh2iJXAUGMa4S5cuQqGQxMnxFVhdXR1HkGGMDxw4gBBycHBobGxcvHjx559/Tsv/Gw1ra2s2iHDmzJkJCQl/pfyPPvqIqMa/Ughc+9IJWFpachSYhYUF+yLa2NgoEAjGjh2rerfkjFhv3rwZIcRJfOk9alMNAAXWpm4HNKbtEmhKgWGMvb29VU9idugCY8xXYLRvLVRg1J8YHAVGc/lC4auvvkIIffvtt9TnLyowWo5aBUZzOQrs+PHjCCErKyuqn6jn8uXLf/75Z4yxnZ2dnp7ekydPaBYxYmJiDh06VFNTQ8LOvvzyS5LOUWCbNm1STYmKxeIFCxY0E3DGKRxjzFdgX3zxBUJo6tSp1JkPtrGxkR1rrK2t7dOnD0Jo0KBBZ8+epRdSg6PACgsLEULDhg0jDnwFdujQoc2bN9PLqREaGooQ8n128GFStxc2Kisr2eFA1X1RzefSiWaM8dq1a8PDw2fPnk1eCVJSUsLDwyMiIpqa8K2oqGAf0i/cMLjwpRNQq8DeeusttmHGxsYDBw5kU4i9ZMmSXr16sa+RfJ9/eAoosH/4BwC631ICzSiw6OhohBAJoKbFaViBmZmZ+fv7+/r69uvXr1u3bnFxcbQlGGONKTBtbe2UlJRdu3aFhYUZGhr6+vrypyAVCoWdnR1ZzPjTTz8hhKjAom0mCgxjfOfOnc6dOwuFQhKzz1FgGONVq1aRkPbevXuzg2G0KLUGUWC2traJiYmxsbFeXl4GBgbTpk2jUXd0erdr167ezw53d/fevXuzg2QY47t379rZ2SGEBAJBZGQkZ/2miYmJoaGhQqGoqqo6duzY4MGDe/ToQVdrEgU2atQoUv7IkSN1dHTUKrDy8nJzc3NVGGJqaqra7vzFxKysLBq/SIrKycmZOHEiLfb+/fuqdQZ09rOyslIikWzZsoU6UOPAgQNffPGFp6dnS+aC6VVgtFkCfAUWEBAgEAjoyJZCoTA0NFQ7lG5tba32Q9JmO6v5hoEC0zxzqPGVJNCMAiOr3tiVdJofA/P19X3y5ElhYeG+ffsGDhzYvn379evXU9AaU2BisXjjxo29e/cWCAR//PEHbQBrHDhwYN68eSRFLpebmpp2796dsxqAKjCMcVpamlgsVq1JLCgo4CswMqDl7OxMll+RpYhsdWptosD69++/cuVKbW1tExMT/nAOGQMbO3Zs3bOjurr66tWr/CeNQqFYv359hw4dVOGAffv2LSwspDWamJiIxWIPDw9XV9f33ntv9erV7GgfUWAZGRl1dXW1tbWlpaVz5sxRq8CePn1qZWUlEAj69u3LzhXSiv6ikZmZOX36dLaQ27dvh4aGsimlpaUSieTUqVNyuTwwMPDXX39lc6l94cKFZcuWjRs3jgpNmgXGq0iAr8Cys7ONjIysrKxOnjx58eLFOXPmIITY8EfSzX379gUEBLyKXdZkm0GBaZI21PUKE2hGgZFgfE4Ej4bHwNjZserqagsLC4FAQNejkW0yFi5cyL8B7NJCfi4/hR8HRn3oLOSlS5d0dXVV2zQUFRXRXGq4uLg4Ojr6/fcwMzNTbeFBJiWpD6vAMMarV68mk31Xrlxh48CoP8Z448aNQqEQIUQj5dlcjs3OQn7//fcIIRcXFxrQRpz5s5AYY7UKCWN8//59srBg+PDhtC7OLCRNJwZ/FvLx48ecDTgwxo2Nje7u7vHx8Tm8xrwAACAASURBVJMnT0YIRUZGcsr566fPHQMjVZSXl7u6ukokkueGiNXV1Xl4eLCbFPz1RkIJL4UAX4GR18vPPvssNDT0m2++2bt3L0Jo165dbPPu3bsXGBjIjiizuWBTAqDAKAowgEBzBJpSYLW1tUZGRhYWFpzn90tUYBhjsgqJLn48ceIEQig6OprfQ3Y3B34uP6UlCgxj/OOPP6rE0PDhw+nWqaSonJwcLy+vcua4ePEi2WyMrYujwDDGISEhCCF7e3uqwFJSUsgurPTCpUuXIoQ4gzc0lzVYBYYxDg4ORghxxoHUKjBSCAm952znVlZW1qVLF1UDyF5lGOM/q8BI4QqFgoU2a9YsEn0vk8lI2NlzBRDb05bY/DiwpKQk/mhiRUWFk5OTvb09u9qgqfJTUlJiYmKayoX0V4WAWgXGNn7s2LG9evViozDLy8sjIiLYJcysP9gsAVBgLA2wgUCTBJpSYNHR0UKh8Pjx45wrye4Gzs7OnPSW70bBubBXr150PzA2S61Q8PLyQght2rSJeD569EgoFPIbk52dHRYWxpb2XHvr1q3sfmCsv5mZGbsbRXh4OEIoJCSE9YmIiKDhRDSdzCGmp6fTlLlz53Lcamtrhw4dqlpaRRVYXFzcZ599Ri8hCxURQlOmTGET1do3b95kd6OoqakZNGgQQmjr1q3UXy1YjHFlZeWECRMwxo6Ojpz98X18fBBCdKqxU6dO7G4UtGRi8MfASPry5cspih07dnh6etLo+xMnTggEAlNTU/6cKafwP3s6ZMgQdn5z5syZBw8eZAspKyuTSCRpaWnV1dWenp779u1jc/n2oUOHvv76a346pLxaBJpXYD/99JNIJEpJSaGdqq6unjx5MhsQmZWVxeoz6gkGxhgUGHwMgECLCOTl5ZFBHepdUFAQFhamiiJat24dTaTG1atXOf40izyn09LSaEpLjI4dO6r282RHR8hV6enpCCEvLy9ayO7du8VisaWlJfsaOmnSJKFQyE4WFBcXu7u7c3YEpYU0ZaxZs4bdVpR1MzQ0FAgEdD/02tpaspKRrsq8c+eOsbExJ+QLY/zDDz9wuvDBBx9wVjaoBvbu3btnampKFVhmZqaWlhbdEBVjvGbNGpFIdPr0abZVau1Lly4hhEaOHElzb968SX63gE7dnjx5kqxApD4Y44qKCh8fH6It/Pz8XF1d6R2prq42NzenN0KpVOrp6Wlraze1FszJyUlVPt3sntSSkJDQtWtXwjAtLa1Tp05UzxGHwMBAoh2bKpZtbcvtVatW0f3AioqKbGxs2PJLSkokEgld71lXVyeVStnP0i+//MLOwj99+vTdd99lQ+Ja3hLwbFMEunfv3tS2yXv37jU2NmYjAuVyuZeX15dffrn5v8fXX3/NeQdrU7176Y0BBfbSbwE04BUgkJKS4unpiRBSPeBdXV3d3d39/Py8vb1jYmJu3brF70BcXBz5TRuRSLRgwQKqcnJzc5cuXaqnp0fEGR2j4pfAppw9e5bEAKm2Nxw/fjz7Sz7bt28n26ZraWm5uLi4ubkNenbMnj27pKSELUQmk0VHR+vo6Dg4OERERHh6ekokkj+19blcLl+3bh3Z4qtr164rV658/PgxqSI7OzsqKorEwgcHB9MhnMLCQmNjY4TQpEmT0tLSyLLBRYsW0V9GwhhfuHDB39+fXBsVFXX//v2FCxe2a9euR48e7Lb+pKLjx48HBwcTWyaTmZubjx49OjIycsWKFZGRkebm5nv27GF7rdZOSUkho26qMcWFCxdSobB//37VLh76+vpLliyJj493dHRECOno6IwZM2bs2LHkV5h0dHSobPr0008lEombm9vChQuXLVs2aNAgf39/gv369evkp5xUG9J+9NFHnN8/ePDgwcKFC7W0tMhvWHl7e48bN87V1fWNN94gmq++vn7u3Lnt27fX1dVdtmwZHVHYt2/fyJEjCSsnJyfyowhq+/hnExsbGydOnBgUFDRz5kx7e3tWTpWUlPTp08fCwiIkJISMxiUmJjo4OIhEotjYWFJRVlaWVCr18fGZN29eVFSUo6Mjf1T4zzYJ/F8ugatXry5evJj8eNf27dvpF51cLk9KSho/fnxQUBBnqz8SEUs+n/Qv+wtpL7dHbbB2UGBt8KZAk4BAaxGQy+V5eXmXL1+mIzetVVOrlcuOCd27dw9jrFAocnNzs7Oz6fBbq1X+PwU/ePCAKJLy8vILFy5wJO//uL4iJ0VFRRkZGZyIxpa3/fHjxydPnszNzWXHz1p+OXi+EgSuX7+emppKdhV+JRrclhsJCqwt3x1o2+tPID4+nvwwM/9vU8vuWgNKbm4uvwEkZdasWa1RY6uW+Zp1p1VZQeFAAAi8LAKgwF4WeagXCPwfgfz8/OQmjmvXrmmMUVlZWROtSH4Vp5Nes+5o7GMAFQEBIKBJAqDANEkb6gICQAAIAAEgAASAwP8RAAUGnwMgAASAABAAAkAACGiaACgwTROH+oAAEAACQAAIAAEgAAoMPgNAAAgAASAABIAAENA0AVBgmiYO9QEBIAAEgAAQAAJAABQYfAaAABAAAkAACAABIKBpAqDANE0c6gMCQAAIAAEgAASAADKCAwgAASAABIAAEAACQKA1CezevZsjOmEMjAMEToEAEAACQAAIAAEg0OoEQIG1OmKoAAgAASAABIAAEAACHAKgwDhA4BQIAAEgAASAABAAAq1OABRYqyOGCoAAEAACQAAIAAEgwCEACowDBE6BABAAAkAACAABINDqBECBtTpiqAAIAAEgAASAABAAAhwCoMA4QOAUCAABIAAEgAAQAAKtTgAUWKsjhgqAABAAAkAACAABIMAhAAqMAwROgQAQAAJAAAgAASDQ6gRAgbU6YqgACAABIAAEgAAQAAIcAqDAOEDgFAioIVBRUVHCHDU1NWqcMJbL5YyXGrO2tpaTqrYckqhUKjnOnNOGhobS0lI2USaT8QtkHUpKShobG4lPVVUVzaqqquJfSFMqKyupZ0lJSUVFRXl5OUmpq6ujbhjjuro66llWVlZTU0NPS0pKWGdaQklJCVsCx25sbGRLKCkpUSgUHB+MMceHPa2srOT4NzY2Zmdnp6SkPHz4kJMFp0AACHAI3Lhxg5OCMa6oqDh27NiFCxfq6+s5uVVVVenp6b///ntpaSknC045BECBcYDAKRBQQyA9PX38+PEIIW1t7cDAQF9fXx8fHycnp2nTpmVnZ9MLdu3ahRCytLR0d3d3dXVFCHXu3FkqlUokEkNDQx0dnVu3bq1du9bAwAAh5OzsvHfvXnot3ygqKiIlODs7S6XSdu3aCQQCqVTq6uras2dPhNCZM2fi4+M9PDwQQiYmJmFhYX5+fgMGDBgxYsTOnTtpgTt37hwyZAhCyNzcPDY2loqtc+fOkU4FBwefP3+e+vONc+fOzZ49Gz07pkyZcuLEieTk5OHDhyOE7O3t5XI5veTOnTvLli0TCASDBw/ev39/VlaWt7c3uXD58uV3796lnsnJyUOHDtXX11+7di1N5BsVFRVr167t0KEDQmjIkCHjx48fM2bMgAEDIiIi7ty5Q/wVCsW2/8fenwfknP3///ijq02UQpZkFJKxL2mojOFqFXU1lMlgQumF19iS3YwZmTBMJGNmxFhGZBuNpcgMhqisWSstErIlra6u6rrOt5/ze533+Tyvq0uWUjyuP2Yez3Me55zHuT1x3a/zPM/H2bKlffv2ANCpUycfH59x48aNHTvW3d3dyMho5MiRrFupVDpjxozOnTt/8803v//++6RJk9q3b793717m8IEbjx8/vnLlikqNW30yCoWCqfzqt0LPOkggJibG2tp62LBhgti2bNmir69P/1536tTp2rVrzCEyMlIikcTGxh46dMjW1nbz5s2sCg1lAqjAlJlgCRJQQSAjIwMA7OzsWF1KSopEIhGJRN9//z0t3LRp06RJk6idlZVFZRa9fPbsWdu2bel3m0QiAYBTp06xrlQaGRkZvXr1kkqltNbc3FxLS4vacrlcIpEcP36cEBIfHw8AI0aMoFXl5eXTpk0DgLVr17Juw8PDAWDu3LmshBpSqdTQ0FD5V6zAjV4aGhpqaWkpFAp6WVBQQP8J/s9//iPwt7OzO3z4MC2UyWTt2rUDgIsXLwrcpk6d+t133wkKVV6OGDGiEmZcXBytvXTpkoGBgYmJSUFBAfMPDg4WzJoQkpGR4eXlRX2ePn3apUuXTz/99NmzZ6zVuXPnGjVqNG3aNFbyYRpyuXzy5MleXl7Tp0+3s7Pjf1e8KpDPP/+8VatW9+7de9WG6F+nCCQkJBw9erRhw4YCBXby5MlRo0ZlZ2c/fPgwJCREJBJ9/PHH9J+F7OxsXV3dnJwcOpFLly5pa2vzf93q1ATrQjCowOrCXcAY6gGBe/fuAcCgQYP4WOVyuZeXFwDQNad169alpqZSB4ECI4TMnz+/pKSEEOLt7Q0AFy5c4LtStq9fv/7bb7+xcl6BEUKOHj1KVU5SUhIAeHp6Ms+ioiKRSNSzZ09Wsn379kq1pFLu9OjRg7mpN1q1aqWvr898KioqLCwsqLoKDw9n5YSQL774gv9ZTPXf5MmTeR9CSJcuXR4+fCgoVHk5ZswYAEhISGC1Pj4+ALBt2zZWsmbNmsq1wHXr1rESahw5coQaEydOBICUlBSBw5IlSwAgNjZWUP5BXYaGhi5btoxO+f79+9bW1q+3EhYVFbV8+fIxY8agAns//vx06NBBoMACAwP5ZW9fX18AoP/u7dmzBwAePXpE556dnQ0ASUlJ7weKmpgFKrCaoIp9vocEVCowQsiTJ090dXWNjY2Lior4hy/KCozVVlOBKRQK/ltQoMBYrbICKysr09HRsbS0ZLdBjQLr27cvc1NvKCuwvn37XrlypWHDhrq6uomJiaz5mDFjeKEjlUpbtGjRsGFDfl/IyZMn2boda1iVoazA/Pz8AGDjxo2siUoFxhbekpOTNTQ0evfuzfyZcevWLQCovhJlDd8no0+fPvwmwlmzZh08ePBVJyiVSp2dnWUyGSqwV0VXZ/0tLCwECoz/q00I2bhxI/thc/HiRQCYMGECnc66dessLCyqucReZwnUaGCowGoUL3b+/hCoSoERQuhWp9OnT/OzVVZgrLaaCoz5U0OgwFitsgJbvnw5AKxatYr51JwCI4RERkZWiqE2bdqwBS2BAiOEfPfddwDwww8/sJC+/PJLtjrFCqsyBArswYMHpqamBgYGbCsYIURZgT1+/Njf35/2uXXrVgD48ssvlYcoLy/X1tbW0NDgJYiy23tcUlhY6OLiwk8wOjp66dKlrCQsLMzPz2/OnDn0J0FsbKyfn5+/vz9b7aCeQUFBdF0WFRhDV98NZQUmmNHSpUvNzMzYb8XJkydXCjJvb++IiIhPP/00KytL4I+XPAFUYDwNtJFAlQTUKLCAgAAAWL9+Pd+4lhWYqampp6enu7u7paWliYmJYHd5jSowQsjcuXMBYODAgeXl5YQQZQX2+PHjBg0atGrVij6/yM3N7dSpE/tXm+em0qYKbO3atfv27Zs/f37r1q179+4t2EhHFVjXrl2HvfjY29s3a9ZszJgxtMPZs2cDwDfffKOy/06dOgEAv4yn0u19Lbxx4wbbv0jnmJycPHHiRDbfe/fuWVlZRUVF0ZLCwkKxWPz7778zB0JIdna2t7c3LUEFxpOp1/ZLFVifPn34PwlyuXzSpEkA0KBBg/j4+Ho991oIHhVYLUDGId4HAmoUWGBgoGBPEiGklhWYu7v7kydPMjMz9+3b171790aNGv3888+Me00rMLlc7uzsDAB0S7uyAiOE0G1Y9N2on376KSgoiIX3UoMqsNmzZ7u4uADAt99+q9yEKrDVq1eXvvgUFhbu379/7Nix1JPeozlz5ig3JIR06NChcpPfyZMnVda+94VJSUkzZszgp5mVlTVu3Di+5OnTp2Kx+MyZMzKZbOTIkXv27OFrK196GDt2bHp6Oi1EBSaAU38v1Suwffv2sTdd6ByfPXvm4eExZ86cBg0a6Orq/vXXX/V37rUQOSqwWoCMQ7wPBNQoMLoZ//r16/w8a1mB8TvxS0pKzM3NNTQ0zpw5Q0OiaTIWL17MR0hta2tr5UKVJSr3gTHPvLw8qmO2bdumUoHRnVjdu3dXKBRdu3Z9pZ3a7ClkQUFBx44dtbS0/vnnHzY0NZSfQtJNKrR28+bNADB8+HBBK0JIeXm5lpYWAHywT0xeugZGoeXn5zs5OYnFYuUtYidOnFi4cCFjiwqMoajvhhoFdvfu3ZEjR7KXtSvXwqVSqZWV1ZYtWwghly9fbtu2bYMGDdLS0uo7hJqLHxVYzbHFnt8rAlUpMKlUamRkZG5uzjba02m/QwVGCKEvKLGXH0+dOgUAAQEByrfExsZGuVBliXoFRgi5du1ao0aN9PT0evXqJdiuSzscOnQoACxYsMDNzU3lEFUVMgVGR2nYsGHTpk0zMjJ4f5UKjDqUlJQkJyeLRKKuXbvyTaidnJwMAF26dFGu+kBKlPeBxcTEKC9SFhQU2Nvb29jYHDp0SEBm7ty5/fv3H/S/T8uWLV1cXKpKXCxoi5d1mUBVCiw/P9/f31+Q7njr1q2ampos4+C1a9fUPPqvy7OutdhQgdUaahyofhOoSoEFBASIRKJ///1XML3bt2/z+cD42tfbiW9mZsbygfG9Ke/EJ4RQrbNhwwbq+fDhQ5FI5ODgwDckhNy8edPX11dQWNWlQIGVlpb26tVL4ExfR2fvRglq//nnH5pC7MCBA4Iq9ZejR4/ms1H88ccfANCtWzf2b73Knfi0z8TERPoGwJQpUwDgypUrgrEWLVoEALt27RKUf1CXvXv35l9EmDVrluAe5eXlicXikydPlpSUuLq67tu3Tw0fXANTA6d+ValUYCUlJVOmTMnLy2NzuXHjxvPnz8PCwvT09FjKQEKIpaVlVY/+WdsP2UAF9iHffZz7KxBITU0FgP79+7M2GRkZvr6+Ojo6yjmoCCFXr14V+LOGbm5ur7HrqGnTpgDAH+xDO4yLiwOAoUOHsv4jIyO1tLQsLCz4X6iTJk0SiUQ7duxgbo8ePXJxcbl69SorUW8YGBhoamqypb7MzMyWLVvy/9rS5vPnz69KgRFCevXqZWpqyjpRPyKrdXd3BwD+ySOVUxKJhHUVFBQEACEhIawVISQ1NdXCwoJusX/27Fm3bt2srKwESTEaNmyocnWQ7+e9t9esWcPygeXk5FhZWfHvSeTm5orFYpaPrbS0VCKR8H+WBHxQgQmA1N/L1q1bOzk58fHLZLKhQ4f+8MMPG//3WbFihY+PD/1Fp62tzf6eSqXS5s2b//3333xztHkCqMB4GmgjAdUEYmNjXV1dAUBTU9PJycnFxcXDw2PYsGGLFi26ffu2cpu9e/c6OjpS/4ULFzKVk5KSEhwcrKenR8UZW6NS7oEvSUhIoIKjMvPhqFGjYmJiWO3WrVsHDhxYmehBW1vb0dHR2dm5x4vPnDlzBOctFhcXBwQE6Orq2tra+vv7u7q6isXiaqY+P3HiBH2/CQDGjBkTHR29f//+QYMGVe6dGjdu3OXLl1k8hBC5XD5kyBCVTyEr97z/8ccfVb2QyHfC7Ly8vODg4IYNG9ITkCIjI2mVTCbr168fADg6OiYkJISGhrZp04aezuTi4jJixAhXV9fevXtraGgYGRkxlVZQUDBr1qyOHTvOnDlzxYoVXl5e3bt33759OxvugzUqKiomTpzo7e09a9YsGxsbflNjbm5uhw4dzM3NfXx8qOCOjo62tbXV1NQUZOKtXHw9f/78oEGD8Cnke/AH6erVq/RXjZ6e3tatW9k/dHTbK13MZv9lx6Dt3LmzS5cu69ev/+uvv0aOHLlmzZr3AEXNTQEVWM2xxZ6RQJ0jIJPJUlNTL1++rLyW9hZjLSoq4vfn8j2Xl5fzRwnxVbVm3717t3Xr1nTvF79MWGsB1NmBcnJyLl68yARrnY0TA6vLBGQy2fXr169cuYIbAV96m6pUYFKpNPf//by0r1d1ePToEf9r/siRIyrPYCeEVFRU/Pvvv+y0qWoOdO3aNXpwXjX9a8ftwYMH73BVNj8/Pzo6uqZnquZWvsbQdfM+vsZEVDaJiooaV8WHT/iusu1bLExJSakiinGBgYFvcSCVXdU+hFu3btE3NwcOHMgSyaqMDQuRABJAAjVEoEoFdvv27bCwMAMDA7qbePfu3W8xgqKioqCgIF1dXbaTt6KiQk9PT+UpJRcuXPjkk0/4c3mrGYmjo2OzZs2q6VwLbhUVFUFBQVpaWsobomthdELItm3bDA0NLSwsanQ4Nbfy9cata/fx9WZRVav09PQjVXz4oxWrav62yvPy8qqI4ojySwZva1DWzzuBUFJSEhIS0qdPn1atWn377bdnz57ldxaz2NBAAkgACdQQgSoVGB1PIpEAgCD39NsKxc7OjikwQsipU6eqyseze/fuaiowfvvCrVu32NbRtxXzm/fTpUuXd6XA6CtyNa3A1N/KagKs+/exmhNBt7pPoLCwMDk5+cyZM2ynS92PGSNEAkjgPSDwEgX2eq/NV5OLi4sLr8DUtDp06FB1FNi2bdsEmZ3V9Pmuqvr27fsOFZinp2ctKLA3ZFsv7uMbzhGbIwEkgASQwAdO4JUV2IULF/Ly8goLCw8ePHj27FmKLykp6cKLD82RWF5eTi/pBgupVHr06NHIyEjB61ECBVZaWio4ly03NzcqKurff/89ePCgQIGlpKRERkb+/fffLIfNP//8o6enN2rUqAsXLjx+/JgQolAo4uLi+Lfl5XL5lStXIiMjz507xx/YXlZWduLEicqDU+7fv793796qtqPRySoPTQh59uwZDf769et79+4VvIYml8svXry4e/fuBw8eqFFgcrn8+PHjUVFRmZmZ9IEIxXjhwgWKTi6X0xI6QfWDEkIuXry4Y8eOc+fOsT/lTIHdvn179+7dgjty48aNZ8+ePXjw4PDhw2w3Lj3o5vjx44IN1FlZWampqRUVFadPnz548CDPk7+VOTk5bBbU4Ne3lGHW2n1kTNBAAkgACSABJFD7BF5BgSUnJ9P33n/55ReJREJfBafZd44fP66np2dsbPzgwQMqfVavXm1nZ5ebm3vx4sUOHTqcPn36/Pnz5ubmv/zyC5skU2AlJSVBQUGGhoYDBgxgtX/88Ye7u3t8fPz+/fv79u3LKzBfX18/P7/MzMz58+d36dKFipWdO3dqa2s7OTlt2bIlNTU1IiKiffv2AMCURFZWlrOz8+bNm8+fPz9+/Phu3brRfTZHjx5t06aNkZHRxo0bP//8c3Nzc11dXSYuWTzUUDl0SEiIrq7u0KFDZ8+eLZFIGjdu3KZNG6ZXnjx54uzsvGHDhsuXL0+bNs3IyEjlGlillLG3t//zzz9zcnK8vLxWr15NCImOjhaJRF26dGFvIfzxxx92dnb5+fnqB33w4IGXl9fWrVsTExM//vhjV1dXyoEqsNDQUDc3t3bt2mlra9OXFc6cOUOTC2zcuPHjjz8GgL///lsqlU6cOHHhwoWXL19euXJlixYt6HnPeXl5/v7+lbmp5s2bN2rUqCFDhmhqarq7uxNClG/l4sWLAwMDd+zYERkZOXnyZACYNWuWGpi1cx8FtxUvkQASQAJIAAnUMoFXUGCEkIiIiMr8H+yoE1tb2/bt29OIZ8yYIRKJ7t69Sy9XrFhB3/j78ssvu3fvTgunTZvG/AkhTIHR2s6dOzMFdunSJSMjI5bw+ueff2YK7NatWwBAMzLn5eXxJyI3aNCAfwpJv++p8lAoFLa2tjQ1NtWIgwYNsrCwoO/MT5w4USQS0TxyxcXF2traEyZMoFHx/1UzdMeOHc3MzOg+ttjYWD4qiUSyZMkS2k9FRUWrVq1UKrC4uDgTExPqlpubu2rVKmp7eXnp6+szPRcUFMQOZatqUIVC4eTkxFJa//bbb5V5pFJTUwkhnp6eBgYG9LhAqVTaoEGDUaNG0YFCQ0PpCRKVrGJjY0tKSubPn+/o6EhrK6F9++23Ojo6N27coIuFADBkyBD6vvGCBQsAIDs7mzrzt5K90FdcXNyuXbuOHTvSJmpg1vR9ZDNCAwkgASSABJDAuyLwagpMsB9r+vTpOjo6NPSsrCyRSPT999/TS4lEQh//3bx5Mz4+nh5/6+Pj07hxYzZVgQIb8OJDa4cPH/75558zT35cuVy+e/fukpISQgj9FmdZsAXf3PSwEarAaN7wuLg41ic9q5i+4xkYGMif99KzZ09BFmDaSs3Q/LPFZ8+eAUBwcDBLjM4fhMJ7smAIIVeuXAEAf39/qjvZG/IXLlwAgJUrV1LnwYMHl5eXU5vvih/01KlT/NEQCoWCyi+qwPh9YP369WOqd/v27QCQlJREO6+oqGjQoMHSpUtZkDk5OQAwZcoUQkhxcTEAsNr9+/cDAFs4HPDiwxpSY+rUqZUH47BboAZmTd9HQWB4iQSQABJAAkig9gm8kQITCBd3d/ePPvpILpfHx8czxUAIefr06apVq9auXTt+/Hh9fX02STUKzMzMbNKkScyTV2C08NixY0FBQfv27QMAtlyk5pv7119/5SUC00bffvttpZ4QTIRXNiwGZqgcmm/Cq5PNmzcDAJNThBDek/VJjcDAQAAwMTFhib9puVgsbtOmTVlZ2eXLl/nkTHxX/KChoaFsOU0wBNsHRssHDRrEjtmhCoxt0kpJSWE6knXStGnTgQMHKiswwQ0a8OLDWhFCTp8+raGhMXPmTL6QEKISZu3cRz6SE/hBAkgACSABJFCTBJ49e8Z/7xBC3qYCO3r0KAAcPnz466+/plvFCSHHjx/v2bNnZmZmZWLVRYsWVVOBNWrUiM8Nxn/Bl5WVjR49eu7cuQqFoqKiopoKjB7lyysbetByWFhY9RWYmqGrEkMrV64E1ZPZBAAAIABJREFUAD6xE+8puBmEkIMHD9JEkWw1kRBCwW7btm3OnDlVdcUrsKCgIA0NDfYMlx+l+grs7t27ldqR18GEEAsLC3pf+OEqZSV/gwghA1582LhSqdTS0tLCwoKuXNJyNTDVKLC3ch9ZYMxYjB8kgASQABJAAjVJQDnfzdtUYAqFomPHjo6Ojv7+/uy7rXXr1vS5FSFkwYIF1VRgvXr1atmypUwmo/3QL/jTp08TQuiuJqrwysrKBArs66+/ZkPzTyGTk5M1NDQmTpzIas+dOwcAFy9erL4CUzM0r6t4dRIVFQUAoaGhbNy+ffva29uzS2acOXOGHhhceaSDp6dno0aN2PTpecY9evTgn8wKltP4Qf/8808A+PHHH1nn9+/fp/Sqr8AqUZuYmHTs2JF1olAo9PX16TNffriXKrDAwEANDQ2WVS49Pb2oqEgNzAYNGtTofWQzQgMJIAEkgASQwLsi8BIF5ubmBgAnT56k8VE9wXJk0509fBqCNWvWAAA7C6i0tFQkEvXs2bO4uDgjI2PgwIEikej58+d0LcTOzo5t0ieEWFtb9+vXjw5EHxoGBATQS/p4bu3atTKZjG76/uOPP0pLS7du3aqhobFgwQK63tOqVSsqbmg6idmzZwMAO59u/PjxhoaG9G1NQsisWbPGjBlD+58xY4ampibLW9G9e3e2O4o60P+qGbpXr16DBw+mbk+fPq18B3PRokWEkNLSUjMzMxMTE5r3ITs728jIqEOHDvxzSdrq0KFD69evp3ZMTIyxsTGLhxDy119/VZ46vG7dOupA/1vVoGVlZR07dtTS0goKCrp06VJERMTo0aPpfjiJRNK2bVvWiY2NjZWVFb0MDw9nrzvQkq1btwIAOznq4MGDFhYW9DzB/Px8AGALdfRxMDttib+ViYmJmpqa06ZNY4MuXrz43d5HFgkaSAAJIAEkgATeFYEqFVhKSkpwcLCenh4A9O/ff8OGDampqY6OjgDw+eef37p16/Dhwx999BFNScBO+c3Pz+/Tpw8vHaZOnQoARkZGM2fOPHjwoIaGRufOnZOTkzds2KCjo6Orq/vbb7/l5+f/+uuvurq6enp64eHhUqm0oqJi7ty52traLVu2/Oyzz77//vsWLVpMnTo1LS0tOTm5efPmANCnT5+EhAQ7OzttbW26JZwKNWtr64SEhD179lhYWNDw7t27R8XQjBkzrKys1q1bt3DhwoCAALrIdOzYMfrgb8GCBQUFBSEhIZqamo0aNWKHvbN7U9XQv/zyi66urr6+/ubNm589ezZhwgR66C/dmZ6UlNS5c2ctLa1KJRoYGGhlZfXZZ59t2rSJdUuNQ4cOmZubh4WFHThwQCKRHD58mHdQKBQtW7aki2S0XP2gqampvXv3pgfXDxkyhAq+qKgoY2NjDQ2NkJAQqVQaHh7e4MVn+/btcXFx9OgnNzc3+qYkHeX333+3sLAIDg5evXr1l19+SZNiFBYW0tvarVu3EydO3Lhx49NPPwUAd3f3rKwswa3s2rUrAEyePDkwMHDGjBkeHh6tW7cmhFQFky5JVj7Orrn7yINFGwkgASSABJDAOyFQpQJ77WiU95plZ2ezDUAPHjzgH66pH6W0tDQzM1OhUBQXF9MlHOr//Plzdn5RWVkZy5VFCLl9+zbvqdx/eXl5RkYGe51Q2UF9iZqh1Te8e/cuzSiRn5+v0pMuJRYVFaWmpiojunPnjre3t8qGagofPHjw5MkTNQ7VrMrKymKZb6vZpDpuamDW9H2sTnjogwSQABJAAkig5gi8fQVWc7F+yD0HBASwXA8fMgecOxJAAkgACSCB94MAKrA6fR9Xr15tZWX1xRdfDB8+vE4HisEhASSABJAAEkACr0IAFdir0Kp13507d7Zp08bNzU1w0GStB4IDIgEkgASQABJAAm+TACqwt0kT+0ICSAAJIAEkgASQQHUIoAKrDiX0QQJIAAkgASSABJDA2ySACuxt0sS+3lcCBQUFudyHHi6uPFmZTMZ5qTClUqmgVLkTVqJQKATOgsvy8vKnT5/yhSpfWeUdcnNz2cvCRUVFrErlCQosEmZkZmYePXr0/v37hJCcnBz6eq9g1uwUeXoiGRuiuLiY2oKx5HI588nNzZXL5Ww4QkhJSUliYuLff//NXnlOTk7mHZRtAROWK4f3zM/P5wflbT7nC2uSnZ199OjRtLQ0PtUOq0UDCbyXBB4+fHjs2LGzZ8+q/Ev0Xk65lieFCqyWgeNw9ZJAXFzcqFGjKg/K1NHRGTlypLu7u5ubm729/fTp02/evMmmRI97t7CwcHFxcXJyAoDmzZtLJBKxWGxoaKirq3v79u2wsDADA4PK5LcODg70YHjWXGDQo9CbN2/u4OAgkUgaNmyooaEhkUicnJzatm0LAPHx8VFRUUOGDKnM1mtsbOzr6+vh4dG1a9cBAwbw2ewiIiJocriPPvooPDycCaDExEQ6qbFjx547d04wuuBSoVD4+/t36NBh3rx5U6ZM6dq1a4cOHehBC/fu3fvPf/5Dk8/Z29vz+eT27dtnbm5uZGS0ePHiq1evfvXVVwDQrFkz/nSOkpKSTZs2tWjRokmTJr/++ivLXJOdne3p6fnRRx9NmDDhxx9/9PPzMzMzs7a29vT0FMQmuIyMjKRZ6ExNTUePHu3i4tKlSxcPDw8+sGPHjtHshk2aNBk7duy4ceN8fHw8PT3Nzc1btGjBd7hp0yYzM7OpU6du2rTpm2++ad++/Xfffffa6Wz4nuug/fjx4ytXrghEcDXjrPh/PyhVq8mtzrrNmTPnv//97+nTpzdv3tyrV68LFy7U2VDrb2CowOrvvcPIa5VARkYGANjZ2bFRU1JSJBKJSCRiZwNs2rSJnaSZlZVFZRb1f/bsWdu2bel3m0QiAQB2TBPrUGBkZGT06tWLHepgbm6upaVFfeRyuUQioYdPxMfHV549ys5RLS8vnzZtGgCsXbuWdUgPPJg7dy4roYZUKjU0NOSPtRA4sMuNGzfq6emxbH+ZmZkfffTRrl27mIOfn1/lpMRiMSshhEilUnNz8/j4eFZItWDv3r0F64gLFy6cPXs2c0tISGjYsKGTk1NeXh4rzM7O7tWr15AhQ1hJVUZYWBgA0ETNhJDc3NwePXpoamrykZw9exYABG8Zy2QyW1tb1q23t3fLli1v3LjBSnJzczt37tyvXz9B/MyhnhpyuXzy5MleXl7Tp0+3s7Pjf1dUc0a2trYO3IedaFLN5uhWpwhERkZ26tSJhRQSEtK3b192icbbIoAK7G2RxH7ecwL0KPdBgwbx85TL5V5eXgBA15zWrVuXmppKHQQKjBAyf/58usDj7e0NAC/9TXn9+vXffvuNDccrMHpeOz04ISkpCQD4laGioiJ6Ghhru3379so1qu+++46VMKNHjx7MVmOMHj3ayMiIXx2Jiopas2YNayKVSrt16wYAO3bsYIXz58/nzyelp7bT1UF2Jhh1/uWXX8LCwqhdXFxsYWHRpEkT/oEmrUpLS2PHf7FRlI2NGzcCwPLly1nV5s2bAWDChAmsRJkbrTpy5Ag1IiIiAIC/BbT81KlTALBw4ULW1XtghIaGLlu2jE7k/v371tbW/L2uzgQFfzWq0wR96iyB//73v126dGHhbdu2rXIlm12i8bYIoAJ7WySxn/ecgEoFRgh58uSJrq6usbFxUVER22JFCFFWYKy2mgpMoVDw34ICBcZqlZVEWVmZjo6OpaUluyVqFFg1f9pOnjwZAObPn8/6LC8vZ2KFFl67dk1XV7dZs2b0FKyrV6/a2dmxWVOfAQMG5OTkdO7cufKwMl7Abdy48ddff6U+33zzDQB88803bCzeoGfD8yXKtrICowR42afMjRBy8eJF1puJiQkAKKtAQkjr1q11dHSUT3dlbeud0adPH34T4axZsw4ePPhKs0AF9kq46rjzTz/9BABbt26lcXp5efn4+NTxmOtjeKjA6uNdw5jfAYGqFBghZNiwYQBAN0WxyJQVGKuqpgJj/tQQKDBWq6wkli9fDgCrVq1iPm+uwK5evaqrq0sf29GDVlnnvLFixQoA8PDwkMvlAwcOvH79Ol9L18CKi4tTU1MNDQ21tLROnjxJHXgFRp9U/vXXX4K21b8UKLDy8nJnZ2cA+PPPP1knytwqKirYUuKdO3cAgJ5hypowY/DgwQAQHR3NSuq1UVhY6OLiwk8hOjqaPcMlhISFhfn5+c2ZM4f+JIiNjfXz8/P393/06BFrRRVYTk5OSkqKQHYzHzTqC4GSkhIrKytNTc0VK1bMmzfvq6++Ytsh6ssU6kWcqMDqxW3CIN89ATUKLCAgAADWr1/PR1nLCszU1NTT09Pd3d3S0tLExGTv3r18MG+uwAghx48fb926NQAYGBisXr1a5besXC63tbUFAFdX1yVLlvAxUHvAgAF0reXQoUMikahFixZ3794lhPAKzMjIqHJn27Vr15SbV7OEKjA/P78DBw6sWrWqZ8+erVu3FjxPpAqsVatWw158XFxc2rVr16ZNGzrE4cOHAeDTTz9VOSJ982DFihUqa+td4Y0bN9j+RRp8cnLyxIkT2UTu3btnZWUVFRVFSwoLC8Vi8e+//84cCCF2dnaDBg3y9vaeOHGitbX1/v37+Vq06x2Bp0+f9uvXDwA6der0Pi331qkbgQqsTt0ODKbuElCjwAIDAwFg27ZtfPS1rMDc3d2fPHmSmZm5b9++7t27N2rU6Oeff2bxvBUFRggpLCz8+uuvRSIRALi5uan8WZyWllapR1u0aKFygz9TYISQpUuXAoC1tXVpaSmvwJo3b07f9GTxv6pBFZhEIpk+fToAfPbZZ8qv5lEF9vnnn5e++JSUlFy9epU9kz106FDlKtcnn3yicmhfX9+q9tWp9K/jhUlJSTNmzOCDzMrKGjduHF/y9OlTsVh85swZmUw2cuTIPXv28LWEkMzMTHbHnz9/7ujomJmZKfDBy3pE4Nq1a05OTvSPeps2bdLT0+tR8PUlVFRg9eVOYZzvmIAaBUY34wueuNWyAmOPz2gOLXNzcw0NDZZ/gabJWLx4sTJEa2tr5UL1JWfPnm3WrBkAzJs3T6UnAFhYWKis4hWYQqEYPnw43SAfHh7O9oENHDgQALZs2aKyh+oU8k8h6TNf5QU55aeQdCmO9n/79m0AaNKkicrhBg0a9IYRquz2XRW+dA2MBpafn+/k5CQWi6uzRezgwYM//fTTu5oRjvuGBFJSUlq1anXr1i1CyI4dOxo0aNCpU6f3NQnLG7J6k+aowN6EHrb9gAhUpcCkUqmRkZG5ubngqdw7VGCEEMEiDX19T2WCABsbm5fexTt37iQmJvJuNJWDubk5X8jsaiowQkhRURHN3WVjY8MU2Jw5cyq3wM+cOZN1+KoGr8CKioo6d+6soaEheC6mUoHRgUpKShQKhampKQA8efJEMLpCoWjVqpWmpiZLEitwqHeXyvvAYmJigoKCBBMpKCiwt7e3sbE5dOiQoEr58vz584GBgcrlWFIvCIwfP75fv34sVJre5Z9//mElaLwVAqjA3gpG7OT9J1CVAgsICBCJRP/++68AAV1EcXBwEJQTQl5vJ76ZmRnLB8b3qVJJDB06tHIj+YYNG6jnw4cPRSKRcjA3b9709fXle1Np5+bmDhw4UFBlYGDQrVs3QSG9VKPA+vfvn5+fz7dKS0ujG7+YAnvy5ImRkVHTpk1VHkhfnVRVNP8Zy0aRnJys/+LD7y1TyY0+aaWvTO7evVuQVo2G/ffffwPA5MmT+VnUd7t3796CdyEPHDjATyovL08sFp88ebKkpMTV1XXfvn18rbK9cePGTZs2KZdjSb0gMGLECGdnZxYqzQ793rx6wub1zg1UYO/8FmAA9YNAamoqAPTv35+Fm5GR4evrq6Ojs27dOlbIjKtXrwr8WZWbmxsAsNcAWbl6o2nTppUP/pSPB4mLiwOAoUOHsuaRkZFaWloWFhaFhYWscNKkSSKRiE/W9ejRIxcXl6tXrzIfNYaRkdG3337LHK5cuQIAK1euZCXMKCwsrEyjZWJiwkp4w8zMTFlCxcTEiEQipsAIIXv37jUwMOjXrx/Lr0YIqaioWLNmTXBwMN+hSjskJESQz2LXrl2Vb9e3a9fu8ePHtMnp06cBwN3dne+hoKDAzc2NbbEfM2aMoaFhUlIS87lz507nzp3t7Ozes4ysa9asYfnAcnJyrKys+Ewoubm5YrE4ISGBcigtLZVIJPyfpWXLlvHvmT58+NDW1lZlIg9GEo26TCA8PNzIyIid0HXhwgX+si5HXr9iQwVWv+4XRvtuCMTGxrq6ugKApqamk5OTi4uLh4fHsGHDFi1axB+ww4Lbu3cvPfRGU1Nz4cKFTOWkpKQEBwfr6elRccbWqFhDlUZCQsKUKVPosT+jRo2KiYlhblu3bqW7prS1tR0dHZ2dnXu8+MyZM0ewgFRcXBwQEKCrq2tra+vv7+/q6ioWi5XFEOtZYHz66afOzs4jR45ctmzZwoUL27Rps2jRIuXt7Xv37h05ciQNddq0aUePHmX9nD9/nj4bHTBggGB9hRCybNkyXoHRhGru7u7Gxsb29vb/+c9/nJ2dhwwZQpPQsj5VGuHh4R06dAAAU1PT0NBQJpVmzJhRmTDW0tJy165dUVFRdnZ2AKCrqzt48ODPP//czc3Nzs6OZty4dOkS7VmhUKxbt+7jjz8eN27cypUr//Of/3Tu3HnRokUymUzl0PW3sKKiYuLEid7e3rNmzbKxseE3Nebm5nbo0MHc3NzHx4fe8ejoaFtbW01NzfDwcDrl/Pz8yhNs7O3tAwMDJ02aZGtre/78+fpLAyOvPNBi7ty5/fv3j4yMjIiIcHZ2/vvvvxHLWyeACuytI8UOkUDdJSCTyVJTUy9fvqy8lqY+aJozghBy7969S5cusdMb1bd6pVqBZKRtFQpFWlra+fPn2drVK/X5VpzLysrs7e0BQE9Pj3+O+VY6r1Od5OTkXLx4UbCjsfoRFhQUxMfHJycn8+tn1W+OnnWNQGFh4YULF27duvXafyTq2ozqWjyowOraHcF4PiwCUVFR46r4bNy4sdZYpKSkVBHFuDq4n7r2oy0qKqKLoKampi89xbzW7hoOhASQQL0mgAqsXt8+DL7eE0hPTz9Sxac2l1vy8vKqiOKI8ksG7xz6O4lWoVDs27fP3t7e0NDQz88vNjaWrQu+cyAYABJAAvWRACqw+njXMGYkgATeGQGZTJaWlpaYmHj58uV3FgQOjASQQP0ngAqs/t9DnAESQAJIAAkgASRQ3wigAqtvdwzjRQJIAAkgASSABOo/AVRg9f8e4gyQABJAAkgACSCB+kYAFVh9u2MYLxJAAkgACSABJFD/CaACq//3EGeABJAAEkACSAAJ1DcC8Bl+kAASQAJIAAkgASSABGqSwOnTpwUSEVbjBwkgASSABJAAEkACSKAmCWRlZQkVmOAaL5EAEkACSAAJIAEkgARqmgDuA6tpwtg/EkACSAAJIAEkgASEBFCBCYngNRJAAkgACSABJIAEapoAKrCaJoz9IwEkgASQABJAAkhASAAVmJAIXiMBJIAEkAASQAJIoKYJoAKracLYPxJAAkgACSABJIAEhARQgQmJ4DUSQAJIAAkgASSABGqaACqwmiaM/SMBJIAEkAASQAJIQEgAFZiQCF4jASSABJAAEkACSKCmCaACq2nC2P/7QKCgoCCX+zx//lzlrGQyGeelwpRKpYJSlf3QQoVCIXAWXJaXlz99+pQvLC4uVu6Qd8jNza2oqKA+RUVFrKqoqEi5ISspLCxknrm5uSqdS0pKeB+BzQZlfT5//jwxMfH48eOPHz+mhdevX2e1Kg0BPYVCkZ+fzw+kUCgIIXK5nBU+f/5cgKi0tFS5c8EECwoKiouLWSfKRkFBwavOV3lQLEEC9YKAQqG4evVqREREZmamcsBnz5598uSJcjmWVIcAKrDqUEKfD51AXFzcqFGjAEBHR2fkyJHu7u5ubm729vbTp0+/efMmo7Njxw4AsLCwcHFxcXJyAoDmzZtLJBKxWGxoaKirq3v79u2wsDADAwMAcHBw2L17N2urbOTk5NAeHBwcJBJJw4YNNTQ0JBKJk5NT27ZtASA+Pj4qKmrIkCEAYGxs7Ovr6+Hh0bVr1wEDBkRERLAOIyIievfuDQAfffRReHg400+JiYl0UmPHjj137hzzVzbi4uI8PDwAQE9Pz9vb283NrWfPngMHDty2bRtzvn79+tSpU+HF54svvhg3bpyPj4+3t3ffvn0BgKd08+bNgQMHWlpaTp48eeXKlb6+vu3atevVq9e4ceNYbyqN1NRUSlVXV3fTpk3l5eV//fUX7b9169bbtm0rKysjhEil0p9++kkkEonF4qSkpMjIyK5duwKAqanp6NGjXVxcunTp4uHhcebMGTZKYmLinDlzaPBff/31qVOn/P39AcDKymrYsGF9+vQBgM6dO7u5udnZ2WlpaTk7O1d/vmyUum88fvz4ypUrcrn8DUO9e/duJdKqfqi8YefYvDYJREVF9e/ff8WKFXfv3lUe9+rVq7q6uidPnlSuwpLqEEAFVh1K6IMESEZGBgDY2dkxFikpKRKJRCQSff/997Rw06ZNkyZNonZWVhaVWfTy2bNnbdu2pd9tEokEAE6dOsW6UmlkZGT06tVLKpXSWnNzcy0tLWrL5XKJRHL8+HFCSHx8PACMGDGCVpWXl0+bNg0A1q5dy7oNDw8HgLlz57ISakilUkNDQypcBFWCy2vXrvHTkclk48ePB4Aff/yReSoUCl1d3aZNm7ISakyYMOHKlSvUjoiIaNCggb+/P5sXISQrK6tz585ffPGFoKHypVQqNTEx0dLSKiwspLXJyckaGhqWlpa8s1wub9WqFftpHhYWBgBLly6lPrm5uT169NDU1IyPj+dbGRoaamlp0YW0sWPH7ty5k9Zu2bKFb56YmDh48GBCSHXmy/dfl225XD558mQvL6/p06fb2dnxivmVwj58+LCtra2/v/+cOXPCw8NfqS061ykC5eXlX331VadOndLS0lQGVlpaOnjwYABABaaST3UKUYFVhxL6IAFy7969yn9rBg0axLOQy+VeXl4AQNec1q1bl5qaSh0ECowQMn/+/JKSEkKIt7c3AFy4cIHvStm+fv36b7/9xsp5BUYIOXr06OHDhwkhSUlJAODp6ck8i4qKRCJRz549Wcn27dsrF3i+++47VsKMHj16MFuNkZ6eDgAuLi7M5/bt2wDQvn17VkIIMTIyMjY25ksIIdeuXbt//z4hJDs728DAoEuXLsqrLElJSRKJRNBQ5eW3334LAL///jurdXFxAYDExERWcuHChbFjx7LLjRs3AsDy5ctZyebNmwFgwoQJrIQQ0qpVK319fVoybdo0KsUIIQIFRgiZPn06dVM/X77zOm6HhoYuW7aMBnn//n1ra2vle/TSKSxfvtzFxQWXvl4Kql44TJgwoWHDhmr2BsybN4+u+qMCe+0bigrstdFhww+LgEoFRgh58uSJrq6usbFxUVERv9tJWYGx2moqMIVCwX8LChQYq1VWYGVlZTo6OvyykBoF1rdv3+rcSGUFRoG0adOGb66sSNLT0/Pz86nPl19+CQA7duzgmzD76NGjzFZjpKWlAcCAAQOYT0hICAD4+/uzkoCAgGPHjrFLZQVGgYwZM4b5CBQYu1kqFRirVT9fvvM6bvfp04ffRDhr1qyDBw++Usznzp1zcXFRuc3ulfpB57pAIDY2FgDmzJlTVTDHjh0LCQm5fv06roFVhag65ajAqkMJfZCA6jUwymXYsGEAcPr0aR6TsgJjtdVUYMyfGgIFxmqVFdjy5csBYNWqVcynJhTYkiVLAGDatGlsFJVrYIGBgenp6dSnTZs2AKByPy/fyUvt/v37AwBbbhSLxc2aNWvcuDFdYqyoqOjbty8vXgUKrLy83NnZGQD+/PNPfix+DYwvV14DY7XKCoyfL3Or40ZhYSG/ukkIiY6OZg9tCSFhYWF+fn5z5syhVGNjY/38/Pz9/R89esSm5u/vf+3aNXaJRr0mQPd9hoWFeXt7Dxo0aPr06Q8ePGAzevr06ZgxYxQKBSowxuT1DFRgr8cNW31wBKpaAyOEBAQEAMD69et5KLWswExNTT09Pd3d3S0tLU1MTPbu3csH87YUmLW1dXR0dHh4+NChQw0MDKZPn85v56IKTFtbe9iLj6urK30DgCqwvLw8+ioDW0CiEd64cSM0NHTVi8/atWvZghkfv8Bet24dAMybN48QkpaWJpFIZs6cCQBbtmwhhMTExAh+u1MF5ufnd+DAgVWrVvXs2bN169b8E17a/+spsKrmK4i5Ll/euHGD7V+kcSYnJ0+cOJHFfO/ePSsrq6ioKFpSWFgoFov5B8GEEPrYd9++fZMnT16+fPmzZ89YczTqHYGGDRvq6+tv3br13r17x48fb9u2bYsWLXJzc+lE/Pz8srOzCSGowN7wzqICe0OA2PxDIaBGgQUGBlbuiOJfDKS7y/mt6zymmlgDc3d3f/LkSWZm5r59+7p3796oUaOff/6ZDfq2FFjnzp1DQkJ0dHSMjY359Q82kJGRUbNmzUpffKRS6d27dx0cHKgCu3//Pn2bku2vYq1ycnJ0dXV1dHQePnzICtUYT5480dLSMjExqaioWLBgwZ49e65evQoAn376KSFk1KhRV69e5ZtTBSaRSKZPnw4An332mXIMgqeQfHP1a2BVzZfvoY7bSUlJM2bM4IPMysoSvJr69OlTsVh85swZmUw2cuTIPXv28P6EkOHDh8+fP//rr7++fPny3r17bW1tUYQJENWXyydPngDA6NGjWcDR0dEA8M033xBCNm/ezDYSoAJjiF7PQAX2etyw1QdHQI0Co5vxBVtWa3kNjN+JX1JSYm5urqGhwRIu0A2zixfu+CDVAAAgAElEQVQvVr5t1tbWyoXKJfw+sF9++QUAHB0dBatZKp9CHjlyhL3HTtNwsEt+FHNz85YtW/Il6u2hQ4cCQFRUVLdu3ejeIysrKwA4f/688oz4p5BU/i5ZskS5/9dbAxO8ecDPV3mIulny0jUwGnZ+fr6Tk5NYLFa5Raxr167spWD6HHPBggV1c74YlXoCJSUlGhoa/LKoXC6na7137tyxt7dP+N8nIiKCLv8nJCTIZDL13WKtMgFUYMpMsAQJqCBQlQKTSqVGRkbm5uYCOfIOFRghxNfXl3/58dSpUwAQEBCgPDEbGxvlQuUSXoHRR04AIFg4UanAaFelpaVyuZzuvmJZHvhRLCwsWrVqxZeot3fu3EkznLGHZfTRZIcOHYKCggRteQVWVFTUuXNnDQ2N/fv3C9zeigKjfdL5Cvqvs5fK+8BiYmKUMRYUFNjb29vY2Bw6dEh5Lp999hn/HVxWVubk5KTshiX1goCpqenw4cP5UNu0aVOZD+/YsWP63Kdhw4Z0YVtfX5++78w3QfulBFCBvRQROiCB/x+BqhRYQECASCT6999/BZhosgYHBwdBefWzUQgampmZsXxgfJXyTnxCCF0i2rBhA/V8+PChSCRSDubmzZu+vr58b1XZ9A1Etl/7+fPnPXr0AIDNmzfzTZR3ptNaLy8vmUx27do1bW3tjh07Kmcge1UF9vz5c7qixsjn5eXp6uryO/RZYDQdGstGkZycTL9EBDvHq1JgNHUFvzOd9ax+vsyt7hu9e/cWvAt54MABPuy8vDyxWHzy5MmSkhJXV9d9+/bxtYSQwMBA9m4EIeTx48cjR44U+OBlfSHw1VdfmZmZ8Q/rDQwMlBc1U1JS8F3IN7mnqMDehB62/YAIpKamAkD//v3ZnDMyMnx9fSs3Ra1bt44VMoPuTOL9WZWbm9tr/LPVtGnTyu3nym/7x8XFVT59Gzp0KOs/MjJSS0vLwsKCpS0lhEyaNEkkErENHISQR48eubi4CLZMsU4ExqVLl9hGK1qVlpZGE/2zZ51yuVxHR6dx48Z82/Ly8iVLlgwZMoQWbtu2zcDAYOjQoewwospMaTKZrHnz5q+0BkYI8fHxEXxJjBw5UmV6M5qugu5ioWHs2rULANq1a8eHYWBgoKmpKVjLJISsXbuWbfznp1ad+fL+ddles2YNyweWk5NjZWXFv0yam5srFosTEhLoFEpLSyUSCf9niW589PT0ZK3mzp0reB2kLk8fYxMQSEtL09LSYo+bz58/b2BgkJOTI3BDBSYA8qqXqMBelRj6f4gEYmNjXV1dAUBTU9PJycnFxcXDw2PYsGGLFi26ffu2MpG9e/c6OjpS/4ULFzKVk5KSEhwcrKenR8UcW6NS7oEvSUhImDJlCj0zZ9SoUTExMax269atAwcOBABtbW1HR0dnZ+ceLz5z5sxhLy5R5+Li4oCAAF1dXZqy3NXVVSwWVzP1eWxsrIODQ2Ve+MpFuMWLF7N0Evv3769Me6Gvr7906dILFy74+PjQID/55BOJROLh4UHzRABASEgIi/nOnTvDhw+3tLSUSCQLFiyYMGFC//79vb29BRnqmX9VxrFjxxYuXMjXxsTEKG/wCg8P79ChAz2VKDQ0lOULnTFjRmVyMktLy127dp04cWLSpEk0+DFjxkRHR9NuZTLZunXrLCwsAKBVq1YhISFMsVV/vnyEddauqKiYOHGit7f3rFmzbGxs+E2Nubm5HTp0MDc39/HxoYsi0dHRtra2mpqagqz3sbGxYrF44cKF7u7uygcw1Nm5Y2AqCURHR1taWq5evXrXrl3Ozs6CbDu0CSowleiqX4gKrPqs0BMJ1HsCMpksNTX18uXLymtptT+3+/fvnz9//unTp683tFwuF6SuUC55vZ4/2FY5OTkXL15UXgWsPpCysrLExMRqvtNa/W7R850QkMvlycnJaWlp/OPIdxLJ+zooKrD39c7ivOoHgaioqHFVfDZu3Fhrc0hJSakiinGBgYG1FgYhpI4Aqc0p41hIAAl8mASqVGBSqTSX+7zFzC7l5eU7d+58ix1+mHcOZ/1+EEhPTz9SxUewT7xG55uXl1dFFEfYVvcaDYB1XkeAsHjQQAJIAAnUEIEqFVh6evq8efPoxoghQ4Z4enr269evT58+33//PdtI8XoxnTlzBgDCwsJerzm2QgJIAAkgASSABJBAfSdQpQKjE2vWrJmOjg57Bkxf6nZ1dX2TaVdUVBw8eJB/S0tlb1KpNCMjQ2UVFiIBJIAEkAASQAJIoF4TeIkCa9OmTYMGDfgZmpmZAQA9E4ovf+u2r68vO4bsrXeOHSIBJIAEkAASQAJI4B0SeGUFRl/Mpge9sbgvXboUGRmpvG0lOTk5MjLy/Pnz5eXlzJkQ8uTJkxs3brCSwsLCAwcOxMbG3r17lz7iXLZsWeVb7qtWrbpw4QI7+vf27dt79uyJi4vje5NKpZcuXZLL5cePHxdERfuXSqVHjx6NjIxMSUlhI1IjNzf34MGDUVFRgrexqipXGQAdOioqKjMzMy8vj/asslAwOl4iASSABJAAEkACHyyBV1Ng//77LwD07NmTPZcsKSmZPHnytm3btm7d2rJlS/4kqXnz5o0bNy4hIcHZ2dnAwGDw4MFTp07NzMz08/PT1tZetGgRhX737t3+/ftfunTp5s2bXbp0uXz58rNnz7755hsAmDZt2pYtWwoKCgghP/zwQ0hIyP79+/v162djY5OXl1ep1RYvXmxkZDR8+PDJkyfr6ekNGDBAcCMvXrzYoUOH06dPnz9/vvLguV9++YU5bNy40d/f/+zZs8uXL2/UqFFsbCytqqpcOQBCSEVFhb29/Z9//pmTk+Pl5bV69eqqCtm4aCABJIAEkAASQAJI4OUKTEdHJzY2dseOHb6+voaGhu7u7vwjyGnTprHDK1avXg0ANF3k2bNnAeDOnTuEkOzsbJFIRNUJzcQNAEyBLV261Nvbm96JAwcO0KyMCQkJ9NhdWv7nn3+yI+0uX74MADTdn0KhaNq0aYsWLXJycu7du5eYmCi4o19++WX37t1p4bRp09q3b0/tU6dOffLJJ9SuqKho06bNqFGjCCFVlVcVQFxcnImJCe0nNzd31apVhBCVhdQH/4sEkAASQAJIAAkgAULIyxWYlpbWr7/+2q5dOw0NjX/++YenJpVKNTU1v/rqq0kvPhKJRF9fn2appud4sPzRH3/8MTtAt6KigldgoaGh2tra69evl8vlZWVl9EGeQIHZ2to6ODjQUfz9/fX19QcOHEgjsbCw8PDw4KPi7Zs3b1JJV15e7uPjw85LEYvF7AgOQkhOTg5daauqvKoArly5AgD+/v5FRUWVB7/QPIQqC/mo0EYCSAAJIAEkgAQ+cAIvV2B0J/6lS5caNGhgamrKnwxFj4oTbKKiQOlZdez0VgsLi7Vr19IqgQIrKSmhx6r07dv30qVL1EegwBo3bsy6EtwwCwsLT09PQSF/+fTp01WrVq1du3b8+PH6+vq0qkmTJr/99hvvpr5cTQCBgYEAYGJiEhkZyTpUWchq0ahrBBbjBwkgASSABJBATRJQPsKuugqMELJp0yZ6mB07z+TUqVMAoPK4KIVCMWPGDHNz8+jo6GXLlnl6erLt8wIFRjdOrVq1qnHjxnp6ekeOHCGE8ApMLpdra2sHBQWp/NpWr8COHz/es2dPeozdokWLqAKj5+nOnj1b0KGacjUBEEIOHjxID577/vvvWZ8qC1ktGkgACSABJIAEkMCHTOAlCszU1JTPRuHn5wcAPj4+FFlOTg4AjBw5kie4Zs0aehkVFbVt27bjx4/funWLdxAoMHb6+v379z/++GMHBwemwPbu3UsbdurUqUOHDvRBIS3ZvHkzzaqvXoG1bt16ypQptMmCBQvYGliPHj1atmxJHx3SWrqCVVV5VQGcOXOGLgHKZDJPT89GjRrJZDKVhXQU/C8SQAJIAAkgASSABF6+D8zQ0FBDQ4MtX0ml0j59+tA8ERSfRCIBgP/+979JSUn//PPPmDFj4uLiCCHnz5+3tLQ8ceJESkrK/fv3+TT6JSUlbCs9ISQwMJBlppg7d+7w4cMJIfTE9aCgIIVCkZaWRvf4i8XiEydOXLp0aeHChSEhITQAU1NTKtqUb2dpaalIJOrZs2dxcXFGRsbAgQNFItHz589LSko2b94MAH379o2JiYmPj585c+Zff/1FCKmqvKoADh06tH79ejp0TEyMsbGxQqFQWagcHpYgASSABJAAEkACHyyBKtfAbt68OXnyZHoq0dixY6muIoRkZmY2adIEACZNmpSTk/Po0SNHR0fqRp85UpRXr15t3bo1LQcAHR2dzz//PDs7Oz09fdasWQDQqVOnQ4cOEUJmz57dv3//Xbt2/fHHH46OjjQPvkKhsLa2FolEHh4ejx49Kisrmz59upaWFgAYGBj8+OOPldKtuLg4ODgYABo0aLBhwwaVB01OnToVAIyMjGbOnHnw4EENDY3OnTvfvn1boVAEBQU1aNAAAJo0abJlyxYadlXlKgMghBw6dMjc3DwsLOzAgQMSieTw4cNVFX6wf8Jw4kgACSABJIAEkIAygSoVmLKrmpK8vLysrCyWJIwQcvHixeDg4Hv37iUkJPz9999RUVFBQUEzZ85U7kQmk9EcrRkZGXwPZWVlWVlZvL9UKk1LSysrK+MLX2pnZ2eXlJRQtwcPHtDh6GVZWVl6ejpb4WNdVVWuHAANpqioKDU1lfWsspB1jgYSQAJIAAkgASSABN6OAhNwLC0tbdGixb179/jy58+f03RZfCHaSAAJIAEkgASQABL4AAnUiAKjKVhHjRp17ty5R48eZWZm/vnnnzNnznzpadwf4A3AKSMBJIAEkAASQAIfIIEaUWCEkCNHjgwaNMjY2NjMzGzIkCE7d+7knzB+gKBxykgACSABJIAEkAASYARqSoGxAdBAAkgACSABJIAEkAASEBBABSYAgpdIQAWBgoKCXO7DZ1fhvWUyGeelwpRKpYJSvrnAVigUAmfBZXl5+dOnT/nC4uJiQSeEEN4hNze3oqKC+hQVFbEqPjeecg+FhYXMMzc3V6VzSUkJ7yOw2aCs8+fPnycmJh4/fpydXXb9+nVWq9KoqKgQdCuXy5U9BT78ZVUbIQQ5C2mf1bzpygFgCRJ4Pwjcv3//yJEjSUlJytMpKCg4ceLE+fPnX/XdOOWuPuQSVGAf8t3HuVeXQFxc3KhRo2helZEjR7q7u7u5udnb20+fPv3mzZuslx07dgCAhYWFi4uLk5MTADRv3lwikYjFYkNDQ11d3du3b4eFhRkYGACAg4PD7t27WVtlg2Y8bt68uYODg0QiadiwoYaGhkQicXJyatu2LQDEx8dHRUUNGTIEAIyNjX19fT08PLp27TpgwICIiAjWYURERO/evQHgo48+Cg8PZ/opMTGRTmrs2LHnzp1j/spGXFych4cHAOjp6Xl7e7u5ufXs2XPgwIHbtm1jztevX6fJXwDgiy++GDdunI+Pj7e3d9++fSvzNvOUbt68OXDgQEtLy8mTJ69cudLX17ddu3a9evUaN24c602lUVBQEBYW1rhxYwDo3bv3qFGjBg8e3LVrV39//zt37tAmcrl8y5Yt7du3pylvfHx8xo0bN3bsWHd3dyMjI0H6aNqkoKCgRYsWyqerVfOmqwy1nhY+fvz4ypUrKnWt+hnJ5fIKpY/6JlhbxwnMnTu3RYsWlpaWAODi4sIrrS1btujr69NsU506dbp27Vodn0udDQ8VWJ29NRhY3SKQkZEBAHZ2diyslJQUiUQiEonYaVSbNm2aNGkSdcjKyqIyi14+e/asbdu29LuN5jE+deoU60qlkZGR0atXL6lUSmvNzc21tLSoLZfLJRLJ8ePHCSHx8fEAMGLECFpVXl4+bdo0AGAnsRJCwsPD+TTIbDipVGpoaMj/28qqBMa1a9f46chksvHjxwMATc5HnRUKha6ubtOmTQVtJ0yYcOXKFVoYERHRoEEDf39/Ni9CSFZWVufOnb/44gtBQ5WXI0aMqIyEZSi8dOmSgYGBiYkJf2YGzRTIEyCEZGRkeHl5Kfe5Zs2aSm0dHBysXFWdm67cqj6WyOXyyZMne3l5TZ8+3c7OjlfM1ZnO119/bWNj48B9zMzMEhISqtMWfeoggc2bN0dERNBUTevXr6/8Ybl9+3Ya58mTJ0eNGpWdnf3w4cOQkBCRSPTxxx/jPu/Xu4mowF6PG7b64Ajcu3cPAAYNGsTPXC6Xe3l5AQBdc1q3bl1qaip1ECgwQsj8+fNpajpvb28AuHDhAt+Vsn39+nX+/HhegRFCjh49SjMAJyUlAQB/Pn1RURE9DYL1uX379sofrN999x0rYUaPHj2YrcZIT0+nP4WZz+3btwGgffv2rIQQYmRkZGxszJcQQq5du3b//n1CSHZ2toGBQZcuXZRXWZKSkiQSiaChyssxY8ZURsJ/u/v4+FRGwi/IUVG1bt06QQ/02Fm+UKFQ2Nrampubm5qaKivR6tx0vrf6a4eGhi5btozGf//+fWtra+V7pGZ2q1atysnJ4R28vLyys7P5ErTrEQH6644GXFFRoa2tvWHDBnoZGBjIkl8SQnx9fQGA/btXj+ZYF0JFBVYX7gLGUA8IqPwypsmEdXV1jY2Ni4qK+N1OygqM1VZTgSkUCv5bUKDAWK2yAisrK9PR0bG0tGRY1Siwvn37Mjc1hrICo0DatGnDt1JWYOnp6fn5+dTnyy+/BIAdO3bwTZh99OhRZqsxlBUYPa9248aNrJVKBXbx4kXmwIyYmJj58+f/+OOPKgOrzk1nXdVro0+fPvwmwlmzZrETe19jXqWlpZ999tlrNMQmdZBAdnZ2kyZNHjx4QGNLSUnhg9y4cSMACAp5B7TVEEAFpgYOViGB/yNQ1ZcxIWTYsGEAcPr06f/zfvFkjX9sx1dVU4HxTQghAgXGapUV2PLly/nDWwkhNaHAlixZAgDTpk1jkahcAwsMDExPT6c+bdq0AYDMzEy+yavaAgX24MEDU1NTAwMDthWsMgxlBfb48WN/f3/lsdzc3LKysp4+faqnp2dtbS1weNWbLmheXy4LCwtdXFz4aKOjo5cuXcpKwsLC/Pz85syZQ38SxMbG+vn5+fv7P3r0iPnwxuHDh4OCgvgStOspgZKSEg8Pj/j4+KriX7p0qZmZGf9bsSpPLFcmgApMmQmWIAEVBNR8GQcEBAAAO6OdNlZeA2Od1oQCMzU19fT0dHd3t7S0NDEx2bt3LxvuLSowa2vr6Ojo8PDwoUOHGhgYTJ8+nd/ORRWYtrb2sBcfV1dX+gYAVWB5eXn0VQa2FkgjvHHjRmho6KoXn7Vr17IFMz5+3qYKbO3atfv27Zs/f37r1q179+4t2FRHFVjXrl1pJPb29s2aNRszZgzfDyEkPT3dw8ODFtKHKWfOnOF9XvWm823rkX3jxg22f5GGnZycPHHiRDaFe/fuWVlZRUVF0ZLCwkKxWPz7778zB4ExceJE3J0tYFIfL8PCwuhLLSYmJmwrp2Aiffr0UfMnQeCMlwICqMAEQPASCagmoObLODAwULAPie4ur801MHd39ydPnmRmZu7bt6979+6NGjX6+eef2Uze1hpY586dQ0JCdHR0jI2NVa5/GBkZNWvWrPTFRyqV3r1718HBgSqw+/fv07cplTft5uTk6Orq6ujoPHz4kMVclUEV2OzZs11cXADg22+/VfakCmz16tU0ksLCwv37948dO1bgOXPmTPbo8/LlywAg2Kr/qjdd0H99uUxKSpoxYwYfbVZWluDV1KdPn4rF4jNnzshkspEjR+7Zs4f35225XM6/sMJXoV3vCDx69GjSpEkA0L9/f+Xg9+3bJ/gro+yDJWoIoAJTAwerkMD/EVDzZUw34wvSWdXyGhi/E7+kpMTc3FxDQ4Ot6NA0GYsXL/6/+fzPUn709r+a/+f//D6wX375BQAcHR0Fq1kqn0IeOXLk7t27tC+ahoNd8gOYm5u3bNmSL6nKZk8hCwoKOnbsqKWl9c8//wiclZ9CEkL4jWKEkJKSkiZNmri7u3v876Orq6upqZmVlcV6e9WbzhrWL+Ola2B0Ovn5+U5OTmKxWP0WsTNnzgQGBtYvAhitegLjx4/X0NBgiWyo8927d0eOHClYBVffD9YKCKACEwDBSySgmkBVX8ZSqdTIyMjc3FwgR96hAmMvKLGXH0+dOgUAAQEBynOzsbFRLlQu4RVYZWaHsWPHAoBg4USlAqNdlZaWyuVyZ2fnyjRdO3fuVO7fwsKiVatWyuXKJUyB0bcsGzZs2LRp04yMDN5TpQKjDvR1VELIr7/+GhwcnM99QkNDAYBXD6960/kY6pGtvA8sJiZGeSNXQUGBvb29jY3NoUOH1Mxu9uzZLFeIGjesqkcEDhw4oKmpyWeizs/P9/f3ryrFcT2a2rsNFRXYu+WPo9cbAlV9GQcEBIhEon///VcwE5qswcHBQVBOCHm9fWBmZmYsHxjfp/JOfELI0KFDAYC9QP7w4UORSKQczM2bN319ffneqrLT0tL4bBTPnz/v0aMHAGzevJlvovwuJK318vKSyWTXrl3T1tbu2LGjct6H6iuw0aNH89ko/vjjDwDo1q0b/wO9KgWWmJj4ww8/EEIUCkX37t0FD1KLi4sNX3xYV69603kU9cvu3bu34F3IAwcO8FPIy8sTi8UnT54sKSlxdXXdt28fX8vbAwYMwH3ZPJD3wD506JCVlRWbSElJyZQpU/Ly8ljJjRs3eH3GytFQTwAVmHo+WIsE/v8EUlNTBZshMjIyfH19KzdFKeedIoRcvXpV4M9Qurm5VaYWO3nyJCupjtG0aVMAKC0tFTjHxcUBwNChQ1l5ZGSklpaWhYUF/wt10qRJIpGIzwTx6NEjFxeXq1evsoZqjEuXLgHAp59+ynzS0tJoon/2rFMul+vo6DRu3Jj5EELKy8uXLFkyZMgQWrht2zYDA4OhQ4eyw4gqM6XJZLLmzZtXcw3M3d29MhL+yeOUKVMAQCKRsGXIoKAgAAgJCeEjSU1NtbCwSExMJITs2rXL3t6er6U2PSRg5cqV9PJVb7pyh/WlZM2aNSwfWE5OjpWVFa+icnNzxWIxy8FWWloqkUj4P0tsmjdu3OC38LNyNOoXgejoaLatQqFQDB8+nP7FoX9bhw4d+sMPP2z832fFihU+Pj71a4J1JFpUYHXkRmAYdZpAbGysq6srAGhqajo5Obm4uHh4eAwbNmzRokW3b99WDn3v3r2Ojo7Uf+HChUzlpKSkBAcH6+npUXHG1qiUe+BLEhISqMiozHw4atSomJgYVrt169aBAwcCgLa2tqOjo7Ozc48Xnzlz5uTm5jI3QkhxcXFAQICurq6tra2/v7+rq6tYLK5m6vPY2FgHBwcAqFyEW7x4MUsnsX///sq0F/r6+kuXLr1w4QLNjAoAn3zyiUQi8fDwEIvFzZo1E4ihO3fuDB8+3NLSUiKRLFiwYMKECf379/f29lbzxjudSF5eXnBwcMOGDQHAxsYmMjKSlstksn79+tGtaQkJCaGhoTTthbGxsYuLy4gRI+hbmRoaGkZGRhUVFX/99VeLFi1atmwpeIdr//799OVNfX390NDQV73pPO16Z1dUVEycONHb23vWrFk2Njbs25eeK9qhQwdzc3MfHx/6FkV0dLStra2mpmZ4eLhgpps3b+aTeQpq8bK+EOjTp4+GhsYXX3zx008/BQcH87n06LZXeiQR+y9/DFp9mWNdiBMVWF24CxgDEqglAjKZLDU19fLly8prabUUATfM/fv3z58/r3wgI+eCZq0SyMnJuXjxIltKrNWxcbC6REAul6elpSUlJeFG+xq9LajAahQvdo4EXkIgKipqXBUfwbt7L+nozapTUlKqiGIcvzP9zQapVus6AqRasaITEkACSOANCKACewN42BQJvDGB9PT0I1V8ajOnZV5eXhVRHFF+yeCNJ62ugzoCRF2IWIcEkAASeBsEUIG9DYrYBxJAAkgACSABJIAEXoUAKrBXoYW+SAAJIAEkgASQABJ4GwRQgb0NitgHEkACSAAJIAEkgARehQAqsFehhb5IAAkgASSABJAAEngbBFCBvQ2K2AcSQAJIAAkgASSABF6FACqwV6GFvkgACSABJIAEkAASeBsEUIG9DYrYBxJAAkgACSABJIAEXoUAGOEHCSABJIAEkAASQAJIoCYJsIPUmEjDNTCGAg0kgASQABJAAkgACdQSAVRgtQQah0ECSAAJIAEkgASQACOACoyhQAMJIAEkgASQABJAArVEABVYLYHGYZAAEkACSAAJIAEkwAigAmMo0EACSAAJIAEkgASQQC0RQAVWS6BxGCSABJAAEkACSAAJMAKowBgKNJAAEkACSAAJIAEkUEsEUIHVEmgcBgkgASSABJAAEkACjAAqMIYCDSSABJAAEkACSAAJ1BIBVGC1BBqHQQJIAAkgASSABJAAI4AKjKFAAwkggf+vvbsNiqp6/AB+CIFCSAonfFHiCPnCcZKH1NAMXBEJHNFR6SLIorIguMAqSjpRfx1xdHwCw5Jw0BTCZ0EhIEuFXMknFIon08AaWAURASFhhT1/xzNzuu7iCvlTgv3eV+eee+7D+dwVv3Pu3bMQgAAEIACBlySABPaSoHEaCEAAAv9xgfr6+pKSkq6urv/4deLyIDAwBJDABsZ9RC8gAAEI/HuBrq6usLCwefPmRUVFTZo0qby8vOfHqqmp+am7paKioucHQUsIGKAAEpgB3nR0GQIQgMATAtu3b9+wYQOrqq2tHTduXM9HwgoKCmQymaura5xoiYqKWrJkyRPnwAoEIPCkABLYkx5YgwAEIGB4Ak5OTq2trbzf0dHRWVlZfPWZBaVSGRsbK25WWVmJBCYGQRkCugJIYLomqIEABCBgQAItLS2enp7iDufk5MTFxVEZz4wAABKsSURBVPGaxMTE4ODgmJgYNjB28uTJ4ODgkJCQuro61kY3gTU3Nx8+fJgfAQUIQEBXAAlM1wQ1EIAABAxIoKysTGu8qqKiQiaTcYKamhpnZ+fMzExW09LSIpFIdu/ezRuIE9jSpUt5PQoQgIAeASQwPTjYBAEIQGDgCxQXFysUCnE/b968GRQUJK65e/euRCI5d+5cR0eHr6+v1viWUqm0t7ef8Xixs7MT74gyBCDwNAEksKfJoB4C/whcuXJllmi5cePGP9tQgkA/F3jmGBjrX1NTk4eHh0Qi0X1FTKlUxsTEtD5epkyZ0s89DP3y1Wq16K/dLD72aeguL6D/SGAvABWHHHACVVVVG0XLrVu3BlwX0SHDFdB9Dyw3N3fdunVaIs3NzVOnTnVxccnOztbaJH4Kyf91VFdXazXDar8Q6OzsFP2123jhwoV+cdn98SKRwPrjXcM1QwACEPhfCjg6Omp9F/LEiRPiEzQ2Nkokkvz8/La2Ni8vr6NHj4q3ihMYr8dgGKdAAQLdCiCBdcuCSghAAAIGJJCQkMDnA1OpVM7OzuL5wBoaGiQSyfnz55lIe3u7j49Peno6B+o2gbm5ufEGKEAAAroCSGC6JqiBAAQgYFgCnZ2dMplMEITo6GgXF5fS0lLe/4aGBjs7uxEjRkilUo1GQynNycmZOHGisbHxrl27KKXp6emOjo62trZuTy7W1tb8IChAAAK6AkhguiaogQAEIGCIAiqVqqioqLOz0xA7jz5D4KULIIG9dHKcEAIQgAAEIAABgxdAAjP4jwAAIAABCEAAAhB46QJIYC+dHCeEAAQgAAEIQMDgBfQlsP379wcGBgqCsG3bttra2rq6um3btgmCoDtPTFdX16JFiwRB2Llzp1qtLi0tVSgUgiDIZLLQ0ND169dfunSJUV+9ejUiIkIQhJiYGPHLnmxrdnY2O2N4eLhCoYiIiFiwYEFwcDDb+tNPP4WGhgqCUFFRoXXjsrKyBEGIjIy8evWqWq3++uuvBUHw8/OLiopSKBTh4eF+fn7btm2jlKrV6vj4eEEQtm7dyg/y119/rVmzhl3/w4cPt27dKgjC/PnzFyxYIAhCYGCgn5+fIAh79uzhu1BK169ff//+fV6Tm5srPF6kUqkgCAEBAf7+/oIgrFy5klJ67do1dorQ0NC8vDy+V1tb2/r161esWLFq1aply5adOnWKbyoqKgoNDfXz87t58yavzMzMXLBgQURERHFxMa9khbKyspiYGEEQpFKpXC5fu3Ztenp6fX09b6ZfRqVSsSuUSqUKhSIqKiokJEQQhLy8PK1PQm1t7erVqwVByM3N5Qe/dOmSXC4PDAz8/vvvKaV6bqVGo9mzZw8jDQ8PX7Zs2Y4dO86ePcsPhQIEIAABCEBgwAvoS2CUUqlUamlpyV/M7OzstLS0NDY2rqqqEtMcO3bMzMxM/GMUBw4cIISw4PXjjz++8cYbq1evZrvs27ePEPLzzz+Lj8DLixYtGjx4MF9tbW2dMWMGX920aRMhZOHChbyGFcaPH08ISU1N5fUjR4709vbmq9XV1XwvjUbj5uZGCDlw4ABvUFNTM3bsWLY6e/bs/Px8jUaTnZ1NCCkuLu7q6srIyBD/dFpLS4ulpWViYiI/wqZNmzZv3qxWq1tbWwkhCQkJlNKKigpXV1fWprq6mhCyadMmvsuNGzfefffdb775htXU1dU5Ojp++umnvMGZM2cIIU5OTg8ePOCVwcHBGRkZfFVcyMvLI4SwYNTY2Lh169Zhw4bt2LGDfYOJtdQj8yiJEkK2bNnCj3n8+HHWEa1PQlNT0+uvvz5kyJBr167xxmlpaVFRUXxV/6384IMPJkyYQCnt7OwsLCx0dXWdPn369evX+e4oQAACEIAABAawwDMSmFwuHzZsmLj/np6e5ubmERER4so5c+bMmDHDwcGBV/LswmpWrFhhZGR09+5dSmlmZiaLNbyxuKBQKKysrMQ1JSUlfDUpKWnSpEmmpqYqlYpXnjp1avHixYQQ8Y8nODg4zJo1i7ehlIqP4+/v7+npOXjw4F9//ZW38fX1ZWU+1qXVi7179/LGiYmJH374ob29PZ81JzU1lUVVcQKjlPK9GhoaCCFJSUn8IBKJxN3dna9SSn/55RcjI6OcnBxWWVlZ6eHhMWjQoMDAQN4sLi5O3BdeTylVKpWEkPz8fF6Znp5uZGSUnJzMa/TINDU18ezI27Nz6X4Spk+f/vbbb48ePZoPBCqVyu3bt/Md9d9Kd3d38XRBra2tTk5OdnZ2f//9Nz8CChCAAAQgAIGBKtDrBBYQECCXywcPHsziFKW0qKho7dq1c+fO1ZPAYmNjzczM2traepvACgsL79y5w/WTkpIOHTpkamq6atUqXunv719YWKg/gR0/fpy3p5QGBAQ0Njba29vb2dk1NjayTQEBAeI27FFat2FRo9HMnz//2rVrRkZGWjNHU0q1Ehg/plYCu3TpEiFk9+7dvAErjBgxgkeTysrKuLi4xMREQsiXX37JGmzcuFH3AS7bpJvAHsUyd3f3oUOH8rNoJTCxjG4CO3bsGNtRN4EFBARcvHjx1VdfnTNnDmtz/vz5HTt28BNpJTCtW6mVwHh8FA8r8kOhAAEIQAACEBhgAv8mgVVVVRkbG8fFxTELmUxWX1+vJ4H98ccf77zzDn8+9cwxMHNz87THS3JysrOzc01NDUdPSkpSKpULFy60srJiQy/Xr19fuXJlaWmpbgJzdnZOS0tLTU2Nj493cXHhB2EJjFJaWlpqYWHx8ccfs3GsniewkydPpqSkUEo9PDx0f3mjhwksJSWFEFJQUCC+MErptGnT3nrrLVbJEhilNCgoyMTEhD267W0Ci42NJYTwl8kcHByeJsMSWEBAQFpa2r59++RyOb/L3SYwSum3335LCGGzaesmMD23UjeBPXjwYNCgQUFBQVogWIUABCAAAQgMPIF/k8Aopb6+vjY2Nu3t7SqVSi6XP0oz3SYwQRAWL148b9488UjPMxOYhYWF8vFy6tQpb29v3QRWVlZmZGQUHx9PKVUoFH/++We3CWzy5MlKpfLs2bNZWVnTp08X3zweto4cOWJkZBQbG8tjmbiZ1lNIvkkqlbKHZSdOnNAdJOthAouPj+evyvEjU0pnzZplZmbG3tziCay9vX38+PE2NjY1NTW9TWBsCI1/fcHBweFpMiyBRUZGKpXKgoKCzZs3PzOBUUojIyNfeeWVvLw83QSm51bqJjBKqbW19SeffCLWeDnl/8MCAQhAAAIQeJECur9V/y8T2MWLFwkhycnJn3/+eXl5+dMSmO739Xr7FLKkpIQ/JaSUsjEwSqmXl9fw4cPv3LnDvinZbQITvwd25swZ8f/lPIE9ehM8NjbWyMgoIyNDXMkad5vAqqqq3nvvvSWPF5lMZm5urjVs08MExt6a379/v/jCKKV2dnaOjo6skicwSmlNTY2Njc2ECRMePfPt1VPIRYsWmZub8/fVtJ5CimV0n0Ly72Y+bQyMUvrw4UM3N7c333wzPT1dz1NIrVupm8DY9wA2btyoBfISVs9ggQAEIAABCLxIgXv37mn9d9brBObv788O4erqOmrUKKlUyla7HQPreQIrLCxkx9F6eYhV8q07d+5k0xawLwlOnDjx4sWL7Hmi7lNIcQJjr2fxF9h5LyilXV1d3t7elpaWuqMv3Saw6OjoyspKdmGU0i+++MLMzOz27du8pocJ7P79+zY2NitWrOA7Ukqbm5uNjIzWrFnDKisqKsRzf5w9e9bExMTKyqrnCaypqcnW1jY8PJyfRSuBiWV0ExjfSzeBiQ3r6+uHDx9uZWWlJ4GxQ/FbqZvAEhISLCwstL5myy8ABQhAAAIQgMBAEnhGAluyZIn4JW72lhLrP0snfIzEx8dnzJgxnIY9arx8+TKv4YUjR44QQq5cucJrKioqwsLC2KpcLh8yZAjfRCk9fPgwm8qLUrplyxY+mdb7778/efJk1vLq1auEkCNHjvAdx4wZ4+Pjw1cppXK5nJ90xowZ4vkdmpqaRo0aNXfuXHF7SmlGRgYhpKioiNffvXtX64HmzZs3CSHsOSZrdu/ePUKIeL4xVn/79m1CiDijfPfdd0OHDhU/ZlUoFKNHj25vb2e7XL58WfydA0rpzp07CSFPS2D5+fmEED6s1dLS8tFHHzk7O7PvQLBj6pG5c+eO1mwUbBdKqZ5PAmtTVFT02muviXun/1a6ubnxeToopUePHjU3N9+3bx8/IwoQgAAEIACBASygL4EdOnTIzs6O/ZdcW1urUqk+++wzExOTr776qqOjQ6PR+Pn5MZrU1NShQ4eampru2rVLrVaXlZXNnDmTEBIYGPjbb7+J+YqLi728vB7NmODm5hYVFRUeHu7l5WVmZsbmaMjJyWFnDAoKWr58eXh4uLu7u7GxMZszIicnZ/To0dOmTWNB6uDBg2xarMrKSqlU+uidKm9v75KSErVanZycbGpqam1tHRYWtnz58pCQkLFjx1pbW2s0GrbV0tIyMjKytraWX1t5eTmfMIxVXrhwwdvbmxAilUrZYF5dXd3MmTPHjBnDJ5illB46dMjExMTCwuLgwYOPZlCrrq5euXIlIWT8+PE//PADP/7vv/8eHR1NCHFxcRHXnz59eurUqRs2bEhJSVm4cGFoaGhLSwvbq7i4ePbs2ba2tllZWfw4jx5HBgcHd5vAysvL/fz8mK1cLo+Kinq0+549e/jzR/0yKpVqxYoVj6YTmzBhgtb3A/R/Evi1paWl8QSm51ZqNJq9e/cOGTLEwsIiPDw8IiIiKCgoJCQEo19cEgUIQAACEBjwAvoS2IDvvFYH+bxWWvUvYbWxsfHGjRvieVP1nFStVnd0dOhp0Ieb+tCwD3uNU0MAAhCAAAR6K4AE1lsxtIcABCAAAQhAAALPK4AE9ryC2B8CEIAABCAAAQj0VgAJrLdiaA8BCEAAAhCAAASeVwAJ7HkFsT8EIAABCEAAAhDorQASWG/F0B4CEIAABCAAAQg8rwAS2PMKYn8IQAACA0Ogvr6+pKSEz18zMDqFXkDgPyuABPafvTW4MAhAAAIvSaCrqyssLGzevHlRUVGTJk1ivzXXw3PX1NT81N3C5+vu4XHQDAKGJoAEZmh3HP2FAAQgoC2wffv2DRs2sNra2tpx48b1fCSsoKBAJpO5urrGPbmMHDlS+zRYhwAERAJIYCIMFCEAAQgYpICTk1NrayvvenR0tNZPcfBN3RaUSqX4l9lYGzc3t24boxICEGACSGD4JEAAAhAwaIGWlhZPT08xQU5OTlxcHK9JTEwMDg6OiYlhA2MnT54MDg4OCQmpq6tjbbpNYCkpKfwIKEAAAroCSGC6JqiBAAQgYEACZWVlS5YsEXe4oqJCJpPxmpqaGmdn58zMTFbT0tIikUh2797NG4gT2NKlS3k9ChCAgB4BJDA9ONgEAQhAYOALFBcXKxQKcT9v3rwZFBQkrrl7965EIjl37lxHR4evr+/hw4fFW5VKpb29/YzHi52dnXgTyhCAwNMEkMCeJoN6CPwjcOXKlVmi5caNG/9sQwkC/VzgmWNgrH9NTU0eHh4SiUT3FTGlUhkTE9P6eJkyZUo/9zD0y1er1aK/drP42Kehu7yA/iOBvQBUHHLACVRVVW0ULbdu3RpwXUSHDFdA9z2w3NzcdevWaYk0NzdPnTrVxcUlOztba5P4KST+dWjh9LvVzs5O0V+7jRcuXOh3XegvF4wE1l/uFK4TAhCAwIsScHR01Pou5IkTJ8Qna2xslEgk+fn5bW1tXl5eR48eFW8VJzBxPcoQgIAeASQwPTjYBAEIQMAgBBISEvh8YCqVytnZWTwfWENDg0QiOX/+PLNob2/38fFJT0/nNEhgnAIFCPRcAAms51ZoCQEIQGBgCnR2dspkMkEQoqOjXVxcSktLeT8bGhrs7OxGjBghlUo1Gg2lNCcnZ+LEicbGxrt27aKUpqenOzo62trauj1eTp8+zfdFAQIQ0COABKYHB5sgAAEIGJCASqUqKirq7Ow0oD6jqxDoOwEksL6zx5khAAEIQAACEDBUASQwQ73z6DcEIAABCEAAAn0ngATWd/Y4MwQgAAEIQAAChiqABGaodx79hgAEIAABCECg7wSQwPrOHmeGAAQgAAEIQMBQBZDADPXOo98QgAAEIAABCPSdABJY39njzBCAAAQgAAEIGKoAEpih3nn0GwIQgAAEIACBvhNAAus7e5wZAhCAAAQgAAFDFSBWWCAAAQhAAAIQgAAEXqTAgQMHtKImxsC0QLAKAQhAAAIQgAAEXrgAEtgLJ8YJIAABCEAAAhCAgJYAEpgWCFYhAAEIQAACEIDACxdAAnvhxDgBBCAAAQhAAAIQ0BL4f+DzdwOg/ZiAAAAAAElFTkSuQmCC;" parent="1" vertex="1">
          <mxGeometry x="858" y="181.99999999999997" width="481" height="521.92" as="geometry" />
        </mxCell>
        <mxCell id="eBus7gOyLzaCZ1bikBOQ-8" value="" style="endArrow=classic;html=1;rounded=0;entryX=0.006;entryY=0.332;entryDx=0;entryDy=0;entryPerimeter=0;" parent="1" target="eBus7gOyLzaCZ1bikBOQ-3" edge="1">
          <mxGeometry width="50" height="50" relative="1" as="geometry">
            <mxPoint x="534" y="240" as="sourcePoint" />
            <mxPoint x="674" y="240" as="targetPoint" />
          </mxGeometry>
        </mxCell>
        <mxCell id="eBus7gOyLzaCZ1bikBOQ-9" value="tbu_req_en[i]&amp;amp;&amp;amp; !req_last" style="text;html=1;align=center;verticalAlign=middle;whiteSpace=wrap;rounded=0;" parent="1" vertex="1">
          <mxGeometry x="547" y="208" width="124" height="30" as="geometry" />
        </mxCell>
        <mxCell id="eBus7gOyLzaCZ1bikBOQ-10" value="" style="endArrow=classic;html=1;rounded=0;" parent="1" edge="1">
          <mxGeometry width="50" height="50" relative="1" as="geometry">
            <mxPoint x="677" y="260" as="sourcePoint" />
            <mxPoint x="533" y="260" as="targetPoint" />
            <Array as="points">
              <mxPoint x="660" y="260" />
            </Array>
          </mxGeometry>
        </mxCell>
        <mxCell id="eBus7gOyLzaCZ1bikBOQ-11" value="tbu_req_en[i]&amp;amp;&amp;amp;req_last&lt;span style=&quot;background-color: transparent; color: light-dark(rgb(0, 0, 0), rgb(255, 255, 255));&quot;&gt;&amp;amp;&amp;amp;&lt;/span&gt;&lt;div&gt;&lt;span style=&quot;background-color: transparent; color: light-dark(rgb(0, 0, 0), rgb(255, 255, 255));&quot;&gt;!tbu_reset[i]&lt;/span&gt;&lt;/div&gt;" style="text;html=1;align=center;verticalAlign=middle;whiteSpace=wrap;rounded=0;" parent="1" vertex="1">
          <mxGeometry x="511" y="266" width="201" height="30" as="geometry" />
        </mxCell>
        <mxCell id="eBus7gOyLzaCZ1bikBOQ-12" value="" style="endArrow=classic;html=1;rounded=0;exitX=0.5;exitY=1;exitDx=0;exitDy=0;entryX=0.5;entryY=0;entryDx=0;entryDy=0;" parent="1" source="eBus7gOyLzaCZ1bikBOQ-2" target="eBus7gOyLzaCZ1bikBOQ-4" edge="1">
          <mxGeometry width="50" height="50" relative="1" as="geometry">
            <mxPoint x="460" y="360" as="sourcePoint" />
            <mxPoint x="474" y="377" as="targetPoint" />
          </mxGeometry>
        </mxCell>
        <mxCell id="eBus7gOyLzaCZ1bikBOQ-13" value="tbu_reset[i]" style="text;html=1;align=center;verticalAlign=middle;whiteSpace=wrap;rounded=0;" parent="1" vertex="1">
          <mxGeometry x="454" y="312" width="60" height="30" as="geometry" />
        </mxCell>
        <mxCell id="eBus7gOyLzaCZ1bikBOQ-16" value="&lt;font style=&quot;font-size: 12px;&quot;&gt;&lt;br&gt;&lt;span style=&quot;-webkit-font-smoothing: antialiased; box-sizing: border-box; -webkit-tap-highlight-color: rgba(0, 0, 0, 0); outline: none; border: 0px solid; margin: 0px; padding: 0px; line-height: 28px; overflow-anchor: auto; font-family: Inter, -apple-system, BlinkMacSystemFont, &amp;quot;Segoe UI&amp;quot;, &amp;quot;SF Pro SC&amp;quot;, &amp;quot;SF Pro Display&amp;quot;, &amp;quot;SF Pro Icons&amp;quot;, &amp;quot;PingFang SC&amp;quot;, &amp;quot;Hiragino Sans GB&amp;quot;, &amp;quot;Microsoft YaHei&amp;quot;, &amp;quot;Helvetica Neue&amp;quot;, Helvetica, Arial, sans-serif; font-style: normal; font-variant-ligatures: normal; font-variant-caps: normal; letter-spacing: normal; orphans: 2; text-align: start; text-indent: 0px; text-transform: none; widows: 2; word-spacing: 0px; -webkit-text-stroke-width: 0px; white-space: normal; background-color: rgb(249, 250, 251); text-decoration-thickness: initial; text-decoration-style: initial; text-decoration-color: initial; color: rgb(0, 0, 0);&quot;&gt;DTI_TBU_CONDIS_ACK.STATE=0&lt;/span&gt;&lt;/font&gt;&lt;div&gt;&lt;br&gt;&lt;/div&gt;" style="text;html=1;align=center;verticalAlign=middle;whiteSpace=wrap;rounded=0;" parent="1" vertex="1">
          <mxGeometry x="151" y="305" width="192" height="30" as="geometry" />
        </mxCell>
        <mxCell id="eBus7gOyLzaCZ1bikBOQ-17" value="ENTRY_STATE" style="text;html=1;align=center;verticalAlign=middle;whiteSpace=wrap;rounded=0;" parent="1" vertex="1">
          <mxGeometry x="372.5" y="43" width="223" height="30" as="geometry" />
        </mxCell>
        <mxCell id="eBus7gOyLzaCZ1bikBOQ-18" value="&lt;div style=&quot;text-align: justify;&quot;&gt;&lt;span style=&quot;background-color: transparent; color: light-dark(rgb(0, 0, 0), rgb(255, 255, 255));&quot;&gt;IDLE：&amp;nbsp; &amp;nbsp; &amp;nbsp; &amp;nbsp; &amp;nbsp; &amp;nbsp; &amp;nbsp; &amp;nbsp; &amp;nbsp; &amp;nbsp;tbu_idle==1, TBU未连接&lt;/span&gt;&lt;/div&gt;&lt;div style=&quot;text-align: justify;&quot;&gt;&lt;span style=&quot;background-color: transparent; color: light-dark(rgb(0, 0, 0), rgb(255, 255, 255));&quot;&gt;WAIT_CONNECT: 等待下游回复链接&lt;/span&gt;&lt;/div&gt;&lt;div style=&quot;text-align: justify;&quot;&gt;CONNECTED:&amp;nbsp; &amp;nbsp; &amp;nbsp; &amp;nbsp;tbu_idle==0,&amp;nbsp;&lt;span style=&quot;background-color: transparent; color: light-dark(rgb(0, 0, 0), rgb(255, 255, 255));&quot;&gt;TBU已连接&lt;/span&gt;&lt;/div&gt;&lt;div style=&quot;text-align: justify;&quot;&gt;TRANSACTION:&amp;nbsp; &amp;nbsp;&lt;span style=&quot;background-color: transparent; color: light-dark(rgb(0, 0, 0), rgb(255, 255, 255));&quot;&gt;&amp;nbsp;TBU transaction未完成&lt;/span&gt;&lt;/div&gt;&lt;div style=&quot;text-align: justify;&quot;&gt;&lt;span style=&quot;background-color: transparent; color: light-dark(rgb(0, 0, 0), rgb(255, 255, 255));&quot;&gt;DISCONNECTED: disconnected_gen&lt;/span&gt;&lt;/div&gt;" style="text;html=1;align=center;verticalAlign=middle;whiteSpace=wrap;rounded=0;" parent="1" vertex="1">
          <mxGeometry x="293" y="497" width="295" height="77" as="geometry" />
        </mxCell>
        <mxCell id="eBus7gOyLzaCZ1bikBOQ-32" value="" style="shape=table;startSize=0;container=1;collapsible=0;childLayout=tableLayout;" parent="1" vertex="1">
          <mxGeometry x="326" y="600" width="222" height="120" as="geometry" />
        </mxCell>
        <mxCell id="eBus7gOyLzaCZ1bikBOQ-33" value="" style="shape=tableRow;horizontal=0;startSize=0;swimlaneHead=0;swimlaneBody=0;strokeColor=inherit;top=0;left=0;bottom=0;right=0;collapsible=0;dropTarget=0;fillColor=none;points=[[0,0.5],[1,0.5]];portConstraint=eastwest;" parent="eBus7gOyLzaCZ1bikBOQ-32" vertex="1">
          <mxGeometry width="222" height="40" as="geometry" />
        </mxCell>
        <mxCell id="eBus7gOyLzaCZ1bikBOQ-34" value="TBU0_STATE" style="shape=partialRectangle;html=1;whiteSpace=wrap;connectable=0;strokeColor=inherit;overflow=hidden;fillColor=none;top=0;left=0;bottom=0;right=0;pointerEvents=1;" parent="eBus7gOyLzaCZ1bikBOQ-33" vertex="1">
          <mxGeometry width="222" height="40" as="geometry">
            <mxRectangle width="222" height="40" as="alternateBounds" />
          </mxGeometry>
        </mxCell>
        <mxCell id="eBus7gOyLzaCZ1bikBOQ-35" value="" style="shape=tableRow;horizontal=0;startSize=0;swimlaneHead=0;swimlaneBody=0;strokeColor=inherit;top=0;left=0;bottom=0;right=0;collapsible=0;dropTarget=0;fillColor=none;points=[[0,0.5],[1,0.5]];portConstraint=eastwest;" parent="eBus7gOyLzaCZ1bikBOQ-32" vertex="1">
          <mxGeometry y="40" width="222" height="40" as="geometry" />
        </mxCell>
        <mxCell id="eBus7gOyLzaCZ1bikBOQ-36" value="TBU1_STATE" style="shape=partialRectangle;html=1;whiteSpace=wrap;connectable=0;strokeColor=inherit;overflow=hidden;fillColor=none;top=0;left=0;bottom=0;right=0;pointerEvents=1;" parent="eBus7gOyLzaCZ1bikBOQ-35" vertex="1">
          <mxGeometry width="222" height="40" as="geometry">
            <mxRectangle width="222" height="40" as="alternateBounds" />
          </mxGeometry>
        </mxCell>
        <mxCell id="eBus7gOyLzaCZ1bikBOQ-37" value="" style="shape=tableRow;horizontal=0;startSize=0;swimlaneHead=0;swimlaneBody=0;strokeColor=inherit;top=0;left=0;bottom=0;right=0;collapsible=0;dropTarget=0;fillColor=none;points=[[0,0.5],[1,0.5]];portConstraint=eastwest;" parent="eBus7gOyLzaCZ1bikBOQ-32" vertex="1">
          <mxGeometry y="80" width="222" height="40" as="geometry" />
        </mxCell>
        <mxCell id="eBus7gOyLzaCZ1bikBOQ-38" value="..." style="shape=partialRectangle;html=1;whiteSpace=wrap;connectable=0;strokeColor=inherit;overflow=hidden;fillColor=none;top=0;left=0;bottom=0;right=0;pointerEvents=1;" parent="eBus7gOyLzaCZ1bikBOQ-37" vertex="1">
          <mxGeometry width="222" height="40" as="geometry">
            <mxRectangle width="222" height="40" as="alternateBounds" />
          </mxGeometry>
        </mxCell>
        <mxCell id="eBus7gOyLzaCZ1bikBOQ-41" value="reset拉高时，根据tbu_state依次disconnected" style="text;html=1;align=center;verticalAlign=middle;whiteSpace=wrap;rounded=0;" parent="1" vertex="1">
          <mxGeometry x="282" y="718" width="318" height="30" as="geometry" />
        </mxCell>
        <mxCell id="eBus7gOyLzaCZ1bikBOQ-50" value="" style="endArrow=classic;html=1;rounded=0;entryX=1;entryY=0.5;entryDx=0;entryDy=0;exitX=0.417;exitY=1.003;exitDx=0;exitDy=0;exitPerimeter=0;" parent="1" source="eBus7gOyLzaCZ1bikBOQ-3" target="eBus7gOyLzaCZ1bikBOQ-4" edge="1">
          <mxGeometry width="50" height="50" relative="1" as="geometry">
            <mxPoint x="810" y="634" as="sourcePoint" />
            <mxPoint x="614" y="509" as="targetPoint" />
          </mxGeometry>
        </mxCell>
        <mxCell id="eBus7gOyLzaCZ1bikBOQ-55" value="" style="endArrow=classic;html=1;rounded=0;" parent="1" edge="1">
          <mxGeometry width="50" height="50" relative="1" as="geometry">
            <mxPoint x="548" y="660" as="sourcePoint" />
            <mxPoint x="633" y="660" as="targetPoint" />
          </mxGeometry>
        </mxCell>
        <mxCell id="eBus7gOyLzaCZ1bikBOQ-56" value="tbu_reset[i]" style="text;html=1;align=center;verticalAlign=middle;whiteSpace=wrap;rounded=0;" parent="1" vertex="1">
          <mxGeometry x="557" y="635" width="60" height="30" as="geometry" />
        </mxCell>
        <mxCell id="eBus7gOyLzaCZ1bikBOQ-57" value="tbu_req_en[i]&amp;amp;&amp;amp;req_last&amp;amp;&amp;amp;tbu_reset[i]" style="text;html=1;align=center;verticalAlign=middle;whiteSpace=wrap;rounded=0;" parent="1" vertex="1">
          <mxGeometry x="547" y="324" width="250" height="30" as="geometry" />
        </mxCell>
        <mxCell id="EUMnTuvm1Q9IYbHoJ2Hz-1" value="WAIT_CONNECT" style="ellipse;whiteSpace=wrap;html=1;" vertex="1" parent="1">
          <mxGeometry x="90" y="218" width="120" height="61" as="geometry" />
        </mxCell>
        <mxCell id="EUMnTuvm1Q9IYbHoJ2Hz-4" value="" style="endArrow=classic;html=1;rounded=0;exitX=0.708;exitY=1.041;exitDx=0;exitDy=0;exitPerimeter=0;" edge="1" parent="1">
          <mxGeometry width="50" height="50" relative="1" as="geometry">
            <mxPoint x="156.00000000000003" y="280.001" as="sourcePoint" />
            <mxPoint x="156" y="381" as="targetPoint" />
          </mxGeometry>
        </mxCell>
        <mxCell id="EUMnTuvm1Q9IYbHoJ2Hz-5" value="&lt;span style=&quot;-webkit-font-smoothing: antialiased; box-sizing: border-box; -webkit-tap-highlight-color: rgba(0, 0, 0, 0); outline: none; border: 0px solid; margin: 0px; padding: 0px; line-height: 28px; overflow-anchor: auto; font-family: Inter, -apple-system, BlinkMacSystemFont, &amp;quot;Segoe UI&amp;quot;, &amp;quot;SF Pro SC&amp;quot;, &amp;quot;SF Pro Display&amp;quot;, &amp;quot;SF Pro Icons&amp;quot;, &amp;quot;PingFang SC&amp;quot;, &amp;quot;Hiragino Sans GB&amp;quot;, &amp;quot;Microsoft YaHei&amp;quot;, &amp;quot;Helvetica Neue&amp;quot;, Helvetica, Arial, sans-serif; text-align: start; background-color: rgb(249, 250, 251); color: rgb(0, 0, 0);&quot;&gt;DTI_TBU_CONDIS_REQ.STATE=1&lt;/span&gt;&lt;div&gt;&lt;br&gt;&lt;/div&gt;" style="text;html=1;align=center;verticalAlign=middle;whiteSpace=wrap;rounded=0;" vertex="1" parent="1">
          <mxGeometry x="-39" y="309" width="187" height="38" as="geometry" />
        </mxCell>
        <mxCell id="EUMnTuvm1Q9IYbHoJ2Hz-9" value="&lt;span style=&quot;-webkit-font-smoothing: antialiased; box-sizing: border-box; -webkit-tap-highlight-color: rgba(0, 0, 0, 0); outline: none; border: 0px solid; margin: 0px; padding: 0px; line-height: 28px; overflow-anchor: auto; font-family: Inter, -apple-system, BlinkMacSystemFont, &amp;quot;Segoe UI&amp;quot;, &amp;quot;SF Pro SC&amp;quot;, &amp;quot;SF Pro Display&amp;quot;, &amp;quot;SF Pro Icons&amp;quot;, &amp;quot;PingFang SC&amp;quot;, &amp;quot;Hiragino Sans GB&amp;quot;, &amp;quot;Microsoft YaHei&amp;quot;, &amp;quot;Helvetica Neue&amp;quot;, Helvetica, Arial, sans-serif; text-align: start; background-color: rgb(249, 250, 251); color: rgb(0, 0, 0);&quot;&gt;DTI_TBU_CONDIS_ACK.STATE=0&lt;/span&gt;&lt;div&gt;&lt;br&gt;&lt;/div&gt;" style="text;html=1;align=center;verticalAlign=middle;whiteSpace=wrap;rounded=0;" vertex="1" parent="1">
          <mxGeometry x="257" y="382" width="187" height="31" as="geometry" />
        </mxCell>
        <mxCell id="EUMnTuvm1Q9IYbHoJ2Hz-10" value="" style="endArrow=classic;html=1;rounded=0;exitX=0;exitY=0.5;exitDx=0;exitDy=0;entryX=1;entryY=0.5;entryDx=0;entryDy=0;" edge="1" parent="1" source="eBus7gOyLzaCZ1bikBOQ-4" target="eBus7gOyLzaCZ1bikBOQ-1">
          <mxGeometry width="50" height="50" relative="1" as="geometry">
            <mxPoint x="440" y="440" as="sourcePoint" />
            <mxPoint x="490" y="390" as="targetPoint" />
          </mxGeometry>
        </mxCell>
        <mxCell id="EUMnTuvm1Q9IYbHoJ2Hz-11" value="" style="endArrow=classic;html=1;rounded=0;entryX=0.242;entryY=0.967;entryDx=0;entryDy=0;entryPerimeter=0;" edge="1" parent="1">
          <mxGeometry width="50" height="50" relative="1" as="geometry">
            <mxPoint x="129" y="377" as="sourcePoint" />
            <mxPoint x="129.07999999999996" y="277.99700000000007" as="targetPoint" />
          </mxGeometry>
        </mxCell>
      </root>
    </mxGraphModel>
  </diagram>
</mxfile>
